<svg width="400" height="400" xmlns="http://www.w3.org/2000/svg">
 <metadata id="metadata8">image/svg+xml</metadata>
 <defs>
  <clipPath clipPathUnits="userSpaceOnUse" id="clipPath28">
   <path d="m0,595.28l841.89,0l0,-595.28l-841.89,0l0,595.28z" id="path26"/>
  </clipPath>
 </defs>
 <g>
  <title>background</title>
  <rect fill="none" id="canvas_background" height="402" width="402" y="-1" x="-1"/>
 </g>
 <g>
  <title>Layer 1</title>
  <g transform="matrix(3.6745443405627762,0,0,-3.6745443405627762,-325.1453788286349,1854.0025292114278) " id="g22">
   <g id="g90">
    <path fill="#ffffff" fill-rule="nonzero" d="m113.227539,463.31871l-3.371,0c-0.268,0 -0.505,0.172 -0.587,0.427l-1.042,3.205c-0.185,0.57 -0.99,0.57 -1.175,0l-1.042,-3.205c-0.083,-0.255 -0.32,-0.427 -0.588,-0.427l-3.37,0c-0.598,0 -0.847,-0.766 -0.363,-1.118l2.726,-1.981c0.217,-0.158 0.308,-0.437 0.225,-0.691l-1.042,-3.206c-0.184,-0.569 0.467,-1.043 0.951,-0.691l2.728,1.981c0.216,0.158 0.51,0.158 0.725,0l2.728,-1.981c0.484,-0.352 1.136,0.122 0.95,0.691l-1.041,3.206c-0.083,0.254 0.008,0.533 0.225,0.691l2.726,1.981c0.485,0.352 0.236,1.118 -0.363,1.118" id="path92"/>
   </g>
   <g id="g94">
    <path fill="#ffffff" fill-rule="nonzero" d="m125.641663,482.688812l-3.371,0c-0.268,0 -0.505,0.172 -0.588,0.427l-1.042,3.205c-0.185,0.57 -0.99,0.57 -1.175,0l-1.042,-3.205c-0.082,-0.255 -0.319,-0.427 -0.587,-0.427l-3.371,0c-0.598,0 -0.847,-0.766 -0.363,-1.118l2.727,-1.981c0.216,-0.158 0.307,-0.437 0.224,-0.691l-1.041,-3.206c-0.185,-0.569 0.466,-1.043 0.95,-0.691l2.728,1.982c0.217,0.157 0.51,0.157 0.726,0l2.727,-1.982c0.484,-0.352 1.136,0.122 0.951,0.691l-1.042,3.206c-0.083,0.254 0.008,0.533 0.225,0.691l2.726,1.981c0.485,0.352 0.236,1.118 -0.362,1.118" id="path96"/>
   </g>
   <g id="g98">
    <path fill="#ffffff" fill-rule="nonzero" d="m145.004822,491.918304c0.484,0.352 0.235,1.118 -0.362,1.118l-3.371,0c-0.268,0 -0.505,0.172 -0.588,0.426l-1.041,3.206c-0.186,0.569 -0.992,0.569 -1.176,0l-1.042,-3.206c-0.082,-0.254 -0.319,-0.426 -0.587,-0.426l-3.371,0c-0.599,0 -0.848,-0.766 -0.363,-1.118l2.727,-1.981c0.216,-0.158 0.307,-0.437 0.224,-0.691l-1.041,-3.206c-0.186,-0.569 0.467,-1.043 0.95,-0.691l2.728,1.982c0.216,0.157 0.509,0.157 0.726,0l2.727,-1.982c0.484,-0.352 1.135,0.122 0.951,0.691l-1.042,3.206c-0.083,0.254 0.008,0.533 0.224,0.691l2.727,1.981z" id="path100"/>
   </g>
   <g id="g102">
    <path fill="#ffffff" fill-rule="nonzero" d="m175.769531,447.620407l-4.38,-4.296l-8.074,-8.076c-0.404,-0.361 -1.064,-0.792 -1.897,-0.792c-0.687,0 -1.329,0.259 -1.739,0.721c-0.997,1.054 -0.971,2.687 0.057,3.714l12.481,12.399c0.48,0.48 1.107,0.745 1.765,0.745c0.687,0 1.329,-0.261 1.763,-0.745c0.516,-0.516 0.795,-1.196 0.786,-1.915c-0.01,-0.677 -0.28,-1.3 -0.762,-1.755m-21.973,-5.458c-0.687,0 -1.329,0.259 -1.739,0.719c-0.491,0.519 -0.754,1.223 -0.725,1.931c0.03,0.677 0.321,1.295 0.869,1.788l12.48,12.396c0.479,0.478 1.105,0.743 1.763,0.743c0.688,0 1.329,-0.259 1.763,-0.744c0.516,-0.516 0.795,-1.196 0.786,-1.915c-0.01,-0.677 -0.281,-1.301 -0.781,-1.773l-12.516,-12.353c-0.407,-0.361 -1.068,-0.792 -1.9,-0.792m3.261,24.538c0.983,0.982 2.68,0.949 3.528,0.001c1,-0.999 1.015,-2.644 0.089,-3.691l-6.112,-6.038l-3.624,3.683l6.119,6.045zm-10.117,-2.021l-3.627,3.687l6.124,6.124c0.982,0.983 2.679,0.949 3.526,0c1.037,-1.036 1.064,-2.742 0.089,-3.773l-6.112,-6.038zm27.725,-6.96c-0.125,1.999 -0.937,3.866 -2.364,5.371c-1.429,1.429 -3.279,2.276 -5.259,2.417c-0.128,1.949 -0.939,3.787 -2.362,5.288c-1.429,1.429 -3.277,2.276 -5.26,2.417c-0.129,1.95 -0.939,3.788 -2.362,5.289c-1.572,1.572 -3.652,2.438 -5.857,2.438c-2.173,0 -4.309,-0.889 -5.855,-2.435l-21.015,-20.765c-4.119,-4.025 -4.918,-10.335 -1.948,-15.348l9.801,-16.471l0,-22.496c1.852,-0.666 3.758,-1.215 5.706,-1.654l0,24.976c0,0.512 -0.168,1.069 -0.418,1.441l-10.223,17.175c-1.642,2.714 -1.203,6.144 1.082,8.357l10.721,10.721l11.242,-11.39l-0.763,-0.764c-0.925,-0.924 -2.115,-1.413 -3.44,-1.413c-1.316,0 -2.497,0.491 -3.354,1.413l-2.209,2.205c-0.488,0.557 -1.174,0.877 -1.932,0.902c-0.805,0.03 -1.566,-0.282 -2.075,-0.793c-0.557,-0.487 -0.876,-1.174 -0.901,-1.934c-0.027,-0.789 0.281,-1.566 0.844,-2.129l2.179,-2.261c1.864,-1.865 4.283,-2.95 6.863,-3.093c-0.127,-2.37 0.708,-4.648 2.35,-6.288c1.434,-1.434 3.29,-2.281 5.341,-2.419c0.129,-1.947 0.941,-3.785 2.364,-5.286c1.572,-1.572 3.652,-2.438 5.941,-2.438c2.205,0 4.286,0.866 5.853,2.432l4.477,4.415l0.001,-0.008c0.235,-0.938 -0.056,-1.929 -0.776,-2.648l-11.81,-11.728c-0.547,-0.546 -0.849,-1.259 -0.849,-2.006l0,-17.646c1.949,0.4 3.85,0.93 5.706,1.557l0,14.844l10.98,10.9c2.048,2.145 2.891,5.029 2.309,7.934l-0.782,3.557l3.228,3.23c3.253,3.253 3.291,8.508 0.084,11.716c-1.43,1.429 -3.279,2.275 -5.258,2.418" id="path104"/>
   </g>
  </g>
 </g>
</svg>