<svg width="400" height="400" xmlns="http://www.w3.org/2000/svg">
 <metadata id="metadata8">image/svg+xml</metadata>
 <defs>
  <clipPath clipPathUnits="userSpaceOnUse" id="clipPath28">
   <path d="m0,595.28l841.89,0l0,-595.28l-841.89,0l0,595.28z" id="path26"/>
  </clipPath>
 </defs>
 <g>
  <title>background</title>
  <rect fill="none" id="canvas_background" height="402" width="402" y="-1" x="-1"/>
 </g>
 <g>
  <title>Layer 1</title>
  <g transform="matrix(4.107263350573704,0,0,-4.107263350573704,-401.3512230511048,2071.7132232833446) " id="g22">
   <g id="g30"/>
   <g id="g102">
    <path fill="#ffffff" fill-rule="nonzero" d="m114.763611,462.583313l-3.229,0c-0.256,0 -0.484,0.165 -0.563,0.409l-0.998,3.071c-0.178,0.545 -0.949,0.545 -1.126,0l-0.998,-3.071c-0.079,-0.244 -0.307,-0.409 -0.563,-0.409l-3.229,0c-0.573,0 -0.812,-0.733 -0.348,-1.071l2.613,-1.898c0.207,-0.151 0.294,-0.418 0.214,-0.661l-0.998,-3.072c-0.176,-0.545 0.448,-0.999 0.912,-0.661l2.612,1.898c0.208,0.151 0.488,0.151 0.696,0l2.612,-1.898c0.464,-0.338 1.088,0.116 0.912,0.661l-0.998,3.072c-0.08,0.243 0.006,0.51 0.214,0.661l2.613,1.898c0.464,0.338 0.225,1.071 -0.348,1.071" id="path104"/>
   </g>
   <g id="g106">
    <path fill="#ffffff" fill-rule="nonzero" d="m126.655212,481.139908l-3.229,0c-0.256,0 -0.484,0.165 -0.563,0.409l-0.998,3.071c-0.177,0.545 -0.948,0.545 -1.126,0l-0.997,-3.071c-0.08,-0.244 -0.307,-0.409 -0.564,-0.409l-3.229,0c-0.573,0 -0.812,-0.734 -0.348,-1.071l2.613,-1.898c0.208,-0.151 0.295,-0.418 0.215,-0.661l-0.998,-3.072c-0.177,-0.545 0.447,-0.999 0.911,-0.662l2.613,1.899c0.207,0.15 0.488,0.15 0.695,0l2.612,-1.899c0.464,-0.337 1.088,0.117 0.912,0.662l-0.998,3.072c-0.08,0.243 0.007,0.51 0.214,0.661l2.614,1.898c0.463,0.337 0.225,1.071 -0.349,1.071" id="path108"/>
   </g>
   <g id="g110">
    <path fill="#ffffff" fill-rule="nonzero" d="m145.206055,489.981705c0.465,0.337 0.226,1.071 -0.348,1.071l-3.228,0c-0.257,0 -0.485,0.165 -0.564,0.409l-0.998,3.071c-0.176,0.545 -0.948,0.545 -1.126,0l-0.998,-3.071c-0.079,-0.244 -0.305,-0.409 -0.562,-0.409l-3.23,0c-0.573,0 -0.811,-0.734 -0.347,-1.071l2.612,-1.898c0.208,-0.151 0.295,-0.418 0.215,-0.662l-0.997,-3.071c-0.178,-0.545 0.446,-0.999 0.91,-0.662l2.612,1.898c0.208,0.151 0.489,0.151 0.696,0l2.613,-1.898c0.464,-0.337 1.088,0.117 0.911,0.662l-0.998,3.071c-0.079,0.244 0.008,0.511 0.215,0.662l2.612,1.898z" id="path112"/>
   </g>
   <path fill="#ffffff" fill-rule="nonzero" d="m183.182041,429.961408l-13.498,0l0,37.286l13.498,0l0,-37.286zm-19.271,0l-11.147,0l0,24.628c0,0.06 -0.017,0.117 -0.02,0.177l0,6.865l11.167,0l0,-31.67zm-16.035,-0.302l-0.02,0l-11.129,0l-0.019,0l0,13.144l0,10.909l11.148,0l0.02,0l0,-24.053zm-16.056,-0.117l-11.148,0l0,12.242l11.148,0l0,-12.242zm52.296,42.594l-15.367,0c-2.18,0 -3.953,-1.774 -3.953,-3.954l0,-1.663l-12.986,0c-2.18,0 -3.954,-1.773 -3.954,-3.953l0,-4.269l-12.084,0c-2.179,0 -3.952,-1.663 -3.952,-3.708l0,-8.336l-12.083,0c-2.179,0 -3.953,-1.621 -3.953,-3.613l0,-13.953c0,-1.993 1.774,-3.613 3.953,-3.613l13.037,0c0.536,0 1.045,0.1 1.512,0.277c0.459,-0.176 0.96,-0.277 1.486,-0.277l13.039,0c0.541,0 1.058,0.103 1.53,0.289c0.455,-0.183 0.949,-0.289 1.469,-0.289l13.036,0c0.714,0 1.374,0.204 1.952,0.536c0.578,-0.332 1.238,-0.536 1.951,-0.536l15.367,0c2.18,0 3.953,1.772 3.953,3.952l0,39.156c0,2.18 -1.773,3.954 -3.953,3.954" id="path114"/>
   <g id="g116">
    <path fill="#ffffff" fill-rule="nonzero" d="m136.726563,429.659012l11.13,0" id="path118"/>
   </g>
   <path fill="#ffffff" fill-rule="nonzero" d="m147.856041,429.659408l0.02,0l0,24.054l-0.02,0l0,-24.054z" id="path120"/>
   <g id="g122">
    <path fill="#ffffff" fill-rule="nonzero" d="m136.708069,442.803009l0,-13.144l0.019,0l0,12.981c0,0.056 -0.016,0.108 -0.019,0.163" id="path124"/>
   </g>
   <g id="g126">
    <path fill="#ffffff" fill-rule="nonzero" d="m186.785156,415.409012l-69.627,0c-0.966,0 -1.75,0.784 -1.75,1.75l0,2.008c0,0.967 0.784,1.75 1.75,1.75l69.627,0c0.967,0 1.75,-0.783 1.75,-1.75l0,-2.008c0,-0.966 -0.783,-1.75 -1.75,-1.75" id="path128"/>
   </g>
  </g>
 </g>
</svg>