<svg width="400" height="400" xmlns="http://www.w3.org/2000/svg">
 <metadata id="metadata8">image/svg+xml</metadata>
 <defs>
  <clipPath clipPathUnits="userSpaceOnUse" id="clipPath28">
   <path d="m0,595.28l841.89,0l0,-595.28l-841.89,0l0,595.28z" id="path26"/>
  </clipPath>
 </defs>
 <g>
  <title>background</title>
  <rect fill="none" id="canvas_background" height="402" width="402" y="-1" x="-1"/>
 </g>
 <g>
  <title>Layer 1</title>
  <g transform="matrix(4.198090656115037,0,0,-4.198090656115037,-430.7137698449279,2068.3320068000526) " id="g24" clip-path="url(#clipPath28)">
   <g id="g30"/>
   <g id="g78">
    <path fill="#ffffff" fill-rule="nonzero" d="m117.890533,457.008942l-3.035,0c-0.24,0 -0.454,0.155 -0.528,0.384l-0.939,2.887c-0.166,0.512 -0.892,0.512 -1.058,0l-0.938,-2.887c-0.074,-0.229 -0.287,-0.384 -0.528,-0.384l-3.036,0c-0.539,0 -0.762,-0.689 -0.327,-1.006l2.455,-1.784c0.196,-0.142 0.278,-0.393 0.203,-0.622l-0.938,-2.886c-0.166,-0.513 0.42,-0.939 0.857,-0.622l2.455,1.784c0.194,0.141 0.459,0.141 0.653,0l2.455,-1.784c0.437,-0.317 1.023,0.109 0.856,0.622l-0.937,2.886c-0.075,0.229 0.007,0.48 0.202,0.622l2.455,1.784c0.436,0.317 0.212,1.006 -0.327,1.006" id="path80"/>
   </g>
   <g id="g82">
    <path fill="#ffffff" fill-rule="nonzero" d="m129.066315,474.448334l-3.034,0c-0.241,0 -0.455,0.155 -0.529,0.384l-0.938,2.887c-0.167,0.512 -0.892,0.512 -1.059,0l-0.937,-2.887c-0.075,-0.229 -0.288,-0.384 -0.529,-0.384l-3.036,0c-0.538,0 -0.762,-0.689 -0.326,-1.006l2.455,-1.784c0.195,-0.142 0.277,-0.393 0.203,-0.622l-0.939,-2.886c-0.166,-0.513 0.42,-0.939 0.857,-0.622l2.455,1.784c0.195,0.141 0.459,0.141 0.654,0l2.455,-1.784c0.436,-0.317 1.022,0.109 0.855,0.622l-0.937,2.886c-0.074,0.229 0.007,0.48 0.202,0.622l2.455,1.784c0.437,0.317 0.212,1.006 -0.327,1.006" id="path84"/>
   </g>
   <g id="g86">
    <path fill="#ffffff" fill-rule="nonzero" d="m146.500946,482.757935c0.436,0.316 0.212,1.006 -0.327,1.006l-3.035,0c-0.242,0 -0.454,0.155 -0.53,0.385l-0.937,2.886c-0.166,0.512 -0.892,0.512 -1.058,0l-0.938,-2.886c-0.074,-0.23 -0.288,-0.385 -0.529,-0.385l-3.035,0c-0.539,0 -0.762,-0.69 -0.327,-1.006l2.455,-1.784c0.196,-0.142 0.277,-0.393 0.202,-0.622l-0.937,-2.886c-0.167,-0.513 0.42,-0.939 0.855,-0.622l2.456,1.784c0.195,0.141 0.459,0.141 0.654,0l2.455,-1.784c0.436,-0.317 1.022,0.109 0.856,0.622l-0.937,2.886c-0.075,0.229 0.007,0.48 0.202,0.622l2.455,1.784z" id="path88"/>
   </g>
   <g id="g90">
    <path fill="#ffffff" fill-rule="nonzero" d="m133.850555,424.583145l0,-9.788c0,-0.581 -0.505,-1.053 -1.125,-1.053l-5.831,0c-0.62,0 -1.125,0.472 -1.125,1.053l0,9.788c0,0.58 0.505,1.051 1.125,1.051l5.831,0c0.62,0 1.125,-0.471 1.125,-1.051m46.012,34.266c0.64,0.306 1.114,0.829 1.334,1.47c0.22,0.641 0.159,1.324 -0.169,1.921c-0.326,0.598 -0.884,1.04 -1.568,1.245c-0.274,0.083 -0.553,0.123 -0.833,0.123c-0.421,0 -0.836,-0.092 -1.215,-0.275c-0.042,-0.019 -3.657,-1.813 -7.508,-5.876c0.944,2.631 2.413,5.075 4.338,7.189c3.534,3.872 8.265,6.291 13.092,6.719c0.056,-5.035 -1.944,-10.136 -5.556,-14.101c-2.911,-3.189 -6.613,-5.386 -10.569,-6.302c3.857,5.493 8.451,7.787 8.654,7.887m-19.887,-21.665c-4.285,0.45 -8.562,2.382 -11.858,5.385c-3.196,2.916 -5.213,6.623 -5.626,10.29c4.289,-0.45 8.563,-2.384 11.856,-5.386c3.203,-2.92 5.22,-6.627 5.628,-10.289m32.535,37.069c-0.164,1.209 -1.228,2.132 -2.531,2.194c-7.219,0.342 -14.639,-2.835 -19.835,-8.532c-5.183,-5.683 -7.605,-13.032 -6.657,-20.146c-0.307,-0.704 -0.593,-1.432 -0.857,-2.176c-1.18,1.986 -2.696,3.828 -4.52,5.492c-5.034,4.586 -11.934,7.171 -18.448,6.898c-1.356,-0.053 -2.463,-1.046 -2.574,-2.311c-0.518,-5.928 2.131,-12.018 7.269,-16.709c4.448,-4.05 10.3,-6.528 16.161,-6.869c0.036,-2.405 0.262,-4.872 0.676,-7.364l0.026,-0.125c0.794,-3.435 1.959,-13.716 -2.936,-15.826c-1.527,-0.659 -5.579,-2.399 -9.625,5.695c-2.671,5.346 -4.78,7.071 -9.421,7.46l0,2.649c0,3.359 -2.921,6.091 -6.512,6.091l-5.831,0c-3.02,0 -5.615,-1.968 -6.307,-4.676l-3.594,0c-1.487,0 -2.695,-1.129 -2.695,-2.519c0,-1.39 1.208,-2.52 2.695,-2.52l3.388,0l0,-2.519l-3.388,0c-1.487,0 -2.695,-1.13 -2.695,-2.52c0,-1.389 1.208,-2.519 2.695,-2.519l3.589,0c0.682,-2.721 3.279,-4.698 6.311,-4.698l5.831,0c3.591,0 6.512,2.733 6.512,6.092l0,2.105c1.969,-0.205 2.724,-0.927 4.543,-4.562c3.797,-7.602 8.549,-9.197 11.868,-9.197c1.612,0 3.26,0.357 4.893,1.062c9.565,4.12 6.354,19.652 5.964,21.368c-1.229,7.437 -0.654,14.128 1.708,19.897c6.576,0.311 12.988,3.4 17.664,8.527c5.206,5.716 7.624,13.101 6.633,20.258" id="path92"/>
   </g>
  </g>
 </g>
</svg>