<svg width="400" height="400" xmlns="http://www.w3.org/2000/svg">
 <metadata id="metadata8">image/svg+xml</metadata>
 <defs>
  <clipPath clipPathUnits="userSpaceOnUse" id="clipPath18">
   <path d="m0,595.28l841.89,0l0,-595.28l-841.89,0l0,595.28z" id="path16"/>
  </clipPath>
  <clipPath clipPathUnits="userSpaceOnUse" id="clipPath40">
   <path d="m-489.024353,612.152946l841.89,0l0,-595.28l-841.89,0l0,595.28z" id="path38"/>
  </clipPath>
  <clipPath clipPathUnits="userSpaceOnUse" id="clipPath90">
   <path d="m0,595.28l841.89,0l0,-595.28l-841.89,0l0,595.28z" id="path88"/>
  </clipPath>
 </defs>
 <g>
  <title>background</title>
  <rect fill="none" id="canvas_background" height="402" width="402" y="-1" x="-1"/>
 </g>
 <g>
  <title>Layer 1</title>
  <g transform="matrix(4.096358777989033,0,0,-4.096358777989033,-414.4538512250447,2024.024309833123) " id="g34">
   <g id="g36" clip-path="url(#clipPath40)">
    <g id="g42">
     <path fill="#ffffff" fill-rule="nonzero" d="m181.962463,456.891745c-0.016,0.018 -0.041,0.045 -0.06,0.066l0,0c0.02,-0.023 0.04,-0.044 0.06,-0.066" id="path44"/>
    </g>
    <g id="g46">
     <path fill="#ffffff" fill-rule="nonzero" d="m144.065918,435.364859c-0.034,0 -0.084,0.04 -0.134,0.086c0.064,-0.047 0.121,-0.086 0.134,-0.086m16.037,2.361c0,-0.034 -0.04,-0.086 -0.087,-0.135c0.048,0.064 0.087,0.122 0.087,0.135m-2.361,16.036c0.034,0 0.085,-0.04 0.135,-0.086c-0.064,0.047 -0.122,0.086 -0.135,0.086m-13.968,-24.361c3.372,-1.517 7.001,-1.961 10.631,-1.224c6.532,1.313 11.99,6.931 13.002,13.542c0.141,0.95 0.257,1.891 0.257,2.849c-0.018,3.373 -1.03,6.798 -3,9.549c-2.077,2.894 -4.854,5.032 -8.2,6.257c-1.787,0.657 -3.677,0.955 -5.565,0.944l0,-5.322c0.549,0 1.098,-0.04 1.646,-0.1c0.937,-0.16 1.85,-0.412 2.737,-0.754c0.748,-0.335 1.469,-0.722 2.15,-1.175c0.177,-0.116 0.345,-0.249 0.523,-0.373c0.004,-0.003 0.005,-0.003 0.008,-0.006c0.018,-0.018 0.034,-0.036 0.045,-0.048c0.347,-0.283 0.675,-0.585 0.985,-0.896c0.302,-0.301 0.586,-0.612 0.861,-0.941c0.045,-0.056 0.094,-0.112 0.141,-0.169c0.106,-0.146 0.215,-0.291 0.312,-0.443c0.452,-0.679 0.838,-1.398 1.173,-2.144c0.354,-0.922 0.609,-1.871 0.772,-2.846c0.051,-0.506 0.087,-1.015 0.087,-1.533c0,-0.526 -0.037,-1.046 -0.089,-1.565c-0.159,-0.966 -0.416,-1.904 -0.767,-2.817c-0.336,-0.748 -0.723,-1.469 -1.176,-2.15c-0.116,-0.177 -0.249,-0.346 -0.373,-0.523c-0.003,-0.004 -0.003,-0.005 -0.006,-0.009c-0.018,-0.017 -0.036,-0.034 -0.047,-0.044c-0.284,-0.346 -0.586,-0.675 -0.897,-0.986c-0.301,-0.301 -0.612,-0.585 -0.94,-0.86c-0.057,-0.046 -0.113,-0.094 -0.17,-0.142c-0.145,-0.106 -0.29,-0.214 -0.442,-0.311c-0.679,-0.452 -1.399,-0.838 -2.144,-1.173c-0.895,-0.344 -1.816,-0.594 -2.762,-0.757c-1.085,-0.118 -2.177,-0.118 -3.263,0.001c-0.937,0.159 -1.849,0.411 -2.737,0.753c-0.747,0.336 -1.469,0.722 -2.149,1.176c-0.178,0.115 -0.346,0.248 -0.524,0.373c-0.004,0.002 -0.005,0.003 -0.008,0.006c-0.017,0.018 -0.034,0.036 -0.045,0.047c-0.346,0.284 -0.674,0.586 -0.985,0.896c-0.302,0.302 -0.586,0.612 -0.861,0.941c-0.045,0.057 -0.094,0.113 -0.141,0.17c-0.106,0.145 -0.215,0.29 -0.311,0.442c-0.453,0.679 -0.839,1.398 -1.173,2.144c-0.345,0.895 -0.595,1.816 -0.758,2.761c-0.059,0.546 -0.099,1.091 -0.099,1.638l-5.333,0c-0.021,-3.016 0.833,-6.074 2.384,-8.646c1.695,-2.804 4.251,-5.183 7.251,-6.532" id="path48"/>
    </g>
    <g id="g50">
     <path fill="#ffffff" fill-rule="nonzero" d="m119.702759,432.250631c0.033,-0.037 0.075,-0.084 0.127,-0.142c-0.001,0.001 -0.001,0.002 -0.002,0.004c-0.041,0.046 -0.082,0.095 -0.125,0.138" id="path52"/>
    </g>
    <g id="g54">
     <path fill="#ffffff" fill-rule="nonzero" d="m181.940918,432.10314c0.001,0.001 0.001,0.003 0.002,0.005c0.052,0.083 0.134,0.178 0.18,0.225c0.008,0.005 0.018,0.012 0.028,0.018c-0.018,-0.027 -0.085,-0.106 -0.21,-0.248m-1.51,-9.858c0.061,0.085 0.119,0.166 0.119,0.163c-0.008,-0.052 -0.06,-0.108 -0.119,-0.163m-17.397,-8.906c0.005,0.008 0.009,0.014 0.013,0.021c0.043,0.043 0.144,0.132 0.233,0.191c0.002,0.001 0.004,0.002 0.005,0.003c-0.146,-0.131 -0.227,-0.198 -0.251,-0.215m-24.608,0.197c0.001,-0.001 0.003,-0.002 0.005,-0.003c0.083,-0.052 0.178,-0.134 0.225,-0.18c0.005,-0.007 0.012,-0.018 0.018,-0.027c-0.026,0.018 -0.107,0.084 -0.248,0.21m34.598,60.673c0.049,-0.008 0.102,-0.055 0.153,-0.11c-0.081,0.057 -0.156,0.11 -0.153,0.11m-9.753,1.376c-0.083,0.052 -0.178,0.134 -0.226,0.18c-0.004,0.008 -0.011,0.018 -0.017,0.027c0.026,-0.018 0.106,-0.084 0.248,-0.21c-0.002,0.001 -0.003,0.002 -0.005,0.003m29.455,-24.823c-0.31,1.873 -1.526,3.488 -3.088,4.518c-1.296,0.852 -2.796,1.056 -4.313,1.056c-0.788,0 -1.589,-0.042 -2.38,0.013c-0.113,0.024 -0.226,0.055 -0.337,0.088c-0.135,0.069 -0.272,0.133 -0.4,0.213c-0.06,0.054 -0.121,0.105 -0.176,0.165c-0.024,0.024 -0.047,0.051 -0.07,0.077c0.12,-0.134 0.158,-0.184 0.158,-0.19c-0.004,0.003 -0.008,0.005 -0.012,0.008c-0.038,0.034 -0.136,0.142 -0.2,0.238c-0.002,0.003 -0.003,0.007 -0.005,0.009c-0.039,0.045 -0.078,0.09 -0.118,0.131c0.047,-0.051 0.082,-0.09 0.118,-0.13c-0.08,0.121 -0.138,0.253 -0.202,0.382c-0.037,0.121 -0.07,0.244 -0.097,0.368c-0.007,0.134 -0.007,0.269 -0.001,0.402c0.026,0.114 0.057,0.227 0.091,0.338c0.058,0.105 0.116,0.212 0.178,0.313c0.055,0.075 0.125,0.167 0.187,0.228c0.027,0.027 0.044,0.045 0.071,0.071c0.346,0.355 0.701,0.701 1.047,1.047c1.1,1.11 2.095,2.192 2.582,3.737c0.755,2.334 0.054,4.89 -1.544,6.691c-0.355,0.4 -0.754,0.763 -1.127,1.145c-1.544,1.544 -3.079,3.08 -4.624,4.624c-0.452,0.452 -0.905,0.914 -1.366,1.366c-1.349,1.332 -3.24,2.166 -5.157,2.059c-1.313,-0.07 -2.644,-0.452 -3.709,-1.251c-0.55,-0.408 -1.012,-0.852 -1.491,-1.331c-0.426,-0.426 -0.852,-0.843 -1.269,-1.269c-0.097,-0.097 -0.202,-0.195 -0.306,-0.292c-0.052,-0.034 -0.103,-0.067 -0.156,-0.099c-0.069,-0.042 -0.145,-0.071 -0.217,-0.108c-0.085,-0.027 -0.17,-0.056 -0.257,-0.078c-0.201,-0.011 -0.403,-0.012 -0.605,0c-0.091,0.023 -0.181,0.052 -0.271,0.079c-0.128,0.065 -0.26,0.12 -0.38,0.2c-0.047,0.042 -0.097,0.085 -0.142,0.129c-0.055,0.055 -0.11,0.116 -0.165,0.176c-0.081,0.123 -0.141,0.258 -0.206,0.388c-0.037,0.12 -0.069,0.241 -0.096,0.363c-0.054,0.806 -0.012,1.627 -0.012,2.428c0,1.571 -0.258,3.115 -1.19,4.428c-1.331,1.882 -3.381,3.009 -5.706,3.044c-0.47,0.009 -0.949,0 -1.42,0l-3.444,0l0,-5.351l3.853,0c0.441,0 0.882,0.004 1.319,-0.024c0.095,-0.022 0.188,-0.047 0.281,-0.075c0.13,-0.069 0.261,-0.135 0.391,-0.209c0.053,-0.046 0.108,-0.091 0.156,-0.145c0.046,-0.046 0.093,-0.099 0.14,-0.15c0.081,-0.136 0.152,-0.275 0.224,-0.413c0.034,-0.111 0.061,-0.224 0.087,-0.337c0.069,-0.896 0.01,-1.819 0.01,-2.712c0,-1.899 0.586,-3.656 1.9,-5.049c1.322,-1.403 3.408,-2.272 5.342,-2.121c1.9,0.141 3.443,0.94 4.784,2.28l1.367,1.367c0.115,0.115 0.239,0.239 0.355,0.355c0.043,0.044 0.087,0.084 0.13,0.125c0.107,0.071 0.224,0.123 0.337,0.183c0.165,0.054 0.332,0.103 0.503,0.141c0.12,0.003 0.24,-0.001 0.361,-0.007c0.107,-0.025 0.213,-0.053 0.318,-0.086c0.099,-0.051 0.199,-0.095 0.294,-0.152c0.057,-0.036 0.115,-0.072 0.173,-0.108c0.043,-0.05 0.085,-0.1 0.12,-0.132l0.399,-0.399c0.595,-0.595 1.18,-1.189 1.775,-1.775c1.393,-1.393 2.787,-2.795 4.189,-4.189l0.524,-0.523c0.053,-0.053 0.106,-0.107 0.15,-0.16c0.017,-0.017 0.036,-0.039 0.053,-0.06c0,0 0,-0.001 0.001,-0.002c0.083,-0.127 0.146,-0.267 0.215,-0.403c0.032,-0.105 0.06,-0.213 0.085,-0.322c0.007,-0.151 0.007,-0.303 -0.001,-0.456c-0.025,-0.107 -0.053,-0.215 -0.086,-0.32c-0.04,-0.078 -0.076,-0.155 -0.119,-0.231c0.024,0.023 -0.003,-0.037 -0.059,-0.114c0.022,0.037 0.038,0.077 0.059,0.114c-0.018,-0.016 -0.064,-0.082 -0.147,-0.22c0.034,0.035 0.063,0.071 0.088,0.106c-0.053,-0.089 -0.124,-0.169 -0.177,-0.257c0.035,0.061 0.062,0.106 0.089,0.151l-0.001,-0.001c-0.097,-0.106 -0.204,-0.212 -0.31,-0.319l-1.225,-1.225c-1.109,-1.118 -2.139,-2.36 -2.414,-3.976c-0.39,-2.254 0.178,-4.339 1.651,-6.087c1.26,-1.483 3.239,-2.237 5.147,-2.246c0.977,-0.008 1.985,0.064 2.963,-0.013c0.113,-0.025 0.224,-0.053 0.333,-0.086c0.13,-0.069 0.261,-0.135 0.391,-0.208c0.053,-0.047 0.107,-0.092 0.156,-0.146c0.047,-0.046 0.093,-0.099 0.14,-0.15c0.081,-0.136 0.152,-0.275 0.225,-0.413c0.032,-0.108 0.059,-0.217 0.084,-0.326c0.094,-1.133 0.012,-2.314 0.012,-3.441l0,-5.556c0,-0.442 0.005,-0.882 -0.023,-1.32c-0.023,-0.094 -0.047,-0.188 -0.075,-0.281c-0.069,-0.129 -0.136,-0.261 -0.209,-0.391c-0.047,-0.052 -0.091,-0.107 -0.145,-0.155c-0.047,-0.047 -0.099,-0.094 -0.15,-0.141c-0.137,-0.08 -0.276,-0.151 -0.413,-0.224c-0.135,-0.041 -0.272,-0.073 -0.41,-0.102c-0.043,-0.002 -0.083,-0.013 -0.127,-0.013l-2.681,0c-1.881,-0.009 -3.763,-0.71 -5.058,-2.103c-1.305,-1.411 -2.104,-3.391 -1.9,-5.334c0.116,-1.1 0.4,-2.183 1.03,-3.115c0.373,-0.559 0.808,-1.056 1.287,-1.527c0.435,-0.434 0.878,-0.869 1.313,-1.313c0.107,-0.106 0.213,-0.213 0.32,-0.311c0.048,-0.048 0.092,-0.097 0.139,-0.145c0.001,-0.002 0.001,-0.003 0.003,-0.005c0.081,-0.125 0.143,-0.266 0.212,-0.402c0.033,-0.109 0.063,-0.22 0.088,-0.331c0.007,-0.152 0.007,-0.304 -0.001,-0.456c-0.025,-0.107 -0.053,-0.214 -0.085,-0.319c-0.051,-0.099 -0.095,-0.199 -0.152,-0.294c-0.036,-0.057 -0.072,-0.115 -0.108,-0.173c-0.05,-0.043 -0.1,-0.084 -0.132,-0.12c-0.133,-0.133 -0.266,-0.266 -0.399,-0.399c-0.586,-0.586 -1.171,-1.171 -1.766,-1.757c-1.394,-1.393 -2.787,-2.778 -4.18,-4.171c-0.178,-0.178 -0.355,-0.355 -0.533,-0.533l-0.15,-0.151c-0.017,-0.016 -0.039,-0.035 -0.06,-0.052c-0.001,0 -0.002,-0.001 -0.003,-0.001c-0.094,-0.061 -0.202,-0.106 -0.303,-0.16c-0.172,-0.057 -0.347,-0.107 -0.526,-0.147c-0.12,-0.003 -0.239,0.001 -0.359,0.008c-0.109,0.024 -0.216,0.053 -0.322,0.086c-0.076,0.039 -0.153,0.075 -0.228,0.117c0.007,-0.012 -0.037,0.009 -0.1,0.052c-0.005,0.003 -0.011,0.005 -0.016,0.009c-0.089,0.053 -0.169,0.124 -0.258,0.177c0.061,-0.035 0.106,-0.062 0.151,-0.088c-0.107,0.097 -0.213,0.213 -0.32,0.31c-0.408,0.408 -0.816,0.817 -1.224,1.225c-1.118,1.118 -2.361,2.138 -3.976,2.413c-2.254,0.391 -4.34,-0.168 -6.088,-1.65c-1.482,-1.26 -2.237,-3.239 -2.245,-5.148c-0.008,-0.966 0.064,-1.972 -0.013,-2.943c-0.025,-0.113 -0.053,-0.225 -0.086,-0.335c-0.069,-0.129 -0.136,-0.261 -0.208,-0.39c-0.047,-0.053 -0.092,-0.108 -0.146,-0.157c-0.047,-0.046 -0.1,-0.093 -0.15,-0.139c-0.137,-0.081 -0.276,-0.152 -0.413,-0.225c-0.108,-0.033 -0.218,-0.059 -0.327,-0.084c-1.133,-0.095 -2.314,-0.013 -3.441,-0.013l-5.555,0c-0.442,0 -0.883,-0.004 -1.32,0.024c-0.095,0.022 -0.189,0.047 -0.281,0.075c-0.13,0.069 -0.262,0.135 -0.391,0.208c-0.053,0.047 -0.108,0.092 -0.156,0.146c-0.047,0.046 -0.093,0.099 -0.14,0.15c-0.081,0.136 -0.152,0.275 -0.224,0.413c-0.035,0.111 -0.061,0.224 -0.087,0.337c-0.069,0.895 -0.011,1.818 -0.011,2.703c0,1.89 -0.594,3.638 -1.899,5.032c-1.322,1.402 -3.417,2.272 -5.342,2.121c-1.89,-0.151 -3.435,-0.932 -4.766,-2.263l-1.358,-1.358c-0.115,-0.115 -0.222,-0.231 -0.337,-0.337c-0.038,-0.032 -0.09,-0.083 -0.135,-0.127c-0.138,-0.091 -0.285,-0.161 -0.431,-0.234c-0.101,-0.031 -0.205,-0.058 -0.309,-0.082c-0.153,-0.007 -0.304,-0.007 -0.456,0.001c-0.107,0.025 -0.214,0.053 -0.319,0.086c-0.098,0.049 -0.199,0.09 -0.294,0.152c-0.005,0.003 -0.011,0.007 -0.017,0.01c-0.072,0.081 -0.213,0.174 -0.276,0.229l-0.39,0.391c-0.586,0.586 -1.172,1.171 -1.757,1.757c-1.385,1.384 -2.778,2.769 -4.163,4.162c-0.177,0.178 -0.363,0.355 -0.541,0.542l-0.151,0.15c-0.016,0.017 -0.035,0.04 -0.051,0.06c-0.001,0.001 -0.001,0.001 -0.002,0.002c-0.081,0.125 -0.143,0.266 -0.212,0.402c-0.033,0.109 -0.063,0.221 -0.088,0.332c-0.008,0.152 -0.007,0.304 0,0.455c0.026,0.108 0.054,0.216 0.087,0.322c0.039,0.077 0.077,0.155 0.12,0.231c-0.027,-0.03 -0.001,0.027 0.052,0.102c0.002,0.004 0.003,0.008 0.006,0.011c0.053,0.089 0.124,0.169 0.177,0.258c-0.037,-0.064 -0.067,-0.113 -0.095,-0.158c0.003,0.002 0.004,0.004 0.006,0.007l0.32,0.319l1.198,1.198c1.109,1.101 2.103,2.334 2.396,3.923c0.399,2.227 -0.151,4.331 -1.606,6.07c-1.261,1.509 -3.24,2.281 -5.165,2.299c-0.968,0.008 -1.969,-0.064 -2.946,0.013c-0.112,0.025 -0.223,0.052 -0.333,0.086c-0.129,0.068 -0.26,0.135 -0.39,0.208c-0.053,0.046 -0.108,0.091 -0.156,0.146c-0.047,0.046 -0.093,0.099 -0.14,0.149c-0.081,0.137 -0.152,0.276 -0.225,0.414c-0.033,0.107 -0.059,0.217 -0.084,0.326c-0.095,1.133 -0.013,2.314 -0.013,3.441l0,1.733l-5.396,0l0,-2.887l0,-1.961c0.009,-1.793 0.63,-3.381 1.784,-4.739c1.322,-1.562 3.373,-2.272 5.369,-2.272c0.902,0 1.835,0.059 2.74,-0.011c0.101,-0.023 0.202,-0.047 0.301,-0.078c0.137,-0.068 0.275,-0.132 0.406,-0.213c0.054,-0.049 0.108,-0.099 0.166,-0.15c0.005,-0.006 0.01,-0.012 0.015,-0.018c-0.05,0.058 -0.084,0.099 -0.097,0.118c0.015,-0.01 0.032,-0.021 0.043,-0.028c0.047,-0.048 0.115,-0.125 0.163,-0.196c0.006,-0.011 0.01,-0.022 0.016,-0.032c0.038,-0.043 0.076,-0.084 0.117,-0.129c-0.047,0.051 -0.079,0.086 -0.115,0.125c0.08,-0.122 0.139,-0.252 0.203,-0.38c0.039,-0.123 0.07,-0.247 0.099,-0.372c0.007,-0.148 0.007,-0.296 -0.001,-0.444c-0.023,-0.103 -0.052,-0.205 -0.083,-0.307c-0.053,-0.096 -0.106,-0.195 -0.163,-0.288c-0.067,-0.09 -0.173,-0.232 -0.26,-0.321c-0.337,-0.338 -0.674,-0.666 -1.002,-1.003c-1.11,-1.11 -2.104,-2.201 -2.601,-3.736c-0.763,-2.343 -0.053,-4.899 1.544,-6.701c0.347,-0.391 0.737,-0.745 1.101,-1.109c1.535,-1.535 3.07,-3.071 4.615,-4.606l1.358,-1.358c1.34,-1.331 3.248,-2.165 5.165,-2.059c1.278,0.071 2.564,0.426 3.612,1.18c0.594,0.426 1.091,0.897 1.597,1.412c0.408,0.408 0.807,0.816 1.216,1.215c0.106,0.106 0.21,0.203 0.311,0.305c0.05,0.032 0.1,0.065 0.15,0.095c0.07,0.042 0.146,0.071 0.218,0.108c0.114,0.036 0.229,0.069 0.345,0.096c0.143,0.006 0.286,0.007 0.428,0c0.12,-0.027 0.241,-0.061 0.36,-0.097c0.128,-0.065 0.259,-0.12 0.379,-0.2c0.048,-0.042 0.098,-0.084 0.143,-0.129c0.055,-0.055 0.109,-0.116 0.164,-0.176c0.082,-0.123 0.142,-0.258 0.207,-0.389c0.037,-0.118 0.068,-0.239 0.095,-0.36c0.055,-0.816 0.013,-1.647 0.013,-2.465c0,-1.713 0.364,-3.311 1.429,-4.686c1.323,-1.713 3.302,-2.698 5.467,-2.725c0.497,-0.008 0.994,0 1.482,0l6.31,0l1.935,0c1.783,0.009 3.372,0.63 4.73,1.784c1.562,1.322 2.272,3.373 2.272,5.369c0,0.91 -0.057,1.84 0.011,2.748c0.025,0.115 0.056,0.229 0.09,0.341c0.068,0.136 0.133,0.273 0.214,0.401c0.052,0.06 0.104,0.121 0.164,0.176c0.044,0.044 0.093,0.087 0.143,0.129c0.121,0.08 0.253,0.137 0.382,0.201c0.122,0.038 0.244,0.071 0.368,0.098c0.134,0.007 0.268,0.007 0.402,0c0.114,-0.025 0.227,-0.057 0.338,-0.091c0.087,-0.047 0.176,-0.093 0.259,-0.144c0.086,-0.06 0.249,-0.178 0.344,-0.273c0.346,-0.347 0.692,-0.683 1.03,-1.03c1.118,-1.118 2.21,-2.121 3.762,-2.618c2.334,-0.754 4.891,-0.053 6.692,1.535c0.39,0.347 0.745,0.728 1.11,1.092c1.535,1.535 3.07,3.062 4.606,4.597c0.461,0.462 0.931,0.923 1.393,1.385c1.331,1.34 2.156,3.203 2.076,5.111c-0.053,1.288 -0.417,2.619 -1.18,3.675c-0.426,0.585 -0.879,1.073 -1.385,1.571l-1.242,1.242c-0.106,0.106 -0.202,0.207 -0.304,0.311c-0.033,0.05 -0.065,0.1 -0.095,0.151c-0.042,0.069 -0.072,0.145 -0.109,0.217c-0.035,0.114 -0.068,0.229 -0.095,0.346c-0.007,0.142 -0.008,0.285 0,0.427c0.027,0.12 0.06,0.241 0.097,0.36c0.064,0.128 0.12,0.259 0.2,0.379c0.042,0.048 0.084,0.098 0.128,0.143c0.056,0.055 0.117,0.11 0.176,0.164c0.124,0.082 0.258,0.142 0.389,0.207c0.121,0.038 0.245,0.07 0.369,0.097c0.951,0.072 1.925,0.017 2.871,0.013c0.037,-0.001 0.071,-0.011 0.11,-0.011c3.789,0.054 6.851,3.124 6.886,6.913c0.009,1.296 0,2.592 0,3.888l0,5.218c0,0.692 -0.027,1.34 -0.142,2.032" id="path56"/>
    </g>
    <g id="g58">
     <path fill="#ffffff" fill-rule="nonzero" d="m171.327759,414.980032c0.033,-0.019 0.067,-0.033 0.101,-0.052c-0.007,0.012 -0.069,0.057 -0.224,0.15l0,-0.001c0.04,-0.038 0.084,-0.071 0.123,-0.097" id="path60"/>
    </g>
    <g id="g62">
     <path fill="#ffffff" fill-rule="nonzero" d="m121.31543,424.034231c0.018,0.021 0.063,0.086 0.141,0.212c-0.034,-0.036 -0.064,-0.075 -0.089,-0.11c-0.019,-0.033 -0.033,-0.069 -0.052,-0.102" id="path64"/>
    </g>
    <g id="g66">
     <path fill="#ffffff" fill-rule="nonzero" d="m117.455139,458.38146l-2.952,0c-0.234,0 -0.442,0.151 -0.514,0.374l-0.912,2.807c-0.162,0.498 -0.867,0.498 -1.029,0l-0.912,-2.807c-0.073,-0.223 -0.28,-0.374 -0.514,-0.374l-2.952,0c-0.524,0 -0.742,-0.671 -0.318,-0.979l2.388,-1.734c0.19,-0.138 0.269,-0.382 0.196,-0.605l-0.912,-2.807c-0.162,-0.499 0.409,-0.913 0.833,-0.605l2.388,1.735c0.189,0.138 0.446,0.138 0.635,0l2.388,-1.735c0.424,-0.308 0.995,0.106 0.833,0.605l-0.913,2.807c-0.072,0.223 0.008,0.467 0.197,0.605l2.388,1.734c0.424,0.308 0.206,0.979 -0.318,0.979" id="path68"/>
    </g>
    <g id="g70">
     <path fill="#ffffff" fill-rule="nonzero" d="m128.32373,475.341452l-2.951,0c-0.235,0 -0.443,0.151 -0.515,0.374l-0.912,2.807c-0.162,0.498 -0.867,0.498 -1.029,0l-0.912,-2.807c-0.073,-0.223 -0.28,-0.374 -0.514,-0.374l-2.952,0c-0.524,0 -0.742,-0.671 -0.318,-0.979l2.388,-1.735c0.19,-0.138 0.269,-0.382 0.196,-0.604l-0.912,-2.807c-0.161,-0.499 0.409,-0.913 0.833,-0.605l2.388,1.734c0.189,0.138 0.446,0.138 0.636,0l2.387,-1.734c0.424,-0.308 0.995,0.106 0.833,0.605l-0.912,2.807c-0.073,0.222 0.007,0.466 0.196,0.604l2.388,1.735c0.424,0.308 0.206,0.979 -0.318,0.979" id="path72"/>
    </g>
    <g id="g74">
     <path fill="#ffffff" fill-rule="nonzero" d="m145.27832,483.421957c0.424,0.308 0.206,0.979 -0.318,0.979l-2.952,0c-0.234,0 -0.441,0.151 -0.514,0.374l-0.912,2.807c-0.162,0.498 -0.867,0.498 -1.029,0l-0.912,-2.807c-0.072,-0.223 -0.28,-0.374 -0.514,-0.374l-2.952,0c-0.524,0 -0.742,-0.671 -0.318,-0.979l2.388,-1.734c0.19,-0.139 0.269,-0.383 0.197,-0.605l-0.913,-2.807c-0.162,-0.499 0.409,-0.913 0.833,-0.605l2.388,1.735c0.189,0.138 0.446,0.138 0.635,0l2.388,-1.735c0.424,-0.308 0.995,0.106 0.833,0.605l-0.912,2.807c-0.073,0.222 0.007,0.466 0.196,0.605l2.388,1.734z" id="path76"/>
    </g>
   </g>
  </g>
 </g>
</svg>