<svg width="400" height="400" xmlns="http://www.w3.org/2000/svg">
 <metadata id="metadata8">image/svg+xml</metadata>
 <defs>
  <clipPath clipPathUnits="userSpaceOnUse" id="clipPath28">
   <path d="m0,595.28l841.89,0l0,-595.28l-841.89,0l0,595.28z" id="path26"/>
  </clipPath>
 </defs>
 <g>
  <title>background</title>
  <rect fill="none" id="canvas_background" height="402" width="402" y="-1" x="-1"/>
 </g>
 <g>
  <title>Layer 1</title>
  <g stroke="null" id="svg_29">
   <g stroke="null" transform="matrix(3.6551900813884988,0,0,-3.6551900813884988,-361.1201695249907,1838.705193967295) " id="g82">
    <path stroke="null" fill="#ffffff" fill-rule="nonzero" d="m110.658898,459.56329l1.023,-3.15c0.082,-0.25 0.315,-0.419 0.579,-0.419l3.311,0c0.588,0 0.832,-0.753 0.357,-1.098l-2.679,-1.947c-0.213,-0.155 -0.302,-0.428 -0.221,-0.678l1.024,-3.15c0.181,-0.559 -0.459,-1.025 -0.935,-0.679l-2.679,1.947c-0.213,0.154 -0.501,0.154 -0.714,0l-2.679,-1.947c-0.476,-0.346 -1.116,0.12 -0.934,0.679l1.024,3.15c0.081,0.25 -0.008,0.523 -0.221,0.678l-2.68,1.947c-0.475,0.345 -0.231,1.098 0.358,1.098l3.311,0c0.263,0 0.496,0.169 0.577,0.419l1.024,3.15c0.181,0.559 0.972,0.559 1.154,0" id="path84"/>
   </g>
   <g stroke="null" transform="matrix(3.6551900813884988,0,0,-3.6551900813884988,-361.1201695249907,1838.705193967295) " id="g86">
    <path stroke="null" fill="#ffffff" fill-rule="nonzero" d="m122.855248,478.594494l1.023,-3.15c0.081,-0.25 0.315,-0.419 0.578,-0.419l3.312,0c0.588,0 0.832,-0.753 0.357,-1.098l-2.68,-1.947c-0.212,-0.155 -0.302,-0.428 -0.22,-0.679l1.024,-3.149c0.181,-0.56 -0.459,-1.025 -0.935,-0.679l-2.68,1.946c-0.212,0.155 -0.5,0.155 -0.713,0l-2.679,-1.946c-0.476,-0.346 -1.116,0.119 -0.934,0.679l1.023,3.149c0.082,0.251 -0.007,0.524 -0.22,0.679l-2.68,1.947c-0.475,0.345 -0.231,1.098 0.357,1.098l3.312,0c0.263,0 0.496,0.169 0.577,0.419l1.024,3.15c0.181,0.559 0.972,0.559 1.154,0" id="path88"/>
   </g>
   <g stroke="null" transform="matrix(3.6551900813884988,0,0,-3.6551900813884988,-361.1201695249907,1838.705193967295) " id="g90">
    <path stroke="null" fill="#ffffff" fill-rule="nonzero" d="m141.524132,488.760494l1.023,-3.15c0.081,-0.25 0.315,-0.419 0.578,-0.419l3.311,0c0.588,0 0.833,-0.753 0.358,-1.098l-2.68,-1.947c-0.213,-0.155 -0.302,-0.428 -0.221,-0.679l1.024,-3.149c0.181,-0.56 -0.458,-1.025 -0.934,-0.679l-2.68,1.947c-0.213,0.154 -0.501,0.154 -0.714,0l-2.678,-1.947c-0.477,-0.346 -1.116,0.119 -0.935,0.679l1.024,3.149c0.081,0.251 -0.008,0.524 -0.221,0.679l-2.679,1.947c-0.476,0.345 -0.231,1.098 0.357,1.098l3.311,0c0.264,0 0.496,0.169 0.577,0.419l1.024,3.15c0.181,0.559 0.973,0.559 1.155,0" id="path92"/>
   </g>
   <g stroke="null" id="svg_27">
    <path stroke="null" fill="#ffffff" id="svg_26" d="m93.063811,298.979438l49.648646,-124.787505c0,0 0,0 0,-0.317527c0,0 0,-0.317524 0.295528,-0.317524c0.295528,-0.317527 0.295528,-0.635051 0.591055,-0.952578c0,0 0.295528,-0.317524 0.295528,-0.317524c0.295528,-0.317527 0.591055,-0.635051 0.886583,-0.952576c0,0 0,0 0.295528,-0.317527c0.295528,-0.317524 0.886583,-0.635051 1.18211,-0.952576c0,0 0.295528,-0.317527 0.295528,-0.317527c0.295528,-0.317524 0.591055,-0.317524 0.886583,-0.635049c0.295528,0 0.295528,0 0.591055,-0.317527c0.591055,-0.317524 0.886583,-0.317524 1.477638,-0.317524c0,0 0,0 0,0l59.105533,-9.208239c1.773166,-10.478339 8.570301,-19.051527 17.731659,-22.544308l0,-29.529866c0,-5.397934 3.841859,-9.525764 8.865828,-9.525764c5.023972,0 8.865831,4.127829 8.865831,9.525764l0,29.529866c6.797135,2.540205 12.412162,7.938137 15.367438,14.606171l61.765278,-9.525764c0,0 0,0 0,0l0,0c0,0 0,0 0,0c0.29553,0 0.886586,0 1.182113,0c0,0 0,0 0,0c0,0 0.295528,0 0.295528,0c0.295528,0 0.295528,0 0.591055,0c0.295528,0 0.591055,0 0.886583,0.317527c0.295528,0 0.295528,0 0.591055,0c0.591055,0 0.886583,0.317524 1.18211,0.635049c0,0 0.295528,0.317527 0.295528,0.317527c0.295528,0.317524 0.591055,0.317524 0.886583,0.635051c0.295528,0 0.295528,0.317524 0.591055,0.317524c0.295528,0.317527 0.591055,0.635051 0.886583,0.635051c0,0 0.295528,0.317524 0.295528,0.317524c0.295528,0.317527 0.591055,0.952578 0.886583,1.270102c0,0 0,0.317527 0.295528,0.317527c0.295528,0.317524 0.295528,0.635051 0.295528,0.952576l49.944174,122.564827c1.477638,3.492781 0.591055,7.62061 -1.773166,10.478339l-7.388193,7.938137c-13.298742,13.97112 -30.439346,21.591732 -48.762061,21.591732c-18.02719,0 -35.167794,-7.620612 -48.171008,-21.591732l-7.683721,-7.62061c-2.659748,-2.857729 -3.546331,-6.985561 -2.068693,-10.795866l43.442567,-107.00608l-46.397843,7.303086c-2.659748,12.70102 -13.298745,22.544308 -26.301963,22.544308c-10.047939,0 -18.91377,-6.032983 -23.642211,-14.923695l-48.171008,7.62061l45.215732,113.35659c1.477638,3.492778 0.591055,7.62061 -1.773166,10.478339l-7.388193,7.938137c-13.298745,13.97112 -30.439349,21.591732 -48.466536,21.591732s-35.463318,-7.620612 -48.466533,-21.591732l-7.388193,-7.938137c-2.659748,-2.540202 -3.250804,-6.985561 -2.068693,-10.478339zm93.977796,-5.715459l-36.054376,-90.812282l-36.054374,90.812282l72.10875,0zm171.40604,-28.894818l-36.054374,-89.224653l-36.054376,89.224653l72.10875,0zm-123.235035,-90.494755c5.023972,0 9.161359,-4.445356 9.161359,-9.843288s-4.137387,-9.84329 -9.161359,-9.84329c-5.023969,0 -9.161356,4.445356 -9.161356,9.84329s4.137387,9.843288 9.161356,9.843288z"/>
   </g>
  </g>
 </g>
</svg>