<svg width="400" height="400" xmlns="http://www.w3.org/2000/svg">
 <metadata id="metadata8">image/svg+xml</metadata>
 <defs>
  <clipPath clipPathUnits="userSpaceOnUse" id="clipPath28">
   <path d="m0,595.28l841.89,0l0,-595.28l-841.89,0l0,595.28z" id="path26"/>
  </clipPath>
 </defs>
 <g>
  <title>background</title>
  <rect fill="none" id="canvas_background" height="402" width="402" y="-1" x="-1"/>
 </g>
 <g>
  <title>Layer 1</title>
  <g transform="matrix(3.742472254884791,0,0,-3.742472254884791,-80.68545607819836,2136.4570685806148) " id="g24" clip-path="url(#clipPath28)">
   <g id="g86">
    <path fill="#ffffff" fill-rule="nonzero" d="m38.482339,525.922482l-3.486,0c-0.278,0 -0.523,0.179 -0.609,0.442l-1.077,3.316c-0.191,0.589 -1.024,0.589 -1.216,0l-1.078,-3.316c-0.085,-0.263 -0.331,-0.442 -0.607,-0.442l-3.488,0c-0.619,0 -0.877,-0.792 -0.376,-1.156l2.822,-2.05c0.223,-0.163 0.317,-0.451 0.232,-0.714l-1.078,-3.317c-0.191,-0.589 0.483,-1.078 0.984,-0.715l2.821,2.05c0.224,0.163 0.527,0.163 0.752,0l2.821,-2.05c0.501,-0.363 1.175,0.126 0.983,0.715l-1.078,3.317c-0.085,0.263 0.009,0.551 0.233,0.714l2.821,2.05c0.501,0.364 0.243,1.156 -0.376,1.156" id="path88"/>
   </g>
   <g id="g90">
    <path fill="#ffffff" fill-rule="nonzero" d="m51.324129,545.960972l-3.486,0c-0.278,0 -0.523,0.178 -0.609,0.442l-1.077,3.316c-0.191,0.589 -1.024,0.589 -1.216,0l-1.078,-3.316c-0.085,-0.264 -0.331,-0.442 -0.607,-0.442l-3.488,0c-0.619,0 -0.877,-0.792 -0.376,-1.156l2.822,-2.05c0.223,-0.163 0.317,-0.451 0.232,-0.714l-1.078,-3.317c-0.191,-0.589 0.483,-1.078 0.984,-0.715l2.821,2.05c0.224,0.163 0.527,0.163 0.752,0l2.821,-2.05c0.501,-0.363 1.175,0.126 0.983,0.715l-1.078,3.317c-0.085,0.263 0.009,0.551 0.233,0.714l2.821,2.05c0.501,0.364 0.243,1.156 -0.376,1.156" id="path92"/>
   </g>
   <g id="g94">
    <path fill="#ffffff" fill-rule="nonzero" d="m71.357339,555.509372c0.501,0.36401 0.243,1.15601 -0.376,1.15601l-3.487,0c-0.278,0 -0.523,0.178 -0.608,0.442l-1.078,3.316c-0.191,0.589 -1.024,0.589 -1.216,0l-1.077,-3.316c-0.086,-0.264 -0.331,-0.442 -0.608,-0.442l-3.488,0c-0.619,0 -0.875,-0.792 -0.375,-1.15601l2.822,-2.05c0.223,-0.163 0.317,-0.451 0.231,-0.715l-1.077,-3.316c-0.191,-0.589 0.483,-1.079 0.983,-0.714l2.822,2.049c0.223,0.163 0.527,0.163 0.751,0l2.821,-2.049c0.501,-0.365 1.175,0.125 0.983,0.714l-1.077,3.316c-0.086,0.264 0.008,0.552 0.233,0.715l2.821,2.05z" id="path96"/>
   </g>
   <g id="g98">
    <path fill="#ffffff" fill-rule="nonzero" d="m123.100559,508.048382c-1.787,6.409 -7.458,10.719 -14.12,10.741c-0.028,5.002 -1.16,8.897 -3.511,12.161c-3.021,4.461 -7.322,7.396 -12.806,8.73c-1.351,0.3 -2.653,0.44 -4.099,0.44c-5.242,0 -12.377,-2.269 -17.068,-8.57c-1.631,0.567 -3.373,0.863 -5.089,0.863c-7.623,0 -14.081,-5.761 -14.972,-13.228c-0.434,-0.257 -0.833,-0.537 -1.224,-0.811c-0.217,-0.152 -0.439,-0.309 -0.746,-0.516c-2.138,-1.681 -3.879,-4.052 -4.901,-6.685c-1.678,-4.419 -1.402,-9.181 0.744,-13.043c2.82,-5.344 7.252,-8.279 13.236,-8.727l8.947,-0.138l5.797,0c1.649,0 2.991,-1.342 2.991,-2.99l0,-3.309l-2.188,2.187c-0.581,0.581 -1.381,0.893 -2.177,0.844c-0.712,-0.039 -1.369,-0.363 -1.813,-0.888c-0.459,-0.48 -0.735,-1.117 -0.782,-1.797l-0.017,-0.257l0.095,-0.238c0.112,-0.286 0.213,-0.58 0.292,-0.888l0.038,-0.215l0.164,-0.198c0.046,-0.07 0.133,-0.205 0.281,-0.34l6.028,-6.029c0.737,-0.735 1.832,-1.158 3.005,-1.158c1.055,0 2.008,0.351 2.914,1.075l6.148,6.14c0.581,0.581 0.889,1.374 0.846,2.175c-0.04,0.712 -0.363,1.37 -0.889,1.815c-0.578,0.555 -1.348,0.855 -2.136,0.803c-0.708,-0.039 -1.363,-0.36 -1.807,-0.883l-2.149,-2.148l0,3.309c0,4.724 -3.844,8.568 -8.558,8.568l-14.525,0.136c-3.882,0.25 -6.683,2.081 -8.562,5.585c-1.334,2.549 -1.512,5.627 -0.512,8.382c0.829,1.934 1.831,3.31 3.124,4.253c0.722,0.602 1.465,0.974 2.212,1.349l1.912,0.851l0,1.951c0.123,5.163 4.278,9.21 9.459,9.21c1.654,0 3.228,-0.38 4.519,-1.085l2.612,-1.522l1.732,2.825c0.045,0.089 0.092,0.155 0.136,0.222c0.08,0.121 0.159,0.243 0.239,0.394c3.341,4.964 8.859,6.735 12.919,6.735c1.018,0 2.045,-0.127 2.914,-0.248c4.021,-0.908 7.165,-3.059 9.364,-6.42c2.017,-2.901 2.807,-6.665 2.41,-11.599l0,-3.064l5.679,0c4.079,0 7.565,-2.653 8.677,-6.606c0.735,-2.569 0.238,-5.381 -1.317,-7.659c-1.758,-2.259 -4.195,-3.57 -6.81,-3.69c-1.563,0 -2.788,-1.285 -2.788,-2.926c0,-1.564 1.284,-2.788 2.963,-2.788l0.001,0c4.383,0.145 8.463,2.317 11.193,5.959l0.079,0.117c2.494,4.365 3.147,8.818 1.896,12.843" id="path100"/>
   </g>
   <g id="g102">
    <path fill="#ffffff" fill-rule="nonzero" d="m102.322239,485.042082l0,-7.482l5.989,2.185l-0.004,5.399c-0.332,3.668 -3.368,6.541 -6.912,6.541l-6.881,0c-1.649,0 -2.991,1.341 -2.991,2.99l0,8.676l2.187,-2.18701c0.582,-0.58099 1.374,-0.899 2.177,-0.844c0.711,0.03801 1.368,0.361 1.812,0.886c0.551,0.57 0.842,1.26 0.842,2.001c0,0.771 -0.297,1.459 -0.883,2.04301l-5.918,5.918c-0.776,0.776 -1.925,1.214 -3.146,1.157c-1.126,-0.038 -2.14,-0.479 -2.729,-1.157l-6.054,-6.053c-0.578,-0.578 -0.885,-1.284 -0.885,-2.046c0,-0.768 0.298,-1.456 0.884,-2.043c1.18,-1.181 2.994,-0.952 3.948,-0.001l2.187,2.187l0,-8.675c0,-4.724 3.844,-8.56801 8.569,-8.56801l6.881,0c0.477,0 0.927,-0.44999 0.927,-0.92699" id="path104"/>
   </g>
  </g>
 </g>
</svg>