<svg width="375.60851" height="207.27026" xmlns="http://www.w3.org/2000/svg">
 <metadata id="metadata8">image/svg+xml</metadata>
 <defs>
  <clipPath clipPathUnits="userSpaceOnUse" id="clipPath18">
   <path d="m414.296,690.651c0,0 -0.154,-98.635 -0.154,-117.541l0,0c0,0 35.182,-14.832 41.551,-16.914l0,0l14.137,-5.946l3.616,1.31l4.13,1.719c9.485,3.993 11.38,4.568 22.031,9.173l0,0c6.207,2.684 25.754,10.658 25.754,10.658l0,0l0,117.541l-111.065,0z" id="path16"/>
  </clipPath>
  <clipPath clipPathUnits="userSpaceOnUse" id="clipPath46">
   <path d="m0,1190.551l841.89,0l0,-1190.551l-841.89,0l0,1190.551z" id="path44"/>
  </clipPath>
 </defs>
 <g>
  <title>background</title>
  <rect x="-1" y="-1" width="95.90206" height="53.81753" id="canvas_background" fill="none"/>
 </g>
 <g>
  <title>Layer 1</title>
  <path d="m370.26919,171.45226l0,-156.708l-148.08533,0l0,156.708l74.87733,30.47867l73.208,-30.47867z" id="path38" stroke-miterlimit="4" stroke-linejoin="round" stroke-linecap="round" stroke-width="0.67867" stroke="#ffffff" fill="none"/>
  <g transform="matrix(1.3333333,0,0,-1.3333333,-330.00679,935.59864) " id="g14" clip-path="url(#clipPath18)">
   <g id="g24">
    <path d="m525.04102,564.5141l3.809,67.153l-58.549,0.006l0.065,-82.209l54.675,15.05z" id="path26" fill-rule="nonzero" fill="#ffffff"/>
   </g>
   <path d="m426.465,704.982l-6.089,0l0,-138.077l6.089,0l0,138.077z" id="path28" fill-rule="nonzero" fill="#ffffff"/>
   <path d="m438.818,704.982l-6.089,0l0,-143.181l6.089,0l0,143.181z" id="path30" fill-rule="nonzero" fill="#ffffff"/>
   <path d="m451.172,705l-6.089,0l0,-148.661l6.089,0l0,148.661z" id="path32" fill-rule="nonzero" fill="#ffffff"/>
   <path d="m463.522,705l-6.09,0l0,-153.138l6.09,0l0,153.138z" id="path34" fill-rule="nonzero" fill="#ffffff"/>
  </g>
  <g id="g48" transform="matrix(1.3333333,0,0,-1.3333333,-330.00679,935.59864) ">
   <path d="m514.59277,583.73187c-0.941,7.246 -3.995,11.742 -7.444,11.742c-3.495,0 -6.529,-5.259 -7.403,-12.888" id="path50" stroke-miterlimit="4" stroke-width="0.034" stroke="#ffffff" fill-rule="nonzero" fill="#612095"/>
  </g>
  <g id="g52" transform="matrix(1.3333333,0,0,-1.3333333,-330.00679,935.59864) ">
   <path d="m495.7373,582.51703c-0.76,7.905 -3.948,12.87 -7.573,12.87c-3.348,0 -6.265,-4.817 -7.278,-11.915" id="path54" stroke-miterlimit="4" stroke-width="0.034" stroke="#ffffff" fill-rule="nonzero" fill="#612095"/>
  </g>
  <g id="g56" transform="matrix(1.3333333,0,0,-1.3333333,-330.00679,935.59864) ">
   <path d="m504.38959,583.22699c-1.338,5.181 -3.927,8.27 -6.783,8.27c-2.818,0 -5.34,-3.421 -6.667,-8.751" id="path58" stroke-miterlimit="4" stroke-width="0.085" stroke="#ffffff" fill-rule="nonzero" fill="#612095"/>
  </g>
  <g id="g60" transform="matrix(1.3333333,0,0,-1.3333333,-330.00679,935.59864) ">
   <path d="m495.33591,618.26947l-0.312,0.112l-0.307,0l-0.217,0l-0.312,0l-0.248,-0.073l-0.217,-0.114l-0.248,-0.114l-0.25,-0.037l-0.281,0.037l-0.279,0.04l-0.28,0.109l-0.217,0.152l-0.219,0.222l-0.125,0.373l-0.028,0.262l-0.032,0.225l-0.125,0.075l-0.157,-0.114l0,-0.298l0.034,-0.336l0.123,-0.409l0.125,-0.301l0.185,-0.186l0.189,-0.183l0.247,-0.114l0.308,-0.037l0.282,0.037l0.25,0l0.25,0.114l0.306,0.073l0.407,0.11l0.373,0l0.279,-0.036l0.279,-0.108l0.217,-0.116l0.28,-0.186l0.217,-0.15l0.25,-0.037l0.062,0.261l-0.093,0.336l-0.156,0.222l-0.157,0.114l-0.154,0.152l-0.249,-0.077z" id="path62" fill-rule="nonzero" fill="#ed1c24"/>
  </g>
  <g id="g64" transform="matrix(1.3333333,0,0,-1.3333333,-330.00679,935.59864) ">
   <path d="m495.33591,618.26947l-0.312,0.112l-0.307,0l-0.217,0l-0.312,0l-0.248,-0.073l-0.217,-0.114l-0.248,-0.114l-0.25,-0.037l-0.281,0.037l-0.279,0.04l-0.28,0.109l-0.217,0.152l-0.219,0.222l-0.125,0.373l-0.028,0.262l-0.032,0.225l-0.125,0.075l-0.157,-0.114l0,-0.298l0.034,-0.336l0.123,-0.409l0.125,-0.301l0.185,-0.186l0.189,-0.183l0.247,-0.114l0.308,-0.037l0.282,0.037l0.25,0l0.25,0.114l0.306,0.073l0.407,0.11l0.373,0l0.279,-0.036l0.279,-0.108l0.217,-0.116l0.28,-0.186l0.217,-0.15l0.25,-0.037l0.062,0.261l-0.093,0.336l-0.156,0.222l-0.157,0.114l-0.154,0.152l-0.249,-0.077z" id="path66" stroke-miterlimit="4" stroke-width="0.112" stroke="#231f20" fill="#612095"/>
  </g>
  <g id="g68" transform="matrix(1.3333333,0,0,-1.3333333,-330.00679,935.59864) ">
   <path d="m495.86621,617.09808l-0.374,0.051l-0.458,0.201l-0.619,0.098l-0.456,-0.051l-0.499,-0.198l-0.409,-0.297l0.244,0.049l0.333,0.051l0.415,0l0.495,-0.1l0.458,-0.2l0.329,-0.197l0.291,-0.152l1.942,0.262l-0.096,1.537l-1.089,1.117l-0.737,0.073l-0.194,1.193l-0.531,-0.155l-0.287,0.347l-0.374,0.201l-0.332,0.051l-0.475,-0.1l-0.373,-0.224l-0.352,-0.325l-0.21,-0.296l-0.165,-0.546l0.085,-0.6l0.166,-0.444l0.164,0.297l0.208,0.2l0.329,0.1l0.414,-0.05l0.499,-0.103l0.498,-0.196l0.497,-0.303l0.33,-0.296l0.292,-0.293l0.124,-0.403l-0.083,-0.299z" id="path70" fill-rule="nonzero" fill="#ed1c24"/>
  </g>
  <g id="g72" transform="matrix(1.3333333,0,0,-1.3333333,-330.00679,935.59864) ">
   <path d="m495.86621,617.09808l-0.374,0.051l-0.458,0.201l-0.619,0.098l-0.456,-0.051l-0.499,-0.198l-0.409,-0.297l0.244,0.049l0.333,0.051l0.415,0l0.495,-0.1l0.458,-0.2l0.329,-0.197l0.291,-0.152l1.942,0.262l-0.096,1.537l-1.089,1.117l-0.737,0.073l-0.194,1.193l-0.531,-0.155l-0.287,0.347l-0.374,0.201l-0.332,0.051l-0.475,-0.1l-0.373,-0.224l-0.352,-0.325l-0.21,-0.296l-0.165,-0.546l0.085,-0.6l0.166,-0.444l0.164,0.297l0.208,0.2l0.329,0.1l0.414,-0.05l0.499,-0.103l0.498,-0.196l0.497,-0.303l0.33,-0.296l0.292,-0.293l0.124,-0.403l-0.083,-0.299" id="path74" stroke-miterlimit="4" stroke-width="0.112" stroke="#231f20" fill="#612095"/>
  </g>
  <g id="g76" transform="matrix(1.3333333,0,0,-1.3333333,-330.00679,935.59864) ">
   <path d="m501.00201,622.92621l-1.145,-1.466l0.295,2.144l-0.97,-1.81l0.212,2.183l-0.881,-1.939l0.074,2.21l-0.732,-1.908l-0.024,2.128l-0.673,-1.943l-0.063,2.083l-0.621,-1.994l-0.044,-0.056l-0.285,2.05l-0.389,-1.961l-0.511,1.961l-0.216,-2.081l-0.587,1.945l0.132,-2.118l0.011,-0.014l-0.011,-0.747l-0.011,-0.408c0,0 -0.002,-0.002 -0.006,-0.004l0.004,-0.002l-0.009,-0.318c-0.022,-0.061 0.843,-0.02 0.801,-0.032l3.576,-0.952c0.192,-0.159 0.916,-0.158 0.888,-0.287l0.142,0.534c-0.003,-0.008 0,-0.012 0,-0.016l0.197,0.786l0.009,0c0,0.006 -0.006,0.01 -0.006,0.018l0.032,0.122l0.811,1.892z" id="path78" fill-rule="nonzero" fill="#ed1c24"/>
  </g>
  <g id="g80" transform="matrix(1.3333333,0,0,-1.3333333,-330.00679,935.59864) ">
   <path d="m501.00201,622.92621l-1.145,-1.466l0.295,2.144l-0.97,-1.81l0.212,2.183l-0.881,-1.939l0.074,2.21l-0.732,-1.908l-0.024,2.128l-0.673,-1.943l-0.063,2.083l-0.621,-1.994l-0.044,-0.056l-0.285,2.05l-0.389,-1.961l-0.511,1.961l-0.216,-2.081l-0.587,1.945l0.132,-2.118l0.011,-0.014l-0.011,-0.747l-0.011,-0.408c0,0 -0.002,-0.002 -0.006,-0.004l0.004,-0.002l-0.009,-0.318c-0.022,-0.061 0.843,-0.02 0.801,-0.032l3.576,-0.952c0.192,-0.159 0.916,-0.158 0.888,-0.287l0.142,0.534c-0.003,-0.008 0,-0.012 0,-0.016l0.197,0.786l0.009,0c0,0.006 -0.006,0.01 -0.006,0.018l0.032,0.122l0.811,1.892z" id="path82" stroke-miterlimit="4" stroke-width="0.112" stroke="#231f20" fill="#612095"/>
  </g>
  <g id="g84" transform="matrix(1.3333333,0,0,-1.3333333,-330.00679,935.59864) ">
   <path d="m515.67871,583.29138l0,0.444c-1.06,0.226 -1.457,0.857 -1.498,1.606c-0.045,-0.726 -0.766,-1.33 -1.773,-1.574l-1.864,-0.012c-1.061,0.242 -1.825,0.886 -1.825,1.646l-0.019,-0.025c0,-0.755 -0.744,-1.396 -1.789,-1.641l-1.84,-0.007c-1.071,0.237 -1.835,0.881 -1.835,1.648l-0.051,0c0,-0.788 -0.812,-1.456 -1.931,-1.674l-1.554,-0.008c-1.11,0.202 -1.93,0.839 -1.976,1.607c-0.026,-0.768 -0.826,-1.412 -1.921,-1.63l-1.568,-0.006c-1.085,0.198 -1.888,0.813 -1.966,1.554c-0.056,-0.727 -0.815,-1.34 -1.85,-1.569l-1.758,0c-1.038,0.229 -1.798,0.846 -1.846,1.578c-0.087,-0.778 -0.97,-1.411 -2.127,-1.578l-1.197,0c-1.169,0.167 -2.055,0.82 -2.13,1.604c-0.078,-0.744 -0.676,-1.359 -1.758,-1.56l0,-0.228l0,-3.291l1.633,0l33.241,0l1.202,0l0,3.116z" id="path86" fill-rule="nonzero" fill="#104680"/>
  </g>
  <g id="g88" transform="matrix(1.3333333,0,0,-1.3333333,-330.00679,935.59864) ">
   <path d="m515.67871,583.29138l0,0.444c-1.06,0.226 -1.457,0.857 -1.498,1.606c-0.045,-0.726 -0.766,-1.33 -1.773,-1.574l-1.864,-0.012c-1.061,0.242 -1.825,0.886 -1.825,1.646l-0.019,-0.025c0,-0.755 -0.744,-1.396 -1.789,-1.641l-1.84,-0.007c-1.071,0.237 -1.835,0.881 -1.835,1.648l-0.051,0c0,-0.788 -0.812,-1.456 -1.931,-1.674l-1.554,-0.008c-1.11,0.202 -1.93,0.839 -1.976,1.607c-0.026,-0.768 -0.826,-1.412 -1.921,-1.63l-1.568,-0.006c-1.085,0.198 -1.888,0.813 -1.966,1.554c-0.056,-0.727 -0.815,-1.34 -1.85,-1.569l-1.758,0c-1.038,0.229 -1.798,0.846 -1.846,1.578c-0.087,-0.778 -0.97,-1.411 -2.127,-1.578l-1.197,0c-1.169,0.167 -2.055,0.82 -2.13,1.604c-0.078,-0.744 -0.676,-1.359 -1.758,-1.56l0,-0.228l0,-3.291l1.633,0l33.241,0l1.202,0l0,3.116z" id="path90" stroke-miterlimit="4" stroke-width="0.236" stroke="#231f20" fill="#612095"/>
  </g>
  <g id="g92" transform="matrix(1.3333333,0,0,-1.3333333,-330.00679,935.59864) ">
   <path d="m494.6113,606.91449l-1.222,1.207l0,0.011l-0.012,0l-0.306,0.305l0.046,-0.234l-0.728,0.187l0.563,1.458l-2.987,0.762l-3.115,1.208l-1.555,2.384l-2.224,-0.095l-0.506,-2.214l-0.213,-0.656l-0.605,-0.081l0.015,-1.711l-0.527,-1.612l0,-1.33l-0.09,-1.041l0,-1.141l0.173,-0.855l-0.173,-1.041l0.09,-1.234l-0.09,-1.14l0.09,-1.139l0.17,-1.044l0.342,-0.666l0,-0.851l0.172,-1.141l0.084,-0.949l0.258,-0.948l0.173,-0.948l0.339,0.284l0.089,0.851l0,1.331l0,1.617l0.086,1.705l0.515,-0.195l0.258,0.859l0,0.664l0.339,-0.192l0.342,0.573l0.098,0.649l0.248,-0.271l0.426,0.379l0.252,0.951l0.262,-0.191l0.516,0.38l0.255,0.856l0.005,0.057l0.126,-0.088l0.448,0.073l-0.066,-0.71l0.343,-0.471l0.427,0.094l0.346,-0.473l0.512,-0.193l0.094,0.312l0.165,-0.501l0.427,-0.287l0.598,0.096l0.688,-0.188l0.256,0.761l0,1.135l-0.086,1.14l-0.053,0.285l0.153,0l-0.041,-0.547l0.343,-0.568l0.429,0.117l0.344,-0.575l0.512,-0.225l0.173,0.683l0.083,1.366l0,0.772l0.168,-0.813l0.428,-0.385l0.255,0.858l0,1.328l-0.041,0.671l0.519,-2.554l0.428,-0.38l0.256,0.853l0,1.328l-0.087,1.328z" id="path94" fill-rule="nonzero" fill="#ed1c24"/>
  </g>
  <g id="g96" transform="matrix(1.3333333,0,0,-1.3333333,-330.00679,935.59864) ">
   <path d="m494.6113,606.91449l-1.222,1.207l0,0.011l-0.012,0l-0.306,0.305l0.046,-0.234l-0.728,0.187l0.563,1.458l-2.987,0.762l-3.115,1.208l-1.555,2.384l-2.224,-0.095l-0.506,-2.214l-0.213,-0.656l-0.605,-0.081l0.015,-1.711l-0.527,-1.612l0,-1.33l-0.09,-1.041l0,-1.141l0.173,-0.855l-0.173,-1.041l0.09,-1.234l-0.09,-1.14l0.09,-1.139l0.17,-1.044l0.342,-0.666l0,-0.851l0.172,-1.141l0.084,-0.949l0.258,-0.948l0.173,-0.948l0.339,0.284l0.089,0.851l0,1.331l0,1.617l0.086,1.705l0.515,-0.195l0.258,0.859l0,0.664l0.339,-0.192l0.342,0.573l0.098,0.649l0.248,-0.271l0.426,0.379l0.252,0.951l0.262,-0.191l0.516,0.38l0.255,0.856l0.005,0.057l0.126,-0.088l0.448,0.073l-0.066,-0.71l0.343,-0.471l0.427,0.094l0.346,-0.473l0.512,-0.193l0.094,0.312l0.165,-0.501l0.427,-0.287l0.598,0.096l0.688,-0.188l0.256,0.761l0,1.135l-0.086,1.14l-0.053,0.285l0.153,0l-0.041,-0.547l0.343,-0.568l0.429,0.117l0.344,-0.575l0.512,-0.225l0.173,0.683l0.083,1.366l0,0.772l0.168,-0.813l0.428,-0.385l0.255,0.858l0,1.328l-0.041,0.671l0.519,-2.554l0.428,-0.38l0.256,0.853l0,1.328l-0.087,1.328z" id="path98" stroke-miterlimit="4" stroke-width="0.112" stroke="#231f20" fill="#612095"/>
  </g>
  <g id="g100" transform="matrix(1.3333333,0,0,-1.3333333,-330.00679,935.59864) ">
   <path d="m515.40918,605.05219l-0.087,1.045l0,1.326l-0.471,1.441c-0.016,0.155 -0.036,0.312 -0.055,0.465l0.015,1.417l-0.276,0.035c-0.254,1.089 -0.577,1.932 -0.809,2.256c-0.506,0.719 -3.215,-0.55 -4.149,-0.678c-0.933,-0.128 -2.332,-0.379 -2.332,-0.379c0,0 -0.296,-1.271 -1.613,-1.782c-1.314,-0.505 -3.006,-0.338 -3.006,-0.338l-0.53,-2.026l-1.129,-1.11l-0.084,-1.33l0,-1.33l0.257,-0.853l0.428,0.383l0.287,1.416l0,-1.159l0.26,-0.854l0.426,0.379l0.523,2.578l-0.044,-0.696l0,-1.326l0.257,-0.857l0.428,0.381l0.164,0.857l0,-0.811l0.084,-1.366l0.176,-0.682l0.512,0.223l0.341,0.571l0.43,-0.112l0.343,0.564l-0.042,0.55l0.156,0l-0.06,-0.287l-0.081,-1.138l0,-1.139l0.255,-0.757l0.685,0.189l0.601,-0.094l0.429,0.283l0.165,0.499l0.093,-0.311l0.511,0.191l0.342,0.477l0.431,-0.096l0.342,0.476l-0.062,0.705l0.448,-0.074l0.126,0.088l0.004,-0.059l0.256,-0.853l0.515,-0.379l0.256,0.192l0.258,-0.952l0.428,-0.378l0.243,0.267l0.098,-0.646l0.343,-0.572l0.346,0.191l0,-0.662l0.252,-0.853l0.517,0.187l0.084,-1.71l0,-1.613l0,-1.328l0.086,-0.853l0.343,-0.289l0.173,0.954l0.256,0.949l0.086,0.948l0.173,1.138l0,0.857l0.338,0.664l0.173,1.041l0.087,1.14l-0.087,1.141l0.087,1.232l-0.173,1.043l0.173,0.855l0,1.138z" id="path102" fill-rule="nonzero" fill="#ed1c24"/>
  </g>
  <g id="g104" transform="matrix(1.3333333,0,0,-1.3333333,-330.00679,935.59864) ">
   <path d="m515.40918,605.05219l-0.087,1.045l0,1.326l-0.471,1.441c-0.016,0.155 -0.036,0.312 -0.055,0.465l0.015,1.417l-0.276,0.035c-0.254,1.089 -0.577,1.932 -0.809,2.256c-0.506,0.719 -3.215,-0.55 -4.149,-0.678c-0.933,-0.128 -2.332,-0.379 -2.332,-0.379c0,0 -0.296,-1.271 -1.613,-1.782c-1.314,-0.505 -3.006,-0.338 -3.006,-0.338l-0.53,-2.026l-1.129,-1.11l-0.084,-1.33l0,-1.33l0.257,-0.853l0.428,0.383l0.287,1.416l0,-1.159l0.26,-0.854l0.426,0.379l0.523,2.578l-0.044,-0.696l0,-1.326l0.257,-0.857l0.428,0.381l0.164,0.857l0,-0.811l0.084,-1.366l0.176,-0.682l0.512,0.223l0.341,0.571l0.43,-0.112l0.343,0.564l-0.042,0.55l0.156,0l-0.06,-0.287l-0.081,-1.138l0,-1.139l0.255,-0.757l0.685,0.189l0.601,-0.094l0.429,0.283l0.165,0.499l0.093,-0.311l0.511,0.191l0.342,0.477l0.431,-0.096l0.342,0.476l-0.062,0.705l0.448,-0.074l0.126,0.088l0.004,-0.059l0.256,-0.853l0.515,-0.379l0.256,0.192l0.258,-0.952l0.428,-0.378l0.243,0.267l0.098,-0.646l0.343,-0.572l0.346,0.191l0,-0.662l0.252,-0.853l0.517,0.187l0.084,-1.71l0,-1.613l0,-1.328l0.086,-0.853l0.343,-0.289l0.173,0.954l0.256,0.949l0.086,0.948l0.173,1.138l0,0.857l0.338,0.664l0.173,1.041l0.087,1.14l-0.087,1.141l0.087,1.232l-0.173,1.043l0.173,0.855l0,1.138z" id="path106" stroke-miterlimit="4" stroke-width="0.112" stroke="#231f20" fill="#612095"/>
  </g>
  <g id="g108" transform="matrix(1.3333333,0,0,-1.3333333,-330.00679,935.59864) ">
   <path d="m507.1055,581.91449c-0.772,0.309 -1.286,0.86 -1.286,1.483l-0.017,-0.027c0,-0.969 -1.224,-1.749 -2.734,-1.749c-1.51,0 -2.734,0.78 -2.734,1.749l-0.051,0c0,-0.969 -1.225,-1.749 -2.731,-1.749c-1.512,0 -2.736,0.78 -2.736,1.749l0.008,-0.035c0,-0.965 -1.222,-1.747 -2.734,-1.747c-1.506,0 -2.731,0.782 -2.731,1.747l0.016,-0.034c0,-0.969 -1.226,-1.748 -2.736,-1.748c-1.51,0 -2.735,0.779 -2.735,1.748l0.019,0.05c0,-0.967 -1.224,-1.746 -2.733,-1.746c-1.51,0 -2.735,0.779 -2.735,1.746l0.015,0.019c0,-0.611 -0.361,-1.069 -1.107,-1.382" id="path110" stroke-miterlimit="4" stroke-width="0.254" stroke="#ffffff" fill="none"/>
  </g>
  <g id="g112" transform="matrix(1.3333333,0,0,-1.3333333,-330.00679,935.59864) ">
   <path d="m518.02643,581.88708c-0.772,0.311 -1.283,0.854 -1.283,1.483l-0.02,-0.032c0,-0.964 -1.222,-1.746 -2.735,-1.746c-1.507,0 -2.733,0.782 -2.733,1.746l-0.048,0c0,-0.964 -1.222,-1.746 -2.736,-1.746c-1.512,0 -2.732,0.782 -2.732,1.746l0.008,-0.029c0,-0.967 -1.223,-1.75 -2.733,-1.75c-1.509,0 -2.736,0.783 -2.736,1.75l0.019,-0.037c0,-0.969 -1.224,-1.751 -2.734,-1.751c-1.512,0 -2.738,0.782 -2.738,1.751l0.019,0.047c0,-0.962 -1.222,-1.746 -2.735,-1.746c-1.51,0 -2.733,0.784 -2.733,1.746l0.015,0.024c0,-0.613 -0.362,-1.069 -1.109,-1.386" id="path114" stroke-miterlimit="4" stroke-width="0.254" stroke="#ffffff" fill="none"/>
  </g>
  <g id="g116" transform="matrix(1.3333333,0,0,-1.3333333,-330.00679,935.59864) ">
   <path d="m511.26761,594.63861l-0.192,0.259l-0.217,0.191l-0.28,0.259l-0.307,0.147l-0.315,0.073l-0.432,0l-0.14,-0.01l0.044,0.05l0.348,0.186l0.369,0.069c0.038,0.004 0.066,0.008 0.102,0.014l0.024,-0.008l0.371,0.149l0.28,-0.037l0.187,-0.151l0.216,-0.185l0.092,-0.338l0.098,0.261l-0.036,0.413l-0.062,0.334l-0.124,0.301l-0.247,0.259l-0.248,0.188l-0.007,0l-0.026,0.115l-0.31,0.296l-0.343,0.036l-0.405,-0.185l-0.34,-0.147l-0.342,-0.303l-0.371,-0.297l-0.437,-0.263l-0.404,-0.297l-0.466,-0.224l-0.329,-0.132l-0.511,0.168l-0.494,0.151l-0.498,0.224l-0.531,0.298l-0.433,0.224l-0.436,0.26l-0.465,0.412l-0.373,0.372l-0.257,0.298l-0.362,0.413l-0.345,0.407l-0.402,0.521l-1.338,0.337l0.933,-2.348l0.405,-0.377l0.432,-0.257l0.498,-0.45l0.654,-0.413l0.557,-0.257l0.499,-0.15l0.558,-0.147l0.406,-0.077l0.588,-0.298l0.249,-0.11l-0.526,-0.112l-0.375,-0.039l-0.372,-0.036l-0.406,-0.037l-0.343,-0.077l-0.31,-0.184l-0.245,-0.262l-0.125,-0.443l0.039,-0.254l-0.007,-0.01l-0.094,-0.375l-0.032,-0.334l0.032,-0.376l0.157,-0.224l0.183,-0.257l0.252,-0.077l0.307,-0.037l0.251,0l0.217,0.073l-0.184,0.041l-0.251,0.034l-0.155,0.223l-0.125,0.224l0,0.301l0.056,0.134l0.101,-0.022l0.214,0.072l0.16,0.225l0.123,0.226l0.09,0.256l0.125,0.264l0.282,-0.074l0.435,-0.033l0.432,0.033l0.343,0.113l0.249,0.109l0.25,0.225l0.186,-0.072l0.25,-0.153l0.308,-0.185l0.345,-0.227l0.309,-0.221l0.249,-0.189l0.061,-0.149l-0.061,-0.22l0,-0.303l0.092,-0.257l0.281,-0.15l0.057,-0.017l0.035,-0.208l0.155,-0.297l0.094,-0.299l-0.062,-0.298l-0.187,-0.184l-0.216,-0.15l-0.375,-0.038l0.187,-0.151l0.312,-0.036l0.184,0.076l0.188,0.149l0.249,0.189l0.186,0.294l0.094,0.375l0.03,0.411l-0.03,0.334l-0.076,0.143l0.041,0.041l0.035,0.339l-0.065,0.257l-0.215,0.188l0,0.264l-0.126,0.22l-0.187,0.19l-0.249,0.297l-0.309,0.225l0.155,0l0.219,0.037l0.248,0.037l0.249,0.035l0.28,0l0.184,0l0.094,-0.109l-0.154,-0.113l0.06,-0.3l0.156,-0.336l0.249,-0.15l0.032,-0.11l0.092,-0.261l0,-0.299l-0.029,-0.297l-0.127,-0.225l0.127,0l0.217,0.184l0.216,0.266l0.063,0.257l0.066,0.303l0.026,0.332l-0.046,0.149l0.11,0.114l0.094,0.298l-0.063,0.297l-0.121,0.189z" id="path118" fill-rule="nonzero" fill="#ed1c24"/>
  </g>
  <g id="g120" transform="matrix(1.3333333,0,0,-1.3333333,-330.00679,935.59864) ">
   <path d="m511.26761,594.63861l-0.192,0.259l-0.217,0.191l-0.28,0.259l-0.307,0.147l-0.315,0.073l-0.432,0l-0.14,-0.01l0.044,0.05l0.348,0.186l0.369,0.069c0.038,0.004 0.066,0.008 0.102,0.014l0.024,-0.008l0.371,0.149l0.28,-0.037l0.187,-0.151l0.216,-0.185l0.092,-0.338l0.098,0.261l-0.036,0.413l-0.062,0.334l-0.124,0.301l-0.247,0.259l-0.248,0.188l-0.007,0l-0.026,0.115l-0.31,0.296l-0.343,0.036l-0.405,-0.185l-0.34,-0.147l-0.342,-0.303l-0.371,-0.297l-0.437,-0.263l-0.404,-0.297l-0.466,-0.224l-0.329,-0.132l-0.511,0.168l-0.494,0.151l-0.498,0.224l-0.531,0.298l-0.433,0.224l-0.436,0.26l-0.465,0.412l-0.373,0.372l-0.257,0.298l-0.362,0.413l-0.345,0.407l-0.402,0.521l-1.338,0.337l0.933,-2.348l0.405,-0.377l0.432,-0.257l0.498,-0.45l0.654,-0.413l0.557,-0.257l0.499,-0.15l0.558,-0.147l0.406,-0.077l0.588,-0.298l0.249,-0.11l-0.526,-0.112l-0.375,-0.039l-0.372,-0.036l-0.406,-0.037l-0.343,-0.077l-0.31,-0.184l-0.245,-0.262l-0.125,-0.443l0.039,-0.254l-0.007,-0.01l-0.094,-0.375l-0.032,-0.334l0.032,-0.376l0.157,-0.224l0.183,-0.257l0.252,-0.077l0.307,-0.037l0.251,0l0.217,0.073l-0.184,0.041l-0.251,0.034l-0.155,0.223l-0.125,0.224l0,0.301l0.056,0.134l0.101,-0.022l0.214,0.072l0.16,0.225l0.123,0.226l0.09,0.256l0.125,0.264l0.282,-0.074l0.435,-0.033l0.432,0.033l0.343,0.113l0.249,0.109l0.25,0.225l0.186,-0.072l0.25,-0.153l0.308,-0.185l0.345,-0.227l0.309,-0.221l0.249,-0.189l0.061,-0.149l-0.061,-0.22l0,-0.303l0.092,-0.257l0.281,-0.15l0.057,-0.017l0.035,-0.208l0.155,-0.297l0.094,-0.299l-0.062,-0.298l-0.187,-0.184l-0.216,-0.15l-0.375,-0.038l0.187,-0.151l0.312,-0.036l0.184,0.076l0.188,0.149l0.249,0.189l0.186,0.294l0.094,0.375l0.03,0.411l-0.03,0.334l-0.076,0.143l0.041,0.041l0.035,0.339l-0.065,0.257l-0.215,0.188l0,0.264l-0.126,0.22l-0.187,0.19l-0.249,0.297l-0.309,0.225l0.155,0l0.219,0.037l0.248,0.037l0.249,0.035l0.28,0l0.184,0l0.094,-0.109l-0.154,-0.113l0.06,-0.3l0.156,-0.336l0.249,-0.15l0.032,-0.11l0.092,-0.261l0,-0.299l-0.029,-0.297l-0.127,-0.225l0.127,0l0.217,0.184l0.216,0.266l0.063,0.257l0.066,0.303l0.026,0.332l-0.046,0.149l0.11,0.114l0.094,0.298l-0.063,0.297l-0.121,0.189z" id="path122" stroke-miterlimit="4" stroke-width="0.112" stroke="#231f20" fill="#612095"/>
  </g>
  <g id="g124" transform="matrix(1.3333333,0,0,-1.3333333,-330.00679,935.59864) ">
   <path d="m494.15619,599.39941l-0.405,-0.523l-0.342,-0.411l-0.358,-0.406l-0.26,-0.301l-0.374,-0.373l-0.468,-0.409l-0.434,-0.261l-0.434,-0.226l-0.529,-0.297l-0.498,-0.224l-0.497,-0.151l-0.509,-0.167l-0.329,0.13l-0.469,0.225l-0.404,0.301l-0.43,0.261l-0.376,0.293l-0.34,0.303l-0.343,0.15l-0.406,0.184l-0.341,-0.035l-0.309,-0.299l-0.024,-0.114l-0.01,0l-0.248,-0.189l-0.248,-0.257l-0.124,-0.297l-0.06,-0.338l-0.033,-0.41l0.093,-0.26l0.091,0.334l0.219,0.185l0.187,0.151l0.281,0.037l0.372,-0.147l0.014,0.006c0.055,-0.011 0.106,-0.021 0.181,-0.029l0.304,-0.055l0.341,-0.183l0.043,-0.051l-0.138,0.012l-0.437,0l-0.308,-0.077l-0.313,-0.147l-0.275,-0.262l-0.221,-0.184l-0.186,-0.261l-0.122,-0.189l-0.065,-0.297l0.095,-0.3l0.106,-0.112l-0.045,-0.146l0.031,-0.334l0.061,-0.303l0.065,-0.26l0.216,-0.262l0.218,-0.183l0.122,0l-0.122,0.222l-0.03,0.301l0,0.299l0.093,0.256l0.029,0.113l0.252,0.151l0.154,0.336l0.061,0.297l-0.158,0.112l0.097,0.11l0.188,0l0.278,0l0.248,-0.039l0.25,-0.034l0.216,-0.037l0.154,0l-0.31,-0.222l-0.247,-0.303l-0.186,-0.183l-0.125,-0.223l0,-0.262l-0.221,-0.189l-0.057,-0.26l0.026,-0.335l0.047,-0.041l-0.073,-0.144l-0.034,-0.338l0.034,-0.41l0.089,-0.374l0.189,-0.298l0.248,-0.184l0.185,-0.148l0.188,-0.075l0.309,0.037l0.189,0.149l-0.374,0.037l-0.217,0.148l-0.187,0.186l-0.064,0.295l0.097,0.301l0.154,0.301l0.038,0.2l0.055,0.022l0.276,0.151l0.099,0.258l0,0.303l-0.066,0.219l0.066,0.148l0.248,0.19l0.308,0.224l0.344,0.223l0.311,0.188l0.246,0.147l0.188,0.075l0.248,-0.222l0.251,-0.116l0.341,-0.11l0.434,-0.035l0.436,0.035l0.278,0.075l0.126,-0.26l0.093,-0.259l0.125,-0.228l0.155,-0.222l0.215,-0.072l0.1,0.017l0.055,-0.134l0,-0.296l-0.123,-0.224l-0.154,-0.222l-0.248,-0.04l-0.187,-0.035l0.216,-0.078l0.251,0l0.308,0.039l0.25,0.074l0.186,0.262l0.154,0.224l0.031,0.372l-0.031,0.335l-0.092,0.376l-0.007,0.009l0.039,0.252l-0.123,0.448l-0.249,0.259l-0.313,0.185l-0.345,0.077l-0.399,0.037l-0.376,0.035l-0.371,0.039l-0.529,0.11l0.25,0.111l0.59,0.3l0.403,0.075l0.56,0.147l0.494,0.151l0.562,0.26l0.653,0.414l0.498,0.448l0.434,0.258l0.404,0.373l0.932,2.348l-1.336,-0.334z" id="path126" fill-rule="nonzero" fill="#ed1c24"/>
  </g>
  <g id="g128" transform="matrix(1.3333333,0,0,-1.3333333,-330.00679,935.59864) ">
   <path d="m494.15619,599.39941l-0.405,-0.523l-0.342,-0.411l-0.358,-0.406l-0.26,-0.301l-0.374,-0.373l-0.468,-0.409l-0.434,-0.261l-0.434,-0.226l-0.529,-0.297l-0.498,-0.224l-0.497,-0.151l-0.509,-0.167l-0.329,0.13l-0.469,0.225l-0.404,0.301l-0.43,0.261l-0.376,0.293l-0.34,0.303l-0.343,0.15l-0.406,0.184l-0.341,-0.035l-0.309,-0.299l-0.024,-0.114l-0.01,0l-0.248,-0.189l-0.248,-0.257l-0.124,-0.297l-0.06,-0.338l-0.033,-0.41l0.093,-0.26l0.091,0.334l0.219,0.185l0.187,0.151l0.281,0.037l0.372,-0.147l0.014,0.006c0.055,-0.011 0.106,-0.021 0.181,-0.029l0.304,-0.055l0.341,-0.183l0.043,-0.051l-0.138,0.012l-0.437,0l-0.308,-0.077l-0.313,-0.147l-0.275,-0.262l-0.221,-0.184l-0.186,-0.261l-0.122,-0.189l-0.065,-0.297l0.095,-0.3l0.106,-0.112l-0.045,-0.146l0.031,-0.334l0.061,-0.303l0.065,-0.26l0.216,-0.262l0.218,-0.183l0.122,0l-0.122,0.222l-0.03,0.301l0,0.299l0.093,0.256l0.029,0.113l0.252,0.151l0.154,0.336l0.061,0.297l-0.158,0.112l0.097,0.11l0.188,0l0.278,0l0.248,-0.039l0.25,-0.034l0.216,-0.037l0.154,0l-0.31,-0.222l-0.247,-0.303l-0.186,-0.183l-0.125,-0.223l0,-0.262l-0.221,-0.189l-0.057,-0.26l0.026,-0.335l0.047,-0.041l-0.073,-0.144l-0.034,-0.338l0.034,-0.41l0.089,-0.374l0.189,-0.298l0.248,-0.184l0.185,-0.148l0.188,-0.075l0.309,0.037l0.189,0.149l-0.374,0.037l-0.217,0.148l-0.187,0.186l-0.064,0.295l0.097,0.301l0.154,0.301l0.038,0.2l0.055,0.022l0.276,0.151l0.099,0.258l0,0.303l-0.066,0.219l0.066,0.148l0.248,0.19l0.308,0.224l0.344,0.223l0.311,0.188l0.246,0.147l0.188,0.075l0.248,-0.222l0.251,-0.116l0.341,-0.11l0.434,-0.035l0.436,0.035l0.278,0.075l0.126,-0.26l0.093,-0.259l0.125,-0.228l0.155,-0.222l0.215,-0.072l0.1,0.017l0.055,-0.134l0,-0.296l-0.123,-0.224l-0.154,-0.222l-0.248,-0.04l-0.187,-0.035l0.216,-0.078l0.251,0l0.308,0.039l0.25,0.074l0.186,0.262l0.154,0.224l0.031,0.372l-0.031,0.335l-0.092,0.376l-0.007,0.009l0.039,0.252l-0.123,0.448l-0.249,0.259l-0.313,0.185l-0.345,0.077l-0.399,0.037l-0.376,0.035l-0.371,0.039l-0.529,0.11l0.25,0.111l0.59,0.3l0.403,0.075l0.56,0.147l0.494,0.151l0.562,0.26l0.653,0.414l0.498,0.448l0.434,0.258l0.404,0.373l0.932,2.348l-1.336,-0.334z" id="path130" stroke-miterlimit="4" stroke-width="0.112" stroke="#231f20" fill="#612095"/>
  </g>
  <g id="g132" transform="matrix(1.3333333,0,0,-1.3333333,-330.00679,935.59864) ">
   <path d="m515.49512,610.36658l-0.086,0.949l-0.26,0.76l-0.338,0.566l-0.431,0.667c-0.268,0.467 -0.427,0.927 -0.682,1.151c-0.253,0.22 -1.207,0.953 -2.143,0.933c-0.944,-0.011 -1.352,-0.65 -1.449,-0.949c-0.094,-0.303 -0.24,-1.687 -0.573,-1.827c-0.332,-0.146 -0.872,0.125 -1.236,0.413c-0.369,0.285 -0.764,0.648 -1.257,0.332c-0.494,-0.317 -0.145,-2.399 -1.05,-2.798c-0.256,-0.11 -0.716,0.284 -0.971,0.269c-0.251,-0.012 -1.298,-0.729 -1.759,-0.586c-0.464,0.142 -1.052,0.875 -1.307,1.191c-0.253,0.316 -0.628,0.552 -0.743,0.642l-0.415,0.397l-0.249,0.397l-0.044,0.112c-0.35,0.673 -0.377,1.218 -0.397,1.643c-0.02,0.464 0.125,1.755 0.064,2.436c-0.064,0.677 -0.213,1.586 -0.255,1.844c-0.024,0.152 -0.127,0.357 -0.097,0.66l0,0.021l-0.388,0.493l-0.094,0.095c-0.04,0.025 -0.075,0.051 -0.107,0.08c-0.032,0.029 -0.079,0.065 -0.135,0.102l-0.196,0.152l-0.142,0.096c-0.452,0.241 -1.057,0.422 -1.523,0.58l-0.207,0.039l-0.497,0.051l-0.495,0.098l-0.456,0l-0.374,0l-0.292,-0.098l-0.164,-0.249l-0.123,-0.301l0.287,-0.348l0.208,-0.346l0.249,-0.396l0.268,-0.486l0.287,-0.652l0.223,-0.462l0.194,-0.269l0.223,-0.501l0,-0.499l-0.384,-0.268l-0.449,-0.041l-0.255,0.041l0.432,-0.493l0.332,-0.304l0.206,-0.244l0,-0.45l-0.123,-0.446l-0.168,-0.348l-0.164,-0.446l-0.041,-0.347c-0.064,-0.132 -0.319,-0.252 -0.766,-0.666c-0.441,-0.411 -0.491,-0.826 -0.649,-1.018c-0.158,-0.191 -0.511,-0.236 -0.649,-0.381c-0.146,-0.144 -0.321,-0.633 -0.531,-0.682c-0.205,-0.047 -1.047,0.287 -1.459,0.446c-0.413,0.155 -0.477,0.078 -0.811,-0.144c-0.332,-0.222 -0.938,0.476 -1.13,0.794c-0.188,0.319 -0.012,1.527 -0.286,1.874c-0.268,0.352 -0.842,0.209 -1.125,-0.011c-0.286,-0.226 -1.018,-0.717 -1.524,-0.605c-0.51,0.108 -0.51,1.857 -0.877,2.24c-0.367,0.381 -0.761,0.728 -1.889,0.412c-1.13,-0.316 -1.638,-1.096 -1.737,-1.3l-0.345,-0.665l-0.424,-0.666l-0.342,-0.564l-0.26,-0.764l-0.086,-0.949l-0.083,-1.043l0.083,-1.138l0.176,-0.759l0.339,-0.19l0.173,0.379l0.256,0.666l0.259,0.662l0.254,0.763l0.173,0.756l0.173,-0.664l0.169,-0.475l0.432,-0.189l0.426,0.189l0.342,0.572l0.171,0.567l0.087,0.761l0.259,-0.857l0.254,-0.66l0.346,-0.383l0.512,-0.093l0.427,0.377l0,0.663l0.518,-0.564l0.423,-0.289l0.514,-0.474l0.43,-0.379l0.602,0l0.339,-0.567l0.346,0.092l0.339,-0.38l0.429,0l0.345,0.288l0.256,0.567l0.515,-0.475l0.429,0.096l0.326,-0.495l0.842,-0.428l0.666,-0.741l1.025,-0.21l0.031,-0.024l-0.038,-0.185l0.04,-0.446l0.083,-0.551l0.088,-0.276l0.035,-0.118l-0.04,-0.25l0.04,-0.445l0.061,-0.226l0.027,-0.073l-0.088,-0.348l0,-0.45l-0.04,-0.397l-0.206,-0.347l-0.209,-0.25l-0.291,-0.299l-0.287,-0.396l-0.209,-0.496l-0.126,-0.4l-0.042,-0.5l-0.535,0l-0.54,-0.196l-0.247,-0.299l0,-0.397l0.123,0.348l0.292,0.197l0.287,0.104l0.501,-0.051l-0.458,-0.25l-0.207,-0.397l0.249,0.199l0.248,0.147l0.287,0l0.334,0.051l-0.373,-0.298l-0.331,-0.495l-0.165,-0.551l0.126,-0.294l0.08,0.346l0.164,0.398l0.207,0.152l0.335,0.096l0.287,0l0.376,0.1l-0.168,-0.348l-0.208,-0.35l-0.246,-0.249l-0.376,-0.196l0.292,-0.052l0.289,0.052l0.29,0.149l0.333,0.296l-0.168,-0.394l-0.082,-0.352l-0.165,-0.395l-0.291,-0.3l0.332,-0.046l0.332,0.196l0.294,0.4l0.328,0.394l-0.21,-0.447l-0.118,-0.397l-0.211,-0.448l-0.456,-0.393l-0.373,-0.154l0.165,-0.1l0.373,0l0.374,0.049l0.373,0.1l0.413,0.154l0.25,0.247l0.373,0.293l-0.085,-0.344l-0.164,-0.35l-0.124,-0.349l0.249,0.3l0.165,0.248l0.248,0.548l0.043,-0.297l-0.085,-0.45l-0.082,-0.349l-0.165,-0.346l-0.29,-0.296l-0.21,-0.203l-0.329,-0.197l-0.452,-0.149l-0.502,-0.051l-0.538,-0.051l-0.661,0.051l-0.417,0.248l-0.411,0.149l0.204,-0.248l0.207,-0.296l0.291,-0.299l0.329,-0.251l0.377,-0.148l0.454,-0.051l0.415,0.051l0.454,0.049l0.373,0.148l0.292,0.202l0.329,0.395l0.045,-0.543l-0.127,-0.398l-0.123,-0.35l-0.168,-0.301l-0.289,-0.345l-0.373,-0.346l-0.33,-0.299l-0.374,-0.149l-0.372,-0.148l-0.457,-0.153l-0.455,-0.049l-0.578,-0.051l-0.498,-0.049l-0.496,0l-0.459,-0.102l-0.371,-0.097l-0.416,-0.249l-0.332,-0.246l-0.206,-0.299l-0.164,-0.3l-0.042,-0.446l0.042,-0.347l0.164,-0.402l0.206,-0.196l0.249,-0.099l0.288,-0.05l0.291,0.098l0.249,0.348l-0.207,-0.198l-0.208,-0.15l-0.249,0l-0.248,0.15l-0.122,0.297l0,0.301l0.039,0.348l0.167,0.346l0.331,0.3l0.416,0.15l0.457,0.098l0.37,-0.05l0.499,0l-0.33,-0.198l-0.252,-0.347l-0.122,-0.497l0.04,-0.401l0.207,-0.297l0.335,-0.248l0.495,0l-0.208,0.099l-0.247,0.297l-0.083,0.349l0.083,0.399l0.247,0.299l0.334,0.147l0.455,0.049l0.494,0.151l0.417,0.198l0.579,0.148l0.413,0.297l0.417,0.301l0.413,0.396l0.29,0.4l0.371,0.595l-0.039,-0.595l0,-0.501l-0.208,-0.445l-0.205,-0.398l-0.333,-0.349l-0.374,-0.394l-0.332,-0.299l-0.29,-0.298l-0.332,-0.248l-0.414,-0.103l-0.415,0l-0.368,0.05l-0.333,0.098l-0.455,0.401l0.33,-0.401l0.29,-0.295l0.413,-0.202l0.292,-0.146l0.454,0.048l0.538,0.15l0.375,0.198l0.371,0.301l0.374,0.249l0.374,0.446l0.329,0.346l-0.122,-0.248l0.041,-0.395l-0.041,-0.452l-0.043,-0.497l-0.164,-0.446l-0.21,-0.249l-0.288,-0.15l-0.456,0.051l0.329,-0.198l0.376,0l0.289,0.049l0.369,0.199l0,-0.346l0.046,-0.497l0.165,-0.547l0.165,-0.396l0.083,0.345l0.123,0.45l0.127,0.544l0.081,0.447l0.042,0.298l0.249,-0.298l0.289,-0.199l0.29,-0.147l0.456,0.098l-0.331,0.147l-0.165,0.25l-0.209,0.35l-0.121,0.297l-0.085,0.4l-0.038,0.297l0.079,0.497l0.295,-0.399l0.244,-0.35l0.457,-0.247l0.332,-0.148l0.333,-0.149l0.495,-0.051l0.414,0.15l0.413,0.097l0.334,0.303l0.288,0.248l0.248,0.447l-0.162,-0.198l-0.251,-0.149l-0.249,-0.1l-0.287,-0.101l-0.292,-0.048l-0.415,0.149l-0.412,0.198l-0.418,0.199l-0.33,0.247l-0.291,0.248l-0.207,0.398l-0.207,0.495l-0.25,0.651l-0.161,0.745l-0.086,0.895l-0.085,1.144l0.171,-0.599l0.203,-0.497l0.29,-0.547l0.332,-0.396l0.456,-0.497l0.377,-0.4l0.411,-0.247l0.494,-0.299l0.499,-0.249l0.497,-0.098l0.289,-0.148l0.292,-0.2l0.165,-0.25l0.125,-0.445l0,-0.449l-0.164,-0.3l-0.542,-0.299l0.416,0.052l0.33,0.198l0.249,0.301l0.166,0.398l0,0.395l-0.123,0.45l-0.245,0.448l-0.377,0.293l-0.581,0.202l0.413,-0.051l0.373,0l0.457,0l0.539,0l0.54,-0.151l0.538,-0.248l0.373,-0.247l0.332,-0.349l0.25,-0.394l0.122,-0.597l0,-0.798l0.165,0.595l0,0.551l-0.123,0.544l-0.25,0.448l-0.37,0.398l-0.457,0.348l-0.622,0.25l-0.498,0.2l-0.579,0.047l-0.702,0l-0.625,0l-0.623,0.151l-0.494,0.197l-0.495,0.348l-0.416,0.399l-0.291,0.347l-0.207,0.55l-0.208,0.495l-0.413,0.596l0.413,-0.348l0.333,-0.347l0.412,-0.297l0.623,-0.254l0.58,-0.047l0.705,0.047l0.453,0.155l0.415,0.299l0.457,0.543l0.333,0.648l-0.25,-0.399l-0.332,-0.297l-0.37,-0.2l-0.458,-0.147l-0.497,-0.051l-0.621,0.099l-0.579,0.099l-0.459,0.248l-0.497,0.398l-0.331,0.549l-0.291,0.501l-0.204,0.642l0.204,-0.497l0.291,-0.399l0.416,-0.399l0.373,-0.098l-0.458,0.348l-0.208,0.352l-0.206,0.396l-0.291,0.893l0.291,-0.543l0.333,-0.45l0.33,-0.245l0.374,-0.205l0.415,0l0.289,0.154l0.124,0.145l-0.331,-0.045l-0.329,0l-0.374,0.196l-0.25,0.344l-0.207,0.499l0,0.649l0.084,0.495l0.041,0.599l0.122,-0.649l0.29,-0.445l0.377,-0.446l0.453,-0.5l0.247,-0.646l0.168,-0.35l0.164,0.501l-0.082,0.445l-0.25,0.599l0.377,-0.449l0.205,-0.498l0.207,-0.796l0.042,0.699l0,0.495l-0.169,0.5l-0.123,0.497l0.25,-0.25l0.332,-0.399l0.249,-0.348l0.167,-0.347l0.162,-0.495l0.123,-0.352l0.125,0.497l0,0.601l-0.125,0.495l-0.205,0.395l-0.333,0.597l0.373,-0.198l0.211,-0.247l0.248,-0.397l0.246,-0.599l0.168,0.05l-0.086,0.645l-0.123,0.497l-0.249,0.448l-0.125,0.303l0.292,-0.101l0.291,-0.153l0.412,-0.399l-0.289,0.602l-0.457,0.642l-0.289,0.55l-0.25,0.595l-0.248,0.6l-0.497,0.595l-0.373,0.446l-0.333,0.147l0.171,0.649l0.12,0.597l0,0.743l0.014,0.127l0.151,0.423l0.085,0.644l0.042,0.6l1.697,0.257l0.666,0.737l0.842,0.432l0.326,0.493l0.429,-0.092l0.516,0.475l0.255,-0.567l0.343,-0.287l0.432,0l0.339,0.379l0.343,-0.092l0.344,0.567l0.603,0l0.422,0.376l0.516,0.479l0.428,0.283l0.518,0.566l0,-0.66l0.422,-0.381l0.516,0.094l0.346,0.381l0.256,0.664l0.258,0.855l0.083,-0.76l0.174,-0.57l0.341,-0.57l0.426,-0.19l0.431,0.19l0.17,0.475l0.171,0.665l0.176,-0.759l0.255,-0.762l0.256,-0.662l0.259,-0.662l0.169,-0.382l0.342,0.189l0.173,0.758l0.084,1.14l-0.084,1.045z" id="path134" fill-rule="nonzero" fill="#ed1c24"/>
  </g>
  <g id="g136" transform="matrix(1.3333333,0,0,-1.3333333,-330.00679,935.59864) ">
   <path d="m515.49512,610.36658l-0.086,0.949l-0.26,0.76l-0.338,0.566l-0.431,0.667c-0.268,0.467 -0.427,0.927 -0.682,1.151c-0.253,0.22 -1.207,0.953 -2.143,0.933c-0.944,-0.011 -1.352,-0.65 -1.449,-0.949c-0.094,-0.303 -0.24,-1.687 -0.573,-1.827c-0.332,-0.146 -0.872,0.125 -1.236,0.413c-0.369,0.285 -0.764,0.648 -1.257,0.332c-0.494,-0.317 -0.145,-2.399 -1.05,-2.798c-0.256,-0.11 -0.716,0.284 -0.971,0.269c-0.251,-0.012 -1.298,-0.729 -1.759,-0.586c-0.464,0.142 -1.052,0.875 -1.307,1.191c-0.253,0.316 -0.628,0.552 -0.743,0.642l-0.415,0.397l-0.249,0.397l-0.044,0.112c-0.35,0.673 -0.377,1.218 -0.397,1.643c-0.02,0.464 0.125,1.755 0.064,2.436c-0.064,0.677 -0.213,1.586 -0.255,1.844c-0.024,0.152 -0.127,0.357 -0.097,0.66l0,0.021l-0.388,0.493l-0.094,0.095c-0.04,0.025 -0.075,0.051 -0.107,0.08c-0.032,0.029 -0.079,0.065 -0.135,0.102l-0.196,0.152l-0.142,0.096c-0.452,0.241 -1.057,0.422 -1.523,0.58l-0.207,0.039l-0.497,0.051l-0.495,0.098l-0.456,0l-0.374,0l-0.292,-0.098l-0.164,-0.249l-0.123,-0.301l0.287,-0.348l0.208,-0.346l0.249,-0.396l0.268,-0.486l0.287,-0.652l0.223,-0.462l0.194,-0.269l0.223,-0.501l0,-0.499l-0.384,-0.268l-0.449,-0.041l-0.255,0.041l0.432,-0.493l0.332,-0.304l0.206,-0.244l0,-0.45l-0.123,-0.446l-0.168,-0.348l-0.164,-0.446l-0.041,-0.347c-0.064,-0.132 -0.319,-0.252 -0.766,-0.666c-0.441,-0.411 -0.491,-0.826 -0.649,-1.018c-0.158,-0.191 -0.511,-0.236 -0.649,-0.381c-0.146,-0.144 -0.321,-0.633 -0.531,-0.682c-0.205,-0.047 -1.047,0.287 -1.459,0.446c-0.413,0.155 -0.477,0.078 -0.811,-0.144c-0.332,-0.222 -0.938,0.476 -1.13,0.794c-0.188,0.319 -0.012,1.527 -0.286,1.874c-0.268,0.352 -0.842,0.209 -1.125,-0.011c-0.286,-0.226 -1.018,-0.717 -1.524,-0.605c-0.51,0.108 -0.51,1.857 -0.877,2.24c-0.367,0.381 -0.761,0.728 -1.889,0.412c-1.13,-0.316 -1.638,-1.096 -1.737,-1.3l-0.345,-0.665l-0.424,-0.666l-0.342,-0.564l-0.26,-0.764l-0.086,-0.949l-0.083,-1.043l0.083,-1.138l0.176,-0.759l0.339,-0.19l0.173,0.379l0.256,0.666l0.259,0.662l0.254,0.763l0.173,0.756l0.173,-0.664l0.169,-0.475l0.432,-0.189l0.426,0.189l0.342,0.572l0.171,0.567l0.087,0.761l0.259,-0.857l0.254,-0.66l0.346,-0.383l0.512,-0.093l0.427,0.377l0,0.663l0.518,-0.564l0.423,-0.289l0.514,-0.474l0.43,-0.379l0.602,0l0.339,-0.567l0.346,0.092l0.339,-0.38l0.429,0l0.345,0.288l0.256,0.567l0.515,-0.475l0.429,0.096l0.326,-0.495l0.842,-0.428l0.666,-0.741l1.025,-0.21l0.031,-0.024l-0.038,-0.185l0.04,-0.446l0.083,-0.551l0.088,-0.276l0.035,-0.118l-0.04,-0.25l0.04,-0.445l0.061,-0.226l0.027,-0.073l-0.088,-0.348l0,-0.45l-0.04,-0.397l-0.206,-0.347l-0.209,-0.25l-0.291,-0.299l-0.287,-0.396l-0.209,-0.496l-0.126,-0.4l-0.042,-0.5l-0.535,0l-0.54,-0.196l-0.247,-0.299l0,-0.397l0.123,0.348l0.292,0.197l0.287,0.104l0.501,-0.051l-0.458,-0.25l-0.207,-0.397l0.249,0.199l0.248,0.147l0.287,0l0.334,0.051l-0.373,-0.298l-0.331,-0.495l-0.165,-0.551l0.126,-0.294l0.08,0.346l0.164,0.398l0.207,0.152l0.335,0.096l0.287,0l0.376,0.1l-0.168,-0.348l-0.208,-0.35l-0.246,-0.249l-0.376,-0.196l0.292,-0.052l0.289,0.052l0.29,0.149l0.333,0.296l-0.168,-0.394l-0.082,-0.352l-0.165,-0.395l-0.291,-0.3l0.332,-0.046l0.332,0.196l0.294,0.4l0.328,0.394l-0.21,-0.447l-0.118,-0.397l-0.211,-0.448l-0.456,-0.393l-0.373,-0.154l0.165,-0.1l0.373,0l0.374,0.049l0.373,0.1l0.413,0.154l0.25,0.247l0.373,0.293l-0.085,-0.344l-0.164,-0.35l-0.124,-0.349l0.249,0.3l0.165,0.248l0.248,0.548l0.043,-0.297l-0.085,-0.45l-0.082,-0.349l-0.165,-0.346l-0.29,-0.296l-0.21,-0.203l-0.329,-0.197l-0.452,-0.149l-0.502,-0.051l-0.538,-0.051l-0.661,0.051l-0.417,0.248l-0.411,0.149l0.204,-0.248l0.207,-0.296l0.291,-0.299l0.329,-0.251l0.377,-0.148l0.454,-0.051l0.415,0.051l0.454,0.049l0.373,0.148l0.292,0.202l0.329,0.395l0.045,-0.543l-0.127,-0.398l-0.123,-0.35l-0.168,-0.301l-0.289,-0.345l-0.373,-0.346l-0.33,-0.299l-0.374,-0.149l-0.372,-0.148l-0.457,-0.153l-0.455,-0.049l-0.578,-0.051l-0.498,-0.049l-0.496,0l-0.459,-0.102l-0.371,-0.097l-0.416,-0.249l-0.332,-0.246l-0.206,-0.299l-0.164,-0.3l-0.042,-0.446l0.042,-0.347l0.164,-0.402l0.206,-0.196l0.249,-0.099l0.288,-0.05l0.291,0.098l0.249,0.348l-0.207,-0.198l-0.208,-0.15l-0.249,0l-0.248,0.15l-0.122,0.297l0,0.301l0.039,0.348l0.167,0.346l0.331,0.3l0.416,0.15l0.457,0.098l0.37,-0.05l0.499,0l-0.33,-0.198l-0.252,-0.347l-0.122,-0.497l0.04,-0.401l0.207,-0.297l0.335,-0.248l0.495,0l-0.208,0.099l-0.247,0.297l-0.083,0.349l0.083,0.399l0.247,0.299l0.334,0.147l0.455,0.049l0.494,0.151l0.417,0.198l0.579,0.148l0.413,0.297l0.417,0.301l0.413,0.396l0.29,0.4l0.371,0.595l-0.039,-0.595l0,-0.501l-0.208,-0.445l-0.205,-0.398l-0.333,-0.349l-0.374,-0.394l-0.332,-0.299l-0.29,-0.298l-0.332,-0.248l-0.414,-0.103l-0.415,0l-0.368,0.05l-0.333,0.098l-0.455,0.401l0.33,-0.401l0.29,-0.295l0.413,-0.202l0.292,-0.146l0.454,0.048l0.538,0.15l0.375,0.198l0.371,0.301l0.374,0.249l0.374,0.446l0.329,0.346l-0.122,-0.248l0.041,-0.395l-0.041,-0.452l-0.043,-0.497l-0.164,-0.446l-0.21,-0.249l-0.288,-0.15l-0.456,0.051l0.329,-0.198l0.376,0l0.289,0.049l0.369,0.199l0,-0.346l0.046,-0.497l0.165,-0.547l0.165,-0.396l0.083,0.345l0.123,0.45l0.127,0.544l0.081,0.447l0.042,0.298l0.249,-0.298l0.289,-0.199l0.29,-0.147l0.456,0.098l-0.331,0.147l-0.165,0.25l-0.209,0.35l-0.121,0.297l-0.085,0.4l-0.038,0.297l0.079,0.497l0.295,-0.399l0.244,-0.35l0.457,-0.247l0.332,-0.148l0.333,-0.149l0.495,-0.051l0.414,0.15l0.413,0.097l0.334,0.303l0.288,0.248l0.248,0.447l-0.162,-0.198l-0.251,-0.149l-0.249,-0.1l-0.287,-0.101l-0.292,-0.048l-0.415,0.149l-0.412,0.198l-0.418,0.199l-0.33,0.247l-0.291,0.248l-0.207,0.398l-0.207,0.495l-0.25,0.651l-0.161,0.745l-0.086,0.895l-0.085,1.144l0.171,-0.599l0.203,-0.497l0.29,-0.547l0.332,-0.396l0.456,-0.497l0.377,-0.4l0.411,-0.247l0.494,-0.299l0.499,-0.249l0.497,-0.098l0.289,-0.148l0.292,-0.2l0.165,-0.25l0.125,-0.445l0,-0.449l-0.164,-0.3l-0.542,-0.299l0.416,0.052l0.33,0.198l0.249,0.301l0.166,0.398l0,0.395l-0.123,0.45l-0.245,0.448l-0.377,0.293l-0.581,0.202l0.413,-0.051l0.373,0l0.457,0l0.539,0l0.54,-0.151l0.538,-0.248l0.373,-0.247l0.332,-0.349l0.25,-0.394l0.122,-0.597l0,-0.798l0.165,0.595l0,0.551l-0.123,0.544l-0.25,0.448l-0.37,0.398l-0.457,0.348l-0.622,0.25l-0.498,0.2l-0.579,0.047l-0.702,0l-0.625,0l-0.623,0.151l-0.494,0.197l-0.495,0.348l-0.416,0.399l-0.291,0.347l-0.207,0.55l-0.208,0.495l-0.413,0.596l0.413,-0.348l0.333,-0.347l0.412,-0.297l0.623,-0.254l0.58,-0.047l0.705,0.047l0.453,0.155l0.415,0.299l0.457,0.543l0.333,0.648l-0.25,-0.399l-0.332,-0.297l-0.37,-0.2l-0.458,-0.147l-0.497,-0.051l-0.621,0.099l-0.579,0.099l-0.459,0.248l-0.497,0.398l-0.331,0.549l-0.291,0.501l-0.204,0.642l0.204,-0.497l0.291,-0.399l0.416,-0.399l0.373,-0.098l-0.458,0.348l-0.208,0.352l-0.206,0.396l-0.291,0.893l0.291,-0.543l0.333,-0.45l0.33,-0.245l0.374,-0.205l0.415,0l0.289,0.154l0.124,0.145l-0.331,-0.045l-0.329,0l-0.374,0.196l-0.25,0.344l-0.207,0.499l0,0.649l0.084,0.495l0.041,0.599l0.122,-0.649l0.29,-0.445l0.377,-0.446l0.453,-0.5l0.247,-0.646l0.168,-0.35l0.164,0.501l-0.082,0.445l-0.25,0.599l0.377,-0.449l0.205,-0.498l0.207,-0.796l0.042,0.699l0,0.495l-0.169,0.5l-0.123,0.497l0.25,-0.25l0.332,-0.399l0.249,-0.348l0.167,-0.347l0.162,-0.495l0.123,-0.352l0.125,0.497l0,0.601l-0.125,0.495l-0.205,0.395l-0.333,0.597l0.373,-0.198l0.211,-0.247l0.248,-0.397l0.246,-0.599l0.168,0.05l-0.086,0.645l-0.123,0.497l-0.249,0.448l-0.125,0.303l0.292,-0.101l0.291,-0.153l0.412,-0.399l-0.289,0.602l-0.457,0.642l-0.289,0.55l-0.25,0.595l-0.248,0.6l-0.497,0.595l-0.373,0.446l-0.333,0.147l0.171,0.649l0.12,0.597l0,0.743l0.014,0.127l0.151,0.423l0.085,0.644l0.042,0.6l1.697,0.257l0.666,0.737l0.842,0.432l0.326,0.493l0.429,-0.092l0.516,0.475l0.255,-0.567l0.343,-0.287l0.432,0l0.339,0.379l0.343,-0.092l0.344,0.567l0.603,0l0.422,0.376l0.516,0.479l0.428,0.283l0.518,0.566l0,-0.66l0.422,-0.381l0.516,0.094l0.346,0.381l0.256,0.664l0.258,0.855l0.083,-0.76l0.174,-0.57l0.341,-0.57l0.426,-0.19l0.431,0.19l0.17,0.475l0.171,0.665l0.176,-0.759l0.255,-0.762l0.256,-0.662l0.259,-0.662l0.169,-0.382l0.342,0.189l0.173,0.758l0.084,1.14l-0.084,1.045z" id="path138" stroke-miterlimit="4" stroke-width="0.112" stroke="#231f20" fill="#612095"/>
  </g>
  <g id="g140" transform="matrix(1.3333333,0,0,-1.3333333,-330.00679,935.59864) ">
   <path d="m496.05179,619.60931c0.123,0 0.157,-0.069 0.157,0.077c0,0.145 -0.1,0.261 -0.222,0.261c-0.121,0 -0.221,-0.116 -0.221,-0.261c0,-0.146 0.165,-0.077 0.286,-0.077" id="path142" fill-rule="nonzero" fill="#231f20"/>
  </g>
  <g id="g144" transform="matrix(1.3333333,0,0,-1.3333333,-330.00679,935.59864) ">
   <path d="m496.32419,670.74109c0.198,-1.256 0.231,-2.682 0.166,-3.272c-0.067,-0.599 0.168,-2.354 -1.853,-2.122c0.594,0.794 0.495,1.16 0.397,2.054c-0.1,0.891 -0.564,2.581 -0.994,3.075c-0.43,0.495 -0.663,0.696 -0.663,0.696c0,0 0.103,-0.496 0.233,-1.095c0.133,-0.592 0.065,-1.618 -0.13,-1.916c-0.202,-0.298 -0.731,-0.692 -1.69,-0.628c0.629,0.56 0.795,0.858 0.728,1.687c-0.083,1.06 -0.928,2.551 -1.623,3.344c0.761,0.332 3.61,-0.63 3.61,-0.63l1.819,-1.193z" id="path146" fill-rule="nonzero" fill="#ed1c24"/>
  </g>
  <g id="g148" transform="matrix(1.3333333,0,0,-1.3333333,-330.00679,935.59864) ">
   <path d="m496.32419,670.74109c0.198,-1.256 0.231,-2.682 0.166,-3.272c-0.067,-0.599 0.168,-2.354 -1.853,-2.122c0.594,0.794 0.495,1.16 0.397,2.054c-0.1,0.891 -0.564,2.581 -0.994,3.075c-0.43,0.495 -0.663,0.696 -0.663,0.696c0,0 0.103,-0.496 0.233,-1.095c0.133,-0.592 0.065,-1.618 -0.13,-1.916c-0.202,-0.298 -0.731,-0.692 -1.69,-0.628c0.629,0.56 0.795,0.858 0.728,1.687c-0.083,1.06 -0.928,2.551 -1.623,3.344c0.761,0.332 3.61,-0.63 3.61,-0.63l1.819,-1.193z" id="path150" stroke-miterlimit="4" stroke-linejoin="round" stroke-width="0.094" stroke="#231f20" fill="#ffffff"/>
  </g>
  <g id="g152" transform="matrix(1.3333333,0,0,-1.3333333,-330.00679,935.59864) ">
   <path d="m506.79791,657.98242c0.581,0.25 1.36,0.648 1.837,0.664c0.479,0.016 1.176,-0.531 1.275,-1.145c0.348,0.614 0.48,1.839 1.043,2.3c0.561,0.465 1.669,0.348 2.399,0.181c-0.993,0.483 -1.786,1.21 -2.629,2.717c-0.844,1.508 -1.636,2.501 -1.872,3.042c-0.23,0.549 -0.115,-0.923 -0.115,-0.923l-0.697,-2.401l-1.091,-3.624l-0.15,-0.811z" id="path154" fill-rule="nonzero" fill="#ffffff"/>
  </g>
  <g id="g156" transform="matrix(1.3333333,0,0,-1.3333333,-330.00679,935.59864) ">
   <path d="m506.79791,657.98242c0.581,0.25 1.36,0.648 1.837,0.664c0.479,0.016 1.176,-0.531 1.275,-1.145c0.348,0.614 0.48,1.839 1.043,2.3c0.561,0.465 1.669,0.348 2.399,0.181c-0.993,0.483 -1.786,1.21 -2.629,2.717c-0.844,1.508 -1.636,2.501 -1.872,3.042c-0.23,0.549 -0.115,-0.923 -0.115,-0.923l-0.697,-2.401l-1.091,-3.624l-0.15,-0.811z" id="path158" stroke-miterlimit="4" stroke-linejoin="round" stroke-width="0.094" stroke="#231f20" fill="none"/>
  </g>
  <g id="g160" transform="matrix(1.3333333,0,0,-1.3333333,-330.00679,935.59864) ">
   <path d="m499.89749,663.4931c-0.761,-1.487 -1.687,-5.163 -3.275,-6.286c-1.588,-1.127 -1.986,-1.489 -3.344,-1.624c1.095,-0.265 2.813,-0.464 2.516,-1.028c-0.299,-0.559 -0.2,-0.394 -0.2,-0.394c0,0 0.63,0.102 0.762,-0.033c0.134,-0.132 0.332,-0.794 0.332,-1.128c0,-0.33 -0.232,-0.926 0.331,-0.397c0.564,0.533 3.075,5.298 3.11,6.027c0.034,0.728 -0.232,4.863 -0.232,4.863" id="path162" fill-rule="nonzero" fill="#ed1c24"/>
  </g>
  <g id="g164" transform="matrix(1.3333333,0,0,-1.3333333,-330.00679,935.59864) ">
   <path d="m499.89749,663.4931c-0.761,-1.487 -1.687,-5.163 -3.275,-6.286c-1.588,-1.127 -1.986,-1.489 -3.344,-1.624c1.095,-0.265 2.813,-0.464 2.516,-1.028c-0.299,-0.559 -0.2,-0.394 -0.2,-0.394c0,0 0.63,0.102 0.762,-0.033c0.134,-0.132 0.332,-0.794 0.332,-1.128c0,-0.33 -0.232,-0.926 0.331,-0.397c0.564,0.533 3.075,5.298 3.11,6.027c0.034,0.728 -0.232,4.863 -0.232,4.863z" id="path166" stroke-miterlimit="4" stroke-linejoin="round" stroke-width="0.094" stroke="#231f20" fill="#ffffff"/>
  </g>
  <g id="g168" transform="matrix(1.3333333,0,0,-1.3333333,-330.00679,935.59864) ">
   <path d="m506.68359,657.37012c-0.268,-2.451 -1.325,-5.522 -1.191,-8.308c0.131,-2.777 0.167,-4.499 1.255,-6.817c0.297,-0.63 -0.399,-0.596 -0.661,-0.133c-0.264,0.466 -0.993,3.642 -1.785,4.37c-0.799,0.729 -1.658,0.827 -1.658,-0.032c0,-0.861 -0.695,-0.761 -0.825,0.099c-0.133,0.859 -0.156,1.847 -2.746,1.523c-1.326,-0.165 -2.152,-0.797 -2.152,-0.797l9.763,10.095z" id="path170" fill-rule="nonzero" fill="#ed1c24"/>
  </g>
  <g id="g172" transform="matrix(1.3333333,0,0,-1.3333333,-330.00679,935.59864) ">
   <path d="m506.68359,657.37012c-0.268,-2.451 -1.325,-5.522 -1.191,-8.308c0.131,-2.777 0.167,-4.499 1.255,-6.817c0.297,-0.63 -0.399,-0.596 -0.661,-0.133c-0.264,0.466 -0.993,3.642 -1.785,4.37c-0.799,0.729 -1.658,0.827 -1.658,-0.032c0,-0.861 -0.695,-0.761 -0.825,0.099c-0.133,0.859 -0.156,1.847 -2.746,1.523c-1.326,-0.165 -2.152,-0.797 -2.152,-0.797l9.763,10.095z" id="path174" stroke-miterlimit="4" stroke-linejoin="round" stroke-width="0.094" stroke="#231f20" fill="#ffffff"/>
  </g>
  <g id="g176" transform="matrix(1.3333333,0,0,-1.3333333,-330.00679,935.59864) ">
   <path d="m490.43259,649.81592c2.826,0.839 9.531,2.998 9.223,10.413c-0.308,7.415 -2.559,9.797 -5.955,11.648c-1.366,0.664 -2.824,0.62 -2.824,0.62l-0.444,0.574c0,0 -0.749,0.308 -2.118,0.748c-1.366,0.443 -3.706,0.334 -4.279,0.245c-0.575,-0.092 -0.707,0.353 -0.132,0.62c0.575,0.264 5.073,0.286 5.601,0.019c0.048,0.617 -1.233,1.368 -2.823,1.631c-1.587,0.268 -3.968,0.268 -4.502,0.972c-0.525,0.705 -0.878,1.145 -0.437,1.323c0.437,0.18 2.247,-0.882 2.866,-0.618c0.62,0.265 1.282,0.4 1.811,0.839c-0.754,0.706 -0.881,1.501 -0.486,2.34c0.395,0.837 2.03,2.517 6.355,1.766c4.323,-0.754 10.898,-5.163 12.972,-7.769c2.073,-2.6 4.587,-5.47 3.705,-11.165c-0.883,-5.692 -3.525,-9.749 -6.662,-12.353c-3.134,-2.606 -6.971,-6.797 -6.971,-6.797l-0.618,3.886l-4.282,1.058z" id="path178" fill-rule="nonzero" fill="#104680"/>
  </g>
  <g id="g180" transform="matrix(1.3333333,0,0,-1.3333333,-330.00679,935.59864) ">
   <path d="m490.43259,649.81592c2.826,0.839 9.531,2.998 9.223,10.413c-0.308,7.415 -2.559,9.797 -5.955,11.648c-1.366,0.664 -2.824,0.62 -2.824,0.62l-0.444,0.574c0,0 -0.749,0.308 -2.118,0.748c-1.366,0.443 -3.706,0.334 -4.279,0.245c-0.575,-0.092 -0.707,0.353 -0.132,0.62c0.575,0.264 5.073,0.286 5.601,0.019c0.048,0.617 -1.233,1.368 -2.823,1.631c-1.587,0.268 -3.968,0.268 -4.502,0.972c-0.525,0.705 -0.878,1.145 -0.437,1.323c0.437,0.18 2.247,-0.882 2.866,-0.618c0.62,0.265 1.282,0.4 1.811,0.839c-0.754,0.706 -0.881,1.501 -0.486,2.34c0.395,0.837 2.03,2.517 6.355,1.766c4.323,-0.754 10.898,-5.163 12.972,-7.769c2.073,-2.6 4.587,-5.47 3.705,-11.165c-0.883,-5.692 -3.525,-9.749 -6.662,-12.353c-3.134,-2.606 -6.971,-6.797 -6.971,-6.797l-0.618,3.886l-4.282,1.058z" id="path182" stroke-miterlimit="4" stroke-linejoin="round" stroke-width="0.094" stroke="#231f20" fill="#ffffff"/>
  </g>
  <g id="g184" transform="matrix(1.3333333,0,0,-1.3333333,-330.00679,935.59864) ">
   <path d="m486.42679,678.87012l0.702,0.026" id="path186" stroke-miterlimit="4" stroke-linejoin="round" stroke-width="0.094" stroke="#231f20" fill="none"/>
  </g>
  <g id="g188" transform="matrix(1.3333333,0,0,-1.3333333,-330.00679,935.59864) ">
   <path d="m489.86041,678.29578c0.009,-0.167 0.155,-0.298 0.33,-0.294c0.18,0.003 0.317,0.145 0.309,0.312c-0.007,0.165 -0.155,0.296 -0.328,0.288c-0.176,-0.004 -0.314,-0.145 -0.311,-0.306" id="path190" fill-rule="nonzero" fill="#231f20"/>
  </g>
  <g id="g192" transform="matrix(1.3333333,0,0,-1.3333333,-330.00679,935.59864) ">
   <path d="m499.8428,652.90277c-4.108,-2.634 -9.131,-4.827 -14.295,0.135c-3.267,3.132 -2.559,3.217 -3.622,3.306c-1.058,0.088 -1.809,-0.264 -1.986,-0.661c0.841,0.045 1.943,0.309 2.826,-0.97c0.884,-1.281 1.191,-2.649 0.708,-3.044c-0.485,-0.402 -0.136,0.266 -0.577,-0.046c-0.438,-0.308 -0.131,-0.797 0.618,-1.408c0.753,-0.624 0.884,-0.359 1.149,-0.534c0.267,-0.177 0.969,-1.764 1.412,-2.074c0.442,-0.306 4.986,-1.765 8.386,0.529c-3.443,-2.558 -5.209,-2.91 -8.166,-3.218c2.207,-0.708 3.357,-0.883 4.324,-1.987c0.97,-1.105 0.131,-1.942 1.015,-1.942c0.884,0 0.18,0.797 0.575,0.797c0.396,0 1.724,-0.53 2.119,-1.415c0.396,-0.881 0.88,-2.864 2.823,-3.308c1.943,-0.445 2.426,0.396 2.514,0.795c-0.925,0.04 -1.013,-0.974 -2.426,0.175c-1.409,1.145 -2.867,4.193 -0.662,7.986c2.204,3.797 4.018,5.248 4.15,6.532c-0.749,-0.487 -1.239,-0.616 -1.239,-0.616l0.354,0.968z" id="path194" fill-rule="nonzero" fill="#ffffff"/>
  </g>
  <g id="g196" transform="matrix(1.3333333,0,0,-1.3333333,-330.00679,935.59864) ">
   <path d="m499.8428,652.90277c-4.108,-2.634 -9.131,-4.827 -14.295,0.135c-3.267,3.132 -2.559,3.217 -3.622,3.306c-1.058,0.088 -1.809,-0.264 -1.986,-0.661c0.841,0.045 1.943,0.309 2.826,-0.97c0.884,-1.281 1.191,-2.649 0.708,-3.044c-0.485,-0.402 -0.136,0.266 -0.577,-0.046c-0.438,-0.308 -0.131,-0.797 0.618,-1.408c0.753,-0.624 0.884,-0.359 1.149,-0.534c0.267,-0.177 0.969,-1.764 1.412,-2.074c0.442,-0.306 4.986,-1.765 8.386,0.529c-3.443,-2.558 -5.209,-2.91 -8.166,-3.218c2.207,-0.708 3.357,-0.883 4.324,-1.987c0.97,-1.105 0.131,-1.942 1.015,-1.942c0.884,0 0.18,0.797 0.575,0.797c0.396,0 1.724,-0.53 2.119,-1.415c0.396,-0.881 0.88,-2.864 2.823,-3.308c1.943,-0.445 2.426,0.396 2.514,0.795c-0.925,0.04 -1.013,-0.974 -2.426,0.175c-1.409,1.145 -2.867,4.193 -0.662,7.986c2.204,3.797 4.018,5.248 4.15,6.532c-0.749,-0.487 -1.239,-0.616 -1.239,-0.616l0.354,0.968z" id="path198" stroke-miterlimit="4" stroke-linejoin="round" stroke-width="0.094" stroke="#231f20" fill="none"/>
  </g>
  <g id="g200" transform="matrix(1.3333333,0,0,-1.3333333,-330.00679,935.59864) ">
   <path d="m486.89059,679.49847c0.713,-0.286 0.779,-0.348 0.959,-0.366c0.179,-0.018 2.337,0.646 3.279,0.662c0.941,0.016 2.282,-0.813 2.95,-2.757c0.227,1.6 -0.122,1.896 -0.553,2.378c-0.427,0.479 -1.198,0.781 -1.708,0.794c0.302,0.261 1.049,0.233 1.281,0.247c-0.73,0.213 -1.738,0.378 -3.13,-0.014c-1.391,-0.4 -1.834,-1.002 -1.999,-0.998c-0.166,0.004 -1.079,0.054 -1.079,0.054" id="path202" fill-rule="nonzero" fill="#ed1c24"/>
  </g>
  <g id="g204" transform="matrix(1.3333333,0,0,-1.3333333,-330.00679,935.59864) ">
   <path d="m486.89059,679.49847c0.713,-0.286 0.779,-0.348 0.959,-0.366c0.179,-0.018 2.337,0.646 3.279,0.662c0.941,0.016 2.282,-0.813 2.95,-2.757c0.227,1.6 -0.122,1.896 -0.553,2.378c-0.427,0.479 -1.198,0.781 -1.708,0.794c0.302,0.261 1.049,0.233 1.281,0.247c-0.73,0.213 -1.738,0.378 -3.13,-0.014c-1.391,-0.4 -1.834,-1.002 -1.999,-0.998c-0.166,0.004 -1.079,0.054 -1.079,0.054z" id="path206" stroke-miterlimit="4" stroke-linejoin="round" stroke-width="0.094" stroke="#231f20" fill="#ffffff"/>
  </g>
  <g id="g208" transform="matrix(1.3333333,0,0,-1.3333333,-330.00679,935.59864) ">
   <path d="m489.5723,683.15417c0.796,0.063 4.55,-0.219 6.075,1.837c-0.032,-0.664 -0.449,-1.209 -1.142,-1.638c0.909,-0.116 2.153,-0.1 3.125,0.063c0.976,0.167 2.5,0.816 2.939,1.675c-0.124,-1.094 -0.885,-1.426 -1.365,-1.838c-0.482,-0.415 -0.565,-0.827 -1.673,-0.845c1.125,-0.248 2.515,-0.795 3.51,-0.944c0.993,-0.147 3.112,-0.282 4.63,1.209c-0.362,-1.258 -0.856,-1.851 -2.115,-2.187c-1.256,-0.328 -1.377,-0.412 -2.037,-0.443c0.844,-0.863 1.808,-1.938 3.08,-3.145c1.275,-1.209 3.225,-3.177 6.021,-1.424c-0.398,-1.173 -1.521,-1.52 -2.779,-1.34c-1.257,0.182 -2.449,0.466 -3.409,1.026c-0.96,0.561 -1.11,1.02 -1.505,1.919c0.245,-1.126 0.629,-2.499 0.942,-2.728c-0.443,0.197 -1.579,1.406 -1.824,2.018c-0.377,-0.316 -0.662,-0.686 -1.057,-0.801c0.116,0.519 0.514,1.079 -0.027,1.843c-0.548,0.763 -1.52,1.598 -1.823,1.934c0.231,-0.942 0.496,-1.773 0.345,-2.117c-0.145,-0.346 -0.723,-1.157 -1.01,-1.44c0.12,0.563 0.249,1.159 0.249,1.159c0,0 -0.527,-1.009 -0.793,-1.242c-0.263,-0.231 -0.828,-0.598 -2.314,-0.545c1.256,0.545 2.183,1.01 2.051,2.402c-0.135,1.389 -0.451,2.411 -1.659,3.387c-1.206,0.98 -2.43,1.525 -3.306,1.69c-0.878,0.167 -2.007,0.167 -2.431,0.296c-0.431,0.136 -0.698,0.219 -0.698,0.219" id="path210" fill-rule="nonzero" fill="#ed1c24"/>
  </g>
  <g id="g212" transform="matrix(1.3333333,0,0,-1.3333333,-330.00679,935.59864) ">
   <path d="m489.5723,683.15417c0.796,0.063 4.55,-0.219 6.075,1.837c-0.032,-0.664 -0.449,-1.209 -1.142,-1.638c0.909,-0.116 2.153,-0.1 3.125,0.063c0.976,0.167 2.5,0.816 2.939,1.675c-0.124,-1.094 -0.885,-1.426 -1.365,-1.838c-0.482,-0.415 -0.565,-0.827 -1.673,-0.845c1.125,-0.248 2.515,-0.795 3.51,-0.944c0.993,-0.147 3.112,-0.282 4.63,1.209c-0.362,-1.258 -0.856,-1.851 -2.115,-2.187c-1.256,-0.328 -1.377,-0.412 -2.037,-0.443c0.844,-0.863 1.808,-1.938 3.08,-3.145c1.275,-1.209 3.225,-3.177 6.021,-1.424c-0.398,-1.173 -1.521,-1.52 -2.779,-1.34c-1.257,0.182 -2.449,0.466 -3.409,1.026c-0.96,0.561 -1.11,1.02 -1.505,1.919c0.245,-1.126 0.629,-2.499 0.942,-2.728c-0.443,0.197 -1.579,1.406 -1.824,2.018c-0.377,-0.316 -0.662,-0.686 -1.057,-0.801c0.116,0.519 0.514,1.079 -0.027,1.843c-0.548,0.763 -1.52,1.598 -1.823,1.934c0.231,-0.942 0.496,-1.773 0.345,-2.117c-0.145,-0.346 -0.723,-1.157 -1.01,-1.44c0.12,0.563 0.249,1.159 0.249,1.159c0,0 -0.527,-1.009 -0.793,-1.242c-0.263,-0.231 -0.828,-0.598 -2.314,-0.545c1.256,0.545 2.183,1.01 2.051,2.402c-0.135,1.389 -0.451,2.411 -1.659,3.387c-1.206,0.98 -2.43,1.525 -3.306,1.69c-0.878,0.167 -2.007,0.167 -2.431,0.296c-0.431,0.136 -0.698,0.219 -0.698,0.219z" id="path214" stroke-miterlimit="4" stroke-linejoin="round" stroke-width="0.094" stroke="#231f20" fill="#ffffff"/>
  </g>
  <g id="g216" transform="matrix(1.3333333,0,0,-1.3333333,-330.00679,935.59864) ">
   <path d="m497.53119,682.40863c-0.38,0.032 -0.991,0.066 -0.991,0.066" id="path218" stroke-miterlimit="4" stroke-linejoin="round" stroke-width="0.094" stroke="#231f20" fill="none"/>
  </g>
  <g id="g220" transform="matrix(1.3333333,0,0,-1.3333333,-330.00679,935.59864) ">
   <path d="m494.50491,683.35303c-0.364,-0.052 -0.647,-0.085 -0.96,-0.115" id="path222" stroke-miterlimit="4" stroke-linejoin="round" stroke-width="0.094" stroke="#231f20" fill="none"/>
  </g>
  <g id="g224" transform="matrix(1.3333333,0,0,-1.3333333,-330.00679,935.59864) ">
   <path d="m319.95801,615.82269l2.494,0c2.447,0 4.377,-1.255 4.377,-3.545c0,-2.227 -1.71,-3.608 -3.812,-3.608c-0.392,0 -0.486,0 -0.816,0.031l0,1.192c0.267,-0.031 0.345,-0.031 0.596,-0.031c1.412,0 2.51,0.878 2.51,2.322c0,1.631 -1.208,2.368 -3.012,2.368l-0.862,0l0,-9.866l-1.475,0l0,11.137z" id="path226" fill-rule="nonzero" fill="#ffffff"/>
  </g>
  <g id="g228" transform="matrix(1.3333333,0,0,-1.3333333,-330.00679,935.59864) ">
   <path d="m330.99899,614.59912l-0.878,0l0,-4.408c0,0 0.862,-0.031 1.741,-0.031c1.27,0 2.196,0.831 2.196,2.18c0,1.616 -1.287,2.259 -3.059,2.259m2.479,-7.576l-1.177,2.008l-2.18,0l0,-4.346l-1.475,0l0,11.138l2.541,0c2.573,0 4.408,-1.114 4.408,-3.357c0,-1.192 -0.502,-2.29 -1.867,-2.933l1.067,-1.789c1.004,-1.647 1.537,-1.914 2.432,-2.039l-0.158,-1.066c-1.772,0.046 -2.368,0.282 -3.591,2.384" id="path230" fill-rule="nonzero" fill="#ffffff"/>
  </g>
  <g id="g232" transform="matrix(1.3333333,0,0,-1.3333333,-330.00679,935.59864) ">
   <path d="m343.5459,614.70892c-2.494,0 -4.204,-1.788 -4.204,-4.172c0,-2.667 1.679,-4.738 4.141,-4.738l0.141,0c2.714,0 4.33,1.835 4.33,4.471c0,2.667 -1.694,4.439 -4.408,4.439m-0.047,-10.196c-3.341,0 -5.694,2.463 -5.694,5.882c0,3.341 2.463,5.6 5.882,5.6c3.498,0 5.804,-2.259 5.804,-5.584c0,-3.53 -2.4,-5.898 -5.992,-5.898" id="path234" fill-rule="nonzero" fill="#ffffff"/>
  </g>
  <g id="g236" transform="matrix(1.3333333,0,0,-1.3333333,-330.00679,935.59864) ">
   <path d="m354.13129,604.66992l-4.188,11.153l1.6,0l3.466,-9.569l3.389,9.569l1.49,0l-4.078,-11.122l-1.679,-0.031z" id="path238" fill-rule="nonzero" fill="#ffffff"/>
  </g>
  <g id="g240" transform="matrix(1.3333333,0,0,-1.3333333,-330.00679,935.59864) ">
   <path d="m361.0625,604.68549l0,11.137l5.977,0l0,-1.239l-4.502,0l0,-3.624l4.156,0l0,-1.208l-4.156,0l0,-3.811l4.878,0l-0.11,-1.255l-6.243,0z" id="path242" fill-rule="nonzero" fill="#ffffff"/>
  </g>
  <g id="g244" transform="matrix(1.3333333,0,0,-1.3333333,-330.00679,935.59864) ">
   <path d="m369.59369,615.82269l1.6,0l6.525,-8.894l0,8.894l1.396,0l0,-11.137l-1.568,0l-6.557,8.972l0,-8.972l-1.396,0l0,11.137z" id="path246" fill-rule="nonzero" fill="#ffffff"/>
  </g>
  <g id="g248" transform="matrix(1.3333333,0,0,-1.3333333,-330.00679,935.59864) ">
   <path d="m387.0029,604.52869c-3.687,0 -6.071,2.165 -6.071,5.678c0,3.608 2.369,5.773 6.087,5.773c1.082,0 2.195,-0.157 3.435,-0.659l-0.126,-1.286c-1.317,0.47 -2.305,0.659 -3.357,0.659c-2.902,0 -4.517,-1.647 -4.517,-4.393c0,-2.462 1.631,-4.486 4.674,-4.486c0.895,0 2.212,0.189 3.687,0.863l-0.095,-1.334c-1.301,-0.595 -2.572,-0.815 -3.717,-0.815" id="path250" fill-rule="nonzero" fill="#ffffff"/>
  </g>
  <g id="g252" transform="matrix(1.3333333,0,0,-1.3333333,-330.00679,935.59864) ">
   <path d="m392.9292,604.68549l0,11.137l5.976,0l0,-1.239l-4.501,0l0,-3.624l4.156,0l0,-1.208l-4.156,0l0,-3.811l4.878,0l-0.109,-1.255l-6.244,0z" id="path254" fill-rule="nonzero" fill="#ffffff"/>
  </g>
  <g id="g256" transform="matrix(1.3333333,0,0,-1.3333333,-330.00679,935.59864) ">
   <path d="m359.353,593.27393l3.718,0l-1.929,5.255l-1.789,-5.255zm4.141,-1.176l-4.517,0l-1.098,-3.153l-1.49,0l4,11.121l1.631,0.032l4.282,-11.153l-1.616,0l-1.192,3.153z" id="path258" fill-rule="nonzero" fill="#ffffff"/>
  </g>
  <g id="g260" transform="matrix(1.3333333,0,0,-1.3333333,-330.00679,935.59864) ">
   <path d="m367.82129,588.94482l0,11.137l1.475,0l0,-9.882l4.847,0l-0.11,-1.255l-6.212,0z" id="path262" fill-rule="nonzero" fill="#ffffff"/>
  </g>
  <g id="g264" transform="matrix(1.3333333,0,0,-1.3333333,-330.00679,935.59864) ">
   <path d="m375.9292,600.08197l2.494,0c2.447,0 4.377,-1.255 4.377,-3.545c0,-2.227 -1.71,-3.608 -3.812,-3.608c-0.392,0 -0.486,0 -0.816,0.031l0,1.193c0.267,-0.031 0.345,-0.031 0.596,-0.031c1.412,0 2.51,0.877 2.51,2.321c0,1.631 -1.208,2.368 -3.012,2.368l-0.862,0l0,-9.866l-1.475,0l0,11.137z" id="path266" fill-rule="nonzero" fill="#ffffff"/>
  </g>
  <g id="g268" transform="matrix(1.3333333,0,0,-1.3333333,-330.00679,935.59864) ">
   <path d="m384.61719,588.94482l0,11.137l5.977,0l0,-1.239l-4.502,0l0,-3.624l4.156,0l0,-1.208l-4.156,0l0,-3.811l4.878,0l-0.11,-1.255l-6.243,0z" id="path270" fill-rule="nonzero" fill="#ffffff"/>
  </g>
  <g id="g272" transform="matrix(1.3333333,0,0,-1.3333333,-330.00679,935.59864) ">
   <path d="m395.51709,588.78851c-0.91,0 -1.96,0.141 -2.949,0.533l-0.031,1.333c1.317,-0.455 2.117,-0.564 2.98,-0.564c1.804,0 2.353,0.909 2.353,1.788c0,0.737 -0.282,1.317 -1.741,1.976l-0.879,0.392c-1.882,0.816 -2.446,1.741 -2.431,3.027c0,1.6 1.208,2.965 3.781,2.965c0.69,0 1.584,-0.078 2.494,-0.392l-0.126,-1.255c-0.989,0.298 -1.742,0.392 -2.322,0.392c-1.647,0 -2.274,-0.69 -2.274,-1.584c0,-0.753 0.314,-1.271 1.804,-1.929l0.879,-0.377c1.897,-0.784 2.446,-1.82 2.446,-3.075c0,-1.521 -1.067,-3.23 -3.984,-3.23" id="path274" fill-rule="nonzero" fill="#ffffff"/>
  </g>
  <g id="g276" transform="matrix(1.3333333,0,0,-1.3333333,-330.00679,935.59864) ">
   <path d="m308.69821,573.0473c-3.686,0 -6.07,2.165 -6.07,5.679c0,3.607 2.368,5.772 6.086,5.772c1.082,0 2.196,-0.157 3.435,-0.659l-0.125,-1.286c-1.318,0.471 -2.306,0.659 -3.357,0.659c-2.902,0 -4.518,-1.647 -4.518,-4.393c0,-2.462 1.632,-4.486 4.675,-4.486c0.894,0 2.211,0.189 3.686,0.863l-0.094,-1.334c-1.302,-0.595 -2.572,-0.815 -3.718,-0.815" id="path278" fill-rule="nonzero" fill="#ffffff"/>
  </g>
  <g id="g280" transform="matrix(1.3333333,0,0,-1.3333333,-330.00679,935.59864) ">
   <path d="m319.34671,586.86658l-2.133,-1.662l-0.721,0.768l2.933,2.259l2.823,-2.196l-0.831,-0.831l-2.071,1.662zm0.063,-3.639c-2.494,0 -4.204,-1.788 -4.204,-4.173c0,-2.667 1.679,-4.737 4.141,-4.737l0.142,0c2.713,0 4.329,1.835 4.329,4.471c0,2.667 -1.695,4.439 -4.408,4.439m-0.047,-10.196c-3.341,0 -5.694,2.463 -5.694,5.882c0,3.342 2.463,5.6 5.882,5.6c3.498,0 5.804,-2.258 5.804,-5.584c0,-3.53 -2.4,-5.898 -5.992,-5.898" id="path282" fill-rule="nonzero" fill="#ffffff"/>
  </g>
  <g id="g284" transform="matrix(1.3333333,0,0,-1.3333333,-330.00679,935.59864) ">
   <path d="m330.7793,583.08643l0,-9.882l-1.458,0l0,9.882l-3.546,0l0,1.255l8.659,0l-0.094,-1.255l-3.561,0z" id="path286" fill-rule="nonzero" fill="#ffffff"/>
  </g>
  <g id="g288" transform="matrix(1.3333333,0,0,-1.3333333,-330.00679,935.59864) ">
   <path d="m335.84369,573.20453l0,11.137l5.977,0l0,-1.24l-4.502,0l0,-3.623l4.156,0l0,-1.208l-4.156,0l0,-3.811l4.878,0l-0.11,-1.255l-6.243,0z" id="path290" fill-rule="nonzero" fill="#ffffff"/>
  </g>
  <g id="g292" transform="matrix(1.3333333,0,0,-1.3333333,-330.00679,935.59864) ">
   <path d="m350.3667,583.10199c-0.988,0 -1.474,0 -2.039,-0.016l0,-8.627c0.816,-0.031 1.427,-0.031 2.384,-0.031c2.886,0 4.706,1.6 4.706,4.392c0,3.011 -2.274,4.282 -5.051,4.282m0.283,-9.929c-1.255,0 -2.432,0 -3.797,0.032l0,11.136c1.161,0.016 1.946,0.016 3.593,0.016c3.576,0 6.494,-1.741 6.494,-5.38c0,-3.733 -2.51,-5.804 -6.29,-5.804" id="path294" fill-rule="nonzero" fill="#ffffff"/>
  </g>
  <g id="g296" transform="matrix(1.3333333,0,0,-1.3333333,-330.00679,935.59864) ">
   <path d="m358.44241,580.60779l-0.832,0.502c0.848,0.941 1.099,1.647 1.099,2.165c0,0.36 -0.142,0.737 -0.612,1.192c0.204,0.361 0.549,0.549 0.863,0.549c0.721,0 1.129,-0.706 1.113,-1.443c0,-0.533 -0.125,-1.444 -1.631,-2.965" id="path298" fill-rule="nonzero" fill="#ffffff"/>
  </g>
  <g id="g300" transform="matrix(1.3333333,0,0,-1.3333333,-330.00679,935.59864) ">
   <path d="m362.1597,577.53363l3.718,0l-1.929,5.255l-1.789,-5.255zm4.141,-1.177l-4.517,0l-1.098,-3.152l-1.49,0l4,11.121l1.631,0.031l4.282,-11.152l-1.616,0l-1.192,3.152z" id="path302" fill-rule="nonzero" fill="#ffffff"/>
  </g>
  <g id="g304" transform="matrix(1.3333333,0,0,-1.3333333,-330.00679,935.59864) ">
   <path d="m369.75,573.20453l0,1.098l5.882,8.784l-5.804,0l0,1.255l7.702,0l0,-1.004l-5.961,-8.862l6.526,0l-0.11,-1.271l-8.235,0z" id="path306" fill-rule="nonzero" fill="#ffffff"/>
  </g>
  <g id="g308" transform="matrix(1.3333333,0,0,-1.3333333,-330.00679,935.59864) ">
   <path d="m384.21039,573.03168c-3.169,0 -4.486,1.663 -4.486,5.051l0,6.259l1.474,0l0,-6.086c0,-2.479 0.753,-3.938 3.153,-3.938c2.18,0 3.027,1.412 3.027,3.78l0,6.244l1.381,0l0,-6.432c0,-3.012 -1.475,-4.878 -4.549,-4.878" id="path310" fill-rule="nonzero" fill="#ffffff"/>
  </g>
  <g id="g312" transform="matrix(1.3333333,0,0,-1.3333333,-330.00679,935.59864) ">
   <path d="m393.4155,583.11761l-0.878,0l0,-4.407c0,0 0.862,-0.031 1.741,-0.031c1.27,0 2.196,0.831 2.196,2.179c0,1.616 -1.287,2.259 -3.059,2.259m2.478,-7.576l-1.176,2.008l-2.18,0l0,-4.345l-1.475,0l0,11.137l2.541,0c2.573,0 4.408,-1.114 4.408,-3.357c0,-1.192 -0.502,-2.29 -1.867,-2.933l1.067,-1.788c1.004,-1.648 1.537,-1.915 2.431,-2.04l-0.156,-1.066c-1.773,0.047 -2.369,0.282 -3.593,2.384" id="path314" fill-rule="nonzero" fill="#ffffff"/>
  </g>
  <g id="g316" transform="matrix(1.3333333,0,0,-1.3333333,-330.00679,935.59864) ">
   <path d="m259.87109,685.12738l-1.326,0l0,-7.797c0,0 1.326,-0.078 2.729,-0.078c2.184,0 3.665,1.247 3.665,3.704c0,2.963 -2.066,4.171 -5.068,4.171m3.625,-16.491l-2.026,3.625l-2.925,0l0,-9.122l-7.29,0l0,27.68l8.382,0c7.719,0 12.826,-3.002 12.826,-9.279c0,-2.846 -1.247,-5.341 -4.015,-6.784l1.91,-3.04c1.91,-3.119 2.768,-3.548 4.718,-3.782l-0.546,-5.068c-6.862,0.078 -8.265,0.546 -11.034,5.77" id="path318" fill-rule="nonzero" fill="#ffffff"/>
  </g>
  <g id="g320" transform="matrix(1.3333333,0,0,-1.3333333,-330.00679,935.59864) ">
   <path d="m278.58011,663.1391l0,27.68l16.53,0l0,-5.965l-9.239,0l0,-4.834l8.538,0l0,-5.848l-8.538,0l0,-4.99l10.409,0l-0.429,-6.043l-17.271,0z" id="path322" fill-rule="nonzero" fill="#ffffff"/>
  </g>
  <g id="g324" transform="matrix(1.3333333,0,0,-1.3333333,-330.00679,935.59864) ">
   <path d="m314.91159,662.74951c-9.747,0 -15.79,4.678 -15.79,14.347c0,9.045 6.394,14.112 15.829,14.112c2.339,0 5.614,-0.389 8.343,-1.208l-0.624,-5.926c-3.391,0.897 -5.809,1.092 -7.719,1.092c-5.263,0 -8.304,-2.495 -8.304,-7.68c0,-5.693 3.236,-8.734 7.836,-8.734c0.741,0 1.677,0.079 2.69,0.351l0,7.369l7.291,0l0,-8.499c0,-1.95 0.078,-3.548 0.078,-3.548c-3.548,-1.092 -6.745,-1.676 -9.63,-1.676" id="path326" fill-rule="nonzero" fill="#ffffff"/>
  </g>
  <path d="m108.89453,14.50666l9.72133,0l0,36.90667l-9.72133,0l0,-36.90667z" id="path328" fill-rule="nonzero" fill="#ffffff"/>
  <g id="g330" transform="matrix(1.3333333,0,0,-1.3333333,-330.00679,935.59864) ">
   <path d="m354.4375,685.20551c-4.405,0 -6.979,-3.236 -6.979,-7.603c0,-4.795 2.73,-8.888 7.174,-8.888l0.234,0c4.639,0 7.095,3.782 7.095,8.46c0,4.834 -2.768,8.031 -7.524,8.031m0.078,-22.456c-8.655,0 -14.542,5.769 -14.542,14.502c0,8.617 6.043,13.957 14.971,13.957c8.772,0 14.503,-5.34 14.503,-13.606c0,-8.85 -5.887,-14.853 -14.932,-14.853" id="path332" fill-rule="nonzero" fill="#ffffff"/>
  </g>
  <g id="g334" transform="matrix(1.3333333,0,0,-1.3333333,-330.00679,935.59864) ">
   <path d="m372.9512,690.81927l8.07,0l11.618,-16.959l0,16.959l6.94,0l0,-27.68l-8.226,0l-11.462,16.92l0,-16.92l-6.94,0l0,27.68z" id="path336" fill-rule="nonzero" fill="#ffffff"/>
  </g>
  <g id="g338" transform="matrix(1.3333333,0,0,-1.3333333,-330.00679,935.59864) ">
   <path d="m329.76169,625.9267c-2.144,0 -5.653,0.39 -8.148,1.286l-0.117,6.004c3.509,-1.014 6.043,-1.403 7.914,-1.403c2.768,0 3.509,1.208 3.509,2.339c0,0.936 -0.351,1.715 -2.651,2.651l-1.638,0.663c-5.808,2.066 -6.978,5.029 -6.939,8.187c0.039,4.366 3.236,8.733 10.799,8.733c1.949,0 4.795,-0.234 7.173,-1.014l-0.584,-5.614c-2.612,0.702 -4.562,0.897 -5.887,0.897c-2.885,0 -3.704,-1.053 -3.704,-2.261c0,-1.014 0.468,-1.794 3.431,-2.925l1.637,-0.623c5.341,-1.911 6.472,-4.835 6.472,-7.915c0,-3.781 -2.456,-9.005 -11.267,-9.005" id="path340" fill-rule="nonzero" fill="#ffffff"/>
  </g>
  <g id="g342" transform="matrix(1.3333333,0,0,-1.3333333,-330.00679,935.59864) ">
   <path d="m357.2822,625.88757c-8.889,0 -12.553,4.405 -12.553,13.333l0,14.776l7.29,0l0,-15.049c0,-4.405 1.559,-6.822 5.965,-6.822c3.704,0 5.107,2.3 5.107,6.511l0,15.36l6.979,0l0,-14.659c0,-8.655 -4.172,-13.45 -12.788,-13.45" id="path344" fill-rule="nonzero" fill="#ffffff"/>
  </g>
  <g id="g346" transform="matrix(1.3333333,0,0,-1.3333333,-330.00679,935.59864) ">
   <path d="m384.72409,648.07068c-1.208,0 -1.793,0 -2.69,-0.039l0,-15.711c1.014,-0.079 2.027,-0.079 3.236,-0.079c5.068,0 8.031,2.652 8.031,7.603c0,5.614 -3.782,8.226 -8.577,8.226m0.663,-21.793c-3.548,0 -5.965,0 -10.643,0.039l0,27.68l9.512,0c9.357,0 16.531,-4.6 16.531,-13.568c0,-9.434 -6.043,-14.151 -15.4,-14.151" id="path348" fill-rule="nonzero" fill="#ffffff"/>
  </g>
  <g id="g350" transform="matrix(1.3333333,0,0,-1.3333333,-330.00679,935.59864) ">
   <path d="m295.10211,693.03802l-16.574,0l16.574,4.911l0,-4.911z" id="path352" fill-rule="nonzero" fill="#ffffff"/>
  </g>
 </g>
</svg>