<svg width="512" height="320" xmlns="http://www.w3.org/2000/svg">
 <!-- Created with Method Draw - http://github.com/duopixel/Method-Draw/ -->
 <g>
  <title>background</title>
  <rect fill="#612688" id="canvas_background" height="322" width="514" y="-1" x="-1"/>
  <g display="none" id="canvasGrid">
   <rect fill="url(#gridpattern)" stroke-width="0" y="0" x="0" height="100%" width="100%" id="svg_1"/>
  </g>
 </g>
 <g>
  <title>Layer 1</title>
  <metadata id="svg_44">image/svg+xml</metadata>
  <defs>
   <clipPath id="svg_37" clipPathUnits="userSpaceOnUse">
    <path id="svg_43" d="m3175658.53774,-1149223.67169l7824.543,0l0,-3259.811l-7824.543,0l0,3259.811z"/>
   </clipPath>
   <clipPath id="svg_30" clipPathUnits="userSpaceOnUse">
    <path id="svg_42" d="m3175658.53774,-1149223.67169l7824.543,0l0,-3259.811l-7824.543,0l0,3259.811z"/>
   </clipPath>
  </defs>
  <defs>
   <rect fill="#60278e" id="svg_80" width="8" height="8"/>
   <style type="text/css">@import url('https://fonts.googleapis.com/css?family=Ubuntu');</style>
  </defs>
  <!-- Created with Method Draw - http://github.com/duopixel/Method-Draw/ -->
  <!-- Created with Method Draw - http://github.com/duopixel/Method-Draw/ -->
  <!-- Created with Method Draw - http://github.com/duopixel/Method-Draw/ -->
  <!-- Created with Method Draw - http://github.com/duopixel/Method-Draw/ -->
  <metadata id="svg_13">image/svg+xmlFemale silhouettefemale silhouette head face shoulders</metadata>
  <metadata id="svg_53">image/svg+xml</metadata>
  <defs>
   <clipPath clipPathUnits="userSpaceOnUse" id="svg_46">
    <path d="m1375767.16902,-920757.33899l7824.543,0l0,-3259.811l-7824.543,0l0,3259.811z" id="svg_52"/>
   </clipPath>
   <clipPath clipPathUnits="userSpaceOnUse" id="svg_35">
    <path d="m1375767.16902,-920757.33899l7824.543,0l0,-3259.811l-7824.543,0l0,3259.811z" id="svg_51"/>
   </clipPath>
  </defs>
  <g id="svg_2">
   <g stroke="null" id="svg_20">
    <g stroke="null" id="svg_14">
     <g stroke="null" id="svg_9" transform="matrix(2.1520178848547724,0,0,2.1520178848547724,173.00141061258194,160.30836734615164) ">
      <title transform="translate(4.646801471710205,0) translate(0,4.646801471710205) translate(0,-4.646801471710205) translate(0,-4.646801471710205) translate(0,-4.646801471710205) translate(0,-4.646801471710205) translate(0,-4.646801471710205) translate(0,-4.646801471710205) translate(0,-4.646801471710205) translate(0,-4.646801471710205) translate(0,-4.646801471710205) translate(0,-4.646801471710205) ">background</title>
      <rect stroke="null" x="19.318048" y="-87.996426" width="152" height="152" id="svg_6" fill="none"/>
      <g stroke="null" id="svg_8" display="none">
       <rect stroke="null" id="svg_7" width="909" height="1310" x="20.318048" y="-86.996426" stroke-width="0" fill="url(#gridpattern)"/>
      </g>
     </g>
     <g stroke="null" id="svg_12" transform="matrix(2.1520178848547724,0,0,2.1520178848547724,173.00141061258194,160.30836734615164) ">
      <title transform="translate(4.646801471710205,0) translate(0,4.646801471710205) translate(0,-4.646801471710205) translate(0,-4.646801471710205) translate(0,-4.646801471710205) translate(0,-4.646801471710205) translate(0,-4.646801471710205) translate(0,-4.646801471710205) translate(0,-4.646801471710205) translate(0,-4.646801471710205) translate(0,-4.646801471710205) translate(0,-4.646801471710205) ">Layer 1</title>
      <path stroke="#ffffff" fill="none" stroke-width="1.5" id="svg_11" d="m48.433741,33.307007c0.50958,0 1.04648,0.23419 2.03843,0c1.10906,-0.26181 2.55467,-0.93761 3.05766,-1.01923c1.59075,-0.25814 2.54808,-1.0192 3.56731,-1.52882c1.0192,-0.50958 1.52882,-0.50961 1.52882,-1.01923c0,0 0.50961,0 0.50961,-0.50961c0,0 0,-0.50962 0,-0.50962c0.50962,0 0.50962,-0.50962 0.50962,-0.50962c0.50962,0 0.65889,-0.14927 1.01923,-0.50961c0.36035,-0.36035 0.50962,-0.50962 0.50962,-1.01923c0,0 0.50961,0 1.0192,0c0.50961,0 1.52884,-0.50959 2.03846,-0.50959c1.52885,0 2.03846,0 3.56728,0c0.50961,0 1.52885,0 2.03846,0c0.50962,0 1.01923,0 1.52882,0c0.50961,0 1.52884,0 1.52884,0c1.01924,0 1.03286,0.11708 1.52885,0c1.10906,-0.2618 0.98256,-0.821 2.03843,-2.03846c0.74664,-0.86088 1.61706,-1.45379 2.03847,-2.03846c1.33257,-1.84885 1.41177,-2.56167 1.52884,-3.05767c0.26181,-1.10903 0.50959,-1.01921 1.0192,-2.03844c0,0 0.14927,-0.14927 0.50962,-0.50962c0.36034,-0.36034 0.14927,-0.65887 0.50962,-1.01922c0.36034,-0.36034 0,-1.01923 0,-1.52883c0,-1.52884 0.23381,-1.37262 0.50961,-2.03846c0.39005,-0.94163 0,-2.03845 0,-2.54805c0,0 0,-2.03846 0,-2.54806c0,0 0,-0.50961 0,-0.50961c0,-0.50962 0,-0.50962 0,-1.52884c0,-0.50961 0,-1.01923 0,-1.52884c0,-0.50962 -0.23381,-0.863 -0.50961,-1.52883c-0.58505,-1.41246 0,-2.54807 0,-3.56728c0,-1.01923 -0.35341,-2.27228 -1.01924,-2.54807c-0.47082,-0.19502 -1.0192,-0.50961 -2.03843,-1.01923c0,0 -0.65888,-0.65887 -1.01923,-1.01921c-0.36034,-0.36035 -0.14927,-0.14927 -0.50961,-0.50962c-0.36035,-0.36034 -0.50962,-0.50961 -0.50962,-1.52885c0,-0.5096 0,-2.03844 0,-3.05766c0,-1.01923 0,-1.01923 0,-1.52885c0,-1.52883 0,-4.07689 0,-5.60572c0,-1.52883 0,-1.52883 0,-3.05768c0,-1.01922 0,-2.03845 0,-3.05766c0,-2.03845 -0.50962,-3.5673 -0.50962,-4.07691c0,-1.01922 0,-1.01922 0,-1.52883c0,-0.50962 -0.50961,-0.50962 -0.50961,-0.50962c-0.50959,-0.5096 0.2111,-1.31774 -0.50959,-2.03845c-0.36034,-0.36034 -0.50961,-1.01921 -0.50961,-1.52883c0,-0.50961 0.39005,-1.09682 0,-2.03844c-0.27581,-0.66584 -0.50962,-1.52885 -0.50962,-1.52885c0,-1.52883 0,-1.52883 0,-2.03845c0,-1.01921 0,-1.52883 0,-2.54805c0,0 0,-0.50961 0,-1.52884c0,-1.52883 0,-3.05767 0,-6.11534c0,-1.01923 0.50962,-1.52883 1.01923,-2.03845c0,0 0,-0.50962 0.50959,-0.50962c0.50961,0 0.50961,0 1.01923,0c0,0 2.03846,0 3.56728,0c1.52884,0 2.03846,0 3.56731,0c0.50961,0 1.03282,0.1171 1.52881,0c1.10906,-0.2618 1.37261,-0.74342 2.03847,-1.01923c0.47082,-0.19502 1.52884,-0.5096 1.52884,-0.5096c1.52882,-0.50961 1.74229,-0.72307 2.54805,-1.52884c0.80576,-0.80577 1.31777,-0.29851 2.03846,-1.01922c0.36035,-0.36035 1.52882,-0.50962 1.52882,-0.50962c1.01923,0 2.03846,0 2.54808,0c1.0192,0 1.0192,0 1.52881,0c0.50962,0 1.55613,0.27545 2.54808,0.50962c1.10903,0.26181 1.0192,0.50962 2.03843,0.50962c0.50962,0 1.52885,0.5096 2.54808,1.01921c0,0 0.50962,0 1.0192,0c0.50962,0 0.50962,0 0.50962,0c0.50961,0 0.9294,0.75743 2.03846,1.01923c0.49599,0.1171 1.05802,0.31458 1.52885,0.5096c0.66582,0.27581 1.0192,1.01923 1.52881,1.52885c1.01923,1.01922 1.60496,1.26091 2.03847,1.52883c0.96934,0.59909 0.5484,1.33381 1.01923,1.52883c0.66582,0.2758 1.0192,1.01923 1.52881,2.03846c0,0 0.74343,0.35338 1.01923,1.01922c0.19503,0.47083 0.50962,1.01923 0.50962,1.52883c0,0 0.50962,0 0.50962,1.01923c0,0 0.50961,0.50962 0.50961,1.01923c0,0.5096 0.50962,0.5096 0.50962,1.52883c0,0.50962 0,1.01922 0,1.52884c0,1.52883 0,2.54806 0,3.56729c0,0.5096 0.23381,0.86301 0.50958,1.52883c0.39002,0.94164 0,1.52883 0,2.03845c0,0.50961 0,1.52883 0,2.54806c0,1.52883 0,2.03845 0,3.56728c0,0.50962 0,1.52885 0,2.03845c0,1.01923 0,1.52884 0,2.54806c0,0 -0.36034,1.1685 0,1.52885c0.36035,0.36034 0.50962,1.01921 0.50962,2.03844c0,1.01922 0,1.52883 0,2.54807c0,1.01921 0,2.03844 0,2.54804c0,0.50962 0,1.01923 0,1.52885c0,0.50962 0,1.01922 0,1.52883c0,0.50962 0.19502,1.05802 0,1.52883c-0.2758,0.66584 -0.50962,1.01923 -1.0192,2.03846c0,0 -0.59783,0.43455 -1.01923,1.01922c-0.66629,0.92444 -1.01923,1.52883 -1.01923,1.52883c0,0.50962 -0.50962,2.03847 -1.01923,2.54806c-0.50962,0.50962 -0.3146,0.54841 -0.50962,1.01924c-0.2758,0.66583 -0.50962,1.01921 -0.50962,1.52883c0,0.50961 0.36035,1.16848 0,1.52883c-0.36034,0.36033 -0.76106,0.95733 -1.0192,2.54806c-0.08161,0.50304 0,0.50962 0,2.03845c0,0.50961 0,0.50961 0,1.52884c0,0.50962 0,1.01922 0,1.01922c0,0.50962 0.41979,0.75743 1.52882,1.01923c0.49599,0.11709 0.65889,0.14927 1.01923,0.50962c0.36035,0.36034 0.50962,0.5096 1.01923,1.01921c0,0 0.65889,0.14927 1.01923,0.50962c0.36035,0.36034 0.03879,0.31459 0.50962,0.50962c0.66582,0.2758 0.43453,0.59782 1.0192,1.01921c0.92445,0.66629 1.43936,0.55951 2.03846,1.52885c0.2679,0.43349 0,0.5096 0,0.5096c0.50962,1.52885 1.25305,1.88222 1.52885,2.54806c0.19502,0.47083 0.50958,1.01923 0.50958,1.52885c0,0 0.50962,0.50961 0.50962,0.50961c0,0.50962 0,0.50962 0,0.50962c0,0 1.03239,-0.16327 2.03846,0c1.59075,0.25814 1.56764,0.31456 2.03843,0.50959c0.66586,0.2758 1.01924,0.50961 2.03847,0.50961c0.50961,0 0.5484,-0.19502 1.01923,0c0.66585,0.2758 -0.18243,3.46924 3.05766,5.60574c0.42545,0.28053 0.863,0.23381 1.52885,0.50962c0.47083,0.19502 1.52881,1.52885 1.52881,1.52885c1.01924,0.50961 1.52885,0.50961 2.54808,1.52881l0,0"/>
     </g>
    </g>
    <text stroke="null" fill-opacity="0.5" transform="matrix(1.4146825939018874,0,0,1.4146825939018874,-14.784740806291499,-81.95429665062767) " font-weight="bold" xml:space="preserve" text-anchor="start" font-family="Ubuntu" font-size="20" id="svg_15" y="553.625895" x="317.08879" stroke-width="0" fill="#cccccc"/>
    <g stroke="null" id="svg_17" display="none" transform="matrix(5.864807271095019,0,0,5.864807271095019,-15.705631503135384,-46.45643674163328) ">
     <rect stroke="null" id="svg_16" width="909" height="1310" x="38.546551" y="-25.930965" stroke-width="0" fill="url(#gridpattern)"/>
    </g>
    <g stroke="null" id="svg_19" transform="matrix(5.864807271095019,0,0,5.864807271095019,-15.705631503135384,-46.45643674163328) ">
     <title transform="translate(1.7050858736038208,0) translate(0,1.7050858736038208) translate(0,-1.7050858736038208) translate(0,-1.7050858736038208) translate(0,-1.7050858736038208) translate(0,-1.7050858736038208) translate(0,-1.7050858736038208) translate(0,-1.7050858736038208) translate(0,-1.7050858736038208) translate(0,-1.7050858736038208) translate(0,-1.7050858736038208) translate(0,-1.7050858736038208) ">Layer 1</title>
    </g>
   </g>
   <path fill="none" stroke-width="3" id="svg_21" d="m30.52267,268.11525c0,0 0,-0.44689 0,-1.3407c0,-0.8938 0,-1.78761 0,-2.2345c0,-0.89381 0,-1.78762 0,-2.23451c0,-0.44691 0,-0.8938 0,-0.8938c0,-0.44689 0,-0.89381 0,-0.89381c0,-0.44689 0,-1.3407 0,-1.3407c0,-0.44689 0,-0.8938 0,-0.8938c0,-0.44689 0,-0.89381 0,-0.89381c0,-0.89378 0,-1.3407 0,-1.3407c0,-0.44689 -0.10268,-0.90575 0,-1.34069c0.22959,-0.97257 0.66743,-1.28642 0.8938,-2.6814c0.07159,-0.44113 0.21731,-1.26197 0.4469,-2.2345c0.10268,-0.43497 0.4469,-1.34073 0.4469,-1.78762c0,0 0.27587,-0.48091 0.4469,-0.89381c0.24186,-0.58388 0.65194,-0.75681 0.8938,-1.34069c0.17103,-0.4129 0.1309,-0.57781 0.4469,-0.89381c0.316,-0.316 0,-0.44689 0,-0.89381c0,0 0.44691,-0.8938 0.89381,-1.34069c0,0 0,-0.44689 0.4469,-0.89381c0,0 -0.31602,-0.57778 0,-0.89381c0.316,-0.316 0.4469,-0.44689 0.4469,-0.44689c0,0 0,-0.44689 0,-0.89381c0,-0.44689 0.4469,-0.44689 0.4469,-0.8938c0,-0.44689 0.4469,-0.89378 0.4469,-0.89378c0,-0.44692 0.13089,-0.57781 0.4469,-0.89381c0.31602,-0.31603 0,-0.89381 0,-1.3407c0,0 0.4469,-0.44691 0.4469,-0.44691c0,0 0,-0.44689 0.4469,-0.89381c0,0 0.13089,-1.02467 0.4469,-1.3407c0.31601,-0.316 0.49065,-0.81532 1.34071,-1.34069c0.38015,-0.23496 1.06004,-0.61903 2.6814,-1.78762c0.51271,-0.36953 1.34071,-0.44689 1.78761,-0.89378c0.44691,-0.44692 0.7568,-0.65195 1.3407,-0.89381c0.41288,-0.17101 0.48092,-0.2759 0.8938,-0.44691c0.5839,-0.24186 0.30991,-0.65193 0.8938,-0.89378c0.41289,-0.17102 0.4469,0 0.89381,-0.44692c0.44689,-0.44689 0.48092,-0.27588 0.8938,-0.44689c0.58391,-0.24186 0.82799,-0.52428 1.3407,-0.89381c0.81068,-0.58429 1.4716,-0.5778 1.7876,-0.8938c0.316,-0.31601 0.3099,-0.65195 0.89381,-0.89381c0.41288,-0.17102 0.4469,-0.44689 1.3407,-0.89378c0.89381,-0.44692 1.08099,-0.63411 1.7876,-1.34073c0.7066,-0.70659 0.89381,-1.34069 1.34071,-1.78758c0.89381,-0.89381 0.75639,-0.97693 1.3407,-1.78762c0.36955,-0.51271 0.65194,-0.30989 0.8938,-0.89381c0.17102,-0.41287 0.20504,-0.30989 0.4469,-0.89378c0.17103,-0.4129 0.03402,-0.72279 0.4469,-0.8938c0.58392,-0.24186 0.3811,-0.97115 0.89381,-1.3407c0.81068,-0.5843 2.23451,-1.34073 3.1283,-1.78762c1.78761,-0.8938 3.16233,-1.6166 3.57521,-1.78761c0.5839,-0.24186 0.92782,-0.27588 1.34071,-0.44689c0.58389,-0.24186 0.44689,-0.44689 0.8938,-0.89381c0.44689,-0.44689 0.7568,-1.09884 1.3407,-1.34069c0.41288,-0.17102 0.8938,0 0.8938,0c0.44691,0 0.44691,0 0.44691,0c0,0 0.44689,0 0.44689,0c0.44691,0 0.44691,0 0.89381,0c0,0 0,0 0.4469,0c0,0 0.4469,0 0.4469,0c0.4469,0 0.8938,0 1.34071,0c0.44689,0 0.8938,0 1.34069,0c0,0 0.39223,-0.47638 0.89381,-1.3407c0.80876,-1.39365 0.97115,-1.7218 1.3407,-2.23452c0.58429,-0.81067 0.4469,-0.89379 0.8938,-1.3407c0,0 0,0 0,-0.4469c0,0 0,0 0,0c0,-0.44691 0,-0.44691 0,-0.44691c0,0 0,0 0,-0.44689c0,0 0,0 0,0c0,-0.4469 0,-0.4469 0,-0.4469c0,0 0,-0.4469 0,-0.4469c0,0 0,0 0,-0.44691c0,0 0,0 0,-0.4469c0,0 -0.4469,-0.44689 -0.4469,-0.44689c0,-0.44691 0,-0.89381 0,-0.89381c0,0 -0.13089,0.31601 -0.4469,0c-0.31602,-0.316 0,-0.4469 0,-0.4469c0,-0.44691 -0.1309,-0.1309 -0.4469,-0.44691c-0.316,-0.316 0,-0.89379 0,-0.89379c-0.44691,-0.4469 -0.44691,-0.89381 -0.44691,-0.89381c0,-0.4469 -0.27587,-0.92781 -0.44689,-1.34069c-0.24187,-0.58392 -0.5778,-1.02471 -0.89381,-1.34072c-0.63201,-0.632 -0.4469,-1.34069 -0.4469,-1.34069c-0.4469,-0.44691 -0.4469,-0.89381 -0.4469,-0.89381c-0.4469,-0.44689 -0.8938,-0.89379 -0.8938,-0.89379c0,-0.44691 -0.44691,-0.44691 -0.44691,-0.44691c0,0 0,-0.4469 -0.44689,-0.4469c0,0 -0.1309,-0.1309 -0.44691,-0.44691c-0.31599,-0.316 -0.44689,-0.44689 -0.44689,-0.44689c0,-0.4469 0,-0.4469 -0.44691,-0.4469c0,0 0,-0.4469 0,-0.4469c0,-0.44691 -0.4469,-0.44691 -0.4469,-0.44691c0,-0.4469 -0.1309,-0.1309 -0.4469,-0.4469c-0.316,-0.31601 0,-0.44689 0,-0.8938c0,-0.4469 0,-1.34071 0,-2.2345c0,0 0,-0.89381 0,-1.34071c0,-0.44691 0,-1.3407 0,-2.23451c0,-0.4469 0.4469,-1.34069 0.4469,-2.2345c0,-0.44691 0.4469,-1.3407 0.4469,-2.23451c0,-0.4469 0.20504,-1.20368 0.44691,-1.7876c0.34204,-0.82577 -0.31602,-1.47159 0,-1.7876c0.316,-0.316 0.44689,-0.89381 0.44689,-1.34071c0,-0.44689 0.44691,-0.89379 0.44691,-1.7876c0,0 0,-0.4469 0,-0.89379c0,-0.44691 0,-0.89381 0,-1.34072c0,-0.4469 0,-0.89379 0,-1.34069c0,0 0,-0.89381 0,-1.34071c0,0 0,0 0,-0.44689c0,-0.44691 0.20503,-0.75681 0.44689,-1.34071c0.17102,-0.41289 0,-0.44691 0,-0.44691c0,-0.4469 0,-0.4469 0,-0.89379c0,-0.44691 0,-0.44691 0.44691,-0.89381c0,0 0,0 0,-0.4469c0,0 0,0 0,0c0,-0.44691 0,-0.44691 0,-0.44691c0,0 0,-0.44689 0,-0.44689c0,0 0,0 0,-0.4469c0,0 0,0 0,-0.44691c0,0 0,0 0,-0.4469c0,0 0,0 0,0c0,-0.4469 0,-0.4469 0,-0.4469c0,0 0,-0.44689 0,-0.44689c0,-0.44691 0,-0.89381 0,-1.34071c0,-0.8938 0,-0.8938 0,-1.3407c0,-0.44691 0,-0.44691 0,-0.89381c0,0 -0.44691,0 -0.44691,0c0,0 0,0 -0.44689,0c0,0 0,0 0,0c0,0 -0.44691,0 -0.44691,0c0,0 0,-0.4469 0,-1.3407c0,-0.8938 -0.22052,-1.28643 -0.44689,-2.6814c-0.28634,-1.76453 0,-2.68141 0,-4.02211c0,-1.34071 -0.20504,-1.65059 -0.44691,-2.23451c-0.17102,-0.41288 0,-0.4469 0,-0.4469c0,0 0,-0.4469 0,-0.4469c0,-0.44691 0,-0.44691 0,-0.44691c0,-0.44689 0,-0.44689 0,-0.44689c0,0 0,-0.4469 0,-0.8938c0,0 0,0 0,-0.44691c0,0 0,0 0,-0.4469c0,0 0.44691,-0.8938 0.44691,-0.8938c0,-0.8938 -0.10268,-1.35266 0,-1.78761c0.22959,-0.97256 0.44689,-1.3407 0.44689,-1.7876c0,-0.44691 -0.31601,-1.0247 0,-1.3407c0.31601,-0.316 0.44691,-0.4469 0.44691,-0.89381c0,0 0,-0.4469 0,-0.4469c0,-0.44689 0,-0.44689 0,-0.44689c0,-0.4469 0,-0.89381 0,-0.89381c0.44689,-0.8938 0.65193,-0.75679 0.8938,-1.34069c0.17103,-0.41289 0.11463,-0.80309 0.4469,-1.34072c0.74298,-1.20215 0.4469,-1.7876 0.8938,-2.6814c0.4469,-0.8938 0.57779,-1.4716 0.8938,-1.78761c0.31601,-0.316 0.27589,-0.48092 0.44691,-0.89379c0.24186,-0.5839 0.65193,-0.7568 0.8938,-1.34071c0.17102,-0.41289 0.4469,-0.4469 0.4469,-0.89379c0,0 0,0 0.4469,-0.44691c0,0 0.13089,-0.1309 0.4469,-0.4469c0.31602,-0.31601 -0.17102,-0.48092 0,-0.89381c0.24186,-0.58389 0.73963,-0.79793 1.34071,-3.1283c0.89989,-3.48885 0.8938,-6.25662 0.8938,-9.83183c0,-1.34069 0.4469,-2.2345 0.4469,-2.6814c0,-0.44691 0,-0.8938 0,-0.8938c0,-0.4469 0.66421,-1.26194 0.8938,-2.2345c0.20536,-0.8699 0,-1.34071 0,-2.23451c0,-0.89381 0,-0.89381 0,-1.34071c0,0 0,-0.4469 0,-0.4469c0,-0.44689 0,-0.44689 0,-0.8938c0,-0.4469 0.4469,-0.8938 0.4469,-1.34071c0,-0.44689 0,-0.44689 0,-0.44689c0.4469,-0.4469 0.10486,-0.51494 0.4469,-1.34071c0.24186,-0.5839 0.34422,-0.90576 0.4469,-1.3407c0.2296,-0.97257 0.66421,-0.81504 0.89381,-1.7876c0.20535,-0.86989 0.24154,-1.36462 0.4469,-2.23451c0.22959,-0.97257 0.4469,-1.3407 0.4469,-1.3407c0,-0.4469 0.4469,-0.8938 0.4469,-1.34071c0,-0.44689 0.13089,-1.02469 0.4469,-1.3407c0.31601,-0.31601 0.27588,-0.48092 0.4469,-0.8938c0.24186,-0.5839 0.27588,-0.92782 0.4469,-1.34071c0.24187,-0.5839 0.65885,-1.40744 0.8938,-1.7876c0.52537,-0.85006 1.34071,-0.4469 1.34071,-0.4469c0,0 0.4469,0 0.4469,0c0.8938,0 0.8938,0 1.3407,0c0,0 0.31739,-0.46608 0.4469,-0.8938c0.46694,-1.54219 0.99866,-2.30254 1.34071,-3.12831c0.48372,-1.16781 1.55801,-1.70883 1.7876,-2.68141c0.10268,-0.43494 0.4469,-1.3407 0.4469,-2.2345c0,-0.4469 0.30951,-0.97693 0.8938,-1.7876c0.36955,-0.51273 0.72279,-1.37473 0.89381,-1.78761c0.24186,-0.5839 0.8938,-0.4469 0.8938,-0.8938c0,0 0.30949,-0.53003 0.8938,-1.34071c0.36955,-0.51271 1.21294,-1.43529 2.23451,-2.6814c0.40069,-0.48876 1.26224,-0.49064 1.7876,-1.3407c0.23495,-0.38016 0.8938,-0.8938 0.8938,-0.8938c0.4469,-0.44691 0.7568,-1.09885 1.34071,-1.34071c0.41288,-0.17102 1.02469,-0.1309 1.34069,-0.4469c0.31601,-0.31601 0.53004,-0.3095 1.34071,-0.8938c0.51272,-0.36955 1.42383,-0.7564 2.2345,-1.34071c0.51272,-0.36954 1.26225,-0.49064 1.78761,-1.3407c0.23495,-0.38015 0.8938,-0.8938 1.3407,-1.3407c0,0 0.3099,-0.65194 0.89381,-0.8938c0.41288,-0.17103 1.02469,-0.1309 1.34069,-0.4469c0.31601,-0.31601 1.72179,-0.97116 2.23451,-1.34071c0.81068,-0.5843 3.14202,-1.30151 4.46901,-1.7876c2.2598,-0.82777 3.57521,-1.3407 3.57521,-1.3407c0.8938,-0.4469 1.3407,-0.4469 1.3407,-0.4469c0.8938,0 1.7876,-0.44691 2.68141,-0.44691c1.7876,0 3.5752,0 4.46901,0c0.89381,0 1.82162,-0.17102 2.2345,0c0.58392,0.24187 1.20369,0.65194 1.78761,0.89381c0.82577,0.34204 1.7876,0.4469 1.7876,0.4469c0,0 0.4469,0 0.4469,0.4469c0,0 0.1309,-0.31601 0.4469,0c0.31601,0.31601 0,0.4469 0,0.4469c0.44691,0 0.44691,0.4469 0.44691,0.4469c0.4469,0 0.57779,-0.316 0.89379,0c0.31601,0.31601 0.44691,0.4469 0.44691,0.4469c0.4469,0 0.4469,0.4469 0.4469,0.4469c0,0 0.1309,0.13089 0.4469,0.44691c0.31601,0.31601 0.90575,-0.10268 1.3407,0c0.97258,0.22959 1.7876,0.4469 1.7876,0.4469c0.44691,0 0.89381,0.4469 0.89381,0.4469c0.4469,0 0.89381,0 0.89381,0c0.4469,0 0.89379,0.4469 1.34069,0.4469c0.44691,0 0.90576,-0.10268 1.34071,0c0.97257,0.22959 1.3407,0.4469 1.78761,0.4469c0.89379,0 1.7876,0 2.2345,0c0.89379,0 1.3407,0 1.3407,0c0.4469,0 0.4469,0 0.4469,0c0.44691,0 0.44691,0.4469 0.44691,0.4469c0,0 0.4469,0 0.4469,0c0,0 0.44689,0.44691 0.89379,0.44691c0.44691,0 0.89381,0.8938 1.7876,1.34069c0,0 0.57781,0.1309 0.89381,0.44691c0.31601,0.31601 0.1309,0.13089 0.44691,0.4469c0.316,0.316 0,0.4469 0,0.4469c0.4469,0 0.4469,0.4469 0.4469,0.4469c0,0 0.44689,0.4469 0.44689,0.4469c0.4469,0.4469 0.4469,0.4469 0.89381,0.89381c0,0 0.4469,0.44689 0.4469,0.8938c0,0 0.4469,0 0.4469,0.44689c0,0 0.44689,0.44691 0.44689,0.44691c0.44691,0.4469 0.44691,0.4469 0.44691,0.8938c0,0 0.4469,0.4469 0.4469,0.4469c0.44691,0.44691 0.48092,0.27589 0.89381,0.44691c0.58389,0.24186 0.57779,0.57779 0.89379,0.8938c0.31601,0.316 0.1309,0.57779 0.44691,0.8938c0.316,0.31601 0.4469,0.4469 0.8938,0.4469c0,0 0.13089,0.57779 0.44689,0.8938c0.31601,0.31601 0.44691,0.4469 0.89381,0.8938c0,0 0.4469,0.44691 0.4469,0.89381c0,0 0.44691,0.4469 0.44691,0.4469c0,0.4469 0,0.4469 0.44689,0.8938c0,0 0.65195,0.7568 0.89381,1.3407c0.17101,0.41288 0.1309,1.0247 0.4469,1.34071c0.316,0.31601 0.4469,0.4469 0.89381,0.8938c0,0 0.04373,0.81534 0.89379,1.3407c0.38017,0.23495 1.26224,0.04375 1.7876,0.8938c0.23494,0.38016 0.89381,0.89381 1.34071,1.34071c0,0 0.44691,0.4469 0.8938,0.8938c0,0 0.4469,0.4469 0.4469,0.4469c0.4469,0 0.4469,0.4469 0.89381,0.8938c0,0 0,0 0.4469,0.4469c0,0 0.44689,0.89381 0.8938,1.34071c0.4469,0.4469 0.8938,0.44689 1.34071,0.8938c0.44689,0.44689 0.44689,0.4469 0.89379,0.8938c0,0 0.4469,0 0.4469,0.4469c0,0.4469 0.1309,0.5778 0.44691,0.8938c0.316,0.31601 0.65193,0.30991 0.89379,0.89381c0.17102,0.41288 0.44691,0.4469 0.44691,0.4469c0,0 0.4469,0.4469 0.4469,0.8938c0,0 0.4469,0 0.4469,0.4469c0,0.4469 0.44691,0.4469 0.44691,0.4469c0,0.4469 0,0.4469 0.44689,0.89381c0,0 0.27589,0.48092 0.4469,0.8938c0.24186,0.5839 0.65195,0.3099 0.89381,0.8938c0.17103,0.41288 0.27588,0.48092 0.4469,0.8938c0.24186,0.5839 0.27588,0.92782 0.44689,1.3407c0.24186,0.58391 0.66421,0.81504 0.89381,1.78761c0.20536,0.86989 0.4469,1.3407 0.4469,1.7876c0,0.4469 0.24155,0.47081 0.44691,1.34071c0.22958,0.97256 0.35298,1.37575 0.89379,2.6814c0.38242,0.92324 0.44691,1.34071 0.89381,2.2345c0,0 0,0.44691 0,0.44691c0.4469,0.4469 0.4469,0.4469 0.4469,0.8938c0,0.44691 0.44689,0.8938 0.44689,1.3407c0,0.89381 0.44691,1.7876 0.44691,1.7876c0.4469,0.4469 0.52425,1.2749 0.8938,1.78762c0.5843,0.81067 0.65195,1.20368 0.89381,1.7876c0.17103,0.41288 0.44689,0.89379 0.44689,1.34069c0,0.44691 0.44691,0.89381 0.44691,0.89381c0,0.4469 0.1309,0.57779 0.4469,0.89379c0.63202,0.63203 0.4469,1.34072 0.4469,1.34072c0,0.4469 -0.17102,0.92781 0,1.34069c0.24186,0.58392 0.44691,1.34071 0.44691,1.34071c0,0.44691 0,1.3407 0,1.3407c0,0.4469 0,1.34071 0,1.34071c0,0.8938 0.316,1.4716 0,1.7876c-0.31601,0.31601 -0.44691,0.44691 -0.44691,0.8938c0,0.4469 -0.4469,0.8938 -0.4469,0.8938c0,0.44691 -0.1309,0.57781 -0.4469,0.89381c-0.31601,0.316 0.316,1.02469 0,1.3407c-0.31601,0.316 -0.44691,0.4469 -0.44691,1.34069c0,0 -0.44689,0.44691 -0.44689,0.89381c0,0.44691 -0.20504,0.30989 -0.4469,0.89381c-0.17102,0.41287 0,0.89379 0,0.89379c-0.44691,0.44691 -0.44691,0.89381 -0.44691,0.89381c0,0.89379 -0.4469,0.89379 -0.4469,0.89379c0,0.44691 0,0.44691 0,0.89381c0,0.4469 0,0.4469 0,0.89381c0,0.44689 0,0.44689 0,0.89379c0,0.44691 0,0.89381 0,0.89381c0,0.4469 0,0.89379 0,0.89379c0,0.44691 0,0.44691 0,0.89381c0,0.4469 0.63201,1.15559 0,1.7876c-0.316,0.316 -0.4469,0.4469 -0.4469,1.34071c0,0 -0.44691,0.44689 -0.44691,1.3407c0,0 0,0.89381 0,1.34071c0,0 -0.20503,0.30989 -0.44689,0.89379c-0.17101,0.41289 0,1.34071 0,1.7876c0,0 -0.4469,0.89381 -0.4469,1.34072c0,0 -0.20505,0.30989 -0.44691,0.89379c-0.17102,0.41289 0.10268,0.45885 0,0.89381c-0.22959,0.97257 -0.4469,0.8938 -0.4469,1.7876c0,0.4469 -0.4469,0.8938 -0.4469,1.34071c0,0.89379 -0.20503,1.2037 -0.44689,1.7876c-0.17102,0.41289 0,0.4469 0,0.89379c0,0.44691 -0.20505,0.7568 -0.44691,1.34071c-0.17103,0.41289 0.17103,0.92782 0,1.3407c-0.24186,0.58392 -0.4469,0.44691 -0.4469,0.89381c0,0.4469 -0.1309,0.1309 -0.44691,0.4469c-0.316,0.31601 0.31601,0.57779 0,0.8938c-0.316,0.316 -0.4469,0.4469 -0.4469,0.4469c0,0.4469 -0.44689,0.4469 -0.44689,0.89381c0,0 -0.1309,0.13088 -0.4469,0.44689c-0.31601,0.316 0,0.8938 0,0.8938c-0.44691,0 -0.44691,0 -0.44691,0.44691c0,0 0,0.4469 -0.4469,0.4469c0,0 0,0.44689 0,0.44689c-0.44691,0.44691 -0.1309,0.57781 -0.44691,0.89381c-0.316,0.316 -0.44689,0.4469 -0.44689,0.4469c0,0 -0.4469,0 -0.4469,0.44691c0,0.44689 0.4469,0.89379 0.4469,1.7876c0,0 0,0.89381 0,1.3407c0,0.4469 0.10484,0.96184 0.44689,1.78761c0.24186,0.5839 0.1309,1.4716 0.44691,1.7876c0.316,0.31601 0.4469,0.44691 0.4469,0.44691c0,0.44689 -0.316,0.57779 0,0.89379c0.31601,0.316 0.44691,0.4469 0.44691,0.89381c0,0 0.4469,0.4469 0.4469,0.89379c0,0 0,0 0,0.4469c0,0 0,0.44691 0.44689,0.89381c0,0 0,0.44691 0.4469,0.8938c0,0 -0.17102,0.48092 0,0.8938c0.24186,0.58392 0.44691,1.3407 0.89381,2.23451c0,0 -0.17103,0.48092 0,0.8938c0.24186,0.58391 0.44691,0.44689 0.44691,0.8938c0,0.89381 0.44689,0.89381 0.44689,1.34071c0,0.44689 0,0.89379 0.4469,1.7876c0.4469,0.89379 0.10486,1.40873 0.4469,2.23451c0.24186,0.58391 0.44691,0.89379 0.44691,1.34069c0,1.34071 0,1.78762 0,2.68141c0,0.44691 0,0.89381 0,1.34071c0,0.44689 0,0.8938 0,1.3407c0,0.89381 0.10268,1.35265 0,1.7876c-0.2296,0.97258 -0.44691,0.89381 -0.44691,1.7876c0,0.44691 -0.4469,0.89381 -0.4469,1.78762c0,0 0,0.44689 -0.4469,0.44689c0,0 0,0.4469 0,0.4469c-0.44689,0.4469 -0.13089,1.02471 -0.44689,1.34071c-0.31601,0.31601 -0.44691,0.44689 -0.89381,0.8938c0,0 0,0 0,0c-0.44691,0.4469 -0.44691,0.4469 -0.44691,0.4469c0,0 0,0 -0.4469,0.4469c0,0 0,0 0,0c0,0 0.45885,0.34423 0.89381,0.44691c0.97257,0.22958 2.2345,0.89379 3.12831,1.34069c0,0 0.75678,0.65195 1.3407,0.89381c0.41288,0.17103 1.42383,0.3095 2.2345,0.8938c0.51272,0.36955 1.47925,0.15082 2.68141,0.8938c0.53762,0.33228 1.87074,0.75639 2.68141,1.3407c0.51273,0.36955 0.89379,0.44692 1.3407,0.89381c0,0 0.1309,0.13088 0.4469,0.44689c0.316,0.316 0.4469,0 0.4469,0c0,0.44691 0.44691,0.44691 0.44691,0.44691c0,0 0,0.44689 0.44689,0.44689c0,0 0.13088,0.13089 0.4469,0.44692c0.31601,0.316 0.30991,0.20503 0.89381,0.44689c0.41289,0.17101 0.89379,0.44689 1.7876,0.89381c0.89381,0.44689 1.87072,0.7564 2.68141,1.34069c0.51271,0.36953 1.40873,0.55178 2.2345,0.89381c0.58391,0.24186 0.8938,0.89381 1.78761,1.3407c0,0 0.4469,0.44689 0.8938,0.44689c0.44689,0 0.8938,0.44692 1.3407,0.44692c0.4469,0 0.89381,0 1.3407,0.44689c0,0 0.4469,0 0.4469,0c0.4469,0.44691 0.5778,0.13091 0.89381,0.44691c0.316,0.31601 0,0.44689 0,0.44689c0.4469,0 0.1309,0.13089 0.4469,0.44689c0.31601,0.31601 0.44691,0 0.44691,0c0.44689,0.44692 0.13088,0.57781 0.44689,0.89381c0.316,0.316 0.13088,0.13089 0.4469,0.44692c0.316,0.316 0.53004,0.30948 1.34071,0.89378c0.51272,0.36955 0.30988,1.09886 0.89379,1.34072c0.41289,0.17102 0.44691,0.44689 0.44691,0.44689c0.4469,0.44689 0.5778,0.13089 0.89381,0.44689c0.31601,0.31603 0.44689,0.44692 0.44689,0.44692c0,0 0,0.44689 0.4469,0.44689c0,0 -0.13701,0.20506 0.4469,0.44692c0.82578,0.34205 1.3407,0.44689 1.7876,0.44689c0.44691,0 0.89958,0.3753 1.34072,0.44689c1.39497,0.22639 2.16868,0.97117 2.68139,1.34072c0.81067,0.5843 1.02471,0.57778 1.34071,0.89378c0.31601,0.316 0.44691,0 0.44691,0c0.44689,0.44692 1.34068,0.89381 1.7876,1.34073c0.4469,0.44689 0.4469,0.89378 0.4469,0.89378c0.44689,0 0.44689,0 0.44689,0c0,0.44691 0.27589,0.48093 0.4469,0.8938c0.24186,0.58392 1.09886,0.75681 1.34072,1.3407c0.17102,0.4129 0.44689,0.89381 1.34069,1.78761c0,0 0.13089,0.57778 0.44691,0.89381c0.316,0.31601 0.4469,0.44689 0.4469,0.44689c0,0.44692 0.27586,0.48094 0.44689,0.89381c0.24187,0.58391 0.66422,0.36813 0.89381,1.3407c0.10268,0.43496 0.34421,0.45886 0.44689,0.8938c0.22961,0.97259 0.44691,0.89381 0.44691,1.3407c0,0.89381 0.20503,0.75681 0.44689,1.3407c0.17104,0.4129 0,0.8938 0,1.78761c0,0.44689 0,0.44689 0,0.89381c0,0 0,0.44689 0,0.44689c0,0.44692 0,0.44692 0,0.44692c0,0.44689 0,0.44689 0,0.89378c0,0 0.20506,0.30989 0.44692,0.8938c0.17104,0.4129 0,0.44692 0,0.89381c0,0.44689 0,0.44689 0,0.89381c0,0.44689 0,0.8938 0,1.34069c0,0.44689 0,0.89381 0,1.3407c0,0.44692 0,0.44692 0,0.89381c0,0.44691 0,0.44691 0,0.8938c0,0.44689 0,0.44689 0,0.89381c0,0 0,0.44689 0,0.89381c0,0 0,0.44689 0,0.44689c0,0.44689 0,0.89381 0,0.89381c0,0.44689 0,0.8938 0,0.8938c0,0 0,0.44689 0,0.44689c0,0 0,0.44689 0,0.44689c0,0 0,0 0,0c0,0.44692 0,0.44692 0,0.89381c0,0 0,0.44692 0,0.44692c0.44689,0 0.44689,0.44689 0.44689,0.44689c0,0 0,0.44689 0,0.44689c0,0 0,0 0,0.44691c0,0 0,0.44689 0,0.44689c0,0.44692 0,0.44692 0,0.89381c0,0 0,0.44689 0,0.44689c0,0.44692 0,0.89381 0,0.89381c0.44689,0.44691 0.44689,0.8938 0.44689,0.8938c0,0.44689 0.44692,0.44689 0.44692,0.89381c0,0 0,0.44689 0.44689,0.89381c0,0 0,0.44689 0,0.44689l0,0l0,0.44689l0,0" stroke="#ffffff"/>
  </g>
 </g>
</svg>