<svg width="606.6673" height="97.108879" xmlns="http://www.w3.org/2000/svg">
 <metadata id="metadata7">image/svg+xml</metadata>

 <g>
  <title>background</title>
  <rect x="-1" y="-1" width="608.6673" height="99.10888" id="canvas_background" fill="none"/>
 </g>
 <g>
  <title>Layer 1</title>
  <g id="g11" transform="matrix(1.25,0,0,-1.25,-0.6552737,97.3145) ">
   <g id="g13" transform="scale(0.10000000149011612) ">
    <path d="m557.031,565.898c-2.429,-0.937 -11.219,-3.574 -10.508,-3.925c-0.711,0.351 -1.281,0.468 -1.242,1.093c0.969,3.34 -14.469,-11.015 -15.203,-5.488c-0.449,0.938 0.734,-0.234 -1.445,0.352c5.644,-0.782 -34.531,-13.496 -34.531,-12.793c-1.922,4.16 -1.497,8.281 1.066,12.09c3.172,7.968 -6.875,19.335 -3.09,15.996c-2.723,2.754 -2.723,5.351 -0.098,8.125c1.731,-1.25 0.098,0.39 1.008,3.925c1.114,0.704 -2.082,5.098 0.821,3.536c2.531,0.742 6.687,14.941 3.711,25.078c-6.614,15.332 -3.809,126.015 -0.458,121.777c1.18,7.656 -5.902,13.301 -2.511,18.945c0.254,5.821 -5.293,6.016 -4.551,9.942c-2.957,11.679 -19.402,11.484 -17.598,13.965c-8.691,-1.934 -40.722,-53.477 -41.035,-54.786c1.961,1.895 -21.679,-33.652 -21.211,-33.769c-2.605,0.586 -5.547,-4.004 -6.101,-9.336c-0.239,-0.645 -13.418,-16.914 -12.004,-13.73c-4.512,-7.579 -9.844,-14.805 -14.004,-22.54c3.23,2.051 -5.828,-6.269 -4.473,-5.996c0.196,0.899 -10.207,-25.039 -10.32,-22.793c0.976,3.496 -12.793,-12.754 -14.238,-12.871c-2.911,-11.816 -46.653,17.071 -47.485,30.293c0.117,0.469 -0.894,12.246 -6.785,13.653c2.59,-2.286 -31.113,28.398 -28.562,26.015c-17.622,23.457 -31.489,22.793 -57.539,45.586c0.171,0.352 -6.086,14.824 -10.5,19.942c-9.844,-2.403 -23.145,-17.696 -20.34,-21.465c-4.219,-1.778 -5,3.535 -6.653,5.332c-1.328,-5.762 4.317,-39.043 4.317,-39.043c-0.625,-4.785 2.273,-29.492 3.34,-25.82l1.906,-2.149c0,-0.234 -2.973,-3.691 0.68,-6.094c4.003,-7.05 12.101,-12.031 9.218,-21.875c-3.535,-1.777 0.434,-14.687 -0.191,-10.488c-3.984,-20.391 43.902,-58.73 37.273,-85.957c-3.066,-2.441 9.141,-16.914 6.629,-16.25c-4.156,-4.863 -16.519,-7.969 -25.152,-10.273c-2.531,-1.465 -5.141,-0.157 -7.863,0.664c-2.61,0.507 -24.329,9.375 -30.43,5.254c-0.234,-0.625 -18.008,4.121 -18.125,3.339c3.191,3.614 -20.32,-4.98 -16.797,2.657c1.531,5.937 -20.477,-6.27 -15.039,-3.047c-0.359,-0.235 -9.602,-5.41 -9.363,-3.887c0.73,2.07 -8.391,0.234 -6.313,-0.273c-1.375,0.39 -10.7108,3.066 -9.3436,2.148c-5.1757,3.418 -6.2578,-1.211 -12.375,1.738c-0.3711,-0.703 -7.3242,-1.66 -8.6132,-1.308c-0.4297,0.117 -13.7657,-0.469 -13.7657,-0.078c1.0508,0.449 -11.7031,-3.711 -12.5586,-0.391c0.4688,0.586 -10.0703,-7.402 -13.0273,-2.461c1.3164,4.082 -11.8867,-3.34 -13.9648,-3.652c-1.6133,0.312 -8.2813,3.222 -6.9844,1.133c-1.1016,-0.586 -9.36721,-10.704 -9.36721,-10.704c1.55469,-0.468 45.34371,-33.324 38.48051,-28.187c0,0 4.7226,-3.945 16.2187,-10.781c-1.8281,-4.903 16.9141,-0.235 13.8672,-10.86c17.4219,10.274 53.1254,-37.754 65.6644,-30.136c1.589,0 6.922,-8.399 8.672,-7.735c-2.825,2.442 9.062,-3.926 5.332,-3.652c1.652,-1.953 1.043,-1.25 6.726,-7.129c14.27,0.625 20.332,-11.152 25.063,-15.117c15.672,-30.176 -49.387,-59.317 -54.993,-74.551c-0.214,-0.781 -0.214,-1.406 -1.085,-1.172c0.734,-0.703 -9.098,-4.277 -10.235,-9.023l-9.754,-12.676c-8.672,2.48 -30.7029,-32.52 -39.6287,-37.031l-21.2187,-9.805c0,0 -2.9922,-2.91 -4.9844,-5.859c-1.9414,-3.047 -4.8516,-6.582 -6.9883,-7.325c-1.8359,-0.722 -15.0234,-13.73 -15.0234,-13.73l-3.2578,-6.172l5.3007,-2.344c0,0 -3.4179,-4.004 -3.9257,-5.742c-0.7344,-1.484 -2.625,-5.84 1.4843,-6.777c4.2774,-0.977 6.6719,-0.977 7.6758,-2.989c0.918,-2.031 17.9883,-3.339 19.3633,-3.066c1.2734,0.449 9.7695,4.199 9.7695,4.199c8.2032,2.598 35.0391,2.207 38.1328,-0.469c-0.5468,0.118 39.0036,9.727 40.0586,12.911c1.301,-0.196 24.363,8.086 24.363,8.086c6.321,2.949 20.742,5.293 25.356,10.546c-4.399,-0.859 18.594,7.071 25.086,3.887c2.004,-1.094 57.422,10.41 59.328,17.539c4.472,-0.469 4.976,-4.629 5.23,-4.863c-1.289,-7.344 -0.152,-27.695 -2.898,-31.231c0.098,2.911 -7.774,-5.292 -5.098,-9.648c5.567,-1.738 5.293,0.273 8.75,-7.891c-1.609,3.692 0.391,-16.445 -0.078,-23.691c0.195,-3.887 6.414,-16.719 -3.867,-21.777c0,0 -5.813,-12.09 -6.067,-11.895c0.762,5.918 0.762,-3.027 -0.347,-1.328c5.191,2.461 3.648,-13.418 2.469,-15.352c0.988,2.481 -2.704,-3.046 -3.079,-1.171c-8.375,-16.4145 9.243,-18.2465 -0.925,-20.0825c4.355,-1.3086 6.632,-23.125 6.355,-19.9453c0.988,-7.3437 0.371,-14.4297 -1.883,-21.3867c-1.464,4.5508 -3.933,-8.3555 -3.172,-11.875c1.708,-8.2031 -2.375,-23.668 5.426,-27.2461c-1.187,3.2266 5.91,-7.51562 5.91,-7.51562c18.282,-7.73828 22.754,16.18752 30.879,19.96092c2.766,0.586 5.926,11.6211 8.575,10.7578c0.253,0.8633 11.242,53.4024 19.699,50.6875c-0.395,0 14.136,21.586 17.117,30.805c-0.117,-0.625 -6.981,7.539 7.598,13.886c7.082,-2.382 10.363,16.524 12.175,27.305c0.481,6.172 4.836,3.184 5.461,9.746c-0.117,-1.816 12.547,19.375 14.629,28.047c2.078,-0.117 2.395,9.609 3.848,8.281c-3.945,3.418 3.437,7.442 2.473,10.43c1.355,5.215 0.906,9.883 3.179,9.453c2.16,10.176 8.535,5.742 9.961,4.824c3.028,-1.64 7.199,0.918 7.695,-6.621c-2.925,-3.769 9.457,-7.343 8.391,-9.687c-0.351,1.797 59.133,-68.36 75.559,-81.817c0.757,-0.703 46.824,-46.4137 44.824,-45.941c5.098,-2.6407 9.375,-11.8985 9.726,-11.2305c-1.925,-2.9687 8.79,-7.832 10.672,-7.832c6.985,-12.211 7.332,-9.711 11.067,-7.6211c1.218,-5.4453 10.476,-2.8321 13.867,-4.5899c-1.035,2.6211 7.281,4.9453 5.477,7.8555c2.507,-0.8789 -1.708,9.8828 0.624,8.6094c-2.976,5.1211 -20.417,28.3398 -19.207,32.5856c0.36,1.446 2.489,0.899 3.79,0.625c-0.239,1.367 -2.239,2.793 -3.43,3.77c3.191,0.078 3.894,1.758 2.129,5.137c-3.133,-1.719 -7.434,18.125 -4.707,20.918c1.101,5.058 -14.239,67.168 -21.492,73.242c0.464,2.168 -2.512,15.859 -3.086,17.031c-12.024,7.5 -2.082,22.519 -10.371,25.156c-1.946,-3.73 -10.598,10.43 -11.836,22.207c-3.989,7.324 0,24.864 -2.727,22.246c-2.355,2.657 12.48,8.985 16.16,0.899c31.313,-11.856 91.125,7.812 112.766,-8.946c5.097,9.649 16.601,2.149 10.437,3.926c-0.945,-1.172 1.098,-1.738 2.512,-2.129c-2.883,0.606 21.055,2.129 24.68,0.235c-9.219,2.246 13.535,0.761 12.632,1.113c-8.082,1.758 16.165,-2.91 41.985,13.105c9.277,2.852 7.566,7.676 11.457,16.543c-1.574,-7.558 2.41,7.579 -5.434,12.364c-45.75,11.465 -82.144,45.234 -127.715,57.168c-17.656,3.769 -46.199,47.011 -61.367,44.258c27.59,31.503 54.348,62.855 82.793,89.613c5.586,5.371 62.617,66.894 62.617,66.152c2.122,3.106 5.317,13.34 5.082,8.945c0.118,1.465 -0.585,3.418 -2.121,5.625c-0.117,-0.761 -21.433,15.918 -26.992,5.528c7.512,-4.668 -15.222,-6.289 -20.793,-7.578c-1.707,-1.055 -3.14,-0.625 -4.429,-0.274c-5.696,1.406 -13.149,-5.097 -16.957,-5.957c-8.336,7.442 -29.227,-6.367 -38.727,-9.551c0.789,0.411 -4.074,-0.586 -11.457,0.997c-3.176,-5.215 -3.074,-3.731 -2.293,-3.262c-2.766,-1.485 -5.078,-3.848 -16.223,-7.656c1.258,-0.469 -7.058,-3.965 -10.246,-3.125c0.278,-1.465 -1.25,-5.391 -6.148,-4.434c-3.696,0.937 -3.203,2.344 -4.563,0.937" id="path15" fill-rule="nonzero" fill="#ffffff"/>
    <path d="m972.07,591.719l-99.715,0l87.196,115.898l118.319,0l87.27,-115.898l-99.67,0l-46.71,62.383l-46.69,-62.383m-19.543,-447.934l0,404.301l132.363,0l0,-404.301l-132.363,0l0,0" id="path17" fill-rule="nonzero" fill="#ffffff"/>
    <path d="m1149.38,699.961l132.44,0l0,-556.176l-132.44,0l0,556.176" id="path19" fill-rule="nonzero" fill="#ffffff"/>
    <path d="m1449.21,313.609c2.33,-55.293 34.3,-91.894 90.46,-91.894c31.76,0 62.97,14.824 75.43,44.492l123.93,0c-24.12,-93.535 -110.71,-134.023 -201.05,-134.023c-131.57,0 -221.16,79.453 -221.16,214.921c0,123.829 98.92,212.661 218.08,212.661c144.9,0 217.32,-109.106 211.15,-246.157l-296.84,0m164.35,73.829c-2.31,45.449 -34.32,82.753 -78.66,82.753c-46.69,0 -77.84,-33.457 -85.69,-82.753l164.35,0l0,0" id="path21" fill-rule="nonzero" fill="#ffffff"/>
    <path d="m2067.45,143.785l-52.22,0l0,42.93l-1.25,0c-17.13,-34.961 -57.76,-50.254 -101.28,-50.254c-97.69,0 -146.15,77.402 -146.15,166.992c0,89.649 47.89,165.215 144.97,165.215c32.46,0 79.13,-12.207 102.46,-49.707l1.25,0l0,163.285l52.22,0l0,-438.461m-147.5,38.77c70.04,0 97.07,60.156 97.07,119.629c0,62.773 -28.32,120.371 -100.02,120.371c-71.23,0 -95.25,-60.723 -95.25,-122.793c0,-59.492 30.76,-117.207 98.2,-117.207l0,0" id="path23" fill-rule="nonzero" fill="#ffffff"/>
    <path d="m2387.96,244.508c-14.18,-69.961 -64.45,-108.047 -135.76,-108.047c-101.29,0 -149.24,70 -152.27,166.992c0,95.254 62.66,165.215 149.26,165.215c112.33,0 146.74,-105.039 143.63,-181.856l-237.62,0c-1.83,-55.332 29.57,-104.257 98.82,-104.257c42.98,0 73.08,20.957 82.32,61.953l51.62,0m-50.45,88.437c-2.42,49.785 -39.78,89.61 -91.46,89.61c-54.67,0 -87.19,-41.075 -90.85,-89.61l182.31,0l0,0" id="path25" fill-rule="nonzero" fill="#ffffff"/>
    <path d="m2426.73,699.961l409.57,0l0,-116.055l-264.84,0l0,-113.715l229.02,0l0,-112.129l-229.02,0l0,-214.277l-144.73,0l0,556.176" id="path27" fill-rule="nonzero" fill="#ffffff"/>
    <path d="m2862.78,548.086l128.58,0l0,-70.902l1.41,0c19.57,51.39 64.62,78.793 121.58,78.793c10.09,0 20.95,-0.997 31.15,-3.301l0,-120.649c-17.17,4.707 -32.64,7.832 -50.64,7.832c-65.42,0 -99.81,-45.234 -99.81,-95.918l0,-200.156l-132.27,0l0,404.301" id="path29" fill-rule="nonzero" fill="#ffffff"/>
    <path d="m3145.5,423.512c2.32,52.812 27.28,87.172 62.98,108.246c35.87,20.176 82.54,28.008 128.62,28.008c95.72,0 188.47,-21.055 188.47,-135.551l0,-176.797c0,-34.258 0,-71.602 15.63,-103.633l-133.28,0c-4.63,12.52 -6.21,24.922 -7.78,38.145c-34.25,-35.782 -84.86,-49.746 -133.24,-49.746c-77.04,0 -137.75,38.847 -137.75,122.285c0,131.562 143.28,121.406 235.14,140.156c22.64,4.668 35.07,12.441 35.07,37.402c0,30.313 -36.52,42.012 -63.84,42.012c-36.64,0 -59.95,-16.406 -66.23,-50.527l-123.79,0m171.35,-209.571c62.96,0 84.04,35.782 80.93,119.121c-18.63,-11.562 -52.92,-14.042 -81.76,-21.777c-29.54,-6.894 -54.49,-19.414 -54.49,-51.426c0,-32.656 25.61,-45.918 55.32,-45.918l0,0" id="path31" fill-rule="nonzero" fill="#ffffff"/>
    <path d="m3573.8,548.086l128.58,0l0,-55.332l1.54,0c24.15,41.289 78.61,67.012 126.91,67.012c134.78,0 145.69,-98.129 145.69,-156.625l0,-259.356l-132.35,0l0,195.488c0,55.352 6.21,111.387 -66.27,111.387c-49.83,0 -71.64,-41.992 -71.64,-86.406l0,-220.469l-132.46,0l0,404.301" id="path33" fill-rule="nonzero" fill="#ffffff"/>
    <path d="m4288.88,399.996c-0.81,34.258 -31.19,58.457 -64.63,58.457c-74,0 -85.73,-63.047 -85.73,-119.18c0,-52.187 22.6,-105.859 78.7,-105.859c45.92,0 69.45,26.445 75.49,69.199l128.57,0c-11.68,-108.164 -95.76,-170.429 -203.3,-170.429c-121.45,0 -211.92,83.339 -211.92,207.089c0,128.536 81.84,220.493 211.92,220.493c100.5,0 190.08,-53.008 199.47,-159.77l-128.57,0l0,0" id="path35" fill-rule="nonzero" fill="#ffffff"/>
    <path d="m4561.52,313.609c2.32,-55.293 34.21,-91.894 90.33,-91.894c31.85,0 63.08,14.824 75.49,44.492l123.9,0c-24.18,-93.535 -110.68,-134.023 -201.01,-134.023c-131.61,0 -221.18,79.453 -221.18,214.921c0,123.829 98.97,212.661 217.99,212.661c144.98,0 217.4,-109.106 211.17,-246.157l-296.69,0m164.31,73.829c-2.35,45.449 -34.3,82.753 -78.79,82.753c-46.64,0 -77.72,-33.457 -85.52,-82.753l164.31,0l0,0" id="path37" fill-rule="nonzero" fill="#ffffff"/>
   </g>
  </g>
 </g>
</svg>