<svg width="320" height="100" xmlns="http://www.w3.org/2000/svg" preserveAspectRatio="xMidYMid">
 <defs>
  <clipPath clipPathUnits="userSpaceOnUse" id="presentation_clip_path">
   <rect id="svg_1" height="21000" width="21000" y="-2711.21934" x="-20662.35842"/>
  </clipPath>
 </defs>
 <defs>
  <g id="svg_2"/>
 </defs>
 <defs>
  <g transform="scale(0.00048828125,-0.00048828125) " id="bullet-char-template(57356)">
   <path id="svg_3" d="m580,1141l583,-570l-583,-571l-584,571l584,570z"/>
  </g>
  <g transform="scale(0.00048828125,-0.00048828125) " id="bullet-char-template(57354)">
   <path id="svg_4" d="m8,1128l1129,0l0,-1128l-1129,0l0,1128z"/>
  </g>
  <g transform="scale(0.00048828125,-0.00048828125) " id="bullet-char-template(10146)">
   <path id="svg_5" d="m174,0l428,739l-428,742l1282,-742l-1282,-739zm1184,739l-1049,607l350,-607l699,0z"/>
  </g>
  <g transform="scale(0.00048828125,-0.00048828125) " id="bullet-char-template(10132)">
   <path id="svg_6" d="m2015,739l-739,-739l-559,0l543,543l-1086,0l0,393l1086,0l-543,545l557,0l741,-742z"/>
  </g>
  <g transform="scale(0.00048828125,-0.00048828125) " id="bullet-char-template(10007)">
   <path id="svg_7" d="m0,-2c-7,16 -16,29 -25,39l381,530c-94,256 -141,385 -141,387c0,25 13,38 40,38c9,0 21,-2 34,-5c21,4 42,12 65,25l27,-13l111,-251l280,301l64,-25l24,25c21,-10 41,-24 62,-43c-36,-69 -87,-143 -152,-222c-1,-1 -60,-68 -176,-200l180,-361c0,-27 -21,-55 -63,-84l16,-20c-10,-29 -28,-43 -55,-43c-31,0 -102,102 -215,305l-293,-457c-22,-34 -53,-51 -92,-51c-42,0 -63,17 -64,51c-7,9 -10,24 -10,44c0,9 1,19 2,30z"/>
  </g>
  <g transform="scale(0.00048828125,-0.00048828125) " id="bullet-char-template(10004)">
   <path id="svg_8" d="m285,-33c-103,0 -174,63 -211,189c-22,72 -33,177 -33,315c0,78 14,145 41,201c34,71 87,106 158,106c53,0 88,-31 106,-94l23,-176c8,-64 28,-97 59,-98l735,706c11,11 33,17 66,17c42,0 63,-15 63,-46l0,-122c0,-36 -10,-64 -30,-84l-820,-834c-52,-53 -104,-80 -157,-80z"/>
  </g>
  <g transform="scale(0.00048828125,-0.00048828125) " id="bullet-char-template(9679)">
   <path id="svg_9" d="m813,0c-181,0 -324,54 -430,161c-107,107 -160,250 -160,431c0,181 53,324 160,431c106,107 249,161 430,161c179,0 323,-54 432,-161c108,-107 162,-251 162,-431c0,-180 -54,-324 -162,-431c-109,-107 -253,-161 -432,-161z"/>
  </g>
  <g transform="scale(0.00048828125,-0.00048828125) " id="bullet-char-template(8226)">
   <path id="svg_10" d="m346,457c-73,0 -137,26 -191,78c-54,51 -81,114 -81,188c0,73 27,136 81,188c54,52 118,78 191,78c73,0 134,-26 185,-79c51,-51 77,-114 77,-187c0,-75 -25,-137 -76,-188c-50,-52 -112,-78 -186,-78z"/>
  </g>
  <g transform="scale(0.00048828125,-0.00048828125) " id="bullet-char-template(8211)">
   <path id="svg_11" d="m-4,459l1139,0l0,147l-1139,0l0,-147z"/>
  </g>
 </defs>
 <g>
  <title>background</title>
  <rect fill="none" id="canvas_background" height="102" width="322" y="-1" x="-1"/>
 </g>
 <g>
  <title>Layer 1</title>
  <g id="svg_59" stroke="null">
   <g id="svg_12" stroke="null">
    <g class="Master_Slide" id="id2" stroke="null">
     <g class="Background" id="bg-id2" stroke="null"/>
     <g class="BackgroundObjects" id="bo-id2" stroke="null"/>
    </g>
   </g>
   <g id="svg_13" class="SlideGroup" stroke="null">
    <g id="svg_14" stroke="null">
     <g clip-path="url(#presentation_clip_path)" class="Slide" id="id1" stroke="null">
      <g id="svg_15" class="Page" stroke="null">
       <g id="svg_16" class="com.sun.star.drawing.TextShape" stroke="null">
        <g id="id3" stroke="null">
         <text transform="matrix(0.004630000281973892,0,0,0.004630000281973892,730.6599752019937,-288.8821074536026) " x="-134827.05904" y="62670.43421" id="svg_17" class="TextShape" stroke="null">
          <tspan id="svg_18" font-weight="400" font-size="988px" font-family="HelveticaNeueUltraLight" class="TextParagraph" stroke="null">
           <tspan id="svg_19" y="64853.68271" x="-126931.81054" class="TextPosition" stroke="null"/>
           <tspan id="svg_20" y="64853.68271" x="-126931.81054" class="TextPosition" stroke="null">
            <tspan id="svg_21" fill="rgb(255,255,255)" stroke="null">2014 - 2015</tspan>
           </tspan>
          </tspan>
         </text>
        </g>
       </g>
       <g id="svg_22" class="Group" stroke="null">
        <g id="svg_23" class="com.sun.star.drawing.PolyPolygonShape" stroke="null">
         <g id="id4" stroke="null">
          <path id="svg_24" d="m121.31463,1.28202l0,14.88545l-14.90398,0l0,82.34456l82.34456,0l0,-14.88545l14.88545,0l0,-82.34456l-82.32604,0l0.00001,0z" fill="transparent" stroke="null"/>
         </g>
        </g>
        <g id="svg_25" class="com.sun.star.drawing.PolyPolygonShape" stroke="null">
         <g id="id5" stroke="null">
          <path id="svg_26" d="m108.89696,18.69082l77.39046,0l0,77.38583l-77.39046,0l0,-77.38583z" fill="#cccccc" stroke="null"/>
         </g>
        </g>
        <g id="svg_27" class="com.sun.star.drawing.ClosedBezierShape" stroke="null">
         <g id="id6" stroke="null">
          <path id="svg_28" d="m120.36084,76.39451l3.44009,-0.2639l-0.01851,5.07911l2.87523,0c1.81496,0 3.50954,0.51393 3.68548,2.73632c0.12501,1.67143 -0.93526,2.78264 -1.87052,2.9632c-1.14361,0 -0.79173,0 -2.32889,0c0.51393,0 1.99553,-0.92136 1.66217,-2.18998c-0.30095,-1.16214 -1.3427,-1.19918 -2.29648,-1.2501c-0.96767,-0.05556 -5.09763,-0.26391 -5.09763,-0.26391l-0.05093,-6.81074l-0.00001,0z" fill="rgb(255,255,255)" stroke="null"/>
         </g>
        </g>
        <g id="svg_29" class="com.sun.star.drawing.ClosedBezierShape" stroke="null">
         <g id="id7" stroke="null">
          <path id="svg_30" d="m115.70306,82.55242c-0.63431,0.7408 -1.25473,1.88441 -0.89822,3.19007c1.07416,3.57899 6.78758,5.16708 9.18592,5.25505l-0.28243,-4.19478c0,0 -3.89846,0.5093 -5.87084,-1.55568c-0.84729,-0.8797 -0.67135,-1.79644 -0.05556,-2.58817c-0.72228,-0.03705 -1.58809,-0.08797 -2.07887,-0.10649z" fill="rgb(255,255,255)" stroke="null"/>
         </g>
        </g>
        <g id="svg_31" class="com.sun.star.drawing.PolyPolygonShape" stroke="null">
         <g id="id8" stroke="null">
          <path id="svg_32" d="m123.7639,3.80537l77.40897,0l0,77.40434l-77.40898,0l0,-77.40434l0.00001,0z" fill="#cccccc" stroke="null"/>
         </g>
        </g>
        <g id="svg_33" class="com.sun.star.drawing.ClosedBezierShape" stroke="null">
         <g id="id9" stroke="null">
          <path id="svg_34" d="m168.4897,62.31468l-1.70847,0l0,-4.44017l-0.70839,0l0,-1.3427l0.70839,0c0,-0.52782 -0.01852,-1.14824 0.26391,-1.58809c0.40744,-0.59727 1.18065,-0.82877 1.87052,-0.75932l0.79173,0.07408l0,1.30566l-0.59727,-0.03704c-0.62042,-0.03704 -0.62042,0.3704 -0.62042,0.86581l0,0.13891l1.06027,0l0,1.3427l-1.06027,0l0,4.44017l0,-0.00001z" fill="rgb(255,255,255)" stroke="null"/>
         </g>
        </g>
        <g id="svg_35" class="com.sun.star.drawing.ClosedBezierShape" stroke="null">
         <g id="id10" stroke="null">
          <path id="svg_36" d="m171.8233,56.38365l0,1.1112l0.01852,0c0.17594,-0.63894 0.52782,-1.29177 1.26862,-1.23621l0.30095,0.03241l0,1.7131c-1.30566,-0.06945 -1.46308,0.98619 -1.46308,2.06498l0,2.25481l-1.74551,0l0,-5.94029l1.6205,0z" fill="rgb(255,255,255)" stroke="null"/>
         </g>
        </g>
        <g id="svg_37" class="com.sun.star.drawing.ClosedBezierShape" stroke="null">
         <g id="id11" stroke="null">
          <path id="svg_38" d="m177.29133,59.48112c-0.65283,0.07408 -1.852,0.2315 -1.852,1.09268c0,0.45837 0.28243,0.77784 0.75932,0.77784c0.35188,0 0.67135,-0.17594 0.86581,-0.49541c0.24539,-0.3704 0.22687,-0.72228 0.22687,-1.14361l0,-0.2315zm0.15742,2.84282c-0.05093,-0.30095 -0.08797,-0.62041 -0.06945,-0.92137c-0.49541,0.68987 -1.00471,1.04175 -1.88441,1.04175c-1.07879,0 -1.88904,-0.56486 -1.88904,-1.68995c0,-0.86581 0.54634,-1.46771 1.33807,-1.78255c0.68987,-0.25002 1.62513,-0.30095 2.34741,-0.3704l0,-0.14353c0,-0.24539 0.03704,-0.54634 -0.1389,-0.77321c-0.16205,-0.19446 -0.44448,-0.28243 -0.70839,-0.28243c-0.54634,0 -1.02323,0.28243 -1.02323,0.86118l-1.63902,-0.1389c0.17594,-1.44456 1.58809,-1.87052 2.83819,-1.87052c0.6019,0 1.39363,0.14353 1.87052,0.54634c0.61579,0.49541 0.54634,1.14824 0.54634,1.852l0,2.78726c0,0.30095 0.03704,0.58338 0.12501,0.88433l-1.7131,0z" fill="rgb(255,255,255)" stroke="null"/>
         </g>
        </g>
        <g id="svg_39" class="com.sun.star.drawing.ClosedBezierShape" stroke="null">
         <g id="id12" stroke="null">
          <path id="svg_40" d="m181.52315,56.37902l0,1.00471l0.01852,0c0.35188,-0.75932 0.84729,-1.12972 1.7131,-1.12972c0.56023,0 1.1112,0.17594 1.46308,0.65283c0.33336,0.43985 0.33336,1.19917 0.33336,1.72699l0,3.69011l-1.72699,0l0,-3.21322c0,-0.59727 0.08797,-1.4816 -0.77784,-1.4816c-0.31484,0 -0.57875,0.17594 -0.72228,0.44448c-0.17594,0.33336 -0.21298,0.66672 -0.21298,1.03712l0,3.21322l-1.70847,0l0,-5.94492l1.6205,0z" fill="rgb(255,255,255)" stroke="null"/>
         </g>
        </g>
        <g id="svg_41" class="com.sun.star.drawing.ClosedBezierShape" stroke="null">
         <g id="id13" stroke="null">
          <path id="svg_42" d="m189.53305,58.63383c0,-0.54634 -0.28243,-1.07416 -0.90285,-1.07416c-0.93063,0 -1.05564,0.93526 -1.05564,1.7131c0,0.72228 0.01852,1.7594 0.98619,1.7594c0.61579,0 0.91674,-0.49078 0.9723,-1.03712l1.63902,0.10649c-0.14353,1.46308 -1.25473,2.34278 -2.69929,2.34278c-1.79644,0 -2.87523,-1.26862 -2.87523,-3.03265c0,-1.83348 1.1112,-3.15766 2.98172,-3.15766c1.37511,0 2.46779,0.89822 2.5928,2.27796l-1.63902,0.10186z" fill="rgb(255,255,255)" stroke="null"/>
         </g>
        </g>
        <g id="svg_43" class="com.sun.star.drawing.ClosedBezierShape" stroke="null">
         <g id="id14" stroke="null">
          <path id="svg_44" d="m195.45945,58.61994c-0.03704,-0.63431 -0.25002,-1.23621 -0.99082,-1.23621c-0.75932,0 -1.05564,0.56486 -1.1112,1.23621l2.10202,0zm-2.0835,1.03712l-0.01852,0.28243c0,0.70839 0.38892,1.27325 1.14824,1.27325c0.52782,0 1.05564,-0.38892 1.05564,-0.93526l1.58809,0.12038c0,0.28243 -0.68524,2.04646 -2.71318,2.04646c-1.76403,0 -2.93079,-1.23158 -2.93079,-2.99561c0,-1.78255 1.04175,-3.1947 2.89375,-3.1947c0.82877,0 1.69458,0.38892 2.18536,1.06027c0.49541,0.67135 0.62042,1.51401 0.6019,2.34278l-3.81049,0z" fill="rgb(255,255,255)" stroke="null"/>
         </g>
        </g>
        <g id="svg_45" class="com.sun.star.drawing.ClosedBezierShape" stroke="null">
         <g id="id15" stroke="null">
          <path id="svg_46" d="m135.79264,69.87085c0,-1.1112 -0.56486,-2.18537 -1.85201,-2.18537c-1.97701,0 -2.2224,1.92145 -2.2224,3.49103c0,1.51401 0.03704,3.62992 2.0835,3.62992c1.2501,0 1.88441,-0.98619 1.99091,-2.11591l3.38453,0.19446c-0.29632,3.03265 -2.57428,4.85224 -5.56989,4.85224c-3.74104,0 -5.9264,-2.62984 -5.9264,-6.27829c0,-3.75956 2.25481,-6.49126 6.13475,-6.49126c2.86134,0 5.11615,1.83348 5.36154,4.70871l-3.38453,0.19446l0,0.00001z" fill="rgb(255,255,255)" stroke="null"/>
         </g>
        </g>
        <g id="svg_47" class="com.sun.star.drawing.ClosedBezierShape" stroke="null">
         <g id="id16" stroke="null">
          <path id="svg_48" d="m147.50654,77.48719l0,-2.09739l-0.03704,0c-0.57875,1.55105 -1.83348,2.34741 -3.50954,2.34741c-1.23159,0 -2.29186,-0.26391 -2.98172,-1.37511c-0.68524,-1.07879 -0.61579,-2.2224 -0.61579,-3.40305l0,-7.74599l3.54658,0l0,7.74599c0,0.98619 0.10649,1.92145 1.35659,1.92145c0.79173,0 1.4816,-0.45836 1.78255,-1.18528c0.24539,-0.54634 0.19446,-1.25009 0.19446,-1.86589l0,-6.61627l3.56047,0l0,12.27413l-3.29656,0z" fill="rgb(255,255,255)" stroke="null"/>
         </g>
        </g>
        <g id="svg_49" class="com.sun.star.drawing.PolyPolygonShape" stroke="null">
         <g id="id17" stroke="null">
          <path id="svg_50" d="m152.51157,60.91179l3.5651,0l0,16.5754l-3.5651,0l0,-16.5754l0,0z" fill="rgb(255,255,255)" stroke="null"/>
         </g>
        </g>
        <g id="svg_51" class="com.sun.star.drawing.ClosedBezierShape" stroke="null">
         <g id="id18" stroke="null">
          <path id="svg_52" d="m157.27584,68.01884l0,-2.82429l2.14832,0l0.31947,-3.59751l3.08821,-0.24539l0,3.8429l2.64373,0l0,2.82429l-2.64373,0l0,4.88465c0,1.43068 0,2.00942 1.72699,1.93997l1.1112,-0.05092l0,2.68076l-0.2315,0.03241c-0.68524,0.10649 -1.33807,0.2315 -1.9909,0.2315c-1.02323,0 -2.37982,-0.14353 -3.17618,-0.79636c-0.98619,-0.82877 -0.98619,-2.29184 -0.98619,-3.50954l0,-5.41247l-2.00942,0z" fill="rgb(255,255,255)" stroke="null"/>
         </g>
        </g>
        <g id="svg_53" class="com.sun.star.drawing.ClosedBezierShape" stroke="null">
         <g id="id19" stroke="null">
          <path id="svg_54" d="m173.92532,77.48719l0,-2.09739l-0.05093,0c-0.56486,1.55105 -1.83811,2.34741 -3.49565,2.34741c-1.2501,0 -2.31037,-0.26391 -3.01413,-1.37511c-0.67135,-1.07879 -0.6019,-2.2224 -0.6019,-3.40305l0,-7.74599l3.5651,0l0,7.74599c0,0.98619 0.10649,1.92145 1.35659,1.92145c0.79636,0 1.46308,-0.45836 1.78255,-1.18528c0.24539,-0.54634 0.19446,-1.25009 0.19446,-1.86589l0,-6.61627l3.54658,0l0,12.27413l-3.28267,0z" fill="rgb(255,255,255)" stroke="null"/>
         </g>
        </g>
        <g id="svg_55" class="com.sun.star.drawing.ClosedBezierShape" stroke="null">
         <g id="id20" stroke="null">
          <path id="svg_56" d="m182.23154,65.22232l0,2.31037l0.05093,0c0.35188,-1.32418 1.07416,-2.68077 2.62984,-2.55576l0.59727,0.05093l0,3.5651c-2.69929,-0.14353 -3.03265,2.04183 -3.03265,4.23182l0,4.67167l-3.57899,0l0,-12.27413l3.3336,0z" fill="rgb(255,255,255)" stroke="null"/>
         </g>
        </g>
        <g id="svg_57" class="com.sun.star.drawing.ClosedBezierShape" stroke="null">
         <g id="id21" stroke="null">
          <path id="svg_58" d="m194.39918,69.85232c-0.08797,-1.33807 -0.5093,-2.55576 -2.06498,-2.55576c-1.56957,0 -2.16684,1.14361 -2.29185,2.55576l4.35683,0zm-4.31979,2.11591l-0.03704,0.6019c0,1.44456 0.82877,2.62521 2.36593,2.62521c1.09268,0 2.18536,-0.79173 2.18536,-1.92145l3.29656,0.2315c0,0.59727 -1.42604,4.23182 -5.58841,4.23182c-3.67159,0 -6.06993,-2.56039 -6.06993,-6.22735c0,-3.61603 2.15295,-6.54219 5.96344,-6.54219c1.70847,0 3.49102,0.77784 4.51425,2.16684c1.00471,1.41215 1.26862,3.14377 1.2501,4.83372l-7.88026,0l0,0z" fill="rgb(255,255,255)" stroke="null"/>
         </g>
        </g>
       </g>
      </g>
     </g>
    </g>
   </g>
  </g>
 </g>
</svg>