<svg width="320" height="100" xmlns="http://www.w3.org/2000/svg">
 <metadata id="metadata40432">image/svg+xml</metadata>

 <g>
  <title>background</title>
  <rect x="-1" y="-1" width="322" height="102" id="canvas_background" fill="none"/>
 </g>
 <g>
  <title>Layer 1</title>
  <metadata id="svg_29">image/svg+xml</metadata>

  <g stroke="null" id="svg_9">
   <g stroke="null" transform="matrix(0.7297781174644079,0,0,0.7297781174644079,-6379.000996720503,-1975.3721672452193) " id="svg_6">
    <path fill="#cccccc" id="svg_7" d="m8835.259489,2775.326257l0,-63.77779l125,0l125,0l0,63.77779l0,63.77777l-125,0l-125,0l0,-63.77777zm53.8794,27.849c1.15916,-0.40367 2.72039,-1.41829 3.63582,-2.36286l0.73743,-0.76093l-0.35387,-0.84695l-0.35389,-0.84695l-0.828,0.79412c-1.60584,1.54011 -3.75791,2.22857 -5.49697,1.75851c-2.80467,-0.7581 -4.33104,-4.22505 -4.33104,-9.83741c0,-5.62664 1.56399,-8.26965 4.90432,-8.28792c2.00562,-0.01097 2.89756,0.90096 3.53666,3.61587c0.24663,1.04763 0.33419,1.17082 0.75241,1.05859c0.2603,-0.06985 0.69829,-0.12837 0.97329,-0.13004c0.49037,-0.00297 0.49999,-0.05398 0.49999,-2.65189l0,-2.64886l-1.61111,-0.37595c-2.47752,-0.57813 -5.33752,-0.67314 -7.05008,-0.23423c-4.67661,1.19858 -7.3265,5.18633 -7.33552,11.03901c-0.00756,4.90332 1.86764,8.56896 5.23043,10.22446c2.17755,1.072 4.88718,1.26057 7.09013,0.49343zm22.55836,0.00467c1.67834,-0.468 2.76499,-1.05834 3.95253,-2.14724c2.79401,-2.56196 4.04629,-6.65656 3.32035,-10.85663c-0.97215,-5.62453 -5.00012,-9.07203 -10.59952,-9.07203c-6.41794,0 -10.45311,4.37225 -10.44117,11.31333c0.00901,5.23491 2.30629,8.98239 6.47397,10.56076c2.161,0.8184 4.81889,0.89194 7.29384,0.20181zm-4.77109,-1.72476c-2.33329,-1.40051 -3.52482,-4.92316 -3.53885,-10.46224c-0.00912,-3.59511 0.37615,-5.32066 1.48953,-6.67138c2.19413,-2.66186 5.95195,-1.53194 7.64622,2.29909c0.87706,1.98322 1.23023,3.9257 1.23937,6.81672c0.01344,4.25608 -0.94722,6.97485 -2.84414,8.04924c-1.21514,0.68824 -2.81412,0.67565 -3.99213,-0.03143zm59.33333,1.83395c2.35709,-0.50699 4.97229,-2.40562 6.20062,-4.50162c1.32641,-2.26335 1.92269,-5.67156 1.47491,-8.43026c-0.88108,-5.42812 -4.56595,-8.88937 -9.78665,-9.19273c-3.59685,-0.209 -6.35696,0.75311 -8.42079,2.93529c-1.92938,2.04004 -2.90424,4.87485 -2.9054,8.44867c-0.00251,7.79384 5.75222,12.3937 13.43731,10.74065zm-4.28582,-1.75548c-2.38189,-1.21039 -3.67886,-4.9535 -3.6908,-10.65183c-0.00859,-4.09058 0.64203,-6.1352 2.35629,-7.40497c0.90322,-0.66903 2.76103,-0.75903 3.88036,-0.18797c2.63093,1.34219 4.10181,4.90811 4.14022,10.03738c0.03069,4.09538 -0.83025,6.80294 -2.55324,8.02982c-1.02817,0.73212 -2.88461,0.81188 -4.13283,0.17757zm84.83449,1.50592c1.60393,-0.59168 3.34653,-2.31336 3.8566,-3.81034c0.42105,-1.23573 0.48892,-3.34143 0.13786,-4.27739c-0.6239,-1.66338 -2.14167,-3.08053 -6.48588,-6.05591c-0.94629,-0.6481 -1.92129,-1.50323 -2.16666,-1.90025c-0.5335,-0.86322 -0.5807,-2.26731 -0.09933,-2.95458c0.71168,-1.01605 2.45427,-1.54195 3.8574,-1.16413c1.03109,0.27765 1.46811,0.82275 2.02215,2.52226c0.25668,0.78738 0.48994,1.14342 0.7408,1.13073c0.20139,-0.01018 0.71616,-0.03518 1.14395,-0.05556l0.77777,-0.03703l0,-1.98413c0,-1.4007 -0.09112,-2.07525 -0.3099,-2.29403c-0.17045,-0.17045 -1.27058,-0.49073 -2.44473,-0.71174c-6.28895,-1.18379 -9.91693,1.08462 -9.90987,6.19616c0.00392,2.84318 0.99295,4.21373 5.03734,6.98061c3.41399,2.33559 4.55702,3.98241 3.81501,5.49647c-0.55052,1.12333 -1.38439,1.53889 -3.08798,1.53889c-1.34902,0 -1.60275,-0.06855 -2.10204,-0.56783c-0.31229,-0.3123 -0.80866,-1.1623 -1.10301,-1.88889c-0.56643,-1.39813 -0.99349,-1.65081 -2.255,-1.33418c-0.50968,0.12792 -0.52871,0.20755 -0.52871,2.21236c0,1.40109 0.09064,2.14972 0.27777,2.29435c0.15278,0.11808 0.92779,0.39343 1.72223,0.61189c3.08297,0.84777 4.91126,0.86123 7.10423,0.05227zm21.02677,-0.19337c1.20733,-0.47794 1.31925,-0.58072 1.38532,-1.2722c0.06195,-0.64826 0.01624,-0.7309 -0.33059,-0.59782c-0.22135,0.08494 -1.00371,0.205 -1.73856,0.26678c-1.7111,0.14388 -2.70933,-0.3299 -3.33606,-1.58337c-0.41178,-0.82353 -0.44973,-1.41579 -0.51633,-8.05555l-0.07191,-7.16666l2.43302,0l2.43299,0l0.12816,-0.64075c0.07047,-0.3524 0.19382,-0.90241 0.27409,-1.22223l0.14593,-0.58147l-2.69074,0l-2.69076,0l0,-2.88889l0,-2.88889l-1.09157,0l-1.09159,0l-0.14623,0.86543c-0.2214,1.31056 -1.29935,3.41409 -2.09077,4.08003c-0.71169,0.59885 -1.93845,1.05102 -2.85763,1.0533c-0.45168,0.00112 -0.49999,0.1086 -0.49999,1.11235l0,1.11112l1.31258,0l1.31258,0l0.09497,7.16666c0.10265,7.74516 0.20878,8.52536 1.36602,10.0426c0.31245,0.40963 1.09589,1.01364 1.74096,1.34223c1.08516,0.55276 1.32395,0.5892 3.19277,0.48736c1.38359,-0.07541 2.43365,-0.27388 3.33334,-0.63003zm-198.11375,0.34364l0.79503,-0.13152l0.39004,-3.0327c0.21453,-1.66798 0.44427,-3.30769 0.51054,-3.6438c0.11749,-0.59594 0.09497,-0.61111 -0.9073,-0.61111c-0.97941,0 -1.02778,0.02951 -1.02778,0.62707c0,1.11281 -0.67557,2.66804 -1.45698,3.35413c-1.0347,0.90847 -2.00732,1.12722 -5.0184,1.12866c-3.89549,0.00187 -3.61995,0.50656 -3.70495,-6.78603l-0.06922,-5.9383l2.95811,0.10289c4.02924,0.14014 4.54424,0.44183 4.95137,2.90047c0.12601,0.76098 0.19983,0.83331 0.85014,0.83306l0.71216,-0.00026l0.02397,-4.88862l0.02398,-4.88863l-0.72245,0c-0.71147,0 -0.72616,0.021 -0.96551,1.3798c-0.13649,0.77488 -0.42447,1.56121 -0.65686,1.79361c-0.74513,0.74513 -3.16295,1.02107 -5.98091,0.68259l-1.16667,-0.14013l0,-5.63571l0,-5.63572l2.72223,0.01708c1.49722,0.00939 3.11997,0.13697 3.6061,0.2835c1.10531,0.33315 1.79847,1.30883 2.00699,2.82502l0.15415,1.12076l0.81082,-0.06761l0.81082,-0.06764l0,-3.22221l0,-3.22222l-9.94399,0l-9.944,0l-0.00045,0.56026c-0.00041,0.5091 0.12239,0.58361 1.34466,0.81589c2.76943,0.52631 2.65489,-0.08061 2.65489,14.06829c0,12.87255 -0.01072,12.98848 -1.26027,13.62305c-0.34574,0.17557 -1.10362,0.38834 -1.68418,0.47282c-0.92677,0.13484 -1.05555,0.21931 -1.05555,0.69236l0,0.53877l6.94445,0.062c3.81944,0.03411 8.19444,0.08443 9.72222,0.11183c1.52778,0.02741 3.13554,-0.00936 3.5728,-0.0817zm65.53491,-0.36358c-0.00583,-0.47542 -0.29828,-0.73344 -1.21882,-1.07531c-1.33813,-0.49694 -1.41734,-0.92469 -1.43191,-7.73225c-0.01393,-6.51109 0.07244,-7.08137 1.28743,-8.50081c0.92883,-1.08514 1.86892,-1.52496 3.25948,-1.52496c3.10481,0 3.80545,2.21519 3.60812,11.40773c-0.12278,5.71943 -0.21869,6.06392 -1.79997,6.46479c-0.64253,0.16289 -0.81204,0.31365 -0.81204,0.72223l0,0.51636l5.57101,0l5.57101,0l-0.07102,-0.49466c-0.05651,-0.39368 -0.26975,-0.52844 -1.04428,-0.66001c-1.34832,-0.22904 -1.97933,-0.70003 -2.1489,-1.60396c-0.07862,-0.41909 -0.16282,-3.69485 -0.18711,-7.27945c-0.03668,-5.41463 -0.10701,-6.70579 -0.41561,-7.63035c-0.53118,-1.59127 -1.5183,-2.81633 -2.87496,-3.5679c-1.07136,-0.59352 -1.36891,-0.65254 -3.28903,-0.65239c-2.60583,0.0002 -3.64882,0.42142 -5.5619,2.24619l-1.32699,1.26574l-0.00245,-1.08938c-0.00135,-0.59917 -0.06208,-1.44992 -0.13497,-1.89058l-0.13252,-0.8012l-1.41116,0.29581c-1.10737,0.23212 -5.50293,0.74987 -6.37445,0.75084c-0.09167,0.0001 -0.16667,0.25018 -0.16667,0.55574c0,0.47045 0.10323,0.55556 0.6738,0.55556c1.26808,0 2.16094,0.54671 2.42072,1.48225c0.34074,1.2271 0.29642,15.05486 -0.05151,16.06752c-0.30725,0.89427 -1.03,1.3312 -2.20969,1.33584c-0.73985,0.0029 -0.83332,0.06559 -0.83332,0.55884l0,0.55555l5.55555,0c4.29811,0 5.55479,-0.06286 5.55216,-0.27778zm54.85219,-0.20482c-0.05076,-0.3449 -0.34121,-0.57234 -1.01801,-0.79714c-0.52084,-0.173 -1.07084,-0.53084 -1.22223,-0.79519c-0.19586,-0.34204 -0.29566,-2.28473 -0.34608,-6.7372c-0.06824,-6.02613 -0.05294,-6.2982 0.41546,-7.38703c0.90622,-2.10656 2.59012,-3.12825 4.69132,-2.84643c1.1879,0.15933 1.89532,0.86937 2.35992,2.36863c0.32399,1.04552 0.38193,2.2103 0.38193,7.67696c0,4.7169 -0.07378,6.57328 -0.27523,6.92507c-0.15137,0.26435 -0.70137,0.62219 -1.22221,0.79519c-0.67681,0.2248 -0.96725,0.45224 -1.018,0.79714l-0.07102,0.4826l5.12657,0l5.12656,0l0,-0.54549c0,-0.4455 -0.13991,-0.57174 -0.76325,-0.68867c-1.56679,-0.29393 -1.56254,-0.27414 -1.63526,-7.60021l-0.06519,-6.56619l0.58707,-1.19994c0.74703,-1.52688 1.89134,-2.3273 3.52033,-2.46238c1.60438,-0.13305 2.47507,0.34186 3.09801,1.68977c0.46051,0.99649 0.48052,1.3325 0.48052,8.07173c0,6.58004 -0.02695,7.06177 -0.4194,7.49566c-0.23067,0.25503 -0.75567,0.52678 -1.16667,0.60388c-0.60053,0.11265 -0.74727,0.24442 -0.74727,0.67102l0,0.53082l5.52475,0l5.52474,0l-0.10115,-0.52909c-0.08099,-0.4237 -0.27576,-0.55251 -0.97765,-0.64666c-1.22853,-0.16478 -1.91043,-0.68246 -2.18064,-1.65548c-0.13615,-0.49021 -0.23253,-3.45884 -0.23325,-7.18399c-0.00135,-6.93132 -0.1014,-7.67276 -1.28738,-9.54033c-0.42509,-0.66941 -1.03376,-1.22041 -1.84112,-1.66668c-1.08912,-0.60201 -1.40002,-0.66665 -3.20607,-0.66665c-1.74572,0 -2.16285,0.07996 -3.28081,0.62893c-0.70446,0.34591 -1.86527,1.19591 -2.5796,1.88889l-1.29876,1.25994l-0.78838,-1.25613c-0.53742,-0.85629 -1.13103,-1.45756 -1.86485,-1.88889c-0.97921,-0.57557 -1.26726,-0.63274 -3.18761,-0.63274c-2.54929,0 -3.56413,0.41418 -5.57388,2.27485l-1.315,1.21746l-0.00305,-1.41283c-0.00166,-0.77705 -0.05969,-1.62393 -0.12895,-1.88195c-0.12232,-0.45575 -0.16631,-0.46065 -1.54309,-0.17206c-1.11192,0.23308 -5.50683,0.75113 -6.38047,0.75211c-0.09167,0.0001 -0.16667,0.25018 -0.16667,0.55574c0,0.46267 0.10591,0.55556 0.63351,0.55556c1.18216,0 2.06154,0.45807 2.39039,1.24516c0.46112,1.10359 0.44974,15.32223 -0.01315,16.43006c-0.35324,0.84543 -1.03514,1.21367 -2.24744,1.21367c-0.66604,0 -0.76331,0.07078 -0.76331,0.55556l0,0.55555l5.57102,0l5.57101,0l-0.07101,-0.4826zm42.61942,0.1311c-0.07418,-0.19334 -0.13489,-0.43035 -0.13489,-0.52667c0,-0.09632 -0.46119,-0.22713 -1.02488,-0.29067c-1.56695,-0.17661 -1.90114,-0.65016 -2.10539,-2.9834c-0.0943,-1.07738 -0.17857,-5.56945 -0.18726,-9.98238l-0.01579,-8.0235l-1.61112,0.27996c-0.8861,0.15399 -2.75772,0.3945 -4.15913,0.53449c-1.40142,0.14 -2.58555,0.29206 -2.6314,0.33791c-0.26093,0.26093 0.2699,1.00576 0.71679,1.00576c0.92814,0 1.91679,0.4853 2.23254,1.09589c0.41454,0.80163 0.66241,9.20784 0.39871,13.52172c-0.22276,3.64396 -0.39368,3.98988 -2.08045,4.21025c-0.96637,0.12625 -1.30038,0.3548 -1.30699,0.89436c-0.00264,0.21547 1.34769,0.27778 6.02038,0.27778c5.40159,0 6.00984,-0.03631 5.88888,-0.3515zm-4.78068,-26.21485c2.22426,-1.1502 1.95926,-4.599 -0.417,-5.4268c-3.26236,-1.13648 -5.38518,3.53141 -2.42641,5.33549c0.85744,0.5228 1.94166,0.55763 2.84341,0.09131zm-39.24309,-11.47432c1.16784,-0.28624 2.62911,-1.14648 3.83378,-2.2569c1.27118,-1.17173 1.45491,-1.53564 1.13251,-2.24321l-0.25796,-0.56618l-1.07918,1.00945c-2.63212,2.46203 -5.94403,2.79491 -8.03875,0.80794c-1.27174,-1.20629 -2.35451,-4.25399 -2.36432,-6.65488l-0.00385,-0.94444l6.13367,0l6.13366,0l-0.16128,-1.60585c-0.20249,-2.01634 -0.57295,-3.08452 -1.57984,-4.55527c-1.50844,-2.20334 -3.63991,-3.09699 -6.93211,-2.90641c-4.13409,0.23932 -7.18719,3.09767 -8.14659,7.62697c-0.41811,1.97385 -0.41835,3.84288 -0.00073,5.61422c0.44321,1.87989 1.05369,3.01057 2.38625,4.41954c2.20272,2.32905 5.37738,3.1294 8.94474,2.25502zm-6.88741,-13.42402c0.36036,-2.14432 0.82486,-3.30281 1.65851,-4.13648c0.77067,-0.77065 0.94795,-0.84327 2.05878,-0.84327c0.88864,0 1.41855,0.13445 1.97059,0.5c0.85479,0.56601 1.86857,2.43967 2.08721,3.8575l0.14078,0.91305l-0.84756,0.14457c-0.46616,0.07953 -2.28008,0.20954 -4.03092,0.28893l-3.18336,0.14435l0.14597,-0.86865zm-35.89036,12.74247c0,-0.55743 -0.07318,-0.6114 -0.83334,-0.61438c-1.14854,-0.00452 -1.87475,-0.41951 -2.33299,-1.33316c-0.35464,-0.70708 -0.38857,-1.76039 -0.38889,-12.07119l-0.00034,-11.29651l2.49999,0.15825c1.37501,0.08703 2.86731,0.30323 3.31622,0.48044c0.96621,0.38143 1.51712,1.36557 1.51712,2.71013c0,0.89284 0.0154,0.91086 0.77779,0.91086l0.77777,0l0,-3.0959l0,-3.09589l-11.66667,-0.00162l-11.66667,-0.00161l-0.00158,1.59751c-0.00086,0.87863 -0.06597,2.27945 -0.14468,3.11293l-0.14311,1.51541l0.86691,-0.07097c0.86417,-0.07074 0.86729,-0.07448 0.98645,-1.18208c0.06575,-0.61111 0.23784,-1.32408 0.3824,-1.58439c0.41584,-0.74868 1.73959,-1.12634 4.55362,-1.29913l2.6111,-0.16032l0,11.4774c0,12.86716 0.03326,12.57914 -1.50129,12.99954c-0.45762,0.12536 -1.08204,0.25421 -1.38759,0.28631c-0.40747,0.04281 -0.57288,0.20646 -0.62052,0.61393l-0.06495,0.55555l6.23162,0l6.23163,0l0,-0.61111zm16.00006,0.10556c-0.00005,-0.38506 -0.16058,-0.53766 -0.67352,-0.64025c-0.37041,-0.07408 -0.87041,-0.38507 -1.11111,-0.69108c-0.4098,-0.52099 -0.43766,-0.92264 -0.43766,-6.31133c0,-4.69167 0.06355,-5.90704 0.34394,-6.57811c0.69389,-1.66072 1.97964,-2.54719 3.69447,-2.54719c2.07232,0 2.72821,0.91356 3.09972,4.31741c0.28975,2.6548 0.14728,9.99499 -0.21137,10.88935c-0.17394,0.43376 -0.48949,0.66694 -1.13922,0.84191c-0.70619,0.19015 -0.89865,0.34722 -0.89865,0.7334l0,0.49144l5,0l5,0l0,-0.5c0,-0.32757 -0.13411,-0.50042 -0.38889,-0.50124c-0.21388,-0.00068 -0.74797,-0.10098 -1.18686,-0.2229c-1.32176,-0.36717 -1.37868,-0.66668 -1.52006,-7.99809c-0.1213,-6.29041 -0.14743,-6.59822 -0.64595,-7.61051c-0.62322,-1.2655 -1.93645,-2.44495 -3.11567,-2.79824c-0.47344,-0.14185 -1.4992,-0.25782 -2.27947,-0.25773c-1.67067,0.00021 -3.56415,0.80067 -4.91866,2.07936l-0.83333,0.78669l0,-5.88179l0,-5.8818l-0.5,0.10944c-1.42419,0.31171 -3.17048,0.54732 -5.11406,0.68999c-1.34923,0.09904 -2.16244,0.25193 -2.16032,0.40616c0.00679,0.49312 0.34709,0.73684 1.21882,0.87287c1.0793,0.16843 1.59715,0.74949 1.77816,1.99514c0.07471,0.51419 0.10519,5.73941 0.06773,11.61162c-0.0776,12.16539 -0.00751,11.70261 -1.81354,11.97346c-0.90241,0.13533 -1.41932,0.57047 -1.16527,0.98096c0.0499,0.08064 2.30025,0.14661 5.00078,0.14661l4.91005,0l-0.00006,-0.50555z"/>
   </g>
  </g>
 </g>
</svg>