<svg width="256" height="256" xmlns="http://www.w3.org/2000/svg">
 <!-- Created with Method Draw - http://github.com/duopixel/Method-Draw/ -->
 <g>
  <title>background</title>
  <rect fill="#612688" id="canvas_background" height="258" width="258" y="-1" x="-1"/>
  <g display="none" id="canvasGrid">
   <rect fill="url(#gridpattern)" stroke-width="0" y="0" x="0" height="100%" width="100%" id="svg_1"/>
  </g>
 </g>
 <g>
  <title>Layer 1</title>
  <metadata id="svg_44">image/svg+xml</metadata>
  <defs>
   <clipPath id="svg_37" clipPathUnits="userSpaceOnUse">
    <path id="svg_43" d="m3175658.53774,-1149223.67169l7824.543,0l0,-3259.811l-7824.543,0l0,3259.811z"/>
   </clipPath>
   <clipPath id="svg_30" clipPathUnits="userSpaceOnUse">
    <path id="svg_42" d="m3175658.53774,-1149223.67169l7824.543,0l0,-3259.811l-7824.543,0l0,3259.811z"/>
   </clipPath>
  </defs>
  <defs>
   <rect fill="#60278e" id="svg_80" width="8" height="8"/>
   <style type="text/css">@import url('https://fonts.googleapis.com/css?family=Ubuntu');</style>
  </defs>
  <!-- Created with Method Draw - http://github.com/duopixel/Method-Draw/ -->
  <!-- Created with Method Draw - http://github.com/duopixel/Method-Draw/ -->
  <!-- Created with Method Draw - http://github.com/duopixel/Method-Draw/ -->
  <!-- Created with Method Draw - http://github.com/duopixel/Method-Draw/ -->
  <metadata id="svg_13">image/svg+xmlFemale silhouettefemale silhouette head face shoulders</metadata>
  <metadata id="svg_53">image/svg+xml</metadata>
  <defs>
   <clipPath clipPathUnits="userSpaceOnUse" id="svg_46">
    <path d="m1375252.264357,-918194.709351l7824.543,0l0,-3259.811l-7824.543,0l0,3259.811z" id="svg_52"/>
   </clipPath>
   <clipPath clipPathUnits="userSpaceOnUse" id="svg_35">
    <path d="m1375252.264357,-918194.709351l7824.543,0l0,-3259.811l-7824.543,0l0,3259.811z" id="svg_51"/>
   </clipPath>
  </defs>
  <g stroke="null" id="svg_41">
   <g stroke="null" id="svg_2">
    <g stroke="null" id="svg_20">
     <g stroke="null" id="svg_14">
      <g stroke="null" id="svg_9" transform="matrix(1.0953817283036307,0,0,1.0953817283036307,98.11227023424064,111.5179682737313) ">
       <title transform="translate(0.9129237532615662,0) translate(-0.9129237532615662,0) translate(-0.9129237532615662,0) translate(-0.9129237532615662,0) translate(9.129237174987793,0) translate(9.129237174987793,0) translate(-20.612873077392578,0) translate(0,-20.804670333862305) " stroke="null">background</title>
       <rect stroke="null" x="10.491001" y="-66.979883" width="152" height="152" id="svg_6" fill="none"/>
       <g stroke="null" id="svg_8" display="none">
        <rect stroke="null" id="svg_7" width="909" height="1310" x="11.491001" y="-65.979883" stroke-width="0" fill="url(#gridpattern)"/>
       </g>
      </g>
      <g stroke="null" id="svg_12" transform="matrix(1.0953817283036307,0,0,1.0953817283036307,98.11227023424064,111.5179682737313) ">
       <title transform="translate(0.9129237532615662,0) translate(-0.9129237532615662,0) translate(-0.9129237532615662,0) translate(-0.9129237532615662,0) translate(9.129237174987793,0) translate(9.129237174987793,0) translate(-20.612873077392578,0) translate(0,-20.804670333862305) " stroke="null">Layer 1</title>
       <path stroke="#ffffff" fill="none" stroke-width="1.5" id="svg_11" d="m39.606694,54.32355c0.50958,0 1.04648,0.23419 2.03843,0c1.10906,-0.26181 2.55467,-0.93761 3.05766,-1.01923c1.59075,-0.25814 2.54808,-1.0192 3.56731,-1.52882c1.0192,-0.50958 1.52882,-0.50961 1.52882,-1.01923c0,0 0.50961,0 0.50961,-0.50961c0,0 0,-0.50962 0,-0.50962c0.50962,0 0.50962,-0.50962 0.50962,-0.50962c0.50962,0 0.65889,-0.14927 1.01923,-0.50961c0.36035,-0.36035 0.50962,-0.50962 0.50962,-1.01923c0,0 0.50961,0 1.0192,0c0.50961,0 1.52884,-0.50959 2.03846,-0.50959c1.52885,0 2.03846,0 3.56728,0c0.50961,0 1.52885,0 2.03846,0c0.50962,0 1.01923,0 1.52882,0c0.50961,0 1.52884,0 1.52884,0c1.01924,0 1.03286,0.11708 1.52885,0c1.10906,-0.2618 0.98256,-0.821 2.03843,-2.03846c0.74664,-0.86088 1.61706,-1.45379 2.03847,-2.03846c1.33257,-1.84885 1.41177,-2.56167 1.52884,-3.05767c0.26181,-1.10903 0.50959,-1.01921 1.0192,-2.03844c0,0 0.14927,-0.14927 0.50962,-0.50962c0.36034,-0.36034 0.14927,-0.65887 0.50962,-1.01922c0.36034,-0.36034 0,-1.01923 0,-1.52883c0,-1.52884 0.23381,-1.37262 0.50961,-2.03846c0.39005,-0.94163 0,-2.03845 0,-2.54805c0,0 0,-2.03846 0,-2.54806c0,0 0,-0.50961 0,-0.50961c0,-0.50962 0,-0.50962 0,-1.52884c0,-0.50961 0,-1.01923 0,-1.52884c0,-0.50962 -0.23381,-0.863 -0.50961,-1.52883c-0.58505,-1.41246 0,-2.54807 0,-3.56728c0,-1.01923 -0.35341,-2.27228 -1.01924,-2.54807c-0.47082,-0.19502 -1.0192,-0.50961 -2.03843,-1.01923c0,0 -0.65888,-0.65887 -1.01923,-1.01921c-0.36034,-0.36035 -0.14927,-0.14927 -0.50961,-0.50962c-0.36035,-0.36034 -0.50962,-0.50961 -0.50962,-1.52885c0,-0.5096 0,-2.03844 0,-3.05766c0,-1.01923 0,-1.01923 0,-1.52885c0,-1.52883 0,-4.07689 0,-5.60572c0,-1.52883 0,-1.52883 0,-3.05768c0,-1.01922 0,-2.03845 0,-3.05766c0,-2.03845 -0.50962,-3.5673 -0.50962,-4.07691c0,-1.01922 0,-1.01922 0,-1.52883c0,-0.50962 -0.50961,-0.50962 -0.50961,-0.50962c-0.50959,-0.5096 0.2111,-1.31774 -0.50959,-2.03845c-0.36034,-0.36034 -0.50961,-1.01921 -0.50961,-1.52883c0,-0.50961 0.39005,-1.09682 0,-2.03844c-0.27581,-0.66584 -0.50962,-1.52885 -0.50962,-1.52885c0,-1.52883 0,-1.52883 0,-2.03845c0,-1.01921 0,-1.52883 0,-2.54805c0,0 0,-0.50961 0,-1.52884c0,-1.52883 0,-3.05767 0,-6.11534c0,-1.01923 0.50962,-1.52883 1.01923,-2.03845c0,0 0,-0.50962 0.50959,-0.50962c0.50961,0 0.50961,0 1.01923,0c0,0 2.03846,0 3.56728,0c1.52884,0 2.03846,0 3.56731,0c0.50961,0 1.03282,0.1171 1.52881,0c1.10906,-0.2618 1.37261,-0.74342 2.03847,-1.01923c0.47082,-0.19502 1.52884,-0.5096 1.52884,-0.5096c1.52882,-0.50961 1.74229,-0.72307 2.54805,-1.52884c0.80576,-0.80577 1.31777,-0.29851 2.03846,-1.01922c0.36035,-0.36035 1.52882,-0.50962 1.52882,-0.50962c1.01923,0 2.03846,0 2.54808,0c1.0192,0 1.0192,0 1.52881,0c0.50962,0 1.55613,0.27545 2.54808,0.50962c1.10903,0.26181 1.0192,0.50962 2.03843,0.50962c0.50962,0 1.52885,0.5096 2.54808,1.01921c0,0 0.50962,0 1.0192,0c0.50962,0 0.50962,0 0.50962,0c0.50961,0 0.9294,0.75743 2.03846,1.01923c0.49599,0.1171 1.05802,0.31458 1.52885,0.5096c0.66582,0.27581 1.0192,1.01923 1.52881,1.52885c1.01923,1.01922 1.60496,1.26091 2.03847,1.52883c0.96934,0.59909 0.5484,1.33381 1.01923,1.52883c0.66582,0.2758 1.0192,1.01923 1.52881,2.03846c0,0 0.74343,0.35338 1.01923,1.01922c0.19503,0.47083 0.50962,1.01923 0.50962,1.52883c0,0 0.50962,0 0.50962,1.01923c0,0 0.50961,0.50962 0.50961,1.01923c0,0.5096 0.50962,0.5096 0.50962,1.52883c0,0.50962 0,1.01922 0,1.52884c0,1.52883 0,2.54806 0,3.56729c0,0.5096 0.23381,0.86301 0.50958,1.52883c0.39002,0.94164 0,1.52883 0,2.03845c0,0.50961 0,1.52883 0,2.54806c0,1.52883 0,2.03845 0,3.56728c0,0.50962 0,1.52885 0,2.03845c0,1.01923 0,1.52884 0,2.54806c0,0 -0.36034,1.1685 0,1.52885c0.36035,0.36034 0.50962,1.01921 0.50962,2.03844c0,1.01922 0,1.52883 0,2.54807c0,1.01921 0,2.03844 0,2.54804c0,0.50962 0,1.01923 0,1.52885c0,0.50962 0,1.01922 0,1.52883c0,0.50962 0.19502,1.05802 0,1.52883c-0.2758,0.66584 -0.50962,1.01923 -1.0192,2.03846c0,0 -0.59783,0.43455 -1.01923,1.01922c-0.66629,0.92444 -1.01923,1.52883 -1.01923,1.52883c0,0.50962 -0.50962,2.03847 -1.01923,2.54806c-0.50962,0.50962 -0.3146,0.54841 -0.50962,1.01924c-0.2758,0.66583 -0.50962,1.01921 -0.50962,1.52883c0,0.50961 0.36035,1.16848 0,1.52883c-0.36034,0.36033 -0.76106,0.95733 -1.0192,2.54806c-0.08161,0.50304 0,0.50962 0,2.03845c0,0.50961 0,0.50961 0,1.52884c0,0.50962 0,1.01922 0,1.01922c0,0.50962 0.41979,0.75743 1.52882,1.01923c0.49599,0.11709 0.65889,0.14927 1.01923,0.50962c0.36035,0.36034 0.50962,0.5096 1.01923,1.01921c0,0 0.65889,0.14927 1.01923,0.50962c0.36035,0.36034 0.03879,0.31459 0.50962,0.50962c0.66582,0.2758 0.43453,0.59782 1.0192,1.01921c0.92445,0.66629 1.43936,0.55951 2.03846,1.52885c0.2679,0.43349 0,0.5096 0,0.5096c0.50962,1.52885 1.25305,1.88222 1.52885,2.54806c0.19502,0.47083 0.50958,1.01923 0.50958,1.52885c0,0 0.50962,0.50961 0.50962,0.50961c0,0.50962 0,0.50962 0,0.50962c0,0 1.03239,-0.16327 2.03846,0c1.59075,0.25814 1.56764,0.31456 2.03843,0.50959c0.66586,0.2758 1.01924,0.50961 2.03847,0.50961c0.50961,0 0.5484,-0.19502 1.01923,0c0.66585,0.2758 -0.18243,3.46924 3.05766,5.60574c0.42545,0.28053 0.863,0.23381 1.52885,0.50962c0.47083,0.19502 1.52881,1.52885 1.52881,1.52885c1.01924,0.50961 1.52885,0.50961 2.54808,1.52881l0,0"/>
      </g>
     </g>
     <text stroke="null" fill-opacity="0.5" transform="matrix(0.7200764805975985,0,0,0.7200764805975985,2.5287155898635945,-11.794248348549331) " font-weight="bold" xml:space="preserve" text-anchor="start" font-family="Ubuntu" font-size="20" id="svg_15" y="585.596303" x="303.66107" stroke-width="0" fill="#cccccc"/>
     <g stroke="null" id="svg_17" display="none" transform="matrix(2.9851995050744176,0,0,2.9851995050744176,2.059980246079185,6.2742386337595875) ">
      <rect stroke="null" id="svg_16" width="909" height="1310" x="35.307576" y="-18.219206" stroke-width="0" fill="url(#gridpattern)"/>
     </g>
     <g stroke="null" id="svg_19" transform="matrix(2.9851995050744176,0,0,2.9851995050744176,2.059980246079185,6.2742386337595875) ">
      <title transform="translate(0.33498597145080566,0) translate(-0.33498597145080566,0) translate(-0.33498597145080566,0) translate(-0.33498597145080566,0) translate(3.3498599529266357,0) translate(3.3498599529266357,0) translate(-7.563636779785156,0) translate(0,-7.634014129638672) " stroke="null">Layer 1</title>
     </g>
    </g>
    <path stroke="#ffffff" fill="none" stroke-width="1.5" id="svg_21" d="m15.921299,189.413042c0,0 0,-0.227468 0,-0.682419c0,-0.454946 0,-0.909897 0,-1.137365c0,-0.454951 0,-0.909902 0,-1.13737c0,-0.227478 0,-0.454946 0,-0.454946c0,-0.227468 0,-0.454951 0,-0.454951c0,-0.227468 0,-0.682419 0,-0.682419c0,-0.227468 0,-0.454946 0,-0.454946c0,-0.227468 0,-0.454951 0,-0.454951c0,-0.454936 0,-0.682419 0,-0.682419c0,-0.227468 -0.052264,-0.461029 0,-0.682414c0.116862,-0.49504 0.339723,-0.654791 0.454946,-1.364838c0.036439,-0.224536 0.110611,-0.642345 0.227473,-1.137365c0.052264,-0.221401 0.227473,-0.682434 0.227473,-0.909902c0,0 0.140418,-0.244784 0.227473,-0.454951c0.123107,-0.297196 0.331839,-0.385218 0.454946,-0.682414c0.087055,-0.210167 0.066628,-0.294107 0.227473,-0.454951c0.160845,-0.160845 0,-0.227468 0,-0.454951c0,0 0.227478,-0.454946 0.454951,-0.682414c0,0 0,-0.227468 0.227473,-0.454951c0,0 -0.160855,-0.294091 0,-0.454951c0.160845,-0.160845 0.227473,-0.227468 0.227473,-0.227468c0,0 0,-0.227468 0,-0.454951c0,-0.227468 0.227473,-0.227468 0.227473,-0.454946c0,-0.227468 0.227473,-0.454936 0.227473,-0.454936c0,-0.227483 0.066623,-0.294107 0.227473,-0.454951c0.160855,-0.16086 0,-0.454951 0,-0.682419c0,0 0.227473,-0.227478 0.227473,-0.227478c0,0 0,-0.227468 0.227473,-0.454951c0,0 0.066623,-0.521559 0.227473,-0.682419c0.16085,-0.160845 0.249742,-0.415 0.682424,-0.682414c0.193497,-0.119595 0.539563,-0.315088 1.364838,-0.909902c0.26097,-0.188092 0.682424,-0.227468 0.909897,-0.454936c0.227478,-0.227483 0.385213,-0.331844 0.682419,-0.454951c0.210157,-0.087044 0.244789,-0.140434 0.454946,-0.227478c0.297206,-0.123107 0.157745,-0.331834 0.454946,-0.454936c0.210162,-0.08705 0.227473,0 0.454951,-0.227483c0.227468,-0.227468 0.244789,-0.140424 0.454946,-0.227468c0.297211,-0.123107 0.421449,-0.26686 0.682419,-0.454951c0.412638,-0.297405 0.749048,-0.294101 0.909892,-0.454946c0.160845,-0.16085 0.15774,-0.331844 0.454951,-0.454951c0.210157,-0.08705 0.227473,-0.227468 0.682419,-0.454936c0.454951,-0.227483 0.550226,-0.322763 0.909892,-0.682434c0.359661,-0.359656 0.454951,-0.682414 0.682424,-0.909882c0.454951,-0.454951 0.385004,-0.497259 0.682419,-0.909902c0.188102,-0.26097 0.331839,-0.157735 0.454946,-0.454951c0.08705,-0.210152 0.104366,-0.157735 0.227473,-0.454936c0.087055,-0.210167 0.017316,-0.367902 0.227473,-0.454946c0.297217,-0.123107 0.193981,-0.494317 0.454951,-0.682419c0.412638,-0.29741 1.13737,-0.682434 1.592311,-0.909902c0.909897,-0.454946 1.609633,-0.822853 1.81979,-0.909897c0.297206,-0.123107 0.472262,-0.140424 0.682424,-0.227468c0.297201,-0.123107 0.227468,-0.227468 0.454946,-0.454951c0.227468,-0.227468 0.385213,-0.559312 0.682419,-0.682414c0.210157,-0.08705 0.454946,0 0.454946,0c0.227478,0 0.227478,0 0.227478,0c0,0 0.227468,0 0.227468,0c0.227478,0 0.227478,0 0.454951,0c0,0 0,0 0.227473,0c0,0 0.227473,0 0.227473,0c0.227473,0 0.454946,0 0.682424,0c0.227468,0 0.454946,0 0.682414,0c0,0 0.199646,-0.242478 0.454951,-0.682419c0.411661,-0.709371 0.494317,-0.8764 0.682419,-1.137375c0.297405,-0.412633 0.227473,-0.454941 0.454946,-0.682419c0,0 0,0 0,-0.227473c0,0 0,0 0,0c0,-0.227478 0,-0.227478 0,-0.227478c0,0 0,0 0,-0.227468c0,0 0,0 0,0c0,-0.227473 0,-0.227473 0,-0.227473c0,0 0,-0.227473 0,-0.227473c0,0 0,0 0,-0.227478c0,0 0,0 0,-0.227473c0,0 -0.227473,-0.227468 -0.227473,-0.227468c0,-0.227478 0,-0.454951 0,-0.454951c0,0 -0.066623,0.16085 -0.227473,0c-0.160855,-0.160845 0,-0.227473 0,-0.227473c0,-0.227478 -0.066628,-0.066628 -0.227473,-0.227478c-0.160845,-0.160845 0,-0.454941 0,-0.454941c-0.227478,-0.227473 -0.227478,-0.454951 -0.227478,-0.454951c0,-0.227473 -0.140418,-0.472257 -0.227468,-0.682414c-0.123112,-0.297217 -0.294101,-0.52158 -0.454951,-0.682429c-0.321694,-0.321689 -0.227473,-0.682414 -0.227473,-0.682414c-0.227473,-0.227478 -0.227473,-0.454951 -0.227473,-0.454951c-0.227473,-0.227468 -0.454946,-0.454941 -0.454946,-0.454941c0,-0.227478 -0.227478,-0.227478 -0.227478,-0.227478c0,0 0,-0.227473 -0.227468,-0.227473c0,0 -0.066628,-0.066628 -0.227478,-0.227478c-0.16084,-0.160845 -0.227468,-0.227468 -0.227468,-0.227468c0,-0.227473 0,-0.227473 -0.227478,-0.227473c0,0 0,-0.227473 0,-0.227473c0,-0.227478 -0.227473,-0.227478 -0.227473,-0.227478c0,-0.227473 -0.066628,-0.066628 -0.227473,-0.227473c-0.160845,-0.16085 0,-0.227468 0,-0.454946c0,-0.227473 0,-0.682424 0,-1.137365c0,0 0,-0.454951 0,-0.682424c0,-0.227478 0,-0.682419 0,-1.13737c0,-0.227473 0.227473,-0.682414 0.227473,-1.137365c0,-0.227478 0.227473,-0.682419 0.227473,-1.13737c0,-0.227473 0.104366,-0.612676 0.227478,-0.909892c0.174099,-0.420319 -0.160855,-0.749042 0,-0.909892c0.160845,-0.160845 0.227468,-0.454951 0.227468,-0.682424c0,-0.227468 0.227478,-0.454941 0.227478,-0.909892c0,0 0,-0.227473 0,-0.454941c0,-0.227478 0,-0.454951 0,-0.682429c0,-0.227473 0,-0.454941 0,-0.682414c0,0 0,-0.454951 0,-0.682424c0,0 0,0 0,-0.227468c0,-0.227478 0.104361,-0.385218 0.227468,-0.682424c0.08705,-0.210162 0,-0.227478 0,-0.227478c0,-0.227473 0,-0.227473 0,-0.454941c0,-0.227478 0,-0.227478 0.227478,-0.454951c0,0 0,0 0,-0.227473c0,0 0,0 0,0c0,-0.227478 0,-0.227478 0,-0.227478c0,0 0,-0.227468 0,-0.227468c0,0 0,0 0,-0.227473c0,0 0,0 0,-0.227478c0,0 0,0 0,-0.227473c0,0 0,0 0,0c0,-0.227473 0,-0.227473 0,-0.227473c0,0 0,-0.227468 0,-0.227468c0,-0.227478 0,-0.454951 0,-0.682424c0,-0.454946 0,-0.454946 0,-0.682419c0,-0.227478 0,-0.227478 0,-0.454951c0,0 -0.227478,0 -0.227478,0c0,0 0,0 -0.227468,0c0,0 0,0 0,0c0,0 -0.227478,0 -0.227478,0c0,0 0,-0.227473 0,-0.682419c0,-0.454946 -0.112245,-0.654796 -0.227468,-1.364838c-0.145748,-0.89815 0,-1.364843 0,-2.047263c0,-0.682424 -0.104366,-0.840154 -0.227478,-1.13737c-0.08705,-0.210157 0,-0.227473 0,-0.227473c0,0 0,-0.227473 0,-0.227473c0,-0.227478 0,-0.227478 0,-0.227478c0,-0.227468 0,-0.227468 0,-0.227468c0,0 0,-0.227473 0,-0.454946c0,0 0,0 0,-0.227478c0,0 0,0 0,-0.227473c0,0 0.227478,-0.454946 0.227478,-0.454946c0,-0.454946 -0.052264,-0.688507 0,-0.909897c0.116862,-0.495035 0.227468,-0.682419 0.227468,-0.909892c0,-0.227478 -0.16085,-0.521575 0,-0.682419c0.16085,-0.160845 0.227478,-0.227473 0.227478,-0.454951c0,0 0,-0.227473 0,-0.227473c0,-0.227468 0,-0.227468 0,-0.227468c0,-0.227473 0,-0.454951 0,-0.454951c0.227468,-0.454946 0.331834,-0.385208 0.454946,-0.682414c0.087055,-0.210162 0.058347,-0.408775 0.227473,-0.682429c0.378178,-0.611897 0.227473,-0.909892 0.454946,-1.364838c0.227473,-0.454946 0.294096,-0.749048 0.454946,-0.909897c0.16085,-0.160845 0.140429,-0.244789 0.227478,-0.454941c0.123107,-0.297206 0.331834,-0.385213 0.454946,-0.682424c0.08705,-0.210162 0.227473,-0.227473 0.227473,-0.454941c0,0 0,0 0.227473,-0.227478c0,0 0.066623,-0.066628 0.227473,-0.227473c0.160855,-0.16085 -0.08705,-0.244789 0,-0.454951c0.123107,-0.297201 0.376473,-0.406148 0.682424,-1.592311c0.458046,-1.775832 0.454946,-3.184633 0.454946,-5.004423c0,-0.682414 0.227473,-1.137365 0.227473,-1.364838c0,-0.227478 0,-0.454946 0,-0.454946c0,-0.227473 0.338084,-0.64233 0.454946,-1.137365c0.104529,-0.442781 0,-0.682424 0,-1.13737c0,-0.454951 0,-0.454951 0,-0.682424c0,0 0,-0.227473 0,-0.227473c0,-0.227468 0,-0.227468 0,-0.454946c0,-0.227473 0.227473,-0.454946 0.227473,-0.682424c0,-0.227468 0,-0.227468 0,-0.227468c0.227473,-0.227473 0.053374,-0.262106 0.227473,-0.682424c0.123107,-0.297206 0.175209,-0.461034 0.227473,-0.682419c0.116867,-0.49504 0.338084,-0.414857 0.454951,-0.909892c0.104524,-0.442776 0.122944,-0.694595 0.227473,-1.13737c0.116862,-0.49504 0.227473,-0.682419 0.227473,-0.682419c0,-0.227473 0.227473,-0.454946 0.227473,-0.682424c0,-0.227468 0.066623,-0.521569 0.227473,-0.682419c0.16085,-0.16085 0.140424,-0.244789 0.227473,-0.454946c0.123107,-0.297206 0.140424,-0.472262 0.227473,-0.682424c0.123112,-0.297206 0.335356,-0.71639 0.454946,-0.909892c0.267414,-0.432682 0.682424,-0.227473 0.682424,-0.227473c0,0 0.227473,0 0.227473,0c0.454946,0 0.454946,0 0.682419,0c0,0 0.161552,-0.237236 0.227473,-0.454946c0.237673,-0.784978 0.50832,-1.171998 0.682424,-1.592317c0.246215,-0.594418 0.79303,-0.869798 0.909892,-1.364843c0.052264,-0.221385 0.227473,-0.682419 0.227473,-1.137365c0,-0.227473 0.157541,-0.497259 0.454946,-0.909892c0.188102,-0.260981 0.367902,-0.699741 0.454951,-0.909897c0.123107,-0.297206 0.454946,-0.227473 0.454946,-0.454946c0,0 0.157531,-0.269786 0.454946,-0.682424c0.188102,-0.26097 0.617389,-0.730566 1.13737,-1.364838c0.203952,-0.24878 0.642483,-0.249737 0.909892,-0.682419c0.11959,-0.193502 0.454946,-0.454946 0.454946,-0.454946c0.227473,-0.227478 0.385213,-0.559317 0.682424,-0.682424c0.210157,-0.08705 0.521569,-0.066628 0.682414,-0.227473c0.16085,-0.16085 0.269791,-0.157536 0.682424,-0.454946c0.260976,-0.188102 0.724733,-0.385009 1.137365,-0.682424c0.260976,-0.188097 0.642488,-0.249737 0.909897,-0.682419c0.11959,-0.193497 0.454946,-0.454946 0.682419,-0.682419c0,0 0.15774,-0.331839 0.454951,-0.454946c0.210157,-0.087055 0.521569,-0.066628 0.682414,-0.227473c0.16085,-0.16085 0.876395,-0.494323 1.13737,-0.682424c0.412638,-0.29741 1.599295,-0.662471 2.274736,-0.909892c1.150243,-0.421337 1.81979,-0.682419 1.81979,-0.682419c0.454946,-0.227473 0.682419,-0.227473 0.682419,-0.227473c0.454946,0 0.909892,-0.227478 1.364843,-0.227478c0.909892,0 1.819784,0 2.274736,0c0.454951,0 0.927208,-0.08705 1.137365,0c0.297217,0.123112 0.612681,0.331839 0.909897,0.454951c0.420319,0.174099 0.909892,0.227473 0.909892,0.227473c0,0 0.227473,0 0.227473,0.227473c0,0 0.066628,-0.16085 0.227473,0c0.16085,0.16085 0,0.227473 0,0.227473c0.227478,0 0.227478,0.227473 0.227478,0.227473c0.227473,0 0.294096,-0.160845 0.454941,0c0.16085,0.16085 0.227478,0.227473 0.227478,0.227473c0.227473,0 0.227473,0.227473 0.227473,0.227473c0,0 0.066628,0.066623 0.227473,0.227478c0.16085,0.16085 0.461029,-0.052264 0.682419,0c0.495045,0.116862 0.909892,0.227473 0.909892,0.227473c0.227478,0 0.454951,0.227473 0.454951,0.227473c0.227473,0 0.454951,0 0.454951,0c0.227473,0 0.454941,0.227473 0.682414,0.227473c0.227478,0 0.461034,-0.052264 0.682424,0c0.49504,0.116862 0.682419,0.227473 0.909897,0.227473c0.454941,0 0.909892,0 1.137365,0c0.454941,0 0.682419,0 0.682419,0c0.227473,0 0.227473,0 0.227473,0c0.227478,0 0.227478,0.227473 0.227478,0.227473c0,0 0.227473,0 0.227473,0c0,0 0.227468,0.227478 0.454941,0.227478c0.227478,0 0.454951,0.454946 0.909892,0.682414c0,0 0.294107,0.066628 0.454951,0.227478c0.16085,0.16085 0.066628,0.066623 0.227478,0.227473c0.160845,0.160845 0,0.227473 0,0.227473c0.227473,0 0.227473,0.227473 0.227473,0.227473c0,0 0.227468,0.227473 0.227468,0.227473c0.227473,0.227473 0.227473,0.227473 0.454951,0.454951c0,0 0.227473,0.227468 0.227473,0.454946c0,0 0.227473,0 0.227473,0.227468c0,0 0.227468,0.227478 0.227468,0.227478c0.227478,0.227473 0.227478,0.227473 0.227478,0.454946c0,0 0.227473,0.227473 0.227473,0.227473c0.227478,0.227478 0.244789,0.140429 0.454951,0.227478c0.297201,0.123107 0.294096,0.294096 0.454941,0.454946c0.16085,0.160845 0.066628,0.294096 0.227478,0.454946c0.160845,0.16085 0.227473,0.227473 0.454946,0.227473c0,0 0.066623,0.294096 0.227468,0.454946c0.16085,0.16085 0.227478,0.227473 0.454951,0.454946c0,0 0.227473,0.227478 0.227473,0.454951c0,0 0.227478,0.227473 0.227478,0.227473c0,0.227473 0,0.227473 0.227468,0.454946c0,0 0.331844,0.385213 0.454951,0.682419c0.087044,0.210157 0.066628,0.521575 0.227473,0.682424c0.160845,0.16085 0.227473,0.227473 0.454951,0.454946c0,0 0.022259,0.41501 0.454941,0.682419c0.193507,0.11959 0.642483,0.022269 0.909892,0.454946c0.119585,0.193502 0.454951,0.454951 0.682424,0.682424c0,0 0.227478,0.227473 0.454946,0.454946c0,0 0.227473,0.227473 0.227473,0.227473c0.227473,0 0.227473,0.227473 0.454951,0.454946c0,0 0,0 0.227473,0.227473c0,0 0.227468,0.454951 0.454946,0.682424c0.227473,0.227473 0.454946,0.227468 0.682424,0.454946c0.227468,0.227468 0.227468,0.227473 0.454941,0.454946c0,0 0.227473,0 0.227473,0.227473c0,0.227473 0.066628,0.294101 0.227478,0.454946c0.160845,0.16085 0.331834,0.157745 0.454941,0.454951c0.08705,0.210157 0.227478,0.227473 0.227478,0.227473c0,0 0.227473,0.227473 0.227473,0.454946c0,0 0.227473,0 0.227473,0.227473c0,0.227473 0.227478,0.227473 0.227478,0.227473c0,0.227473 0,0.227473 0.227468,0.454951c0,0 0.140429,0.244789 0.227473,0.454946c0.123107,0.297206 0.331844,0.15774 0.454951,0.454946c0.087055,0.210157 0.140424,0.244789 0.227473,0.454946c0.123107,0.297206 0.140424,0.472262 0.227468,0.682419c0.123107,0.297211 0.338084,0.414857 0.454951,0.909897c0.104529,0.442776 0.227473,0.682419 0.227473,0.909892c0,0.227473 0.122949,0.239643 0.227478,0.682424c0.116857,0.495035 0.179668,0.70026 0.454941,1.364838c0.194653,0.469931 0.227478,0.682424 0.454951,1.137365c0,0 0,0.227478 0,0.227478c0.227473,0.227473 0.227473,0.227473 0.227473,0.454946c0,0.227478 0.227468,0.454946 0.227468,0.682419c0,0.454951 0.227478,0.909892 0.227478,0.909892c0.227473,0.227473 0.266844,0.648927 0.454946,0.909902c0.29741,0.412633 0.331844,0.612676 0.454951,0.909892c0.087055,0.210157 0.227468,0.454941 0.227468,0.682414c0,0.227478 0.227478,0.454951 0.227478,0.454951c0,0.227473 0.066628,0.294096 0.227473,0.454941c0.3217,0.321705 0.227473,0.682429 0.227473,0.682429c0,0.227473 -0.08705,0.472257 0,0.682414c0.123107,0.297217 0.227478,0.682424 0.227478,0.682424c0,0.227478 0,0.682419 0,0.682419c0,0.227473 0,0.682424 0,0.682424c0,0.454946 0.160845,0.749048 0,0.909892c-0.16085,0.16085 -0.227478,0.227478 -0.227478,0.454946c0,0.227473 -0.227473,0.454946 -0.227473,0.454946c0,0.227478 -0.066628,0.294107 -0.227473,0.454951c-0.16085,0.160845 0.160845,0.521569 0,0.682419c-0.16085,0.160845 -0.227478,0.227473 -0.227478,0.682414c0,0 -0.227468,0.227478 -0.227468,0.454951c0,0.227478 -0.104366,0.157735 -0.227473,0.454951c-0.08705,0.210152 0,0.454941 0,0.454941c-0.227478,0.227478 -0.227478,0.454951 -0.227478,0.454951c0,0.454941 -0.227473,0.454941 -0.227473,0.454941c0,0.227478 0,0.227478 0,0.454951c0,0.227473 0,0.227473 0,0.454951c0,0.227468 0,0.227468 0,0.454941c0,0.227478 0,0.454951 0,0.454951c0,0.227473 0,0.454941 0,0.454941c0,0.227478 0,0.227478 0,0.454951c0,0.227473 0.321694,0.588198 0,0.909892c-0.160845,0.160845 -0.227473,0.227473 -0.227473,0.682424c0,0 -0.227478,0.227468 -0.227478,0.682419c0,0 0,0.454951 0,0.682424c0,0 -0.104361,0.157735 -0.227468,0.454941c-0.087044,0.210162 0,0.682424 0,0.909892c0,0 -0.227473,0.454951 -0.227473,0.682429c0,0 -0.104371,0.157735 -0.227478,0.454941c-0.08705,0.210162 0.052264,0.233556 0,0.454951c-0.116862,0.49504 -0.227473,0.454946 -0.227473,0.909892c0,0.227473 -0.227473,0.454946 -0.227473,0.682424c0,0.454941 -0.104361,0.612686 -0.227468,0.909892c-0.08705,0.210162 0,0.227473 0,0.454941c0,0.227478 -0.104371,0.385213 -0.227478,0.682424c-0.087055,0.210162 0.087055,0.472262 0,0.682419c-0.123107,0.297217 -0.227473,0.227478 -0.227473,0.454951c0,0.227473 -0.066628,0.066628 -0.227478,0.227473c-0.160845,0.16085 0.16085,0.294096 0,0.454946c-0.160845,0.160845 -0.227473,0.227473 -0.227473,0.227473c0,0.227473 -0.227468,0.227473 -0.227468,0.454951c0,0 -0.066628,0.066618 -0.227473,0.227468c-0.16085,0.160845 0,0.454946 0,0.454946c-0.227478,0 -0.227478,0 -0.227478,0.227478c0,0 0,0.227473 -0.227473,0.227473c0,0 0,0.227468 0,0.227468c-0.227478,0.227478 -0.066628,0.294107 -0.227478,0.454951c-0.160845,0.160845 -0.227468,0.227473 -0.227468,0.227473c0,0 -0.227473,0 -0.227473,0.227478c0,0.227468 0.227473,0.454941 0.227473,0.909892c0,0 0,0.454951 0,0.682419c0,0.227473 0.053364,0.489579 0.227468,0.909897c0.123107,0.297206 0.066628,0.749048 0.227478,0.909892c0.160845,0.16085 0.227473,0.227478 0.227473,0.227478c0,0.227468 -0.160845,0.294096 0,0.454941c0.16085,0.160845 0.227478,0.227473 0.227478,0.454951c0,0 0.227473,0.227473 0.227473,0.454941c0,0 0,0 0,0.227473c0,0 0,0.227478 0.227468,0.454951c0,0 0,0.227478 0.227473,0.454946c0,0 -0.08705,0.244789 0,0.454946c0.123107,0.297217 0.227478,0.682419 0.454951,1.13737c0,0 -0.087055,0.244789 0,0.454946c0.123107,0.297211 0.227478,0.227468 0.227478,0.454946c0,0.454951 0.227468,0.454951 0.227468,0.682424c0,0.227468 0,0.454941 0.227473,0.909892c0.227473,0.454941 0.053374,0.717047 0.227473,1.13737c0.123107,0.297211 0.227478,0.454941 0.227478,0.682414c0,0.682424 0,0.909902 0,1.364843c0,0.227478 0,0.454951 0,0.682424c0,0.227468 0,0.454946 0,0.682419c0,0.454951 0.052264,0.688502 0,0.909892c-0.116867,0.495045 -0.227478,0.454951 -0.227478,0.909892c0,0.227478 -0.227473,0.454951 -0.227473,0.909902c0,0 0,0.227468 -0.227473,0.227468c0,0 0,0.227473 0,0.227473c-0.227468,0.227473 -0.066623,0.52158 -0.227468,0.682424c-0.16085,0.16085 -0.227478,0.227468 -0.454951,0.454946c0,0 0,0 0,0c-0.227478,0.227473 -0.227478,0.227473 -0.227478,0.227473c0,0 0,0 -0.227473,0.227473c0,0 0,0 0,0c0,0 0.233556,0.175214 0.454951,0.227478c0.49504,0.116857 1.137365,0.454941 1.592317,0.682414c0,0 0.385203,0.331844 0.682419,0.454951c0.210157,0.087055 0.724733,0.157536 1.137365,0.454946c0.260976,0.188102 0.752941,0.076768 1.364843,0.454946c0.27365,0.169131 0.952211,0.385004 1.364843,0.682419c0.260981,0.188102 0.454941,0.227483 0.682419,0.454951c0,0 0.066628,0.066618 0.227473,0.227468c0.160845,0.160845 0.227473,0 0.227473,0c0,0.227478 0.227478,0.227478 0.227478,0.227478c0,0 0,0.227468 0.227468,0.227468c0,0 0.066618,0.066623 0.227473,0.227483c0.16085,0.160845 0.157745,0.104361 0.454951,0.227468c0.210162,0.087044 0.454941,0.227468 0.909892,0.454951c0.454951,0.227468 0.952201,0.385009 1.364843,0.682414c0.26097,0.188092 0.717047,0.280857 1.137365,0.454951c0.297211,0.123107 0.454946,0.454951 0.909897,0.682419c0,0 0.227473,0.227468 0.454946,0.227468c0.227468,0 0.454946,0.227483 0.682419,0.227483c0.227473,0 0.454951,0 0.682419,0.227468c0,0 0.227473,0 0.227473,0c0.227473,0.227478 0.294101,0.066633 0.454951,0.227478c0.160845,0.16085 0,0.227468 0,0.227468c0.227473,0 0.066628,0.066623 0.227473,0.227468c0.16085,0.16085 0.227478,0 0.227478,0c0.227468,0.227483 0.066618,0.294107 0.227468,0.454951c0.160845,0.160845 0.066618,0.066623 0.227473,0.227483c0.160845,0.160845 0.269791,0.157526 0.682424,0.454936c0.260976,0.188102 0.15773,0.559322 0.454941,0.682429c0.210162,0.08705 0.227478,0.227468 0.227478,0.227468c0.227473,0.227468 0.294101,0.066623 0.454951,0.227468c0.16085,0.16086 0.227468,0.227483 0.227468,0.227483c0,0 0,0.227468 0.227473,0.227468c0,0 -0.069738,0.104376 0.227473,0.227483c0.420324,0.174104 0.682419,0.227468 0.909892,0.227468c0.227478,0 0.457888,0.191029 0.682429,0.227468c0.710043,0.115233 1.103863,0.494328 1.364833,0.682429c0.412633,0.29741 0.52158,0.294091 0.682424,0.454936c0.16085,0.160845 0.227478,0 0.227478,0c0.227468,0.227483 0.682409,0.454951 0.909892,0.682434c0.227473,0.227468 0.227473,0.454936 0.227473,0.454936c0.227468,0 0.227468,0 0.227468,0c0,0.227478 0.140429,0.244794 0.227473,0.454946c0.123107,0.297217 0.559322,0.385218 0.682429,0.682419c0.08705,0.210167 0.227468,0.454951 0.682414,0.909897c0,0 0.066623,0.294091 0.227478,0.454951c0.160845,0.16085 0.227473,0.227468 0.227473,0.227468c0,0.227483 0.140413,0.244799 0.227468,0.454951c0.123112,0.297211 0.338089,0.187379 0.454951,0.682419c0.052264,0.221396 0.175204,0.233561 0.227468,0.454946c0.116872,0.49505 0.227478,0.454951 0.227478,0.682419c0,0.454951 0.104361,0.385218 0.227468,0.682419c0.08706,0.210167 0,0.454946 0,0.909897c0,0.227468 0,0.227468 0,0.454951c0,0 0,0.227468 0,0.227468c0,0.227483 0,0.227483 0,0.227483c0,0.227468 0,0.227468 0,0.454936c0,0 0.104376,0.157735 0.227483,0.454946c0.08706,0.210167 0,0.227483 0,0.454951c0,0.227468 0,0.227468 0,0.454951c0,0.227468 0,0.454946 0,0.682414c0,0.227468 0,0.454951 0,0.682419c0,0.227483 0,0.227483 0,0.454951c0,0.227478 0,0.227478 0,0.454946c0,0.227468 0,0.227468 0,0.454951c0,0 0,0.227468 0,0.454951c0,0 0,0.227468 0,0.227468c0,0.227468 0,0.454951 0,0.454951c0,0.227468 0,0.454946 0,0.454946c0,0 0,0.227468 0,0.227468c0,0 0,0.227468 0,0.227468c0,0 0,0 0,0c0,0.227483 0,0.227483 0,0.454951c0,0 0,0.227483 0,0.227483c0.227468,0 0.227468,0.227468 0.227468,0.227468c0,0 0,0.227468 0,0.227468c0,0 0,0 0,0.227478c0,0 0,0.227468 0,0.227468c0,0.227483 0,0.227483 0,0.454951c0,0 0,0.227468 0,0.227468c0,0.227483 0,0.454951 0,0.454951c0.227468,0.227478 0.227468,0.454946 0.227468,0.454946c0,0.227468 0.227483,0.227468 0.227483,0.454951c0,0 0,0.227468 0.227468,0.454951c0,0 0,0.227468 0,0.227468l0,0l0,0.227468l0,0"/>
   </g>
   <g stroke="null" id="svg_57">
    <g stroke="null" id="svg_38" transform="matrix(0.008892840003660647,0,0,-0.008892840003660647,-12053.015885725014,-7991.728197954888) ">
     <g stroke="null" id="svg_28">
      <g stroke="null" id="svg_27" clip-path="url(#svg_46)">
       <g stroke="null" id="svg_24">
        <path stroke="null" fill="#ffffff" fill-rule="nonzero" d="m1382234.655607,-920389.436371l0,852.991l631.641,0l0,571.734l-631.641,0l0,770.002l-687.003,-108.812l0,-2095.136c0,-156.766 14.554,-299.7 43.804,-428.801c29.176,-129.101 80.686,-239.039 154.459,-329.669c73.772,-90.703 172.11,-161.377 295.09,-212.096c122.904,-50.718 278.158,-76.077 465.684,-76.077c147.545,0 272.035,12.32 373.474,36.885c101.434,24.568 193.651,53.745 276.643,87.605l-96.826,534.849c-64.549,-24.639 -136.016,-43.802 -214.399,-57.635c-78.383,-13.832 -154.459,-20.748 -228.234,-20.748c-153.74,0 -255.895,43.01 -306.615,129.101c-50.717,86.02 -76.077,201.287 -76.077,345.807" id="svg_23"/>
       </g>
       <g stroke="null" id="svg_26">
        <path stroke="null" fill="#ffffff" fill-rule="nonzero" d="m1377296.159517,-921389.971561c126.652,267.208 251.502,545.295 374.408,834.26c122.906,288.965 239.615,574.832 350.274,857.674c110.658,282.768 212.527,553.074 305.679,810.917c93.151,257.769 175.497,488.594 247.108,692.405l-765.747,0c-60.084,-186.016 -126.723,-385.648 -199.92,-598.895c-73.195,-213.319 -147.688,-425.918 -223.621,-637.724c-75.934,-211.879 -149.562,-414.824 -220.74,-608.836c-71.179,-194.084 -136.81,-361.226 -196.822,-501.42c-63.686,141.132 -130.326,308.703 -199.92,502.788c-69.594,194.085 -142.357,397.029 -218.291,608.908c-75.933,211.808 -150.57,424.405 -223.765,637.726c-73.196,213.248 -139.692,412.447 -199.488,597.453l-793.051,0c67.865,-202.801 148.553,-433.339 241.921,-691.686c93.368,-258.345 195.669,-528.797 307.048,-811.277c111.307,-282.553 228.809,-568.132 352.579,-856.736c123.698,-288.677 249.125,-567.197 376.353,-835.557l685.995,0z" id="svg_25"/>
       </g>
      </g>
     </g>
     <g stroke="null" id="svg_31">
      <path stroke="null" fill="#ffffff" fill-rule="nonzero" d="m1381320.791347,-918194.712001l-686.989,-108.809l0,-3086.437l687.001,0l0,3195.246l-0.012,0z" id="svg_29"/>
     </g>
     <g stroke="null" id="svg_36">
      <g stroke="null" id="svg_34" clip-path="url(#svg_35)">
       <g stroke="null" id="svg_33">
        <path stroke="null" fill="#ffffff" fill-rule="nonzero" d="m1379818.469087,-920209.582851c0,-340.375 -275.93,-616.305 -616.305,-616.305c-340.378,0 -616.307,275.93 -616.307,616.305c0,340.375 275.929,616.305 616.307,616.305c340.375,0 616.305,-275.93 616.305,-616.305m623.352,0c0,687.555 -557.375,1244.938 -1244.934,1244.938c-283.448,0 -544.762,-94.743 -754.03,-254.266c-58.25,-155.531 -119.418,-315.219 -183.56,-479.125c-92.588,-236.656 -189.43,-475.438 -290.575,-716.367c97.679,-590.11 610.369,-1040.118 1228.165,-1040.118c687.559,0 1244.934,557.383 1244.934,1244.938" id="svg_32"/>
       </g>
      </g>
     </g>
    </g>
   </g>
   <text transform="matrix(0.509002149105072,0,0,0.509002149105072,10.054180434227419,29.920664775014757) " stroke="#ffffff" xml:space="preserve" text-anchor="start" font-family="Ubuntu, Arial, sans-serif" font-size="24" id="svg_58" y="364.509435" x="229.342834" stroke-opacity="null" stroke-width="0" fill="#ffffff" font-weight="bold">Votez pour vos idées</text>
  </g>
 </g>
</svg>