<svg width="319.62927" height="319.76376" xmlns="http://www.w3.org/2000/svg">
 <metadata id="metadata8">image/svg+xml</metadata>
 <defs>
  <clipPath clipPathUnits="userSpaceOnUse" id="clipPath38">
   <path d="m0,0l841.89,0l0,595.276l-841.89,0l0,-595.276z" id="path40"/>
  </clipPath>
  <clipPath clipPathUnits="userSpaceOnUse" id="clipPath86">
   <path d="m0,0l841.89,0l0,595.276l-841.89,0l0,-595.276z" id="path88"/>
  </clipPath>
  <clipPath clipPathUnits="userSpaceOnUse" id="clipPath112">
   <path d="m0,0l841.89,0l0,595.276l-841.89,0l0,-595.276z" id="path114"/>
  </clipPath>
  <clipPath clipPathUnits="userSpaceOnUse" id="clipPath134">
   <path d="m0,0l841.89,0l0,595.276l-841.89,0l0,-595.276z" id="path136"/>
  </clipPath>
 </defs>
 <g>
  <title>background</title>
  <rect x="-1" y="-1" width="321.62927" height="321.76376" id="canvas_background" fill="none"/>
 </g>
 <g>
  <title>Layer 1</title>
  <g id="g10" transform="matrix(1.25,0,0,-1.25,-177.54187,598.88) ">
   <g id="g34">
    <g id="g36" clip-path="url(#clipPath38)">
     <g id="g42">
      <path d="m301.3909,479.10391c-10.541,0 -20.186,-4.279 -27.12,-11.374c2.612,-2.346 5.602,-4.986 8.309,-7.283c4.887,4.781 11.543,7.653 18.811,7.653c14.859,0 26.949,-12.088 26.949,-26.949c0,-7.3 -2.738,-13.897 -7.913,-19.075l-50.595,-50.68l-41.848,41.917c-3.891,-1.331 -7.891,-2.417 -12.39,-3.16l50.346,-50.428c1.032,-1.034 2.776,-2.305 3.892,-2.305c1.164,0 2.861,1.271 3.892,2.305l54.481,54.574c7.282,7.285 11.132,16.571 11.132,26.852c0,20.926 -17.022,37.953 -37.946,37.953" id="path44" fill-rule="nonzero" fill="#ffffff"/>
     </g>
     <g id="g46">
      <path d="m355.5817,418.19559c-5.128,0.865 -9.987,1.904 -14.674,3.109c-2.76,-4.609 -4.294,-6.61 -6.981,-9.517c3.822,-1.1 7.736,-2.084 11.785,-2.934c-0.552,-0.863 -1.096,-1.719 -1.635,-2.565c-18.243,-28.643 -30.469,-47.848 -12.333,-84.565c-3.728,-4.182 -9.379,-8.245 -16.586,-11.928c-10.352,4.078 -19.687,6.141 -27.777,6.141c-16.011,0 -24.798,-8.033 -28.301,-16.841c-27.159,2.461 -43.97,16.249 -50.093,22.251c12.357,20.093 15.516,38.87 9.388,55.855c-6.573,18.231 -22.828,28.244 -32.523,32.55c-0.155,1.582 -0.375,4.855 -0.636,6.678c5.216,-0.934 10.407,-1.408 15.505,-1.408l0.006,0c23.212,0 45.712,9.949 65.631,28.876c-2.454,1.898 -5.206,4.298 -8.302,7.269c-17.739,-16.683 -36.979,-25.141 -57.329,-25.146l-0.006,0c-6.803,0 -13.82,0.971 -20.854,2.887c-1.839,0.494 -4.883,1.247 -6.306,-0.088c-1.379,-1.29 -0.905,-4.43 -0.53,-6.299c1.094,-5.478 1.974,-14.053 2.057,-16.641c0.118,-3.782 0.43,-4.049 3.918,-5.269c4.099,-1.438 22.398,-8.772 29.024,-27.138c5.251,-14.562 1.679,-31.272 -10.554,-49.708c-2.029,-3.059 -1.938,-3.605 0.269,-6.466c0.88,-1.135 22.362,-27.461 65.113,-29.484c5.091,-0.237 4.818,0.277 5.646,4.474c1.587,8.024 8.405,12.643 18.877,12.643c7.236,0 15.913,-2.169 25.888,-6.238c2.122,-0.867 2.423,-0.867 4.492,0.117c11.623,5.532 20.028,11.994 24.992,19.114c1.789,2.566 1.756,3.079 0.36,5.721c-17.554,33.151 -8.226,47.737 10.245,76.735c1.919,3.016 3.916,6.169 5.991,9.479c2.267,3.62 2.63,7.259 -3.767,8.336" id="path48" fill-rule="nonzero" fill="#ffffff"/>
     </g>
     <g id="g50">
      <path d="m212.5397,433.129c-0.796,2.567 -1.217,5.26 -1.217,8.022c0,14.861 12.088,26.949 26.945,26.949c6.141,0 11.842,-2.03 16.42,-5.568c9.374,-7.594 13.398,-12.193 20.684,-18.386c11.498,-9.778 23.5,-17.698 35.423,-23.509c2.093,2.206 4.888,5.256 7.776,8.494c-12.655,5.766 -26.383,15.08 -37.592,24.691c-6.16,5.288 -13.813,12.298 -16.163,14.464c-0.002,0.003 -0.004,0.003 -0.004,0.005c-6.888,6.754 -16.287,10.813 -26.544,10.813c-20.922,0 -37.943,-17.027 -37.943,-37.953c0,-3.082 0.369,-6.104 1.079,-9.024c3.607,-0.015 7.507,0.337 11.136,1.002" id="path52" fill-rule="nonzero" fill="#ffffff"/>
     </g>
     <g id="g54">
      <path d="m158.0975,258.67319l-5.084,0c-2.732,4.808 -3.998,6.301 -5.085,6.301l-1.822,0l0,-6.301l-4.073,0l0,17.636l9.841,0c3.618,0 4.831,-2.252 4.831,-5.162c0,-2.529 -1.061,-4.73 -4.401,-4.909c1.19,-0.429 2.505,-2.024 5.793,-7.565m-11.991,9.64l4.529,0c0.885,0 1.544,0.633 1.544,2.202c0,1.595 -0.583,2.327 -1.494,2.327l-4.579,0l0,-4.529z" id="path56" fill-rule="nonzero" fill="#ffffff"/>
     </g>
     <g id="g58">
      <path d="m170.414,259.02631c-1.289,-0.429 -3.211,-0.706 -4.679,-0.706c-3.643,0 -6.35,1.593 -6.35,6.906c0,5.213 2.378,6.756 6.096,6.756c4.302,0 6.174,-1.314 5.819,-7.971l-7.918,0c0.051,-2.075 0.986,-2.453 2.857,-2.453c0.938,0 2.634,0.177 3.594,0.43l0.581,-2.962zm-7.234,14.02l3.111,3.263l3.972,0l-3.795,-3.263l-3.288,0zm0.227,-6.176l4.503,0c-0.05,1.798 -0.632,2.179 -2.15,2.179c-1.619,0 -2.125,-0.533 -2.353,-2.179" id="path60" fill-rule="nonzero" fill="#ffffff"/>
     </g>
     <g id="g62">
      <path d="m178.6599,258.39539c-3.339,0 -5.212,1.416 -5.212,6.654c0,5.289 1.973,6.933 6.375,6.933c2.024,0 4.453,-0.379 5.869,-0.91l0,-11.362c0,-5.187 -3.061,-6.199 -7.158,-6.199c-1.671,0 -3.543,0.33 -4.732,0.759l0.683,3.037c1.341,-0.355 2.631,-0.582 3.972,-0.582c2.101,0 3.34,0.531 3.34,2.403c-0.759,-0.379 -1.872,-0.733 -3.137,-0.733m3.137,10.146c-0.608,0.254 -1.392,0.354 -1.974,0.354c-1.847,0 -2.453,-0.456 -2.453,-3.77c0,-2.732 0.531,-3.466 2.352,-3.466c1.139,0 2.075,0.353 2.075,0.911l0,5.971z" id="path64" fill-rule="nonzero" fill="#ffffff"/>
     </g>
     <g id="g66">
      <path d="m193.1774,275.3989c0,-1.747 -0.557,-2.05 -2.2,-2.05c-1.67,0 -2.201,0.303 -2.201,2.05c0,1.592 0.531,1.846 2.201,1.846c1.643,0 2.2,-0.254 2.2,-1.846m-0.253,-16.726l-3.895,0l0,12.955l3.895,0l0,-12.955z" id="path68" fill-rule="nonzero" fill="#ffffff"/>
     </g>
     <g id="g70">
      <path d="m195.7059,265.22659c0,5.288 2.151,6.756 6.273,6.756c4.201,0 6.326,-1.468 6.326,-6.756c0,-5.313 -2.1,-6.906 -6.326,-6.906c-4.173,0 -6.273,1.593 -6.273,6.906m3.922,-0.075c0,-3.265 0.53,-3.796 2.351,-3.796c1.848,0 2.38,0.531 2.38,3.796c0,3.39 -0.532,3.795 -2.38,3.795c-1.821,0 -2.351,-0.405 -2.351,-3.795" id="path72" fill-rule="nonzero" fill="#ffffff"/>
     </g>
     <g id="g74">
      <path d="m215.0305,258.67319l-3.896,0l0,12.145c1.671,0.607 4.251,1.164 6.578,1.164c3.568,0 5.339,-1.492 5.339,-6.149l0,-7.16l-3.897,0l0,6.858c0,2.351 -0.379,2.985 -2.277,2.985c-0.632,0 -1.214,-0.077 -1.847,-0.227l0,-9.616z" id="path76" fill-rule="nonzero" fill="#ffffff"/>
     </g>
    </g>
   </g>
   <g id="g78">
    <path d="m147.4864,223.791l-5.364,0l0,23.193l5.364,0l0,-8.451l8.729,0l0,8.451l5.363,0l0,-23.193l-5.363,0l0,9.784l-8.729,0l0,-9.784z" id="path80" fill-rule="nonzero" fill="#ffffff"/>
   </g>
   <g id="g82">
    <g id="g84" clip-path="url(#clipPath86)">
     <g id="g90">
      <path d="m181.23399,224.6573c-2.298,-0.831 -5.596,-1.332 -8.095,-1.332c-5.629,0 -7.295,1.199 -7.295,5.657c0,4.791 2.598,5.557 6.662,5.557c1.265,0 2.565,-0.165 3.865,-0.433c0,2.364 -0.533,3.028 -3.865,3.028c-1.966,0 -3.863,-0.365 -5.296,-0.798l-0.799,4.062c1.965,0.497 4.796,0.897 7.328,0.897c5.097,0 7.495,-1.563 7.495,-6.622l0,-10.016zm-7.694,2.463c0.965,0 2.032,0.166 2.831,0.464l0,3.228c-0.766,0.201 -1.732,0.234 -2.765,0.234c-1.833,0 -2.5,-0.2 -2.5,-1.897c0,-1.731 0.434,-2.029 2.434,-2.029" id="path92" fill-rule="nonzero" fill="#ffffff"/>
     </g>
     <g id="g94">
      <path d="m195.8925,240.82899l5.064,0l0,-16.006c-2.166,-0.765 -5.596,-1.53 -8.627,-1.53c-4.73,0 -6.997,1.997 -6.997,8.086l0,9.45l5.065,0l0,-9.051c0,-3.06 0.533,-3.926 3.031,-3.926c0.832,0 1.566,0.133 2.464,0.333l0,12.644z" id="path96" fill-rule="nonzero" fill="#ffffff"/>
     </g>
     <g id="g98">
      <path d="m211.31779,236.4366l0,-6.356c0,-1.731 0.5,-2.427 2.299,-2.427c1.065,0 1.933,0.198 2.732,0.464l0.832,-3.927c-1.266,-0.531 -3.298,-0.866 -5.13,-0.866c-3.764,0 -5.862,1.131 -5.862,6.223l0,6.889l-2.765,0l0,4.392l2.765,0l0,2.529l5.129,2.062l0,-4.591l5.33,0l0,-4.392l-5.33,0z" id="path100" fill-rule="nonzero" fill="#ffffff"/>
     </g>
     <g id="g102">
      <path d="m231.00681,236.57111c-1.332,0.363 -3.298,0.731 -5.03,0.731c-1.6,0 -2.398,-0.133 -2.398,-1.464c0,-0.899 0.466,-1.132 3.097,-1.464c3.963,-0.501 5.729,-1.697 5.729,-5.19c0,-4.627 -3.33,-5.859 -7.627,-5.859c-1.833,0 -4.498,0.367 -6.064,0.933l0.999,3.86c1.267,-0.365 3.166,-0.7 4.831,-0.7c1.999,0 2.931,0.166 2.931,1.5c0,0.929 -0.567,1.296 -3.397,1.563c-3.564,0.332 -5.463,1.363 -5.463,4.991c0,4.623 3.297,5.824 7.562,5.824c1.832,0 4.23,-0.367 5.83,-0.935l-1,-3.79z" id="path104" fill-rule="nonzero" fill="#ffffff"/>
     </g>
    </g>
   </g>
   <path d="m234.406,235.703l8.76,0l0,-4.89l-8.76,0l0,4.89z" id="path106" fill-rule="nonzero" fill="#ffffff"/>
   <g id="g108">
    <g id="g110" clip-path="url(#clipPath112)">
     <g id="g116">
      <path d="m261.72241,224.5244c-1.866,-0.698 -5.063,-1.199 -7.73,-1.199c-5.795,0 -8.392,2.064 -8.392,9.053c0,6.852 2.998,8.917 7.227,8.917c1.666,0 2.8,-0.334 3.765,-0.734l0,7.255l5.13,0l0,-23.292zm-5.13,11.313c0,0.734 -1.166,1.297 -2.665,1.297c-2.398,0 -3.164,-1.065 -3.164,-4.69c0,-4.127 0.799,-4.826 3.229,-4.826c0.868,0 1.968,0.134 2.6,0.4l0,7.819z" id="path118" fill-rule="nonzero" fill="#ffffff"/>
     </g>
     <g id="g120">
      <path d="m279.97891,224.25861c-1.698,-0.567 -4.23,-0.934 -6.161,-0.934c-4.798,0 -8.362,2.098 -8.362,9.086c0,6.855 3.13,8.885 8.028,8.885c5.662,0 8.129,-1.732 7.662,-10.483l-10.427,0c0.067,-2.728 1.299,-3.228 3.764,-3.228c1.234,0 3.464,0.235 4.731,0.568l0.765,-3.894zm-9.227,10.314l5.929,0c-0.066,2.362 -0.831,2.863 -2.832,2.863c-2.131,0 -2.797,-0.7 -3.097,-2.863" id="path122" fill-rule="nonzero" fill="#ffffff"/>
     </g>
    </g>
   </g>
   <path d="m283.347,235.703l8.761,0l0,-4.89l-8.761,0l0,4.89z" id="path124" fill-rule="nonzero" fill="#ffffff"/>
   <g id="g126">
    <path d="m312.66171,246.98441l0,-4.692l-11.559,0l0,-5.391l8.56,0l0,-4.591l-8.56,0l0,-8.519l-5.363,0l0,23.193l16.922,0z" id="path128" fill-rule="nonzero" fill="#ffffff"/>
   </g>
   <g id="g130">
    <g id="g132" clip-path="url(#clipPath134)">
     <g id="g138">
      <path d="m314.86111,240.82899l5.131,0l0,-1.332c0.566,1.001 1.665,1.799 4.131,1.799c0.5,0 1.1,-0.034 1.699,-0.1l0,-4.759c-0.668,0.2 -1.566,0.265 -2.398,0.265c-1.833,0 -3.432,-0.598 -3.432,-1.729l0,-11.182l-5.131,0l0,17.038z" id="path140" fill-rule="nonzero" fill="#ffffff"/>
     </g>
     <g id="g142">
      <path d="m342.81201,224.6573c-2.299,-0.831 -5.597,-1.332 -8.095,-1.332c-5.63,0 -7.294,1.199 -7.294,5.657c0,4.791 2.597,5.557 6.662,5.557c1.264,0 2.565,-0.165 3.864,-0.433c0,2.364 -0.533,3.028 -3.864,3.028c-1.965,0 -3.865,-0.365 -5.298,-0.798l-0.799,4.062c1.966,0.497 4.798,0.897 7.329,0.897c5.096,0 7.495,-1.563 7.495,-6.622l0,-10.016zm-7.695,2.463c0.966,0 2.032,0.166 2.832,0.464l0,3.228c-0.766,0.201 -1.733,0.234 -2.765,0.234c-1.832,0 -2.5,-0.2 -2.5,-1.897c0,-1.731 0.435,-2.029 2.433,-2.029" id="path144" fill-rule="nonzero" fill="#ffffff"/>
     </g>
     <g id="g146">
      <path d="m352.1749,223.791l-5.13,0l0,15.974c2.198,0.797 5.596,1.531 8.661,1.531c4.697,0 7.028,-1.965 7.028,-8.086l0,-9.419l-5.129,0l0,9.019c0,3.095 -0.5,3.926 -2.998,3.926c-0.834,0 -1.6,-0.099 -2.432,-0.299l0,-12.646z" id="path148" fill-rule="nonzero" fill="#ffffff"/>
     </g>
     <g id="g150">
      <path d="m380.12421,224.1906c-1.364,-0.565 -3.664,-0.866 -5.364,-0.866c-5.095,0 -8.495,2.098 -8.495,9.086c0,6.92 3.432,8.885 8.495,8.885c1.766,0 4.032,-0.268 5.364,-0.734l-1.066,-4.324c-0.965,0.366 -2.464,0.697 -3.864,0.697c-2.496,0 -3.764,-0.431 -3.764,-4.625c0,-3.992 1.268,-4.59 3.764,-4.59c1.466,0 2.899,0.365 3.864,0.764l1.066,-4.293z" id="path152" fill-rule="nonzero" fill="#ffffff"/>
     </g>
     <g id="g154">
      <path d="m396.5145,224.25861c-1.697,-0.567 -4.231,-0.934 -6.162,-0.934c-4.797,0 -8.36,2.098 -8.36,9.086c0,6.855 3.131,8.885 8.027,8.885c5.662,0 8.128,-1.732 7.662,-10.483l-10.427,0c0.067,-2.728 1.3,-3.228 3.763,-3.228c1.235,0 3.466,0.235 4.732,0.568l0.765,-3.894zm-9.226,10.314l5.93,0c-0.068,2.362 -0.835,2.863 -2.832,2.863c-2.132,0 -2.799,-0.7 -3.098,-2.863" id="path156" fill-rule="nonzero" fill="#ffffff"/>
     </g>
    </g>
   </g>
  </g>
 </g>
</svg>