<svg width="400" height="400" xmlns="http://www.w3.org/2000/svg">
 <title>Artboard 3</title>

 <g>
  <title>background</title>
  <rect fill="none" id="canvas_background" height="402" width="402" y="-1" x="-1"/>
 </g>
 <g>
  <title>Layer 1</title>
  <path fill="#ffffff" stroke="null" id="svg_1" d="m393.274006,299.184688l0,34.358945l-386.54795,0l0,-36.361581a25.720125,25.720125 0 0 1 9.306366,-19.869287a416.980159,416.980159 0 0 1 66.990126,-44.136519c1.531427,3.57333 16.374492,37.696671 25.837927,52.107795a0.785347,0.785347 0 0 0 1.413625,0c1.924101,-5.772303 9.345633,-25.798659 20.615367,-24.424302a0.74608,0.74608 0 0 0 0.628278,-1.33509c-8.521018,-6.793254 -30.11807,-24.267232 -38.324949,-34.005539l0,-23.521152a59.097386,59.097386 0 0 1 -7.342997,-20.144159c-2.82725,-0.235604 -6.518383,-4.162341 -10.523654,-18.259325c-5.144025,-18.141523 -0.314139,-21.754121 4.358678,-21.714853c-2.473844,-10.602189 -8.756623,-47.434978 18.651999,-64.162876a14.725262,14.725262 0 0 1 -5.22256,-11.191199s31.413893,3.534063 46.374759,0.431941s31.413893,8.756623 33.966272,20.183426c0,0 30.667813,0 18.769801,54.777975c4.790619,-0.196337 10.013178,3.102122 4.712084,21.714853c-3.926737,14.096984 -7.853473,18.062988 -10.523654,18.259325a58.901049,58.901049 0 0 1 -7.342997,20.144159l0,23.324815c-8.246147,9.738307 -29.803931,27.251552 -38.364217,34.005539a0.74608,0.74608 0 0 0 0.628278,1.33509c11.269734,-1.374358 18.691266,18.612731 20.615367,24.424302a0.785347,0.785347 0 0 0 1.413625,0c9.463435,-14.411123 24.3065,-48.534464 25.837927,-52.107795a439.166221,439.166221 0 0 1 46.139155,28.351038a111.440785,111.440785 0 0 0 14.528925,-6.007907l0.863882,-0.510476a8.599553,8.599553 0 0 0 3.926737,-7.225195l0,-14.646727c-38.75689,0.353406 -50.183694,-16.256689 -50.183694,-16.256689s22.146794,-0.353406 20.772437,-58.901049s25.366718,-68.011078 35.419164,-71.662943c29.254188,-11.112665 43.940182,6.55765 43.940182,6.55765c33.927004,-3.141389 43.194103,33.927004 39.267366,76.100155s19.005405,48.770068 19.005405,48.770068c-15.903283,16.256689 -49.476881,15.235738 -49.476881,15.235738l0,3.926737l0,0l0,11.191199a8.599553,8.599553 0 0 0 3.926737,7.225195l1.020952,0.628278c11.78021,6.164976 35.968907,12.565557 36.440116,12.801161a127.854543,127.854543 0 0 1 22.971409,8.678088a27.487156,27.487156 0 0 1 15.51061,21.91119z"/>
 </g>
</svg>