<svg width="320" height="100" xmlns="http://www.w3.org/2000/svg">

 <metadata id="metadata40432">image/svg+xml</metadata>
 <g>
  <title>background</title>
  <rect fill="none" id="canvas_background" height="102" width="322" y="-1" x="-1"/>
 </g>
 <g>
  <title>Layer 1</title>
  <g stroke="null" id="layer1">
   <g stroke="null" fill="#121212" id="g96" transform="matrix(0.8139179818075151,0,0,0.8139179818075151,24.740398001870062,44.547870298610576) ">
    <path stroke="null" fill="#cccccc" fill-rule="nonzero" id="path98" d="m85.748347,9.883878l5.14,-2.66l0,-40.43l-3.89,0l-9.5,12.6l-1.07,0l0.6,-14.17l41.18,0l0.6,14.18l-1.14,0l-9.3,-12.6l-4,0l0,40.32l5.17,2.73l0,1.37l-23.79,0l0,-1.34m37.08,-1.78l0,-44.79l-4,-1.6l0,-0.83l14.42,-2.66l1.58,0l0,21.26l0.34,-0.34c3.455,-2.9379 7.835,-4.5633 12.37,-4.59c6.32,0 9.11,3.57 9.11,10.22l0,23.33l3.38,1.84l0,1.28l-18.87,0l0,-1.28l3.39,-1.85l0,-23.4c0,-3.66 -1.6,-5.12 -4.59,-5.12c-1.806,-0.0387 -3.571,0.5437 -5,1.65l0,26.94l3.33,1.84l0,1.22l-18.88,0l0,-1.22l3.42,-1.9m47.46,-13.76c0.39,7.4 3.71,13.13 11.57,13.13c3.8,0 6.5,-1.76 9,-3.1l0,1.46c-3.404,4.1511 -8.512,6.5283 -13.88,6.46c-12.18,0 -18.4,-6.77 -18.4,-18.49c0,-11.46 6.81,-18.6 17.81,-18.6c10.35,0 15.72,5.17 15.72,18.8l0,0.35l-21.82,-0.01m-0.2,-1.71l10.74,-0.65c0,-9.17 -1.57,-15.26 -4.72,-15.26c-3.36,0.01 -6.02,7.08 -6.02,15.92l0,-0.01m-151.34,36.52c0,-19.49 12.9,-26.43 27.27,-26.43c6.1,0 11.85,1 15.07,2.31l0.28,13.6l-1.37,0l-8.43,-13.16c-1.6948,-0.6771 -3.5184,-0.9708 -5.34,-0.86c-7.64,0 -11.55,8.83 -11.42,23.3c0.14,17.31 3.15,25.18 10.16,25.18c1.4358,0.0474 2.8668,-0.1905 4.21,-0.7l0,-18.54l-4.63,-2.63l0,-1.58l22.36,0l0,1.66l-4.56,2.55l0,18.3c-5.4261,1.9224 -11.1435,2.8933 -16.9,2.87c-16.33,0 -26.7,-7.57 -26.7,-25.87l0,0m46.08,-9.09l0,-1.13l15,-2.65l1.65,0.14l0,29.64c0,3.57 1.72,4.67 4.6,4.67c1.8944,0.0273 3.6953,-0.8215 4.88,-2.3l0,-26.59l-4.12,-1.79l0,-1.16l15,-2.65l1.51,0.14l0,34l4.05,1.7l0,1.08l-14.71,1.8l-1.51,-0.14l0,-4.47l-0.41,0c-3.0208,2.9503 -7.0486,4.6444 -11.27,4.74c-7.21,0 -10.51,-4.26 -10.51,-10.72l0,-22.53l-4.16,-1.78m94.27,-3.84l1.24,0.14l0,11l0.34,0c1.61,-8 5.15,-11 9.48,-11c0.629,-0.0295 1.258,0.0657 1.85,0.28l0,11.14c-1.015,-0.2144 -2.053,-0.3051 -3.09,-0.27c-2.814,-0.0733 -5.609,0.4836 -8.18,1.63l0,21.69l3.42,1.9l0,1.49l-19.5,0l0,-1.48l3.51,-1.91l0,-29.61l-4.12,-1.23l0,-1l15.05,-2.77m37.73,0.92l0,-11.57l-4.12,-1.44l0,-0.91l15.18,-2.79l1.44,0.21l0,49.69l4.19,1.52l0,1.28l-15,2l-1.17,-0.14l0,-4.09l-0.34,0c-2.591,2.7473 -6.224,4.2695 -10,4.19c-8.18,0 -14.15,-6.25 -14.15,-19c0,-13.47 6.94,-20.09 17.45,-20.09c2.231,-0.114 4.46,0.2756 6.52,1.14l0,0m0,31.83l0,-29.75c-1.15,-0.9762 -2.649,-1.442 -4.15,-1.29c-4.06,0.14 -6.57,6.27 -6.57,17.2c0,9.82 1.8,15.32 7.21,15.13c1.287,0.008 2.534,-0.4502 3.51,-1.29l0,0m33.14,-32.75l1.3,0.14l0,34.47l3.43,1.9l0,1.49l-19.5,0l0,-1.48l3.5,-1.91l0,-29.06l-4.19,-1.65l0,-1.15l15.46,-2.75m1.37,-9.32c-0.114,3.5752 -3.084,6.393 -6.66,6.32c-2.356,0.093 -4.574,-1.1109 -5.779,-3.1371c-1.206,-2.0261 -1.206,-4.5496 0,-6.5758c1.205,-2.0262 3.423,-3.2301 5.779,-3.1371c3.63,-0.0445 6.611,2.8598 6.66,6.49l0,0.04m43.79,43.93l0,-29.38l-4.12,-1.44l0,-1.42l15,-2.79l1.51,0.14l0,4.4l0.41,0c3.563,-3.0458 8.093,-4.7258 12.78,-4.74c6.53,0 9.41,3.09 9.41,10l0,25.17l3.5,2l0,1.45l-19.53,0l0,-1.48l3.5,-1.91l0,-24.61c0,-3.78 -1.65,-5.29 -4.74,-5.29c-1.853,-0.0518 -3.668,0.5263 -5.15,1.64l0,28.25l3.44,1.9l0,1.5l-19.51,0l0,-1.48l3.5,-1.91m-21.22,-18.46l0,-4.93c0,-7.42 -1.62,-9.85 -6.21,-9.85c-0.519,0.0131 -1.037,0.0599 -1.55,0.14l-8.17,11.07l-1.15,0l0,-10.2c4.415,-1.5155 9.043,-2.3189 13.71,-2.38c10,0 15.79,2.77 15.79,11.14l0,24l3.58,0.94l0,0.94c-2.274,1.1682 -4.804,1.7492 -7.36,1.69c-4.93,0 -7.29,-1.62 -8.37,-4.32l-0.35,0c-2.09,2.83 -5.06,4.45 -9.72,4.45c-5.94,0 -10,-3.71 -10,-10.12c0,-6.21 3.85,-9.58 11.68,-11.07l8.12,-1.5m0,16.6l0,-14.85l-2.5,0.2c-3.92,0.34 -5.33,2.84 -5.33,8.37c0,6 2,7.56 4.72,7.56c1.184,0.1082 2.345,-0.3699 3.11,-1.28l0,0m-126.61,-16.6l0,-4.93c0,-7.42 -1.62,-9.85 -6.21,-9.85c-0.519,0.0131 -1.037,0.0598 -1.55,0.14l-8.17,11.06l-1.14,0l0,-10.19c4.4117,-1.5145 9.036,-2.3178 13.7,-2.38c10,0 15.79,2.77 15.79,11.14l0,24l3.58,0.94l0,0.94c-2.274,1.1682 -4.804,1.7492 -7.36,1.69c-4.93,0 -7.29,-1.62 -8.37,-4.32l-0.34,0c-2.09,2.83 -5.06,4.45 -9.72,4.45c-5.94,0 -10,-3.71 -10,-10.12c0,-6.21 3.85,-9.58 11.68,-11.07l8.11,-1.5m0,16.6l0,-14.85l-2.5,0.2c-3.92,0.34 -5.33,2.84 -5.33,8.37c0,6 2,7.56 4.72,7.56c1.184,0.1083 2.345,-0.3699 3.11,-1.28"/>
   </g>
  </g>
 </g>
</svg>