<svg width="320" height="100" xmlns="http://www.w3.org/2000/svg">
 <g>
  <title>background</title>
  <rect fill="none" id="canvas_background" height="102" width="322" y="-1" x="-1"/>
 </g>

 <g>
  <title>Layer 1</title>
  <g id="svg_2" transform="matrix(0.663212640595436,0,0,-0.663212640595436,371.6546317877853,775.5890659361652) ">
   <path id="svg_3" fill="none" d="m-75.085389,1040.621821l-488.1,0l0,106.86l488.1,0l0,-106.86z"/>
   <g id="svg_4">
    <path id="svg_5" fill="#d9e0f1" d="m-384.965409,1089.506821l0,0l0.1,0l0.54,0l0,0c2.19,-1.5 3.03,-2.4 4.62,-3.93l0,-0.1l-0.1,0c0,0 -0.12,0.1 -0.3,0.27c-0.21,0.18 -0.54,0.42 -0.96,0.78c-0.84,0.66 -2.16,1.62 -3.9,2.85l0,0.1l0,0.03zm2.97,0.18l-4.38,0l0,-1.74c0.42,-0.15 0.78,-0.33 1.14,-0.48c2.01,-0.78 2.97,-1.38 3,-1.41c0.12,-0.1 4.59,-2.43 8.31,-5.82c3.72,-3.42 4.35,-3.12 8.91,-8.19l0.57,-0.66c-2.28,3.33 -5.58,6.84 -10.86,11.61c-0.57,0.51 -1.17,1.05 -1.74,1.62c-1.86,1.74 -3.66,3.63 -4.95,5.07"/>
   </g>
   <g id="svg_6" fill="#999999">
    <path id="svg_7" d="m-370.825379,1079.471821c-3.23,3.06 -7.58,7.26 -10.4,10.5l-0.85,0c2.02,-2.31 4.47,-4.86 6.78,-6.93c5.67,-5.1 9.07,-8.79 11.37,-12.33l-1.13,1.29c-4.57,5.07 -5.16,4.77 -8.91,8.19c-3.75,3.45 -8.32,5.82 -8.32,5.82c0,0 -1.35,0.87 -4.29,1.89l0,-1.35c3.94,-1.41 5.67,-2.4 5.67,-2.4c0,0 5.77,-3.24 10,-7.32c3.62,-3.51 4.44,-4.41 5.27,-5.34c0,0 1.75,-1.23 2.62,-1.59c0,0 -1.48,3.6 -7.81,9.57"/>
    <path id="svg_8" d="m-370.825379,1079.471821l0,0c-3.24,3.09 -7.59,7.26 -10.37,10.5l-0.1,0l-0.85,0l0,0l0,-0.1c1.97,-2.28 4.47,-4.83 6.77,-6.93c5.67,-5.1 9.06,-8.76 11.34,-12.3l0.1,0l0,0l-1.15,1.29c-4.55,5.07 -5.16,4.77 -8.91,8.19c-3.75,3.45 -8.28,5.85 -8.28,5.85l-0.1,-0.1l0.1,0.1c0,0 -1.38,0.84 -4.35,1.89l0,0l0,-0.1l0,-1.35l0,0c1.98,-0.72 3.39,-1.32 4.32,-1.74c0.45,-0.24 0.82,-0.39 1.02,-0.51c0.24,-0.12 0.34,-0.18 0.34,-0.18c0,0 0.35,-0.21 0.96,-0.57c1.82,-1.11 5.85,-3.69 8.99,-6.72c3.66,-3.51 4.47,-4.41 5.31,-5.34l0,0c0,0 1.74,-1.23 2.61,-1.56l0.1,0l0,0.1c0,0 -1.47,3.6 -7.8,9.57l0,0l0,0c3.14,-3 5.09,-5.37 6.23,-7.02c0.6,-0.81 0.99,-1.47 1.21,-1.89c0.11,-0.21 0.21,-0.36 0.26,-0.48c0,-0.12 0.1,-0.15 0.1,-0.15l0.1,0l0,0.1c-0.39,0.18 -1.06,0.57 -1.6,0.9c-0.53,0.36 -0.98,0.66 -0.98,0.66l0,0l0,0c-0.82,0.93 -1.66,1.83 -5.29,5.34c-4.23,4.08 -9.99,7.32 -9.99,7.32c0,0 -1.76,1.02 -5.7,2.43l0,-0.1l0.1,0l0,1.35l-0.1,0l0,0c1.48,-0.54 2.56,-1.02 3.28,-1.35c0.35,-0.18 0.6,-0.3 0.78,-0.39c0.17,-0.12 0.26,-0.15 0.26,-0.15c0,0 0.28,-0.15 0.75,-0.45c1.48,-0.81 4.71,-2.79 7.53,-5.37c3.75,-3.45 4.35,-3.15 8.91,-8.19l0,0l0,0l1.14,-1.29l0.1,0l0,0.1c-2.32,3.54 -5.7,7.23 -11.34,12.33c-2.32,2.07 -4.81,4.65 -6.78,6.93l-0.1,0l0,-0.1l0.85,0l0,0.1l0,-0.1c2.79,-3.21 7.15,-7.41 10.42,-10.47l0,0l-0.19,-0.05z"/>
   </g>
   <g id="svg_9">
    <path id="svg_10" fill="#999999" d="m-379.735359,1085.575811c-1.62,1.53 -2.43,2.4 -4.65,3.93l-0.54,0c3.54,-2.46 5.19,-3.93 5.19,-3.93"/>
   </g>
   <g id="svg_11">
    <path id="svg_12" fill="#999999" d="m-379.735359,1085.575811l0,0c-1.62,1.53 -2.43,2.43 -4.65,3.96l0,0l-0.54,0l0,0l0,-0.1c1.77,-1.23 3.06,-2.19 3.93,-2.88c0.42,-0.33 0.72,-0.6 0.96,-0.78c0.18,-0.15 0.3,-0.24 0.3,-0.24l0.1,0l0,0.1l0,0l0,0c0,0 -1.65,1.5 -5.19,3.93l0,0l0,-0.1l0.54,0l0,0.1l0,0c2.19,-1.53 3.03,-2.43 4.65,-3.93l0,0l0,0l0,0l-0.1,-0.06z"/>
   </g>
   <g id="svg_13">
    <path id="svg_14" fill="#b2b2b2" d="m-381.055399,1089.682811l-0.69,0c1.95,-2.22 4.29,-4.62 6.51,-6.6c5.67,-5.13 9.06,-8.79 11.37,-12.33l0,-0.1l-0.1,0l-1.14,1.32c-4.56,5.04 -5.16,4.74 -8.91,8.16c-2.82,2.58 -6.06,4.56 -7.53,5.4c-0.48,0.27 -0.75,0.42 -0.75,0.42c0,0 -0.1,0.1 -0.27,0.15c-0.18,0.1 -0.42,0.24 -0.78,0.42c-0.69,0.33 -1.68,0.75 -3.06,1.26l0,-1.23c3.81,-1.38 5.52,-2.37 5.52,-2.37c0,0 5.76,-3.24 9.99,-7.32c3.63,-3.51 4.47,-4.41 5.28,-5.34c0.1,0 0.48,-0.33 0.99,-0.66c0.48,-0.33 1.08,-0.66 1.47,-0.87c0,0 0,0 0,0.1c-0.1,0.1 -0.15,0.27 -0.24,0.48c-0.24,0.42 -0.63,1.05 -1.2,1.89c-1.17,1.62 -3.12,4.02 -6.27,6.99l0,0.1l0,-0.1c-3.18,3 -7.38,7.05 -10.2,10.26"/>
   </g>
   <g id="svg_15">
    <path id="svg_16" fill="#b2b2b2" d="m-370.785379,1079.512821l0,0l0,0zm-15.6,7.05l0,-0.12c1.86,-0.69 3.21,-1.26 4.08,-1.68c0.48,-0.21 0.81,-0.36 1.05,-0.48c0.21,-0.12 0.33,-0.18 0.33,-0.18c0,0 0.36,-0.21 0.96,-0.57c1.8,-1.11 5.82,-3.69 9,-6.72c3.66,-3.54 4.47,-4.41 5.31,-5.37l0,0c0,0 1.74,-1.23 2.61,-1.59l0.1,0l0,0.1c0,0 -1.47,3.6 -7.8,9.57l0,0l0,-0.1c3.15,-2.97 5.1,-5.37 6.24,-6.99c0.57,-0.84 0.96,-1.47 1.2,-1.89c0.12,-0.21 0.21,-0.39 0.24,-0.48c0,0 0,0 0,0c-0.42,0.18 -0.99,0.51 -1.5,0.84c-0.48,0.33 -0.9,0.63 -0.96,0.66c-0.84,0.93 -1.65,1.83 -5.28,5.34c-4.26,4.08 -9.99,7.32 -9.99,7.32c0,0 -1.71,0.99 -5.52,2.37m4.62,3.12l-0.12,0c1.95,-2.22 4.35,-4.68 6.57,-6.69c5.28,-4.77 8.61,-8.28 10.89,-11.61l-0.6,0.66l0,0c-4.56,5.07 -5.16,4.77 -8.91,8.19c-3.69,3.39 -8.19,5.76 -8.31,5.82c0,0 -0.99,0.6 -3,1.41c-0.36,0.15 -0.72,0.3 -1.14,0.45l0,-0.12c1.35,-0.51 2.37,-0.93 3.03,-1.26c0.36,-0.18 0.63,-0.33 0.81,-0.42c0.18,-0.1 0.24,-0.15 0.24,-0.15c0,0 0.3,-0.15 0.78,-0.42c1.44,-0.84 4.71,-2.82 7.53,-5.4c3.75,-3.42 4.32,-3.12 8.88,-8.16l1.14,-1.32l0.1,0l0,0.1c-2.31,3.54 -5.7,7.23 -11.37,12.33c-2.19,1.98 -4.56,4.38 -6.51,6.6m0.84,0l-0.12,0c2.79,-3.21 7.02,-7.26 10.2,-10.26l0,0.1l0,0c-3.15,2.97 -7.32,6.99 -10.14,10.17"/>
   </g>
   <g id="svg_17">
    <path id="svg_18" fill="#b2b2b2" d="m-384.395389,1089.454821l-0.36,0c1.75,-1.2 3,-2.19 3.85,-2.82c-1,0.93 -1.86,1.71 -3.49,2.82"/>
   </g>
   <g id="svg_19">
    <path id="svg_20" fill="#b2b2b2" d="m-384.745359,1089.456811l0.33,0c1.62,-1.14 2.49,-1.89 3.51,-2.85c-0.84,0.66 -2.13,1.62 -3.84,2.85m0.36,0.12l-0.54,0l0,0l0,-0.1c1.77,-1.23 3.06,-2.22 3.9,-2.88c0.45,-0.33 0.75,-0.6 0.96,-0.78c0.21,-0.15 0.3,-0.24 0.33,-0.27l0.1,0l0,0.1l0,0l0,0l0,0l0,0c-1.62,1.53 -2.46,2.4 -4.65,3.93l0,0l-0.1,0z"/>
   </g>
   <g id="svg_21">
    <path id="svg_22" fill="#cccccc" d="m-532.795399,1116.454811l28.71,0l0,-9.69l-3.51,0c-1.68,0 -2.19,-0.66 -2.19,-2.31l0,-21.87c0,-1.05 0.87,-2.01 2.31,-2.01l8.28,0c1.08,0 2.43,0.75 2.43,2.28l0,7.86l11.46,0l0,-19.86l-47.49,0l0,9.69l3.36,0c1.56,0 2.37,0.51 2.37,2.1l0,21.81c0,1.41 -0.27,2.31 -2.16,2.31l-3.57,0l0,9.69z"/>
   </g>
   <g id="svg_23">
    <path id="svg_24" fill="#cccccc" d="m-480.305399,1116.454811l47.21,0l0,-14.64l-11.81,0l0,2.43c0,1.5 -0.75,2.52 -3.04,2.52l-10.28,0l0,-8.25l11.1,0l0,-8.85l-11.1,0l0,-9.09l10.76,0c1.42,0 2.56,0.87 2.56,2.49l0,2.49l11.81,0l0,-14.7l-47.21,0l0,9.69l2.55,0c1.35,0 2.28,0.54 2.28,1.92l0,21.9c0,1.47 -0.24,2.4 -2.13,2.4l-2.7,0l0,9.69z"/>
   </g>
   <g id="svg_25">
    <path id="svg_26" fill="#cccccc" d="m-409.575419,1116.454811l48.34,0l0,-14.64l-11.83,0l0,2.49c0,1.32 -0.81,2.46 -2.61,2.46l-10.7,0l0,-8.25l9.89,0l0,-8.85l-9.89,0l0,-6.57c0,-1.83 0.77,-2.55 3.14,-2.55l3.75,0l0,-9.69l-30.09,0l0,9.69l3.99,0c1.15,0 1.95,0.75 1.95,1.92l0,21.9c0,1.38 -0.24,2.4 -2.12,2.4l-3.82,0l0,9.69z"/>
   </g>
   <g id="svg_27">
    <path id="svg_28" fill="#cccccc" d="m-333.855399,1104.464821c0,1.71 0.54,2.28 2.19,2.28l3.54,0l0,9.72l-28.53,0l0,-9.72l3.63,0c1.92,0 2.19,-0.87 2.19,-2.28l0,-21.87c0,-1.71 -1.05,-2.07 -2.25,-2.07l-3.57,0l0,-9.66l28.53,0l0,9.66l-3.48,0c-1.38,0 -2.25,0.54 -2.25,2.13l0,21.81z"/>
   </g>
   <g id="svg_29">
    <path id="svg_30" fill="#cccccc" d="m-286.085359,1116.454811l10.11,0l0,-16.02l-10.17,0c0,0 -2.91,6.99 -11.13,6.99c-6.15,0 -10.95,-4.44 -10.95,-12.66c0,-13.92 7.71,-15.09 11.04,-15.09c6.84,0 8.43,4.83 8.43,6.78l-6.36,0l0,8.4l21.87,0c0,0 -0.1,-3.42 -0.1,-5.85c0,-1.17 -1.14,-18.96 -25.65,-18.96c-17.7,0 -26.97,10.11 -26.97,24.51c0,9.57 7.5,22.59 25.47,22.59c10.05,0 14.4,-4.11 14.4,-4.11l0,3.42l0.01,0z"/>
   </g>
   <g id="svg_31">
    <path id="svg_32" fill="#cccccc" d="m-219.745399,1080.536811c-1.95,0 -2.55,1.74 -3.72,4.56c-0.96,2.31 -12.06,31.35 -12.06,31.35l-17.58,0c0,0 -11.94,-32.28 -12.48,-33.66c-0.69,-1.62 -1.68,-2.25 -3.45,-2.25l-2.55,0l0,-9.66l21.51,0l0,9.18l-2.97,0c-1.29,0 -1.59,0.99 -1.17,2.37c0.51,1.59 1.38,4.08 1.38,4.08l13.05,0c0,0 0.72,-2.25 1.41,-4.32c0.51,-1.56 -1.14,-2.13 -2.13,-2.13l-2.55,0l0,-9.18l25.89,0l0,9.66l-2.58,0zm-30.99,12.24l4.5,13.41l0.15,0l4.29,-13.41l-8.94,0z"/>
   </g>
   <g id="svg_33">
    <path id="svg_34" fill="#cccccc" d="m-159.025379,1080.536811c-1.77,0 -2.04,0.84 -2.94,2.01c-0.87,1.17 -6.33,9.69 -6.33,9.69c0,0 7.98,2.22 7.98,10.74c0,8.49 -7.11,11.52 -10.14,12.3c-3.03,0.78 -9.57,1.17 -11.34,1.17l-8.79,0l-22.38,0l0,-9.69l3.06,0c1.95,0 2.19,-0.96 2.19,-2.28l0,-21.66c0,-0.96 -0.15,-2.28 -2.28,-2.28l-2.97,0l0,-9.66l27.45,0l0,9.66l-2.79,0c-1.92,0 -2.16,1.05 -2.16,2.19l0,7.38l6.12,0l11.25,-19.23l17.22,0l0,9.66l-3.15,0zm-25.2,17.46l-6.24,0l0,9.39l6.78,0c1.98,0 5.49,-0.72 5.49,-4.8c0,-3.06 -2.25,-4.59 -6.03,-4.59"/>
   </g>
   <g id="svg_35">
    <path id="svg_36" fill="#cccccc" d="m-130.495369,1117.147811c-19.14,0 -26.07,-12.81 -26.07,-23.07c0,-13.62 9.6,-24.03 25.89,-24.03c14.52,0 25.95,7.95 25.95,23.46c0,14.73 -10.92,23.64 -25.77,23.64m0.3,-37.47c-4.2,0 -8.61,2.49 -8.61,15.18c0,7.83 3,12.69 8.13,12.69c4.86,0 8.4,-3.21 8.4,-13.56c0,-11.19 -3.69,-14.31 -7.92,-14.31"/>
   </g>
   <g id="svg_37">
    <path id="svg_38" fill="none" d="m-405.675409,1116.661821l0,-0.21l0.45,0c-0.18,0.1 -0.33,0.15 -0.48,0.21m-8.73,3.24l0.51,-5.64c0.51,-0.57 1.02,-1.11 1.59,-1.62l-0.51,6.06l0.1,0l0,0l0.54,-6.18c0.51,-0.45 1.02,-0.9 1.56,-1.32l-0.54,6.51l0.12,0l0.54,-6.63c0.3,-0.24 0.63,-0.45 0.93,-0.69l0,6.03l0.1,0l0,0.36l0.1,0l0,0l0,-0.36l1.26,0c-2.25,0.93 -4.38,2.13 -6.3,3.45m-1.68,1.2l0.42,-4.77c0.51,-0.66 1.05,-1.32 1.65,-1.95l-0.48,5.55l0.1,0c-0.57,0.39 -1.11,0.78 -1.65,1.17m-1.68,1.32l0.3,-3.63c0.51,-0.75 1.05,-1.53 1.68,-2.31l-0.42,4.71c-0.54,0.42 -1.05,0.81 -1.56,1.23m-1.65,1.41l0.15,-2.04c0.42,-0.78 0.93,-1.65 1.5,-2.55c0.1,-0.1 0.12,-0.18 0.18,-0.24l-0.3,3.51c-0.54,0.45 -1.05,0.9 -1.53,1.32m-1.56,1.47c0.12,-0.33 0.33,-0.81 0.6,-1.38c0.27,-0.54 0.6,-1.2 0.99,-1.89l-0.12,1.89c-0.57,0.48 -1.05,0.96 -1.47,1.38m-2.34,2.4c0.1,-2.49 0.51,-5.16 0.93,-7.05c0.15,-0.75 0.36,-1.56 0.57,-2.4l0,0c0,-0.12 0.1,-0.18 0.1,-0.18c-0.51,0.24 -0.87,0.51 -1.14,0.75c-0.24,0.15 -0.48,0.39 -0.78,0.66c0.1,-0.21 0.12,-0.39 0.15,-0.57c0.12,-0.27 0.24,-0.6 0.36,-0.93c0.45,-1.14 1.11,-2.64 2.01,-4.26c1.74,-3.24 4.29,-6.9 7.62,-8.55l0,-0.1l-0.1,-0.1c0,0 -0.24,0 -0.63,0c0.15,-0.1 0.24,-0.12 0.24,-0.12c-1.56,0.18 -3,0.66 -3.69,0.93c0.1,-0.1 0.15,-0.15 0.24,-0.24c0.36,-0.36 0.96,-0.9 1.89,-1.62c1.92,-1.44 5.19,-3.6 10.71,-6.48l0,0l0,-0.1c0,0 -0.18,-0.1 -0.6,-0.12l-0.1,0c-0.15,0 -0.36,0 -0.6,0c-0.6,0 -1.44,0.1 -2.55,0.33c0.1,0 0.12,-0.1 0.18,-0.1c0.27,-0.18 0.66,-0.42 1.17,-0.72c0.93,-0.57 2.19,-1.32 3.63,-2.1l0,9.63c0,1.38 -0.24,2.4 -2.13,2.4l-3.81,0l0,2.97c-5.67,3.87 -10.14,11.76 -11.64,15.78c-1.32,1.29 -2.1,2.19 -2.1,2.19"/>
   </g>
   <g id="svg_39">
    <path id="svg_40" fill="#cccccc" d="m-396.105399,1108.964811l0.72,-8.37c0.63,-0.66 1.17,-1.26 1.62,-1.86l-0.66,7.65l-0.1,0c-0.27,0.51 -0.63,1.11 -1.08,1.77c-0.15,0.27 -0.36,0.51 -0.54,0.78m-13.47,0.78l0,-3l3.81,0c1.89,0 2.13,-1.02 2.13,-2.37l0,-9.66c0.12,-0.1 0.24,-0.12 0.36,-0.18c3.06,-1.65 6.87,-3.42 9.84,-3.93l0,13.89c0,0 -0.27,0.69 -0.84,1.71l0.66,-7.62c0,0 0,-0.1 0,-0.1l0,0l0,-0.69l0,0l-0.1,0c-0.48,0.78 -3.66,5.25 -14.49,11.07c-0.48,0.27 -0.96,0.57 -1.44,0.9m0.12,6.72l-0.12,0l0,-6.03c0.21,-0.15 0.42,-0.3 0.66,-0.45l-0.54,6.48zm4.26,0l-0.45,0l0.1,-0.6l0,-0.1l-0.1,0c0,0 0,0 -0.1,0c0,-0.12 0,-0.18 -0.1,-0.18l0,0c-0.78,0.21 -1.53,0.48 -2.28,0.81l-1.29,0l0.54,-6.54c0.51,-0.33 1.02,-0.63 1.56,-0.93l-0.57,6.93l0,0l0.1,0l0.6,-7.02c0,0 0.1,0 0.12,-0.1c0.48,-0.24 0.93,-0.51 1.41,-0.75l-0.63,7.2l0.1,0l0.1,0l0.63,-7.26c0.51,-0.3 1.05,-0.6 1.56,-0.93l-0.75,8.7l0.12,0l0.75,-8.79c0.51,-0.33 1.05,-0.66 1.56,-0.99l-0.78,8.91l0.12,0l0.75,-8.97c0.54,-0.36 1.05,-0.72 1.56,-1.08l-0.75,9l0.1,0l0.78,-9.09c0.54,-0.39 1.05,-0.78 1.56,-1.17l-0.78,9l0.12,0l0.78,-9.12c0.54,-0.45 1.11,-0.9 1.62,-1.35l-0.78,8.76l0,0l0.1,0l0.78,-8.88c0.6,-0.51 1.11,-0.99 1.59,-1.47l-0.72,8.4c-1.89,2.52 -4.83,5.49 -8.97,7.35"/>
   </g>
   <g id="svg_41">
    <path id="svg_42" fill="#999999" d="m-394.505419,1107.309811c-1.11,1.89 -3.39,5.34 -5.85,7.05c-3.57,2.52 -6.45,3.66 -6.45,3.66l0.78,-1.53c0,0 -6,2.28 -8.55,4.11c-3.84,2.79 -9.27,8.13 -9.27,8.13c-0.3,-3.9 1.38,-9.75 1.38,-9.75c-0.75,0.36 -2.01,2.01 -2.01,2.01c2.64,-11.1 9.27,-15.36 9.27,-15.36c-0.45,0 -3.9,1.2 -3.9,1.2c3.39,-4.77 12.87,-8.97 12.87,-8.97c-1.02,0 -4.23,0.69 -4.23,0.69c8.55,-6.75 17.28,-8.79 17.28,-8.79l0,0.75c-6.09,0.9 -15.75,7.29 -15.75,7.29c2.91,-0.75 4.11,-0.27 4.11,-0.27c-11.1,5.73 -13.14,8.61 -13.14,8.61c1.98,-1.02 4.38,-1.02 4.38,-1.02c-6.66,3.33 -10.32,14.64 -10.32,14.64c1.2,-1.23 2.01,-1.5 2.01,-1.5c-1.71,6.51 -1.77,10.08 -1.77,10.08c0.18,-0.45 3.51,-4.23 9.66,-8.43c4.14,-2.79 8.37,-4.05 8.37,-4.05l-0.18,1.11c0,0 0.93,0 5.25,-3.18c2.91,-2.13 5.1,-5.49 6.09,-7.35l-0.1,0.87l0.07,0z"/>
   </g>
   <g id="svg_43">
    <path id="svg_44" fill="#999999" d="m-394.505419,1107.309811l0.1,0c-1.11,1.89 -3.42,5.34 -5.85,7.08c-3.6,2.49 -6.48,3.66 -6.48,3.66l-0.1,0l0,-0.1l0.78,-1.53l0.1,0l0,0.1c0,0 -0.36,0.12 -0.96,0.36c-1.8,0.72 -5.64,2.34 -7.53,3.72c-1.95,1.41 -4.26,3.45 -6.09,5.13c-0.93,0.84 -1.71,1.59 -2.31,2.13c-0.54,0.54 -0.9,0.87 -0.9,0.87l-0.1,0l0,0c0,-0.33 0,-0.69 0,-1.05c0,-3.81 1.41,-8.7 1.41,-8.7l0.1,0l0,0.1c-0.36,0.15 -0.87,0.66 -1.29,1.11c-0.18,0.24 -0.36,0.45 -0.51,0.63c-0.12,0.15 -0.18,0.24 -0.18,0.24l-0.1,0l0,-0.1c2.67,-11.13 9.3,-15.42 9.3,-15.42l0,0.1l0,0c-0.1,0 -0.39,0.1 -0.78,0.21c-0.6,0.18 -1.38,0.42 -2.01,0.63c-0.63,0.21 -1.11,0.39 -1.11,0.39l-0.1,0l0,-0.1c3.42,-4.77 12.93,-9 12.93,-9l0,0.1l0,0c-0.48,0 -1.56,0.18 -2.49,0.36c-0.93,0.15 -1.74,0.33 -1.74,0.33l-0.1,0l0,-0.1c8.58,-6.75 17.34,-8.79 17.34,-8.79l0.1,0l0,0l0,0.75l-0.1,0.1c-3.03,0.45 -6.96,2.25 -10.11,3.96c-1.59,0.84 -3,1.68 -3.99,2.28c-0.51,0.3 -0.9,0.57 -1.17,0.75c-0.3,0.18 -0.45,0.27 -0.45,0.27l0,0l0,-0.1c1.26,-0.33 2.19,-0.42 2.85,-0.42c0.87,0 1.26,0.15 1.26,0.15l0,0.1l0,0.1c-5.52,2.85 -8.82,4.98 -10.71,6.42c-0.93,0.75 -1.53,1.29 -1.89,1.62c-0.18,0.18 -0.3,0.33 -0.39,0.42c-0.1,0.1 -0.1,0.1 -0.1,0.1l0,0l0,0l0,0c2.01,-1.05 4.41,-1.05 4.41,-1.05l0.1,0.1l0,0.1c-3.33,1.65 -5.91,5.31 -7.65,8.55c-0.87,1.62 -1.53,3.12 -1.98,4.23c-0.21,0.57 -0.39,1.02 -0.48,1.32c-0.12,0.33 -0.18,0.51 -0.18,0.51l-0.1,0l0,0c1.2,-1.26 2.01,-1.53 2.04,-1.53l0,0l0,0.1c-0.84,3.27 -1.29,5.79 -1.53,7.5c-0.12,0.84 -0.18,1.5 -0.21,1.92c0,0.45 -0.1,0.66 -0.1,0.66l0,0l-0.1,0c0.1,-0.15 0.3,-0.45 0.72,-0.93c1.32,-1.47 4.35,-4.38 8.97,-7.56c4.14,-2.79 8.37,-4.05 8.4,-4.05l0,0l0,0.1l-0.18,1.14l-0.1,0l0,0l0,0c0.1,0 1.14,-0.21 5.19,-3.18c2.88,-2.13 5.07,-5.49 6.06,-7.35l0.1,0l0,0.1l-0.1,0.87l0,0l-0.1,0l-0.1,0l0.1,-0.87l0.1,0l0.1,0c-1.02,1.86 -3.21,5.22 -6.12,7.38c-4.32,3.15 -5.25,3.18 -5.28,3.18l0,0l0,-0.1l0.18,-1.11l0.1,0l0,0.1c0,0 -0.27,0.1 -0.75,0.21c-1.38,0.51 -4.53,1.74 -7.62,3.81c-3.06,2.1 -5.43,4.11 -7.05,5.64c-0.81,0.75 -1.44,1.41 -1.89,1.89c-0.42,0.48 -0.66,0.81 -0.72,0.9l-0.1,0l0,-0.1c0,0 0.1,-3.57 1.77,-10.11l0.1,0l0,0l0,0c-0.18,0.1 -0.93,0.39 -1.98,1.5l-0.1,0l0,-0.1c0,0 3.66,-11.34 10.35,-14.7l0,0.1l0,0.1c0,0 -0.15,0 -0.42,0c-0.75,0 -2.46,0.24 -3.93,0.99l-0.1,0l0,-0.1c0,0 2.1,-2.91 13.17,-8.64l0,0.1l0,0.1c0,0 0,0 -0.1,0c-0.15,-0.1 -0.54,-0.15 -1.17,-0.15c-0.63,0 -1.56,0.1 -2.82,0.42l-0.1,0l0,-0.1c0,0 9.66,-6.39 15.78,-7.26l0,0l-0.1,0l0,-0.78l0.1,0l0,0.1c0,0 -0.15,0 -0.39,0.1c-1.8,0.48 -9.42,2.76 -16.89,8.67l0,0l0,-0.1c0,0 3.21,-0.69 4.26,-0.69l0.1,0l0,0.1c0,0 -0.15,0.1 -0.42,0.21c-1.86,0.87 -9.51,4.62 -12.45,8.76l0,0l0,-0.1c0,0 0.87,-0.3 1.8,-0.6c0.45,-0.15 0.93,-0.3 1.32,-0.42c0.39,-0.12 0.69,-0.18 0.81,-0.18l0.1,0l0,0.1c0,0 -0.1,0.1 -0.3,0.21c-1.29,0.96 -6.63,5.43 -8.94,15.15l-0.1,0l0,0c0,0 0.3,-0.42 0.72,-0.87c0.42,-0.45 0.93,-0.96 1.29,-1.14l0.1,0l0,0.1c0,0 -0.1,0.3 -0.21,0.81c-0.42,1.56 -1.23,5.04 -1.23,7.86c0,0.36 0,0.72 0.1,1.02l-0.1,0l0,-0.1c0,0 5.43,-5.31 9.27,-8.1c2.58,-1.86 8.55,-4.14 8.55,-4.14l0.1,0l0,0.1l-0.75,1.53l-0.1,0l0,-0.1c0,0 0.21,-0.1 0.51,-0.21c0.99,-0.45 3.27,-1.56 5.94,-3.42c2.43,-1.71 4.74,-5.16 5.82,-7.05l0.1,0l-0.1,0l0.1,0l-0.22,-0.31z"/>
   </g>
   <g id="svg_45">
    <path id="svg_46" fill="#999999" d="m-393.605389,1097.813821c-0.48,0.78 -3.66,5.25 -14.49,11.1c-6.51,3.48 -11.7,12.75 -13.17,16.92c0,0 4.5,-12 14.22,-17.01c6.03,-3.12 11.31,-7.41 13.41,-10.35l0,-0.66l0.03,0z"/>
   </g>
   <g id="svg_47">
    <path id="svg_48" fill="#999999" d="m-393.605389,1097.813821l0.1,0c-0.51,0.78 -3.69,5.28 -14.55,11.1c-6.45,3.48 -11.67,12.75 -13.14,16.92l0,0l-0.1,0c0,0 4.53,-12.03 14.25,-17.04c6.03,-3.15 11.31,-7.41 13.38,-10.35l0.1,0l-0.1,0l0,-0.66l0.1,0l0.1,0l-0.1,0l0.1,0l-0.1,0.66l0,0c-2.1,2.97 -7.38,7.23 -13.41,10.38c-4.86,2.49 -8.4,6.75 -10.74,10.35c-1.17,1.83 -2.04,3.48 -2.61,4.68c-0.3,0.6 -0.51,1.08 -0.63,1.44c-0.15,0.33 -0.24,0.51 -0.24,0.51l-0.1,0l0,-0.1c1.47,-4.2 6.66,-13.47 13.2,-16.98c10.83,-5.82 14.01,-10.29 14.46,-11.07l0.1,0l0,0.1l-0.1,0l0.03,0.06z"/>
   </g>
   <g id="svg_49">
    <path id="svg_50" fill="#999999" d="m-419.325369,1121.647821l-0.15,2.76l0.15,-2.76z"/>
   </g>
   <g id="svg_51">
    <path id="svg_52" fill="#999999" d="m-419.535369,1124.409821l0.15,-2.76l0.12,0l-0.15,2.76l-0.12,0z"/>
   </g>
   <g id="svg_53">
    <path id="svg_54" fill="#999999" d="m-417.485359,1118.657821l-0.36,4.2l0.36,-4.2z"/>
   </g>
   <g id="svg_55">
    <path id="svg_56" fill="#999999" d="m-417.915379,1122.868821l0.39,-4.23l0.1,0l-0.33,4.23l-0.15,0l-0.01,0z"/>
   </g>
   <g id="svg_57">
    <path id="svg_58" fill="#999999" d="m-415.705379,1116.092821l-0.42,5.22l0.42,-5.22z"/>
   </g>
   <g id="svg_59">
    <path id="svg_60" fill="#999999" d="m-416.195389,1121.295821l0.42,-5.22l0.12,0l-0.41,5.22l-0.13,0z"/>
   </g>
   <g id="svg_61">
    <path id="svg_62" fill="#999999" d="m-413.925379,1113.930811l-0.51,6l0.51,-6z"/>
   </g>
   <g id="svg_63">
    <path id="svg_64" fill="#999999" d="m-414.485389,1119.920821l0.51,-6l0.12,0l-0.51,6l-0.12,0z"/>
   </g>
   <g id="svg_65">
    <path id="svg_66" fill="#999999" d="m-408.845399,1109.688811l-0.61,7.11l0.61,-7.11z"/>
   </g>
   <g id="svg_67">
    <path id="svg_68" fill="#999999" d="m-409.495419,1116.795811l0.6,-7.11l0.1,0l-0.57,7.14l-0.12,0l-0.01,-0.03z"/>
   </g>
   <g id="svg_69">
    <path id="svg_70" fill="#999999" d="m-412.225379,1112.368821l-0.54,6.36l0.54,-6.36z"/>
   </g>
   <g id="svg_71">
    <path id="svg_72" fill="#999999" d="m-412.815399,1118.709821l0.54,-6.36l0.12,0l-0.54,6.36l-0.12,0z"/>
   </g>
   <g id="svg_73">
    <path id="svg_74" fill="#999999" d="m-410.515379,1110.609811l-0.61,7.14l0.61,-7.14z"/>
   </g>
   <g id="svg_75">
    <path id="svg_76" fill="#999999" d="m-411.165399,1117.737821l0.63,-7.14l0.1,0l-0.57,7.14l-0.12,0l-0.04,0z"/>
   </g>
   <g id="svg_77">
    <path id="svg_78" fill="#999999" d="m-407.205399,1108.830811l-0.59,7.11l0.59,-7.11z"/>
   </g>
   <g id="svg_79">
    <path id="svg_80" fill="#999999" d="m-407.845419,1115.926811l0.6,-7.14l0.1,0l-0.57,7.14l-0.12,0l-0.01,0z"/>
   </g>
   <g id="svg_81">
    <path id="svg_82" fill="#999999" d="m-405.535409,1107.775821l-0.65,7.56l0.65,-7.56z"/>
   </g>
   <g id="svg_83">
    <path id="svg_84" fill="#999999" d="m-406.225369,1115.306821l0.65,-7.56l0.1,0l-0.62,7.56l-0.12,0l-0.01,0z"/>
   </g>
   <g id="svg_85">
    <path id="svg_86" fill="#999999" d="m-403.855409,1106.771811l-0.78,9.06l0.78,-9.06z"/>
   </g>
   <g id="svg_87">
    <path id="svg_88" fill="#999999" d="m-404.695379,1115.844821l0.78,-9.03l0.12,0l-0.78,9.03l-0.12,0z"/>
   </g>
   <g id="svg_89">
    <path id="svg_90" fill="#999999" d="m-402.175419,1105.561811l-0.81,9.42l0.81,-9.42z"/>
   </g>
   <g id="svg_91">
    <path id="svg_92" fill="#999999" d="m-403.035379,1114.985821l0.8,-9.42l0.13,0l-0.81,9.45l-0.12,0l0,-0.03z"/>
   </g>
   <g id="svg_93">
    <path id="svg_94" fill="#999999" d="m-400.505369,1104.402821l-0.81,9.57l0.81,-9.57z"/>
   </g>
   <g id="svg_95">
    <path id="svg_96" fill="#999999" d="m-401.375399,1113.961811l0.81,-9.6l0.12,0l-0.8,9.57l-0.13,0l0,0.03z"/>
   </g>
   <g id="svg_97">
    <path id="svg_98" fill="#999999" d="m-398.855369,1103.295821l-0.78,9.45l0.78,-9.45z"/>
   </g>
   <g id="svg_99">
    <path id="svg_100" fill="#999999" d="m-399.695399,1112.740821l0.78,-9.45l0.12,0l-0.78,9.45l-0.12,0z"/>
   </g>
   <g id="svg_101">
    <path id="svg_102" fill="#999999" d="m-397.095369,1101.785811l-0.81,9.27l0.81,-9.27z"/>
   </g>
   <g id="svg_103">
    <path id="svg_104" fill="#999999" d="m-397.965399,1111.074811l0.81,-9.34l0.12,0l-0.81,9.31l-0.12,0l0,0.03z"/>
   </g>
   <g id="svg_105">
    <path id="svg_106" fill="#999999" d="m-395.405379,1100.213821l-0.78,9.03l0.78,-9.03z"/>
   </g>
   <g id="svg_107">
    <path id="svg_108" fill="#999999" d="m-396.245409,1109.264811l0.78,-9.04l0.12,0l-0.78,9.04l-0.12,0z"/>
   </g>
   <g id="svg_109">
    <path id="svg_110" fill="#999999" d="m-393.675389,1098.112811l-0.72,8.4l0.72,-8.4z"/>
   </g>
   <g id="svg_111">
    <path id="svg_112" fill="#999999" d="m-394.455419,1106.481811l0.71,-8.4l0.13,0l-0.72,8.4l-0.12,0z"/>
   </g>
   <g id="svg_113">
    <path id="svg_114" fill="#b2b2b2" d="m-423.795389,1128.599821c0,-0.3 0,-0.6 0,-0.9c0,-2.85 0.81,-6.33 1.2,-7.86c0.15,-0.54 0.21,-0.84 0.21,-0.84l0,-0.1l-0.1,0c-0.39,0.18 -0.9,0.69 -1.32,1.14c-0.24,0.27 -0.42,0.54 -0.57,0.69c2.34,-9.54 7.62,-13.95 8.91,-14.91c0.18,-0.12 0.27,-0.18 0.27,-0.18l0,-0.1l0,-0.1c-0.15,0 -0.45,0.1 -0.84,0.21c-0.39,0.1 -0.87,0.24 -1.32,0.42c-0.69,0.21 -1.32,0.42 -1.62,0.54c3,-4.11 10.5,-7.77 12.36,-8.64c0.27,-0.12 0.42,-0.18 0.42,-0.18l0,-0.1l-0.1,-0.1c-0.87,0 -3.3,0.48 -4.05,0.63c7.44,-5.76 14.94,-8.04 16.71,-8.52c0.15,0 0.27,-0.1 0.33,-0.1l0,0.63c-6.12,0.9 -15.72,7.26 -15.72,7.26l0,0.1l0.1,0c1.26,-0.33 2.19,-0.42 2.85,-0.42c0.57,0 0.9,0.1 1.08,0.12c-10.98,5.67 -13.02,8.55 -13.02,8.55l0,0.1l0.1,0c1.47,-0.75 3.18,-0.96 3.96,-0.99c0.1,0 0.12,0 0.15,0c-6.54,3.51 -10.11,14.58 -10.11,14.58l0,0.1l0.1,0c0.93,-0.99 1.65,-1.35 1.89,-1.47c-1.68,6.48 -1.77,10.02 -1.77,10.02l0.1,0l0.1,0c0,-0.1 0.27,-0.42 0.72,-0.9c0.36,-0.42 0.9,-0.96 1.56,-1.59l0,0l0.1,0c0,0 0,-0.1 0.1,-0.15c0.1,0 0.1,-0.1 0.15,-0.15c0.45,-0.39 0.93,-0.84 1.47,-1.32l0,0.15l0.1,0l0,-0.24c0.48,-0.42 0.99,-0.84 1.53,-1.29l0.1,0l0,-0.1c1.14,-0.93 2.43,-1.89 3.87,-2.85c3.09,-2.1 6.24,-3.33 7.62,-3.81c0.3,-0.12 0.51,-0.18 0.63,-0.21l-0.15,1.05l0,0l0.1,0c0,0 0.93,-0.1 5.25,-3.21c1.77,-1.29 3.24,-3 4.38,-4.56l0,0l0,-0.1c0.69,-0.93 1.23,-1.83 1.62,-2.52l0,0.6c-1.11,1.89 -3.39,5.31 -5.82,7.02c-2.67,1.86 -4.98,3 -5.94,3.42c-0.15,0.1 -0.3,0.12 -0.39,0.18l0.72,-1.41l0,-0.1l-0.1,0c0,0 -5.97,2.25 -8.52,4.11c-3.57,2.58 -8.52,7.35 -9.21,8.04"/>
   </g>
   <g id="svg_115">
    <path id="svg_116" fill="#999999" d="m-423.865399,1128.764821l0,-0.1c0,-0.3 0,-0.66 0,-1.02c0,-3.45 1.17,-7.83 1.38,-8.61c-0.36,0.21 -0.78,0.66 -1.17,1.08c-0.21,0.21 -0.39,0.45 -0.51,0.6c-0.15,0.18 -0.21,0.27 -0.21,0.27l-0.1,0l0,-0.1c2.37,-10.02 7.98,-14.49 9.09,-15.3c-0.15,0.1 -0.33,0.1 -0.57,0.15c-0.57,0.18 -1.35,0.42 -1.98,0.66c-0.63,0.21 -1.11,0.36 -1.11,0.36l-0.1,0l0,-0.1c3.09,-4.32 11.16,-8.19 12.69,-8.88c-0.57,0 -1.44,0.18 -2.25,0.3c-0.93,0.18 -1.71,0.36 -1.71,0.36l-0.1,0l0,-0.1c8.58,-6.78 17.31,-8.79 17.31,-8.79l0.1,0l0,0.1l0,0.75l0,0.1c-0.1,0 -0.18,0 -0.27,0c-3,0.51 -6.78,2.28 -9.87,3.93c-0.12,0.1 -0.24,0.12 -0.36,0.18c-1.44,0.78 -2.7,1.53 -3.63,2.1c-0.48,0.3 -0.9,0.57 -1.17,0.72c-0.1,0.1 -0.12,0.1 -0.15,0.12c1.11,-0.27 1.95,-0.33 2.55,-0.33c0.87,0 1.23,0.15 1.23,0.15l0.1,0l0,0.1c-5.55,2.88 -8.82,5.01 -10.71,6.45c-0.96,0.72 -1.56,1.26 -1.92,1.62c-0.15,0.15 -0.24,0.27 -0.33,0.36c1.95,-0.93 4.17,-0.93 4.17,-0.93l0.1,0l0,0.1c-3.3,1.68 -5.88,5.31 -7.62,8.55c-0.87,1.62 -1.56,3.15 -1.98,4.26c-0.15,0.36 -0.27,0.69 -0.39,0.93c0,0.15 -0.1,0.3 -0.12,0.39c0,0.12 -0.1,0.21 -0.1,0.27c1.08,-1.11 1.86,-1.35 1.86,-1.35l0.1,0l0,0.1c-0.21,0.84 -0.39,1.62 -0.57,2.37c-0.48,2.13 -0.78,3.84 -0.93,5.1c-0.15,0.87 -0.21,1.5 -0.24,1.95c0,0.18 0,0.33 0,0.45c0.12,-0.15 0.33,-0.42 0.63,-0.75c0.39,-0.45 0.96,-1.02 1.71,-1.74c0,0.1 -0.1,0.12 -0.1,0.18l0,0c-0.66,0.63 -1.17,1.17 -1.56,1.59c-0.45,0.48 -0.69,0.81 -0.72,0.93l-0.1,0l-0.1,-0.1c0,0 0.1,-3.54 1.77,-10.02c-0.24,0.12 -0.96,0.48 -1.89,1.47l-0.1,0l0,-0.1c0,0 3.57,-11.07 10.14,-14.55c-0.1,0 -0.12,0 -0.18,0c-0.75,0.1 -2.49,0.24 -3.96,0.99l-0.1,0l0,-0.1c0,0 2.04,-2.91 13.02,-8.58c-0.18,-0.1 -0.51,-0.12 -1.08,-0.12c-0.66,0 -1.59,0.1 -2.85,0.42l-0.1,0l0,-0.1c0,0 9.6,-6.33 15.72,-7.23l0,-0.66c-0.1,0 -0.18,0 -0.33,0.1c-1.77,0.48 -9.27,2.73 -16.71,8.52c0.75,-0.15 3.18,-0.66 4.05,-0.66l0.1,0.1l0,0.1c0,0 -0.15,0.1 -0.42,0.18c-1.86,0.87 -9.33,4.56 -12.36,8.64c0.3,-0.1 0.93,-0.33 1.62,-0.54c0.45,-0.15 0.93,-0.3 1.32,-0.42c0.39,-0.12 0.69,-0.18 0.84,-0.18l0,0l0,0.1c0,0 -0.12,0.1 -0.3,0.21c-1.29,0.93 -6.57,5.34 -8.91,14.88c0.12,-0.15 0.36,-0.42 0.57,-0.66c0.42,-0.48 0.93,-0.99 1.32,-1.17l0.1,0l0,0.1c0,0 -0.1,0.33 -0.24,0.84c-0.39,1.53 -1.2,5.01 -1.2,7.86c0,0.3 0,0.6 0,0.9c0.69,-0.66 5.64,-5.46 9.21,-8.04c2.55,-1.86 8.55,-4.11 8.55,-4.11l0.1,0l0,0.1l-0.72,1.38c0.1,0 0.21,-0.1 0.39,-0.15c0.96,-0.45 3.27,-1.56 5.94,-3.45c2.43,-1.68 4.71,-5.13 5.82,-7.02l0,-0.6c-0.39,0.72 -0.93,1.59 -1.59,2.55l0,-0.21c0.69,-0.99 1.23,-1.92 1.62,-2.61l0.1,0l0,0.1l0,0l-0.1,0.81l0,0l0,0l-0.1,0l0.1,0l0,0l0,0l-0.1,0l0.1,0l0,0c-1.11,1.89 -3.39,5.34 -5.85,7.05c-1.2,0.84 -2.28,1.53 -3.24,2.07c-1.92,1.08 -3.24,1.59 -3.24,1.59l-0.1,0l0,-0.1l0.72,-1.41c-0.18,0.1 -0.48,0.18 -0.87,0.33c-1.77,0.72 -5.64,2.34 -7.53,3.72c-1.92,1.38 -4.23,3.42 -6.09,5.1c-0.9,0.84 -1.71,1.59 -2.28,2.13c-0.57,0.57 -0.9,0.9 -0.9,0.9l-0.1,0l0.05,0.12z"/>
   </g>
   <g id="svg_117">
    <path id="svg_118" fill="null" d="m-421.165369,1125.713821c0,-0.1 0.1,-0.15 0.1,-0.24c0.48,-0.42 0.96,-0.87 1.53,-1.38l0,0.15c-0.54,0.48 -1.02,0.9 -1.47,1.32c-0.1,0.1 -0.1,0.1 -0.15,0.15"/>
   </g>
   <g id="svg_119">
    <path id="svg_120" fill="null" d="m-419.425369,1124.150821l0,-0.15c0.48,-0.42 0.99,-0.81 1.53,-1.26l0,0.12l0,0c-0.54,0.45 -1.05,0.9 -1.53,1.29"/>
   </g>
   <g id="svg_121">
    <path fill-opacity="0" id="svg_122" fill="#999999" d="m-417.785369,1122.795821l0,-0.15c1.11,-0.87 2.4,-1.83 3.81,-2.79c4.11,-2.79 8.34,-4.05 8.34,-4.05l0.1,0l0,0.1l-0.1,0.6l-0.1,0.45c0.3,-0.1 1.5,-0.51 5.16,-3.15c1.74,-1.29 3.21,-3 4.35,-4.56l0,0.1l0.1,0c-1.14,1.59 -2.61,3.3 -4.35,4.56c-4.35,3.18 -5.25,3.21 -5.28,3.21l0,0l0,-0.1l0.15,-1.05c-0.12,0 -0.33,0.12 -0.63,0.21c-1.41,0.51 -4.56,1.71 -7.62,3.81c-1.44,0.99 -2.76,1.95 -3.87,2.85"/>
   </g>
   <g id="svg_123">
    <path id="svg_124" fill="#b2b2b2" d="m-418.855409,1120.830821c0.39,-0.69 0.84,-1.44 1.29,-2.16l0,0.1c-0.48,0.72 -0.9,1.41 -1.29,2.07"/>
   </g>
   <g id="svg_125">
    <path id="svg_126" fill="#b2b2b2" d="m-417.475359,1118.637821l0,0l0,0c0.57,-0.84 1.14,-1.71 1.77,-2.55l0,0.18c-0.63,0.81 -1.2,1.59 -1.71,2.37"/>
   </g>
   <g id="svg_127">
    <path id="svg_128" fill="#b2b2b2" d="m-415.645369,1116.133821l0,0l-0.1,0c2.14,-2.88 4.77,-5.58 7.66,-7.14c10.23,-5.49 13.64,-9.78 14.42,-10.92l0,0.1l0,0l0,0.45c-0.42,0.57 -0.95,1.2 -1.61,1.86l0,-0.21l-0.1,0l-0.1,0l0,0.33c-0.48,0.48 -0.99,0.99 -1.55,1.5l0,-0.27l-0.1,0l0,0.36c-0.52,0.45 -1.05,0.9 -1.63,1.35l0,-0.18l-0.1,0l0,0.27c-0.5,0.39 -1.02,0.78 -1.56,1.17l0,-0.33l-0.1,0l-0.1,0l0,0.45c-0.51,0.36 -1.02,0.69 -1.56,1.05l0,-0.3l0,0l-0.1,0l0,0.39c-0.51,0.33 -1.02,0.66 -1.56,0.99l0,-0.15l-0.1,0l0,0l0,0.24c-0.51,0.33 -1.05,0.63 -1.57,0.93l0,-0.18l-0.1,0l-0.1,0l0,0.24c-0.49,0.27 -0.97,0.54 -1.47,0.78c0,0 -0.1,0 -0.1,0l-0.1,0l0,0.1c-0.54,0.3 -1.06,0.6 -1.56,0.9l0,-0.1l0,0l-0.1,0l0,0.18c-0.54,0.33 -1.07,0.72 -1.59,1.11l0,-0.36l-0.1,0l0,0l-0.1,0.45c-0.54,0.42 -1.05,0.87 -1.56,1.32l0,0l-0.1,0l0,0.1c-0.56,0.51 -1.11,1.05 -1.61,1.62l0,-0.15l0,0l0,0l0,0.3c-0.61,0.63 -1.14,1.26 -1.65,1.92"/>
   </g>
   <g id="svg_129">
    <path id="svg_130" fill="#999999" d="m-421.285369,1125.899811l0,0l0,0c1.47,-4.2 6.66,-13.47 13.17,-16.98c10.83,-5.85 14.04,-10.29 14.49,-11.07l0.1,0l0.1,0.1l-0.1,0l0.1,0l-0.1,0l0.1,0l-0.1,0.66l0,0c0,0 0,0.1 -0.1,0.1l0.1,-0.48l-0.1,0l0,0l0,-0.1c-0.78,1.14 -4.2,5.43 -14.43,10.92c-2.88,1.56 -5.52,4.26 -7.68,7.14c-0.63,0.84 -1.23,1.68 -1.77,2.55l0,0l0,0c-0.45,0.72 -0.9,1.47 -1.29,2.16c0.39,-0.66 0.81,-1.35 1.29,-2.07l0,0.24c-0.1,0.1 -0.1,0.15 -0.15,0.24c-0.6,0.9 -1.08,1.77 -1.53,2.55l0,-0.12l-0.1,0l0,0.36c-0.39,0.69 -0.72,1.35 -0.96,1.89c-0.3,0.6 -0.51,1.08 -0.66,1.41c0,0.1 0,0.1 -0.1,0.15c0,0.1 -0.1,0.18 -0.1,0.24l-0.1,0.15l-0.1,0l0.02,-0.04z"/>
   </g>
   <g id="svg_131">
    <path id="svg_132" fill="null" d="m-417.455359,1118.792821l0,-0.15l0,0c0.51,-0.78 1.08,-1.56 1.71,-2.37l0,0.21c-0.6,0.78 -1.14,1.56 -1.65,2.31"/>
   </g>
   <g id="svg_133">
    <path id="svg_134" fill="null" d="m-415.665369,1116.330811l0,-0.18c0.51,-0.67 1.05,-1.32 1.62,-1.95l0,0.18c-0.6,0.62 -1.14,1.29 -1.65,1.95"/>
   </g>
   <g id="svg_135">
    <path fill-opacity="0" id="svg_136" fill="#999999" d="m-413.905379,1114.250811l0,-0.18c0.54,-0.54 1.05,-1.08 1.62,-1.59l0,0.15c-0.57,0.54 -1.11,1.08 -1.62,1.62"/>
   </g>
   <g id="svg_137">
    <path fill-opacity="0" id="svg_138" fill="#999999" d="m-412.175379,1112.523821l0,-0.15l0,0c0.51,-0.45 1.02,-0.9 1.56,-1.32l0,0.15c-0.54,0.42 -1.05,0.87 -1.56,1.32"/>
   </g>
   <g id="svg_139">
    <path fill-opacity="0" id="svg_140" fill="#999999" d="m-410.495379,1111.116821l0,-0.16c0.51,-0.38 1.05,-0.74 1.59,-1.1l0,0.15c-0.21,0.12 -0.42,0.26 -0.63,0.41c-0.3,0.22 -0.63,0.46 -0.93,0.7"/>
   </g>
   <g id="svg_141">
    <path id="svg_142" fill="null" d="m-408.805389,1109.916821l0,-0.12c0.51,-0.33 1.02,-0.63 1.56,-0.9l0,0.12c-0.51,0.27 -1.02,0.57 -1.53,0.9"/>
   </g>
   <g id="svg_143">
    <path fill-opacity="0" id="svg_144" fill="#999999" d="m-407.155399,1108.944811l0,-0.12l0,0c0,0 0.1,0 0.1,-0.1c0.51,-0.24 0.96,-0.51 1.47,-0.78l0,0.15c-0.45,0.24 -0.93,0.51 -1.38,0.75c-0.1,0 -0.1,0 -0.15,0.1"/>
   </g>
   <g id="svg_145">
    <path fill-opacity="0" id="svg_146" fill="#999999" d="m-405.505399,1108.064811l0,-0.12c0.54,-0.3 1.05,-0.63 1.59,-0.93l0,0.15c-0.51,0.3 -1.02,0.6 -1.56,0.9"/>
   </g>
   <g id="svg_147">
    <path fill-opacity="0" id="svg_148" fill="#999999" d="m-403.825409,1107.081821l0,-0.12c0.54,-0.33 1.05,-0.66 1.56,-0.99l0,0.12c-0.51,0.33 -1.02,0.66 -1.56,0.99"/>
   </g>
   <g id="svg_149">
    <path id="svg_150" fill="null" d="m-402.155419,1106.016811l0,-0.15c0.54,-0.33 1.05,-0.69 1.56,-1.04l0,0.14c-0.51,0.33 -1.02,0.69 -1.56,1.05"/>
   </g>
   <g id="svg_151">
    <path fill-opacity="0" id="svg_152" fill="#999999" d="m-400.495369,1104.878821l0,-0.15c0.54,-0.4 1.08,-0.79 1.56,-1.18l0,0.16c-0.51,0.39 -1.02,0.78 -1.56,1.17"/>
   </g>
   <g id="svg_153">
    <path fill-opacity="0" id="svg_154" fill="#999999" d="m-398.815369,1103.616821l0,-0.15c0.6,-0.45 1.11,-0.9 1.62,-1.35l0,0.15c-0.51,0.45 -1.05,0.9 -1.62,1.35"/>
   </g>
   <g id="svg_155">
    <path fill-opacity="0" id="svg_156" fill="#999999" d="m-397.075369,1102.188811l0,-0.15c0.6,-0.52 1.11,-1.02 1.59,-1.5l0,0.18c-0.48,0.48 -1.02,0.96 -1.59,1.47"/>
   </g>
   <g id="svg_157">
    <path fill-opacity="0" id="svg_158" fill="#999999" d="m-395.385379,1100.595811l0,-0.19c0.66,-0.66 1.2,-1.29 1.62,-1.86l0,0.21c-0.45,0.58 -0.99,1.17 -1.62,1.84"/>
   </g>
   <g id="svg_159">
    <path fill-opacity="0" id="svg_160" fill="#999999" d="m-419.535369,1124.409821l0,-0.15l0,-0.18l0.12,-2.04l0,-0.39l0.12,0l0,0.15l-0.15,2.01l0,0.21l0,0.15l0,0.24l-0.12,0l0.03,0z"/>
   </g>
   <g id="svg_161">
    <path fill-opacity="0" id="svg_162" fill="#999999" d="m-417.895379,1122.868821l0,0l0.36,-3.9l0,-0.21l0,-0.1l0,-0.1l0,0l0.1,0l0,0.15l-0.27,3.63l0,0.21l0,0.15l0,0.1l-0.1,0l-0.09,0.07z"/>
   </g>
   <g id="svg_163">
    <path fill-opacity="0" id="svg_164" fill="#999999" d="m-416.135389,1121.295821l-0.1,0l0.42,-4.79l0,-0.21l0,-0.22l0.1,0l0,0l0,0.21l-0.39,4.8l0,0.17l0,0l-0.03,0.04z"/>
   </g>
   <g id="svg_165">
    <path fill-opacity="0" id="svg_166" fill="#999999" d="m-414.435389,1119.920821l-0.1,0l0.45,-5.52l0,-0.21l0,-0.27l0.1,0l0.1,0l0,0.15l0,0.18l-0.51,5.64l0,0l0,0l-0.04,0.03z"/>
   </g>
   <g id="svg_167">
    <path fill-opacity="0" id="svg_168" fill="#999999" d="m-409.445419,1116.795811l-0.1,0l0.57,-6.81l0,-0.12l0,-0.18l0.1,0l0.1,0l0,0.1l0,0.15l-0.54,6.54l0,0.36l-0.1,0l-0.03,-0.04z"/>
   </g>
   <g id="svg_169">
    <path id="svg_170" fill="#73a5c1" d="m-412.765399,1118.709821l0.1,0l-0.1,0zm0.6,-6.18l-0.54,6.18l0.54,-6.18z"/>
   </g>
   <g id="svg_171">
    <path fill-opacity="0" id="svg_172" fill="#999999" d="m-412.765399,1118.709821l-0.1,0l0.54,-6.06l0,-0.18l0,-0.12l0.1,0l0.1,0l0,0.15l-0.54,6.18l-0.1,0l0,0.03z"/>
   </g>
   <g id="svg_173">
    <path fill-opacity="0" id="svg_174" fill="#999999" d="m-411.165399,1117.737821l0.57,-6.54l0,-0.15l0.1,-0.45l0,0l0,0l0,0.36l0,0.15l-0.54,6.63l-0.12,0l-0.01,0z"/>
   </g>
   <g id="svg_175">
    <path id="svg_176" fill="#b2b2b2" d="m-407.795419,1115.926811l0.1,0l-0.1,0zm0.66,-6.96l-0.6,6.99l0.6,-6.99z"/>
    <path id="svg_177" fill="#b2b2b2" d="m-407.795419,1115.926811l-0.1,0l0.57,-6.9l0,-0.15l0,-0.1l0.12,0l0,0.15l-0.6,6.99l-0.1,0l0.11,0.01z"/>
   </g>
   <g id="svg_178">
    <path id="svg_179" fill="#80b1c7" d="m-406.175369,1115.336821l0.1,0l-0.1,0zm0.66,-7.26l-0.6,7.26l0.6,-7.26z"/>
   </g>
   <g id="svg_180">
    <path fill-opacity="0" id="svg_181" fill="#999999" d="m-406.175369,1115.336821l-0.1,0l0.63,-7.17l0,-0.15l0,-0.24l0.1,0l0,0l0,0.15l0,0.15l-0.63,7.26l0,0z"/>
   </g>
   <g id="svg_182">
    <path fill-opacity="0" id="svg_183" fill="#999999" d="m-404.695379,1115.844821l0.75,-8.7l0,-0.12l0,-0.21l0.1,0l0.1,0l0,0.12l0,0.15l-0.75,8.76l-0.12,0l-0.08,0z"/>
   </g>
   <g id="svg_184">
    <path fill-opacity="0" id="svg_185" fill="#999999" d="m-403.035379,1114.985821l0.77,-8.88l0,-0.15l0,-0.39l0.1,0l0,0l0,0.33l0,0.12l-0.78,9l-0.12,0l0.03,-0.03z"/>
   </g>
   <g id="svg_186">
    <path id="svg_187" fill="#999999" d="m-401.375399,1113.961811l0.76,-9l0,-0.15l0,-0.45l0.1,0l0.1,0l0,0.33l0,0.18l-0.74,9.06l-0.13,0l-0.09,0.03z"/>
   </g>
   <g id="svg_188">
    <path fill-opacity="0" id="svg_189" fill="#999999" d="m-399.695399,1112.740821l0.75,-9.03l0,-0.15l0,-0.27l0.12,0l0,0.18l0,0.15l-0.75,9.12l-0.12,0z"/>
   </g>
   <g id="svg_190">
    <path id="svg_191" fill="#80b1c7" d="m-397.915399,1111.043811l0.1,0l-0.1,0zm0.81,-8.85l-0.75,8.88l0.75,-8.88z"/>
   </g>
   <g id="svg_192">
    <path fill-opacity="0" id="svg_193" fill="#999999" d="m-397.915399,1111.074811l-0.1,0l0.75,-8.77l0,-0.18l0,-0.39l0.12,0l0,0.27l0,0.15l-0.81,8.89l0,0l0.04,0.03z"/>
   </g>
   <g id="svg_194">
    <path fill-opacity="0" id="svg_195" fill="#999999" d="m-396.155399,1109.264811l-0.1,0l0.75,-8.56l0,-0.17l0,-0.31l0.1,0l0.1,0l0,0.19l0,0.18l-0.69,8.37l0,0.1l0,0.2l0,0l0,0l-0.16,0z"/>
   </g>
   <g id="svg_196">
    <path fill-opacity="0" id="svg_197" fill="#999999" d="m-394.405419,1106.502821l0,0l0.66,-7.71l0,-0.24l0,-0.45l0.1,0l0.1,0l0,0.45l-0.66,7.65l0,0.3l-0.1,0l-0.1,0z"/>
   </g>
  </g>
 </g>
</svg>