<svg width="400" height="400" xmlns="http://www.w3.org/2000/svg">
 <title>Artboard 3</title>

 <g>
  <title>background</title>
  <rect fill="none" id="canvas_background" height="402" width="402" y="-1" x="-1"/>
 </g>
 <g>
  <title>Layer 1</title>
  <g stroke="null" id="svg_10">
   <path fill="#ffffff" stroke="null" id="svg_7" d="m268.623858,89.532329l-3.347505,0a25.039337,25.039337 0 0 0 -24.035086,18.210427l-169.517651,54.966031a18.946878,18.946878 0 0 0 -17.942627,-12.921369l-2.142403,0a19.013828,19.013828 0 0 0 -19.013828,19.013828l0,49.074423a19.013828,19.013828 0 0 0 19.013828,18.946878l2.142403,0a18.946878,18.946878 0 0 0 18.143477,-13.72477l54.430431,22.629134l0,15.197673a16.068024,16.068024 0 0 0 16.068024,16.068024l37.492056,0a13.39002,13.39002 0 0 0 10.109465,-4.686507l51.685477,21.557932a25.039337,25.039337 0 0 0 23.566435,16.603625l3.347505,0a25.106287,25.106287 0 0 0 25.106287,-25.106287l0,-170.722753a25.106287,25.106287 0 0 0 -25.106287,-25.106287zm-195.82904,87.035129l167.375248,-54.22958l0,156.328482l-167.375248,-69.762003l0,-32.336898zm-19.013828,46.865069l-2.142403,0a5.623808,5.623808 0 0 1 -5.623808,-5.623808l0,-49.007473a5.623808,5.623808 0 0 1 5.623808,-5.623808l2.142403,0a5.623808,5.623808 0 0 1 5.623808,5.623808l0,44.588766l0,0l0,4.418707a5.623808,5.623808 0 0 1 -5.623808,5.623808zm88.641931,40.17006a2.678004,2.678004 0 0 1 -2.678004,-2.678004l0,-9.573864l29.458044,12.251868l-26.78004,0zm137.917204,21.758782a11.716267,11.716267 0 0 1 -11.716267,11.716267l-3.347505,0a11.716267,11.716267 0 0 1 -11.716267,-11.716267l0,-170.722753a11.716267,11.716267 0 0 1 11.716267,-11.716267l3.347505,0a11.716267,11.716267 0 0 1 11.716267,11.716267l0,170.722753zm80.340119,-88.708881l-46.865069,0a6.69501,6.69501 0 0 0 0,13.39002l46.865069,0a6.69501,6.69501 0 0 0 0,-13.39002zm-48.204071,-24.905437a6.69501,6.69501 0 0 0 4.686507,-1.874603l35.349652,-35.349652a6.69501,6.69501 0 0 0 -9.439964,-9.439964l-35.349652,35.349652a6.69501,6.69501 0 0 0 4.753457,11.314567zm4.753457,65.544147a6.69501,6.69501 0 0 0 -9.439964,9.439964l35.349652,35.349652a6.69501,6.69501 0 0 0 9.439964,-9.439964l-35.349652,-35.349652z"/>
  </g>
 </g>
</svg>