<svg width="769.00001" height="150" xmlns="http://www.w3.org/2000/svg">
 <metadata id="metadata3378">image/svg+xml</metadata>

 <g>
  <title>background</title>
  <rect x="-1" y="-1" width="771.00001" height="152" id="canvas_background" fill="none"/>
 </g>
 <g>
  <title>Layer 1</title>
  <g id="layer1">
   <g id="layer1-8">
    <g transform="matrix(1.005379,0,0,1.005379,-23.485644,82.69573) " id="g4620">
     <g id="g4616">
      <path d="m94.1659,66.79814c-10.53457,-0.61116 -20.35928,-3.20251 -29.51693,-7.78507c-11.47365,-5.74158 -21.45703,-14.55836 -28.64193,-25.29505c-1.88702,-2.81983 -3.31022,-5.28091 -4.83911,-8.36793c-4.50579,-9.09782 -7.01266,-18.61626 -7.61566,-28.9161c-0.18079,-3.08797 -0.09058,-7.86859 0.21074,-11.16931c2.04238,-22.37249 14.28011,-42.79478 33.10802,-55.25068c10.86332,-7.18677 22.76524,-11.23024 36.01247,-12.23453c2.20609,-0.16725 8.76055,-0.14287 10.92111,0.0407c6.28927,0.53413 11.82668,1.6272 17.32119,3.41918c9.77524,3.18809 18.31859,8.06026 26.28045,14.9874c1.59015,1.3835 5.30226,5.10173 6.76385,6.77502c14.08066,16.11994 20.52349,36.93618 18.00846,58.18388c-1.69431,14.31413 -7.52105,27.79802 -16.81785,38.91896c-8.82722,10.55922 -20.47021,18.53231 -33.42315,22.88815c-6.02982,2.02773 -11.77505,3.17562 -18.67075,3.73036c-1.43248,0.11524 -7.54044,0.16565 -9.10091,0.0749l0,0.00012z" id="path4614" fill="none"/>
      <path id="path4612" d="m94.1659,66.79814c-10.53457,-0.61116 -20.35928,-3.20251 -29.51693,-7.78507c-11.47365,-5.74158 -21.45703,-14.55836 -28.64193,-25.29505c-1.88702,-2.81983 -3.31022,-5.28091 -4.83911,-8.36793c-4.50579,-9.09782 -7.01266,-18.61626 -7.61566,-28.9161c-0.18079,-3.08797 -0.09058,-7.86859 0.21074,-11.16931c2.04238,-22.37249 14.28011,-42.79478 33.10802,-55.25068c10.86332,-7.18677 22.76524,-11.23024 36.01247,-12.23453c2.20609,-0.16725 8.76055,-0.14287 10.92111,0.0407c6.28927,0.53413 11.82668,1.6272 17.32119,3.41918c9.77524,3.18809 18.31859,8.06026 26.28045,14.9874c1.59015,1.3835 5.30226,5.10173 6.76385,6.77502c14.08066,16.11994 20.52349,36.93618 18.00846,58.18388c-1.69431,14.31413 -7.52105,27.79802 -16.81785,38.91896c-8.82722,10.55922 -20.47021,18.53231 -33.42315,22.88815c-6.02982,2.02773 -11.77505,3.17562 -18.67075,3.73036c-1.43248,0.11524 -7.54044,0.16565 -9.10091,0.0749l0,0.00012zm-32.92597,-56.13365c3.72032,-6.37062 6.84258,-11.73344 6.93833,-11.91733c0.43303,-0.83159 2.89376,-5.00207 2.9514,-5.00207c0.03542,0 0.17126,0.0899 0.30184,0.1998c0.56851,0.47835 2.2136,1.60401 3.21919,2.20272c3.97244,2.36512 7.98753,3.72168 12.77225,4.31539c1.15764,0.1436 5.53798,0.14409 6.7016,0c6.63902,-0.81807 12.33084,-3.31382 17.25354,-7.56532c0.89349,-0.77168 3.18215,-3.07967 3.18215,-3.20908c0,-0.0357 -1.35838,-1.29594 -3.01861,-2.80006l-3.01863,-2.73473l-1.30431,1.30576c-0.71739,0.71817 -1.62078,1.55609 -2.00758,1.86203c-3.26269,2.58085 -6.84882,4.13649 -11.12793,4.82729c-1.30671,0.21094 -5.31217,0.21094 -6.61886,0c-5.01573,-0.80971 -9.17894,-2.84843 -12.66754,-6.20326l-0.83974,-0.80751l-3.69925,0.0214l-3.69924,0.0214l-9.59907,16.42306c-5.27946,9.03266 -9.60419,16.47098 -9.61049,16.5297c-0.01332,0.12435 6.99531,4.25651 7.07393,4.17058c0.02905,-0.0319 3.09674,-5.27013 6.81702,-11.64073l0,0.00096zm83.27058,3.43355l-75.2894,0l0,8.27354l75.2894,0l0,-8.27354zm-7.73578,-10.62124c2.19686,-1.27636 3.30625,-1.96571 3.29999,-2.05043c-0.005,-0.0703 -6.85573,-11.87852 -15.22335,-26.24064l-15.21391,-26.11289l-3.59901,0l-3.59899,0l-8.31492,14.27996c-4.57323,7.85401 -8.35791,14.35942 -8.41045,14.45645c-0.09092,0.1679 0.07269,0.27439 3.38276,2.20289c1.91305,1.11461 3.52416,2.03762 3.58023,2.05115c0.0591,0.0142 2.87754,-4.74097 6.7058,-11.31406c3.6321,-6.23635 6.62476,-11.33776 6.65038,-11.33649c0.0257,0 6.11253,10.40551 13.52648,23.12055l13.47989,23.11836l0.21285,-0.12573c0.11704,-0.0691 1.70207,-0.99097 3.52225,-2.04846l0,-0.00066z" fill="#ffffff"/>
     </g>
     <path id="path4097" d="m363.68316,64.76565c-4.63472,-0.65617 -7.8052,-2.64665 -9.38798,-5.89391c-0.3459,-0.70962 -0.91171,-2.47498 -0.91245,-2.84678c0,-0.0967 0.54791,-0.12517 2.40503,-0.12517l2.40518,0l0.18055,0.57569c0.93331,2.9773 3.80248,4.52587 8.39249,4.52959c5.77037,0.006 9.00705,-2.64089 9.53544,-7.79409c0.1207,-1.18249 0.14461,-5.42092 0.0313,-5.42065c-0.0417,0 -0.21021,0.21409 -0.37452,0.47556c-0.45667,0.72627 -1.92287,2.11418 -2.9601,2.80205c-2.39133,1.58573 -4.5417,2.19939 -7.34482,2.09602c-4.68587,-0.1728 -8.48849,-2.3615 -10.8746,-6.25902c-0.9375,-1.53126 -1.64001,-3.58974 -1.90899,-5.59333c-0.17534,-1.30615 -0.0639,-4.6358 0.19427,-5.81428c0.6183,-2.82048 2.03126,-5.5153 3.88717,-7.41409c1.87754,-1.92092 4.65396,-3.31462 7.53953,-3.78467c1.43353,-0.23351 3.96514,-0.14013 5.26003,0.19414c2.58647,0.66754 4.62994,2.0285 6.04141,4.02343l0.56596,0.79993l0.0268,-2.32673l0.0268,-2.32675l2.32094,0l2.32078,0l0,14.55741c0,14.00195 -0.0149,14.60074 -0.19783,15.69369c-0.91528,5.25805 -4.29644,8.51725 -10.07292,9.70973c-1.29458,0.26724 -5.60608,0.35361 -7.09924,0.14218l-0.00023,0.00005zm5.75636,-15.76497c3.12367,-0.80259 5.51991,-3.08653 6.50436,-6.19938c0.42149,-1.33298 0.56492,-2.39 0.56448,-4.16016c-0.00094,-3.79751 -0.92111,-6.33627 -3.00172,-8.28212c-1.76884,-1.65424 -3.8967,-2.36365 -6.79375,-2.26487c-2.77088,0.0944 -4.53021,0.83795 -6.27848,2.65344c-1.28742,1.33692 -2.05018,2.86403 -2.5237,5.05327c-0.181,0.83696 -0.22334,1.36786 -0.22916,2.87843c-0.0149,1.98937 0.094,2.80241 0.52138,4.15495c0.50527,1.60104 1.29354,2.88561 2.46706,4.0207c1.22554,1.18543 2.5659,1.89887 4.27719,2.27681c1.03784,0.22924 3.35297,0.16168 4.49234,-0.13112l0,0.00005zm332.75673,-4.46441l0,-19.87367l2.37133,0l2.3715,0l0.0268,2.41817l0.0268,2.41812l0.52435,-0.69923c1.46246,-1.95014 4.02345,-3.59788 6.68567,-4.30146c2.00099,-0.52886 4.97764,-0.412 7.17349,0.28168c2.43799,0.77011 4.72925,2.35831 6.21393,4.30709c1.4741,1.9349 2.46377,4.47142 2.83249,7.25961c0.19546,1.47894 0.19426,4.29759 0,5.78683c-0.87354,6.60666 -4.66306,11.05059 -10.47011,12.27841c-0.8412,0.17783 -1.37897,0.22055 -2.80773,0.223c-1.84311,0.002 -2.43142,-0.0714 -3.90686,-0.49528c-2.27636,-0.65403 -4.44806,-2.17448 -5.76873,-4.03886l-0.52421,-0.74003l0,7.52466l0,7.52462l-2.37328,0l-2.37327,0l0,-19.87366l-0.00217,0zm15.92366,6.15038c3.14647,-0.42654 5.38959,-2.1857 6.59411,-5.17172c1.1771,-2.918 1.32559,-7.74705 0.33486,-10.89046c-1.11135,-3.5263 -3.50698,-5.79384 -6.77914,-6.41673c-1.04946,-0.19979 -2.80327,-0.17799 -3.90446,0.0484c-4.06399,0.83593 -6.55043,3.60446 -7.33794,8.17036c-0.18145,1.05196 -0.20098,1.488 -0.15656,3.50417c0.0388,1.78793 0.0954,2.50422 0.25197,3.20382c0.82688,3.70358 2.80222,6.07794 5.91307,7.10757c1.4951,0.49482 3.45106,0.66583 5.08409,0.44449l0,0.0001zm-464.11005,3.94932c-3.02195,-0.38194 -5.08244,-1.40341 -6.58741,-3.26569c-0.94942,-1.17484 -1.57504,-2.54394 -2.02491,-4.43115c-0.21087,-0.88451 -0.2154,-1.09734 -0.2482,-11.58879l-0.0333,-10.68774l2.32128,0l2.32128,0l0.0362,10.08703c0.0353,9.87643 0.0408,10.10657 0.25206,11.02534c0.57383,2.49493 1.94437,3.97014 4.26602,4.59178c0.9298,0.24892 3.62059,0.24879 4.53227,0c1.65395,-0.45182 2.68649,-1.02967 3.81226,-2.13341c0.70857,-0.69473 0.89603,-0.95545 1.33187,-1.85222c0.91656,-1.88587 0.86132,-1.14475 0.90048,-12.08181l0.0344,-9.63647l2.36939,0l2.36943,0l0,14.76759l0,14.76758l-2.37322,0l-2.37324,0l-0.001,-2.32779l-0.001,-2.32776l-0.31566,0.50059c-1.43035,2.26828 -3.6735,3.77691 -6.49722,4.36972c-0.88729,0.18624 -3.32878,0.31961 -4.09002,0.22343l-0.00176,-0.00023zm61.45141,-0.0462c-3.29301,-0.39518 -6.17683,-1.74225 -8.33544,-3.89365c-1.95673,-1.95012 -3.27725,-4.58728 -3.85601,-7.7006c-0.31234,-1.68009 -0.31082,-5.33462 0.002,-7.03721c0.76526,-4.15255 2.91465,-7.59427 5.995,-9.59953c1.53094,-0.99661 2.89072,-1.54862 4.84282,-1.96588c1.19712,-0.2559 4.50074,-0.25469 5.79419,0.002c4.69106,0.93142 8.0116,3.80354 9.49301,8.21107c0.63634,1.89317 0.95599,4.09461 0.95823,6.59884l0.00093,1.1764l-11.22494,0l-11.22493,0l0.0626,0.94546c0.13135,1.98227 0.69946,3.96839 1.55015,5.41945c0.65861,1.12336 1.95067,2.372 3.01264,2.91134c1.67443,0.85037 2.80472,1.08896 5.09992,1.07649c1.4104,-0.008 1.95623,-0.0523 2.70295,-0.22116c1.39275,-0.31489 2.51827,-0.87639 3.34741,-1.66997c0.76359,-0.73085 1.14512,-1.34894 1.48092,-2.39916l0.22572,-0.70606l2.33228,-0.0271c2.70773,-0.0311 2.48272,-0.16583 2.07595,1.24214c-1.14868,3.976 -4.41794,6.64419 -9.13558,7.45585c-1.35551,0.23324 -3.99887,0.3252 -5.20091,0.18091l0.00109,0.00037zm10.04775,-18.08804c-0.002,-0.29887 -0.33556,-2.183 -0.4729,-2.6741c-0.82333,-2.94417 -2.59199,-4.75866 -5.33335,-5.47164c-1.02949,-0.26776 -3.17807,-0.36569 -4.25237,-0.1939c-1.70303,0.27236 -3.07356,0.93044 -4.25515,2.0432c-0.86566,0.81522 -1.46318,1.60844 -1.97128,2.61705c-0.43725,0.86797 -0.95926,2.46467 -1.0466,3.20141l-0.0656,0.55306l8.69888,0c4.78441,0 8.69864,-0.0338 8.69833,-0.0751l0.00004,0.00002zm106.03832,18.09314c-1.6512,-0.20074 -3.38323,-0.68142 -4.71301,-1.30789c-3.05746,-1.44055 -5.51973,-4.12928 -6.72978,-7.34903c-0.68283,-1.81661 -0.96942,-3.37712 -1.04931,-5.71328c-0.17804,-5.19817 1.23344,-9.22019 4.30448,-12.26626c2.5732,-2.5524 5.73592,-3.79637 9.65202,-3.79637c2.38461,0 4.35144,0.42279 6.26656,1.34703c3.58974,1.73249 5.8555,4.84743 6.70669,9.22c0.23958,1.2309 0.43445,3.63828 0.38868,4.80126l-0.0313,0.80094l-11.19975,0.0255l-11.19978,0.0254l0.0657,1.02579c0.11929,1.85821 0.72817,3.96927 1.55387,5.38098c0.5834,0.9975 2.01886,2.36938 3.0063,2.87307c1.92332,0.98115 4.15301,1.3274 6.61738,1.02762c1.30414,-0.15866 2.08016,-0.37235 3.084,-0.8492c0.74548,-0.35407 1.03875,-0.56439 1.57936,-1.13246c0.7097,-0.74593 1.21198,-1.62984 1.41727,-2.49472l0.12523,-0.52562l2.34927,0c2.72007,0 2.49806,-0.12831 2.10355,1.21525c-1.1908,4.05701 -4.3996,6.69115 -9.143,7.50577c-1.33961,0.23008 -4.00154,0.32622 -5.15357,0.1862l-0.00086,0.00002zm9.93024,-18.09314c0.0521,-0.0878 -0.16624,-1.6719 -0.32189,-2.32778c-0.5685,-2.39638 -1.92912,-4.27629 -3.75105,-5.18253c-1.20901,-0.60135 -2.20062,-0.83476 -3.81577,-0.89831c-2.01916,-0.0795 -3.48639,0.22428 -4.90666,1.01561c-2.28322,1.27225 -3.91654,3.84118 -4.54139,7.1427l-0.0612,0.32539l8.67651,0c4.77204,0 8.69679,-0.0338 8.72169,-0.0751l-0.00024,0.00002zm107.92327,18.13713c-3.69634,-0.43584 -6.4395,-1.69298 -8.79877,-4.03251c-2.7572,-2.73421 -4.15001,-6.11372 -4.29658,-10.42525c-0.0866,-2.55717 0.14313,-4.33525 0.82583,-6.37238c1.41877,-4.23524 4.50009,-7.37644 8.66532,-8.83352c1.76125,-0.61611 2.70724,-0.75578 5.11899,-0.75578c2.41173,0 3.35774,0.13968 5.11898,0.75578c4.89399,1.71196 8.31839,5.81872 9.22338,11.06114c0.79661,4.61469 -0.0327,9.12336 -2.29873,12.49864c-2.08955,3.11245 -5.39687,5.21778 -9.29048,5.91401c-0.8604,0.15386 -3.55633,0.2738 -4.26794,0.18987zm2.99708,-3.95218c1.04246,-0.14131 2.42784,-0.60387 3.36518,-1.12367c1.0474,-0.58077 2.61661,-2.14466 3.22551,-3.21442c1.10627,-1.94409 1.51777,-3.60565 1.58918,-6.41778c0.0567,-2.23039 -0.0611,-3.326 -0.52406,-4.90528c-0.56895,-1.93711 -1.39373,-3.29454 -2.80891,-4.62254c-0.9897,-0.92874 -2.11998,-1.56359 -3.55814,-1.99846c-0.83402,-0.25214 -1.04128,-0.2735 -2.72051,-0.28035c-1.59873,-0.008 -1.92049,0.0204 -2.66952,0.22327c-3.16973,0.85872 -5.30906,2.93813 -6.40612,6.22697c-0.52883,1.58537 -0.69656,2.75451 -0.69656,4.8558c0,2.72661 0.45817,4.82263 1.45515,6.65793c1.84459,3.39548 5.59012,5.16224 9.7488,4.59853zm61.88791,3.91008c-3.42172,-0.36041 -6.41789,-1.7709 -8.62583,-4.0605c-1.86219,-1.93108 -3.0014,-4.15592 -3.66204,-7.15134c-0.21186,-0.96074 -0.23153,-1.29692 -0.22991,-3.90464c0,-3.18903 0.0925,-3.8583 0.81407,-6.00717c1.36704,-4.07262 4.35352,-7.19218 8.17735,-8.5416c1.60348,-0.56587 2.647,-0.71942 4.88967,-0.71942c2.21658,0 2.89122,0.0909 4.58238,0.6168c3.15289,0.98062 5.64693,3.08948 7.12864,6.02785c0.49453,0.98072 1.08896,2.85316 1.32528,4.17515c0.15073,0.84295 0.22945,1.80601 0.26732,3.27197l0.0536,2.07749l-11.22316,0c-11.0811,0 -11.22318,0.002 -11.22318,0.19632c0,0.66313 0.26522,2.42233 0.51198,3.39599c0.69313,2.73539 2.21359,4.75098 4.39125,5.82122c2.60601,1.28079 6.80016,1.32035 9.40543,0.0888c1.56594,-0.74028 2.61094,-2.02783 3.0603,-3.77035l0.11024,-0.42551l2.37119,0l2.37118,0l-0.0626,0.27534c-0.51451,2.2835 -1.34645,3.84944 -2.80819,5.28592c-0.88711,0.87177 -1.60558,1.38008 -2.78894,1.97307c-2.29694,1.15097 -5.79481,1.69516 -8.83649,1.37478l0.00046,-0.00017zm9.84643,-18.30719c0,-0.44937 -0.28998,-1.99377 -0.51929,-2.76639c-0.59309,-1.99812 -1.96237,-3.73027 -3.58853,-4.5397c-1.40373,-0.69865 -2.21881,-0.86368 -4.27422,-0.86529c-1.53745,0 -1.86963,0.0281 -2.55354,0.22451c-1.67208,0.48048 -3.06371,1.38365 -4.17312,2.70833c-0.94974,1.13416 -1.97386,3.47314 -2.21301,5.0546l-0.0716,0.47118l8.69647,0l8.69648,0l0.00036,-0.28724zm123.05435,18.30719c-6.69699,-0.70543 -11.46755,-5.36244 -12.41861,-12.1232c-0.20665,-1.46818 -0.20501,-4.57925 0,-5.98402c0.28565,-1.92875 0.73517,-3.3841 1.53431,-4.96874c1.85474,-3.67751 4.91488,-6.09 8.91193,-7.02587c1.41848,-0.33213 4.10426,-0.42671 5.60474,-0.19734c4.76146,0.72772 8.15632,3.31728 9.85062,7.51376c0.81227,2.01198 1.11015,3.63694 1.18082,6.44247l0.0536,2.12753l-11.23496,0l-11.23481,0l0.0687,0.77592c0.54001,6.11217 3.52398,9.33471 8.8927,9.60352c4.48906,0.22469 7.5334,-1.38894 8.39128,-4.44773l0.17534,-0.62539l2.35673,0c1.29622,0 2.35657,0.0263 2.35657,0.0585c0,0.0321 -0.0909,0.41179 -0.20218,0.84373c-0.73414,2.8506 -2.51311,5.09199 -5.15014,6.48896c-2.36596,1.25334 -5.96956,1.85188 -9.13945,1.51797l0.00281,-0.00007zm9.8463,-18.30719c0,-0.46061 -0.2879,-2.00539 -0.51556,-2.76639c-0.11479,-0.38546 -0.39824,-1.08379 -0.62859,-1.55184c-0.57939,-1.17722 -1.87948,-2.47962 -3.02915,-3.03462c-1.37657,-0.66449 -2.08148,-0.80205 -4.15822,-0.81162c-1.60275,-0.008 -1.91077,0.0184 -2.60406,0.2176c-2.72469,0.78293 -4.6738,2.66862 -5.79034,5.60195c-0.23245,0.61095 -0.63635,2.188 -0.64187,2.50701c0,0.0992 1.80091,0.12516 8.68277,0.12516l8.68502,0l0,-0.28725zm18.19837,18.3025c-2.65178,-0.29826 -4.93962,-1.19183 -6.55565,-2.56053c-1.64734,-1.39533 -2.80669,-3.73822 -3.0415,-6.14705l-0.0776,-0.79754l2.29797,0l2.29799,0l0.064,0.37544c0.48083,2.84409 1.78822,4.35402 4.37546,5.05323c0.64632,0.1747 1.07317,0.20931 2.63939,0.21401c1.59725,0.006 1.99623,-0.0261 2.75019,-0.21317c2.33972,-0.58037 3.45643,-1.76838 3.6659,-3.89995c0.1342,-1.36737 -0.26434,-2.53707 -1.14234,-3.3513c-0.99803,-0.92543 -2.5422,-1.49111 -5.82927,-2.13521c-3.94621,-0.77333 -5.96269,-1.46663 -7.58604,-2.60817c-1.6099,-1.13215 -2.41562,-2.59702 -2.66653,-4.84846c-0.26182,-2.34921 0.25137,-4.24402 1.60781,-5.93613c1.03739,-1.29422 2.97175,-2.52575 4.80725,-3.06069c2.53965,-0.74013 5.70626,-0.68133 8.25068,0.15325c1.34871,0.44235 2.39953,1.04611 3.33105,1.91387c1.45769,1.35802 2.29367,3.06359 2.74617,5.60311l0.0582,0.32538l-2.2962,0l-2.29635,0l-0.12521,-0.52562c-0.20577,-0.85947 -0.77932,-1.93531 -1.35184,-2.53546c-0.63738,-0.66799 -1.60381,-1.15871 -2.73171,-1.38692c-1.01934,-0.20621 -2.90404,-0.20503 -3.84706,0.002c-1.60856,0.35392 -2.89346,1.25221 -3.4779,2.43153c-0.25302,0.51052 -0.27865,0.66388 -0.27865,1.66367c0.00014,1.31417 0.212,1.90549 0.91229,2.5455c0.96866,0.8852 2.34227,1.36798 5.85386,2.05745c5.36902,1.05408 7.18827,1.77574 8.81025,3.49481c0.66944,0.7094 1.20498,1.68501 1.4905,2.7151c0.26047,0.93983 0.31756,3.38654 0.10595,4.50537c-0.69644,3.66783 -3.41143,6.05695 -7.72964,6.80185c-1.15531,0.19935 -3.87106,0.28046 -5.02893,0.15024l-0.00249,0.00039zm-567.16188,-3.02248c0.5005,-1.44546 3.64647,-10.51251 6.99099,-20.14899l6.081,-17.52085l3.28053,-0.0258l3.28046,-0.0258l5.1504,15.09055c2.83274,8.29981 5.93115,17.37845 6.88544,20.17482l1.735,5.08426l-2.45519,0l-2.45519,0l-1.12529,-3.27891c-0.61891,-1.80338 -1.51675,-4.41649 -1.99519,-5.80693l-0.86988,-2.52799l-8.41051,0l-8.41054,0l-1.95148,5.80691l-1.95141,5.80692l-2.34459,0l-2.34456,0l0.91001,-2.62814l0,-0.00005zm23.11709,-13.00759c0,-0.14646 -6.87809,-20.43199 -6.95939,-20.52532c-0.0701,-0.0804 -7.06608,20.45755 -7.00606,20.56748c0.0225,0.0414 3.17395,0.0751 7.00321,0.0751c5.25268,0 6.96224,-0.0287 6.96224,-0.11725l0,-0.00001zm48.29566,0.94306c-2.95882,-8.08075 -5.37876,-14.72686 -5.37763,-14.76911c0.00093,-0.0423 1.14899,-0.0648 2.55086,-0.0502l2.54886,0.0268l4.26348,11.96422c2.3449,6.58034 4.31542,12.11371 4.37891,12.29636c0.0635,0.18265 0.14029,0.30748 0.17054,0.27745c0.0303,-0.03 1.9913,-5.56342 4.35773,-12.29633l4.30262,-12.2417l2.46042,-0.0268c1.952,-0.0214 2.45136,0 2.41651,0.1001c-0.0241,0.0697 -2.42654,6.71496 -5.33865,14.76694l-5.29471,14.64001l-3.02965,0.002l-3.02965,0.002l-5.37964,-14.69233l0,0.00059zm56.73221,-0.075l0,-14.76758l2.32108,0l2.32102,0l0.0268,2.61138l0.0268,2.61136l0.59191,-0.9128c1.41251,-2.17841 3.2905,-3.62513 5.58147,-4.2995c0.80302,-0.23638 2.48495,-0.50953 3.14289,-0.51043l0.42924,0l0,2.18787l0,2.18783l-0.88366,0.0667c-2.02693,0.15304 -3.90507,0.63819 -5.17565,1.33694c-0.36827,0.20248 -0.99416,0.69434 -1.42563,1.12035c-1.30456,1.28813 -1.9822,2.97388 -2.20435,5.48484c-0.0611,0.69456 -0.10436,4.57604 -0.10594,9.4164l-0.00095,8.23481l-2.32273,0l-2.32274,0l0,-14.76758l0.00044,-0.00059zm52.51401,0l0,-14.76758l2.32078,0l2.32079,0l0.0268,2.27771l0.0268,2.27771l0.49112,-0.74639c1.46633,-2.22886 4.10126,-3.77149 7.18407,-4.206c0.38885,-0.0548 1.27489,-0.10044 1.96923,-0.10134c5.13539,-0.006 8.50907,2.38359 9.7883,6.93426c0.55851,1.98666 0.55075,1.81666 0.58802,12.86191l0.0343,10.2372l-2.37401,0l-2.37404,0l-0.0343,-10.28726c-0.0388,-11.59333 0.0149,-10.85151 -0.83464,-12.59914c-0.89127,-1.8427 -2.39711,-2.76098 -4.99179,-3.04406c-2.83548,-0.30928 -5.54331,0.57183 -7.28204,2.36956c-1.2345,1.27651 -1.90886,2.78765 -2.10818,4.72407c-0.0657,0.64414 -0.1073,4.40785 -0.1073,9.93684l0,8.89999l-2.32275,0l-2.32272,0l0,-14.76759l0.00156,0.00011zm83.61831,-5.40643l0,-20.17402l7.11042,0c5.91321,0 7.32021,0.0268 8.35686,0.15937c5.37452,0.68722 9.01062,3.15766 10.34814,7.03061c0.59027,1.70904 0.80242,4.07754 0.53569,5.97903c-0.64706,4.61203 -3.64817,7.67022 -8.83946,9.00742c-0.543,0.13983 -1.00445,0.2713 -1.02533,0.29205c-0.0209,0.0207 2.75182,4.04092 6.1616,8.93363l6.19978,8.89587l-2.73454,0.0276c-2.56709,0.026 -2.74361,0.0165 -2.88586,-0.15932c-0.0834,-0.1029 -2.83113,-4.06874 -6.10629,-8.81309l-5.9548,-8.62615l-3.10888,0l-3.10892,0l0,8.8105l0,8.81048l-2.47421,0l-2.4742,0l0,-20.17402l0,0.00004zm15.09781,-1.49895c3.35612,-0.54115 5.32503,-2.12433 6.12969,-4.92877c0.30341,-1.05694 0.32875,-3.57799 0.0477,-4.76428c-0.5679,-2.40085 -2.19764,-3.98397 -4.76623,-4.62991c-1.50391,-0.37822 -2.62018,-0.44746 -7.21436,-0.44746l-4.34652,0l0,7.45887l0,7.45888l4.62027,0c3.57318,0 4.82616,-0.0335 5.52913,-0.14691l0.00032,-0.00042zm18.6324,-0.15301l0,-21.82599l2.32213,0l2.32228,0l0.0254,9.33612l0.0253,9.3361l0.47741,-0.72536c1.47514,-2.24177 4.11603,-3.79269 7.19779,-4.22703c1.03754,-0.1462 3.09817,-0.12427 4.1463,0.0443c4.83258,0.77706 7.53624,3.96075 8.12188,9.56366c0.0581,0.55285 0.0999,5.00742 0.10142,10.63766l0,9.68654l-2.36968,0l-2.36955,0l-0.0327,-10.28726c-0.0327,-10.26891 -0.0327,-10.28871 -0.25764,-11.12585c-0.65512,-2.44273 -2.11996,-3.86144 -4.51381,-4.37186c-1.05156,-0.22418 -3.16018,-0.2303 -4.15226,-0.0115c-2.75331,0.6058 -4.78382,2.23667 -5.73637,4.60752c-0.61845,1.53934 -0.59638,1.1375 -0.63783,11.60312l-0.0372,9.58641l-2.31706,0l-2.31723,0l0,-21.82598l0.00142,-0.0006zm65.23849,7.05839l0,-14.76758l2.37312,0l2.37327,0l0,2.27691l0,2.27684l0.42567,-0.64584c1.8723,-2.84078 5.13986,-4.41114 9.1682,-4.40611c5.25677,0.008 8.52415,2.32155 9.84243,6.97335c0.54912,1.93731 0.55941,2.17585 0.55941,13.03591l0,10.02411l-2.32274,0l-2.32273,0l0,-9.40061c0,-9.70303 -0.0388,-10.8493 -0.41299,-12.2206c-0.40792,-1.49479 -1.32693,-2.79199 -2.4332,-3.43473c-1.23138,-0.71542 -3.41381,-1.0868 -5.15805,-0.87778c-1.3192,0.1581 -2.01246,0.35153 -3.05404,0.85218c-2.02722,0.97447 -3.3801,2.602 -4.01688,4.83254c-0.21991,0.77087 -0.22155,0.83788 -0.25152,10.5124l-0.0298,9.7366l-2.36983,0l-2.36985,0l0,-14.76759l-0.00047,0zm79.3314,14.5442c0.0388,-0.12492 3.17764,-9.18502 6.97551,-20.13355c3.79786,-10.94854 6.90529,-19.9261 6.90529,-19.95013c0,-0.0241 1.48212,-0.0318 3.29361,-0.0173l3.29378,0.0265l6.85474,20.0739c3.76998,11.04064 6.85502,20.10852 6.85562,20.15076c0,0.0423 -1.09822,0.0649 -2.44155,0.0501l-2.44245,-0.0268l-1.9758,-5.78086l-1.97578,-5.78087l-8.42411,0.0241l-8.42409,0.0241l-1.93567,5.75686l-1.93554,5.75685l-2.34703,0.0271l-2.34688,0.027l0.0701,-0.2271l0.00025,-0.00066zm23.96176,-15.42979c-0.088,-0.36069 -6.98906,-20.58487 -7.01575,-20.55845c-0.0477,0.0473 -7.00383,20.51785 -7.00383,20.61088c0,0.0452 3.16183,0.0824 7.02619,0.0824c5.83598,0 7.02051,-0.0228 6.99339,-0.13465l0,-0.00018zm15.26703,-6.1728l0,-21.82599l2.37329,0l2.37326,0l0,21.82599l0,21.82598l-2.37326,0l-2.37329,0l0,-21.82598zm-237.82757,6.3083l0,-2.20343l6.11181,0l6.1118,0l-0.0268,2.1776l-0.0268,2.17759l-6.08452,0.0258l-6.08467,0.0258l0,-2.20339l-0.00082,0.00003zm182.65426,2.13508c-0.0372,-0.0366 -0.0672,-1.02787 -0.0672,-2.20263l0,-2.13588l6.1097,0l6.10988,0l0,2.20263l0,2.20263l-6.04248,0c-3.32344,0 -6.07273,-0.03 -6.10985,-0.0668l-0.00005,0.00005zm-89.01327,-25.30909l3.05538,-4.05044l2.17378,-0.006l2.1738,-0.006l2.97666,3.97062c1.63704,2.18386 2.99169,4.00852 3.0102,4.05482c0.0179,0.0462 -0.74563,0.0843 -1.69819,0.0843l-1.73187,0l-2.13933,-1.86929c-1.17666,-1.02809 -2.2564,-1.9752 -2.39967,-2.10468l-0.26032,-0.23543l-2.40548,2.10468l-2.40563,2.10472l-1.70221,0l-1.70234,0l3.05522,-4.05044l0,0.00314zm-110.30399,-13.27358c-10.36171,-0.79673 -16.46083,-5.5505 -17.75453,-13.83804l-0.0896,-0.57568l5.78766,0l5.78767,0l0.10729,0.4255c0.61562,2.43647 2.23687,4.18058 4.624,4.97427c2.82458,0.93914 6.95134,0.85798 9.69422,-0.19067c2.31871,-0.88649 4.07712,-2.7567 4.91309,-5.22515c0.49618,-1.46573 0.57267,-2.38018 0.54166,-6.47701l-0.0283,-3.73978l-0.6007,0.88637c-0.34904,0.5152 -1.08914,1.37051 -1.76721,2.04247c-3.50118,3.46944 -8.07998,5.03898 -13.1125,4.4947c-7.68503,-0.83111 -13.43708,-5.86653 -15.48068,-13.55203c-0.55302,-2.08005 -0.73103,-3.62756 -0.73788,-6.41581c0,-2.64562 0.073,-3.52316 0.51081,-5.60667c1.61242,-7.68228 7.08372,-13.32445 14.32609,-14.77322c1.37749,-0.27555 4.58254,-0.38119 6.08616,-0.20056c4.75087,0.57068 8.13515,2.68351 10.6942,6.67643c0.0939,0.14767 0.12225,-0.4577 0.12676,-2.84091l0,-3.02861l5.80915,0l5.80912,0l-0.0298,20.39929c-0.0283,19.03433 -0.0432,20.46965 -0.21067,21.45055c-0.36348,2.12077 -0.98432,4.1259 -1.73948,5.61765c-1.01292,2.00108 -2.95518,4.25591 -4.75996,5.52621c-2.90197,2.04244 -6.50436,3.2982 -10.98746,3.83021c-1.56325,0.18549 -5.88801,0.26627 -7.52356,0.14057l0.00445,-0.00008zm6.48423,-26.16023c5.1503,-1.33509 7.96086,-6.12729 7.45811,-12.71626c-0.18441,-2.4168 -0.66688,-4.1453 -1.62793,-5.83281c-0.61176,-1.07421 -2.08284,-2.53581 -3.15261,-3.13243c-3.72525,-2.07762 -8.97528,-1.63315 -11.92927,1.00999c-2.4693,2.20938 -3.62045,5.58133 -3.46226,10.14149c0.0834,2.42706 0.44788,3.9964 1.33454,5.75686c1.29861,2.57868 3.53621,4.29564 6.40999,4.91862c1.26654,0.27455 3.61434,0.20582 4.96943,-0.14544l0,-0.00002zm-177.45758,11.63497c-5.73821,-0.6482 -9.60079,-3.44316 -11.05186,-7.9971c-0.51945,-1.63021 -0.72955,-3.72551 -0.55739,-5.55936c0.53545,-5.70441 4.26948,-9.35013 11.33079,-11.06282c3.11327,-0.75512 5.56169,-0.99268 11.02346,-1.06953l4.23127,-0.0595l-0.0645,-1.8627c-0.0663,-1.91132 -0.19925,-2.81972 -0.56524,-3.85704c-0.59934,-1.69864 -1.80912,-2.76744 -3.71107,-3.27866c-1.1535,-0.31003 -3.87284,-0.31139 -5.01049,-0.002c-2.38124,0.64655 -3.94185,2.26038 -4.47222,4.62474c-0.0925,0.413 -0.18401,0.80723 -0.20299,0.87605c-0.027,0.0982 -1.22133,0.12517 -5.53967,0.12517l-5.50508,0l0.0579,-0.47556c0.41873,-3.44305 1.42076,-5.89619 3.31771,-8.12221c2.35144,-2.75939 6.16808,-4.61369 11.06191,-5.37433c1.61429,-0.25093 6.21472,-0.31293 7.9988,-0.10794c7.52086,0.86459 11.97103,4.24276 13.50341,10.25057c0.57046,2.23657 0.55055,1.64384 0.58826,17.52066l0.0348,14.64244l-5.71025,0l-5.71022,0l-0.002,-2.42789l-0.002,-2.42788l-0.31591,0.40047c-0.63966,0.81084 -2.37658,2.4253 -3.1614,2.93846c-1.93787,1.26712 -4.16555,2.02001 -6.83799,2.31111c-1.12871,0.12299 -3.61707,0.12044 -4.72519,-0.006l-0.00284,0.00085zm7.14889,-8.00446c1.32796,-0.14412 2.43018,-0.4327 3.43907,-0.90041c1.70517,-0.79045 2.85518,-1.83977 3.55994,-3.24821c0.66262,-1.32425 0.71699,-1.62607 0.77099,-4.28008l0.0484,-2.37784l-3.32556,0c-1.82908,0 -3.82201,0.0489 -4.42876,0.10885c-4.02601,0.39718 -6.28595,1.58556 -7.13792,3.75351c-0.27887,0.70958 -0.39448,1.89313 -0.27274,2.79153c0.41753,3.08106 3.12419,4.61101 7.34661,4.15269l-0.00003,-0.00004zm116.00638,8.01055c-7.80194,-0.79166 -13.75926,-4.57438 -16.86294,-10.70744c-0.97447,-1.92574 -1.57115,-3.77495 -1.98697,-6.15734c-0.26599,-1.52475 -0.37572,-5.87746 -0.19144,-7.5939c1.09464,-10.19 8.15781,-17.41468 18.31438,-18.73293c1.57114,-0.20392 4.8263,-0.20432 6.40238,-0.00093c9.48296,1.22457 15.51438,7.11603 16.94374,16.55068c0.2065,1.36326 0.35501,3.82652 0.35545,5.89734l0,1.72704l-15.14837,0l-15.14822,0l0,0.49067c0,0.77627 0.37543,2.74939 0.71355,3.74997c1.39672,4.13363 4.56974,6.45418 9.08369,6.64308c2.30111,0.0964 4.16391,-0.2266 5.75502,-0.99768c0.68896,-0.33386 1.02787,-0.5848 1.71682,-1.27138c1.02829,-1.02478 1.32425,-1.55876 1.8747,-3.38341c0.0298,-0.0982 1.22601,-0.12516 5.54227,-0.12516l5.50438,0l-0.0565,0.32538c-0.96404,5.57888 -4.22755,9.6589 -9.46685,11.83509c-1.8425,0.76528 -3.82083,1.27422 -6.26328,1.61123c-1.34557,0.18566 -5.76904,0.27281 -7.0824,0.13953l0.00059,0.00016zm11.52032,-26.90006c-0.14923,-1.63187 -0.53777,-2.98949 -1.25402,-4.38187c-0.36364,-0.70689 -0.64931,-1.08664 -1.32544,-1.76219c-1.6791,-1.67785 -3.53859,-2.34915 -6.46664,-2.33467c-2.8155,0.0132 -4.74997,0.75348 -6.52212,2.49346c-1.43056,1.40457 -2.42306,3.31312 -2.9167,5.60816c-0.0954,0.44052 -0.19429,0.87981 -0.22097,0.97616c-0.0461,0.16596 0.44834,0.17522 9.36398,0.17522l9.41259,0l-0.07068,-0.77427zm112.89734,26.90363c-4.04401,-0.44566 -7.41697,-1.57928 -10.35128,-3.47893c-4.99716,-3.23521 -8.10071,-8.23381 -8.94697,-14.4103c-0.21275,-1.55192 -0.24466,-5.40464 -0.0567,-6.83846c0.41582,-3.17412 1.3979,-6.16784 2.77537,-8.46006c3.21551,-5.35071 8.28382,-8.69415 14.96395,-9.87138c1.53,-0.26962 5.31639,-0.37599 7.03915,-0.19774c6.08499,0.62958 11.24392,3.24567 14.72303,7.466c2.36104,2.86395 3.87911,6.49465 4.45848,10.6627c0.2062,1.48353 0.17652,5.56037 -0.0521,7.15312c-1.38881,9.67833 -8.13187,16.3053 -18.1401,17.82799c-1.24551,0.1895 -5.20396,0.28027 -6.4128,0.14709l-0.00003,-0.00003zm4.83466,-8.87075c4.31731,-0.81075 6.97594,-3.93747 7.90674,-9.29913c0.24451,-1.40814 0.24347,-5.48325 0,-6.90823c-0.55404,-3.21984 -1.61483,-5.42047 -3.43721,-7.13059c-1.7842,-1.67441 -4.30553,-2.52844 -7.08062,-2.39833c-6.33081,0.29681 -9.84674,4.89442 -9.84629,12.87527c0,5.39115 1.54299,9.28729 4.50755,11.3845c2.07137,1.46542 5.05771,2.01994 7.95161,1.47651l-0.00178,0zm-306.9413,-20.41239l0,-28.4839l6.51373,0l6.51377,0l0,23.42789l0,23.4279l11.66414,0l11.66417,0l0,5.05602l0,5.05602l-18.1779,0l-18.17791,0l0,-28.48393zm108.3605,0l0,-28.4839l10.73002,0.00092c6.13969,0.00092 11.46446,0.045 12.44681,0.10369c7.23565,0.43299 12.48808,2.48409 15.8142,6.17555c1.95925,2.17435 3.19778,5.05963 3.62077,8.43467c0.15639,1.24805 0.1297,4.47199 -0.0477,5.7088c-0.82986,5.78956 -4.45298,9.91707 -10.55047,12.01948c-0.52764,0.18195 -0.97508,0.34221 -0.99415,0.35613c-0.0194,0.0132 3.35521,5.43023 7.49838,12.03625c4.1433,6.60602 7.53311,12.03826 7.53311,12.07163c0,0.0335 -3.10162,0.0594 -6.89246,0.058l-6.89246,-0.002l-6.82715,-10.93535l-6.8272,-10.93537l-2.84241,-0.0266l-2.84245,-0.0266l0,10.9646l0,10.96462l-6.46325,0l-6.46327,0l0,-28.48392l-0.00032,-0.0006zm23.6818,-2.54417c3.93936,-0.86973 5.93229,-3.0302 6.32336,-6.85503c0.0925,-0.90697 0.0939,-1.46209 0,-2.36315c-0.20976,-2.126 -0.78706,-3.46625 -1.9728,-4.58021c-0.799,-0.75065 -1.54625,-1.18501 -2.69771,-1.56803c-1.6108,-0.5359 -2.2686,-0.59137 -7.54038,-0.6357l-4.8727,-0.041l0,8.17491l0,8.17489l4.8727,-0.0418c4.58132,-0.0394 4.93304,-0.055 5.88262,-0.26483l0.00491,-0.00005zm130.12347,10.20332l0,-20.82481l5.8069,0l5.80675,0l0,20.82481l0,20.82478l-5.80675,0l-5.8069,0l0,-20.82478zm73.62054,0l0,-20.82481l5.8069,0l5.80676,0l0,3.27731l0,3.27733l0.40284,-0.6835c1.96221,-3.32899 5.25124,-5.55314 9.59508,-6.48866c0.94853,-0.20429 1.33171,-0.22836 3.6355,-0.22835c2.79431,0.00002 3.49446,0.0919 5.32041,0.69799c5.00761,1.66242 8.04524,6.00331 8.7108,12.44812c0.0701,0.67798 0.1073,5.93651 0.1073,15.19309l0,14.15626l-5.80692,0l-5.80674,0l0,-12.86926c0,-8.46788 -0.0372,-13.19753 -0.10731,-13.82909c-0.45205,-4.01909 -2.47958,-6.10835 -6.24567,-6.43598c-1.99964,-0.17397 -3.65786,0.10537 -5.31385,0.89551c-2.17826,1.03914 -3.60062,2.91568 -4.24992,5.60711c-0.16847,0.69822 -0.18354,1.65889 -0.21394,13.69131l-0.0327,12.9404l-5.80392,0l-5.80392,0l0,-20.82478l-0.0007,0zm-160.52517,-26.60666c0.0372,-0.0963 1.07378,-2.95727 2.30321,-6.35757l2.23505,-6.18235l6.09824,0c3.36951,0 6.08302,0.0386 6.06438,0.0861c-0.0179,0.0474 -1.89691,2.90816 -4.17417,6.35719l-4.14049,6.27094l-4.22711,0c-3.98438,0 -4.22322,-0.0101 -4.15911,-0.17484l0,0.00053zm91.66684,0.0715c-1.86875,-0.25218 -3.54366,-1.26203 -4.53827,-2.73645c-0.72146,-1.0694 -0.94406,-1.77235 -1.00295,-3.16701c-0.085,-2.02807 0.41359,-3.34687 1.78451,-4.71506c1.36614,-1.3634 2.98545,-1.95513 5.10436,-1.8652c2.51999,0.10694 4.58881,1.36413 5.60355,3.40508c1.23882,2.49161 0.81137,5.26603 -1.10778,7.19039c-1.17113,1.17439 -2.60705,1.80197 -4.39483,1.92091c-0.44431,0.0295 -1.09629,0.0148 -1.44859,-0.0327l0,0.00004z" fill="#ffffff"/>
    </g>
   </g>
  </g>
 </g>
</svg>