<svg width="320" height="100" xmlns="http://www.w3.org/2000/svg">
 <metadata id="metadata40432">image/svg+xml</metadata>

 <g>
  <title>background</title>
  <rect fill="none" id="canvas_background" height="102" width="322" y="-1" x="-1"/>
 </g>
 <g>
  <title>Layer 1</title>
  <metadata id="svg_29">image/svg+xml</metadata>
  <g stroke="null" id="svg_31">
   <g stroke="null" id="svg_17" transform="matrix(0.4786723506837743,0,0,-0.4786723506837743,-64982.38484220591,-20164.691008190217) ">
    <g stroke="null" id="svg_18" transform="translate(0,-42379.46875) scale(0.10000000149011612) ">
     <path fill="none" fill-rule="nonzero" d="m1356687.5977,14.64049l8418.9,0l0,2945.2l-8418.9,0l0,-2945.2" id="svg_28"/>
     <path fill="#cccccc" fill-rule="nonzero" d="m1361062.7277,1403.18049l165.28,0l-45.86,210.51l-119.42,-210.51zm224.44,-287.88l-29.46,115.19l-284.17,0l-76.84,-115.19l-222.07,0l447.64,748.44l199.97,0l179.62,-748.44l-214.69,0" id="svg_27"/>
     <path fill="#cccccc" fill-rule="nonzero" d="m1360298.3577,1518.32049l57.74,172.74l111.53,0c43.19,0 72.13,-12.93 88.1,-29.75c13.02,-12.64 18.49,-30.13 17.49,-50.13c-1.38,-25.28 -11.93,-41.16 -29.66,-58.02c-26.61,-25.24 -72.61,-34.84 -128.35,-34.84l-116.85,0zm126.26,-403.01l225.2,0l-101.69,252.33c75.79,21.05 123.69,53.6 156.91,85.15c49.8,46.29 75.13,109.39 78.83,178.82c3.05,58.93 -12.07,115.05 -48.94,153.97c-46.86,49.46 -126.55,78.17 -248.63,78.17l-277.85,0l-237.5,-748.44l205.24,0l71.66,230.28l73.65,0l16.92,0l86.2,-230.28" id="svg_26"/>
     <path fill="#cccccc" fill-rule="nonzero" d="m1362743.8777,1115.32049l204.19,0l236.46,748.44l-204.19,0l-236.46,-748.44" id="svg_25"/>
     <path fill="#cccccc" fill-rule="nonzero" d="m1362204.0377,1827.50049c-47.33,29.09 -116.19,47.19 -186.81,47.19c-136.85,0 -253.28,-53.65 -335.25,-131.58c-90.81,-86.3 -143.13,-199.97 -148.93,-311.5c-10.36,-197.87 128.35,-323.13 331.41,-323.13c139.99,0 239.83,56.88 315.63,137.85l-131.49,122.13c-49.8,-47.38 -97.56,-74.75 -161.76,-74.75c-85.25,0 -144.32,57.93 -139.42,151.59c3.65,69.43 35.44,134.72 83.16,181c40.96,38.97 100.88,65.63 157.71,65.63c44.82,0 95.47,-1.48 154.78,-43.39l60.97,178.96" id="svg_24"/>
     <path fill="#cccccc" fill-rule="nonzero" d="m1363288.6677,1115.32049l189.36,0l534.61,748.44l-229.38,0l-314.78,-463.08l-16.77,463.08l-222.06,0l59.02,-748.44" id="svg_23"/>
     <path fill="#cccccc" fill-rule="nonzero" d="m1362258.4277,1115.32049l204.14,0l178.68,575.7l221.06,0l56.74,172.74l-645.18,0l-56.79,-172.74l220.02,0l-178.67,-575.7" id="svg_22"/>
     <path fill="#cccccc" fill-rule="nonzero" d="m1359535.3577,1109.53049c113.66,0 207.8,29.46 276.51,94.7c54.27,51.61 94.81,125.08 126.27,221.88l139.61,437.66l-206.33,0l-129.64,-407.11c-18.82,-58.97 -40.72,-96.75 -68.47,-123.03c-27.61,-25.28 -62.02,-39.44 -101.98,-39.44c-73.71,0 -112.58,40.77 -109.11,107.11c1.24,24.19 6.65,48.14 14.16,71.23l124.6,391.24l-206.33,0l-119.56,-376.6c-13.69,-39.97 -21.1,-81.97 -23.05,-118.8c-8.46,-162.09 94.95,-258.84 283.32,-258.84" id="svg_21"/>
     <path fill="#cccccc" fill-rule="nonzero" d="m1358471.5677,1115.32049l595.71,0l55.41,172.73l-393.66,0l37.78,115.15l351.51,0l51.56,172.68l-351.6,0l36.49,115.14l387.29,0l56.41,172.74l-589.44,0l-237.46,-748.44" id="svg_20"/>
     <path fill="#cccccc" fill-rule="nonzero" d="m1358492.5677,2209.18049l-110.53,-345.43l-600.56,0l485.85,-357.73l-125.45,-390.71l149.54,0l143.23,429.87l-214.56,145.84l265.17,0l156.91,518.16l-149.6,0" id="svg_19"/>
    </g>
   </g>
  </g>
 </g>
</svg>